M48
; DRILL file {KiCad 9.0.4} date 2025-10-29T20:45:12+0100
; FORMAT={-:-/ absolute / metric / decimal}
; #@! TF.CreationDate,2025-10-29T20:45:12+01:00
; #@! TF.GenerationSoftware,Kicad,Pcbnew,9.0.4
; #@! TF.FileFunction,Plated,1,2,PTH
FMAT,2
METRIC
; #@! TA.AperFunction,Plated,PTH,ViaDrill
T1C0.300
; #@! TA.AperFunction,Plated,PTH,ComponentDrill
T2C0.500
; #@! TA.AperFunction,Plated,PTH,ComponentDrill
T3C0.760
; #@! TA.AperFunction,Plated,PTH,ComponentDrill
T4C0.800
; #@! TA.AperFunction,Plated,PTH,ComponentDrill
T5C1.000
; #@! TA.AperFunction,Plated,PTH,ComponentDrill
T6C1.020
; #@! TA.AperFunction,Plated,PTH,ComponentDrill
T7C1.100
; #@! TA.AperFunction,Plated,PTH,ComponentDrill
T8C1.200
; #@! TA.AperFunction,Plated,PTH,ComponentDrill
T9C1.300
; #@! TA.AperFunction,Plated,PTH,ComponentDrill
T10C3.200
%
G90
G05
T1
X176.0Y-77.5
X176.0Y-80.5
X177.0Y-80.5
X209.0Y-67.5
X209.0Y-68.75
X209.5Y-85.628
X210.5Y-121.5
X211.05Y-67.425
X211.05Y-68.695
X211.05Y-77.127
X211.05Y-78.397
X211.075Y-63.0
X211.75Y-75.857
X214.25Y-64.9
X214.987Y-76.0
X216.25Y-67.5
T2
X170.1Y-59.5
X170.1Y-126.9
X170.803Y-57.803
X170.803Y-61.197
X170.803Y-125.203
X170.803Y-128.597
X172.5Y-57.1
X172.5Y-61.9
X172.5Y-124.5
X172.5Y-129.3
X174.197Y-57.803
X174.197Y-61.197
X174.197Y-125.203
X174.197Y-128.597
X174.9Y-59.5
X174.9Y-126.9
X227.1Y-59.5
X227.1Y-127.0
X227.803Y-57.803
X227.803Y-61.197
X227.803Y-125.303
X227.803Y-128.697
X229.5Y-57.1
X229.5Y-61.9
X229.5Y-124.6
X229.5Y-129.4
X231.197Y-57.803
X231.197Y-61.197
X231.197Y-125.303
X231.197Y-128.697
X231.9Y-59.5
X231.9Y-127.0
T3
X176.85Y-68.84
X176.85Y-71.38
X176.85Y-73.92
X176.85Y-76.46
X176.85Y-86.07
X176.85Y-88.61
X176.85Y-91.15
X176.85Y-93.69
X179.39Y-70.11
X179.39Y-72.65
X179.39Y-75.19
X179.39Y-77.73
X179.39Y-87.34
X179.39Y-89.88
X179.39Y-92.42
X179.39Y-94.96
T4
X203.23Y-75.422
X203.23Y-86.0
X203.25Y-91.25
X205.73Y-75.422
X205.73Y-86.0
X205.75Y-91.25
X210.92Y-95.0
X213.46Y-95.0
X216.0Y-95.0
X221.0Y-68.0
X221.0Y-70.5
X221.0Y-76.5
X221.0Y-79.0
X221.0Y-84.75
X221.0Y-87.25
T5
X228.0Y-92.0
X228.0Y-94.54
X228.0Y-104.0
X228.0Y-106.54
X232.645Y-104.0
X232.645Y-106.54
X233.0Y-92.0
X233.0Y-94.54
T6
X177.98Y-102.072
X177.98Y-127.472
X180.52Y-102.072
X180.52Y-127.472
X183.06Y-102.072
X183.06Y-127.472
X185.6Y-102.072
X185.6Y-127.472
X188.14Y-102.072
X188.14Y-127.472
X190.68Y-102.072
X190.68Y-127.472
X193.22Y-102.072
X193.22Y-127.472
X195.76Y-102.072
X195.76Y-127.472
X198.3Y-102.072
X198.3Y-127.472
X200.84Y-102.072
X200.84Y-127.472
X203.38Y-102.072
X203.38Y-127.472
X205.92Y-102.072
X205.92Y-127.472
X208.46Y-102.072
X208.46Y-127.472
X211.0Y-102.072
X211.0Y-127.472
X213.54Y-102.072
X213.54Y-127.472
X216.08Y-102.072
X216.08Y-127.472
X218.62Y-102.072
X218.62Y-127.472
X221.16Y-102.072
X221.16Y-127.472
X223.7Y-102.072
X223.7Y-127.472
T7
X189.42Y-71.5
X191.96Y-71.5
X194.5Y-71.5
T8
X204.46Y-58.1
X207.0Y-58.1
X230.25Y-81.0
X230.25Y-83.54
T9
X181.0Y-59.0
X186.0Y-59.0
X193.5Y-59.0
X198.5Y-59.0
X230.0Y-70.0
X230.0Y-75.0
T10
X172.5Y-59.5
X172.5Y-126.9
X229.5Y-59.5
X229.5Y-127.0
M30
