%TF.GenerationSoftware,KiCad,Pcbnew,9.0.4*%
%TF.CreationDate,2025-10-29T20:45:07+01:00*%
%TF.ProjectId,Modu__Zaworu,4d6f6475-425f-45a6-9177-6f72752e6b69,rev?*%
%TF.SameCoordinates,Original*%
%TF.FileFunction,Copper,L2,Bot*%
%TF.FilePolarity,Positive*%
%FSLAX46Y46*%
G04 Gerber Fmt 4.6, Leading zero omitted, Abs format (unit mm)*
G04 Created by KiCad (PCBNEW 9.0.4) date 2025-10-29 20:45:07*
%MOMM*%
%LPD*%
G01*
G04 APERTURE LIST*
G04 Aperture macros list*
%AMRoundRect*
0 Rectangle with rounded corners*
0 $1 Rounding radius*
0 $2 $3 $4 $5 $6 $7 $8 $9 X,Y pos of 4 corners*
0 Add a 4 corners polygon primitive as box body*
4,1,4,$2,$3,$4,$5,$6,$7,$8,$9,$2,$3,0*
0 Add four circle primitives for the rounded corners*
1,1,$1+$1,$2,$3*
1,1,$1+$1,$4,$5*
1,1,$1+$1,$6,$7*
1,1,$1+$1,$8,$9*
0 Add four rect primitives between the rounded corners*
20,1,$1+$1,$2,$3,$4,$5,0*
20,1,$1+$1,$4,$5,$6,$7,0*
20,1,$1+$1,$6,$7,$8,$9,0*
20,1,$1+$1,$8,$9,$2,$3,0*%
G04 Aperture macros list end*
%TA.AperFunction,ComponentPad*%
%ADD10R,1.700000X1.700000*%
%TD*%
%TA.AperFunction,ComponentPad*%
%ADD11C,1.700000*%
%TD*%
%TA.AperFunction,ComponentPad*%
%ADD12RoundRect,0.250001X-1.149999X-1.149999X1.149999X-1.149999X1.149999X1.149999X-1.149999X1.149999X0*%
%TD*%
%TA.AperFunction,ComponentPad*%
%ADD13C,2.800000*%
%TD*%
%TA.AperFunction,ComponentPad*%
%ADD14R,1.905000X2.000000*%
%TD*%
%TA.AperFunction,ComponentPad*%
%ADD15O,1.905000X2.000000*%
%TD*%
%TA.AperFunction,ComponentPad*%
%ADD16C,0.800000*%
%TD*%
%TA.AperFunction,ComponentPad*%
%ADD17C,6.400000*%
%TD*%
%TA.AperFunction,ComponentPad*%
%ADD18C,1.600000*%
%TD*%
%TA.AperFunction,ComponentPad*%
%ADD19R,1.530000X1.530000*%
%TD*%
%TA.AperFunction,ComponentPad*%
%ADD20C,1.530000*%
%TD*%
%TA.AperFunction,ComponentPad*%
%ADD21RoundRect,0.250000X0.750000X-0.750000X0.750000X0.750000X-0.750000X0.750000X-0.750000X-0.750000X0*%
%TD*%
%TA.AperFunction,ComponentPad*%
%ADD22C,2.000000*%
%TD*%
%TA.AperFunction,ComponentPad*%
%ADD23R,1.500000X1.500000*%
%TD*%
%TA.AperFunction,ComponentPad*%
%ADD24C,1.500000*%
%TD*%
%TA.AperFunction,ComponentPad*%
%ADD25RoundRect,0.250000X-0.470000X0.470000X-0.470000X-0.470000X0.470000X-0.470000X0.470000X0.470000X0*%
%TD*%
%TA.AperFunction,ComponentPad*%
%ADD26C,1.440000*%
%TD*%
%TA.AperFunction,ComponentPad*%
%ADD27RoundRect,0.250000X-0.750000X-0.750000X0.750000X-0.750000X0.750000X0.750000X-0.750000X0.750000X0*%
%TD*%
%TA.AperFunction,ComponentPad*%
%ADD28RoundRect,0.250001X-1.149999X1.149999X-1.149999X-1.149999X1.149999X-1.149999X1.149999X1.149999X0*%
%TD*%
%TA.AperFunction,SMDPad,CuDef*%
%ADD29RoundRect,0.250000X-0.312500X-0.625000X0.312500X-0.625000X0.312500X0.625000X-0.312500X0.625000X0*%
%TD*%
%TA.AperFunction,SMDPad,CuDef*%
%ADD30RoundRect,0.250000X0.312500X0.625000X-0.312500X0.625000X-0.312500X-0.625000X0.312500X-0.625000X0*%
%TD*%
%TA.AperFunction,ViaPad*%
%ADD31C,0.600000*%
%TD*%
%TA.AperFunction,Conductor*%
%ADD32C,0.254000*%
%TD*%
%TA.AperFunction,Conductor*%
%ADD33C,0.635000*%
%TD*%
G04 APERTURE END LIST*
D10*
%TO.P,J9,1,Pin_1*%
%TO.N,Net-(J11-Pin_1)*%
X233000000Y-94540000D03*
D11*
%TO.P,J9,2,Pin_2*%
%TO.N,Vref*%
X233000000Y-92000000D03*
%TD*%
D12*
%TO.P,J1,1,Pin_1*%
%TO.N,VBUS*%
X181000000Y-59000000D03*
D13*
%TO.P,J1,2,Pin_2*%
%TO.N,GND*%
X186000000Y-59000000D03*
%TD*%
D14*
%TO.P,U3,1,IN*%
%TO.N,VL*%
X194500000Y-71500000D03*
D15*
%TO.P,U3,2,GND*%
%TO.N,GND*%
X191960000Y-71500000D03*
%TO.P,U3,3,OUT*%
%TO.N,Net-(D1-A)*%
X189420000Y-71500000D03*
%TD*%
D10*
%TO.P,J8,1,Pin_1*%
%TO.N,V_pot*%
X228000000Y-92000000D03*
D11*
%TO.P,J8,2,Pin_2*%
%TO.N,Net-(J10-Pin_2)*%
X228000000Y-94540000D03*
%TD*%
D10*
%TO.P,J10,1,Pin_1*%
%TO.N,Vref*%
X228000000Y-106540000D03*
D11*
%TO.P,J10,2,Pin_2*%
%TO.N,Net-(J10-Pin_2)*%
X228000000Y-104000000D03*
%TD*%
D16*
%TO.P,REF\u002A\u002A,1*%
%TO.N,N/C*%
X170100000Y-59500000D03*
X170802944Y-57802944D03*
X170802944Y-61197056D03*
X172500000Y-57100000D03*
D17*
X172500000Y-59500000D03*
D16*
X172500000Y-61900000D03*
X174197056Y-57802944D03*
X174197056Y-61197056D03*
X174900000Y-59500000D03*
%TD*%
D18*
%TO.P,C2,1*%
%TO.N,Net-(U2-IN+)*%
X221000000Y-70500000D03*
%TO.P,C2,2*%
%TO.N,Net-(U2-IN-)*%
X221000000Y-68000000D03*
%TD*%
D19*
%TO.P,U6,1,3V3*%
%TO.N,+3.3V*%
X223700000Y-102072500D03*
D20*
%TO.P,U6,2,EN*%
%TO.N,unconnected-(U6-EN-Pad2)*%
X221160000Y-102072500D03*
%TO.P,U6,3,SENSOR_VP*%
%TO.N,unconnected-(U6-SENSOR_VP-Pad3)*%
X218620000Y-102072500D03*
%TO.P,U6,4,SENSOR_VN*%
%TO.N,unconnected-(U6-SENSOR_VN-Pad4)*%
X216080000Y-102072500D03*
%TO.P,U6,5,IO34*%
%TO.N,unconnected-(U6-IO34-Pad5)*%
X213540000Y-102072500D03*
%TO.P,U6,6,IO35*%
%TO.N,unconnected-(U6-IO35-Pad6)*%
X211000000Y-102072500D03*
%TO.P,U6,7,IO32*%
%TO.N,unconnected-(U6-IO32-Pad7)*%
X208460000Y-102072500D03*
%TO.P,U6,8,IO33*%
%TO.N,/SEN0193_WYJ\u015ACIE*%
X205920000Y-102072500D03*
%TO.P,U6,9,IO25*%
%TO.N,/Czujnik ci\u015Bnienia output*%
X203380000Y-102072500D03*
%TO.P,U6,10,IO26*%
%TO.N,SDA*%
X200840000Y-102072500D03*
%TO.P,U6,11,IO27*%
%TO.N,SCL*%
X198300000Y-102072500D03*
%TO.P,U6,12,IO14*%
%TO.N,Net-(J3-Pin_1)*%
X195760000Y-102072500D03*
%TO.P,U6,13,IO12*%
%TO.N,unconnected-(U6-IO12-Pad13)*%
X193220000Y-102072500D03*
%TO.P,U6,14,GND1*%
%TO.N,GND*%
X190680000Y-102072500D03*
%TO.P,U6,15,IO13*%
%TO.N,unconnected-(U6-IO13-Pad15)*%
X188140000Y-102072500D03*
%TO.P,U6,16,SD2*%
%TO.N,unconnected-(U6-SD2-Pad16)*%
X185600000Y-102072500D03*
%TO.P,U6,17,SD3*%
%TO.N,unconnected-(U6-SD3-Pad17)*%
X183060000Y-102072500D03*
%TO.P,U6,18,CMD*%
%TO.N,unconnected-(U6-CMD-Pad18)*%
X180520000Y-102072500D03*
%TO.P,U6,19,EXT_5V*%
%TO.N,+5V*%
X177980000Y-102072500D03*
%TO.P,U6,20,CLK*%
%TO.N,unconnected-(U6-CLK-Pad20)*%
X177980000Y-127472500D03*
%TO.P,U6,21,SD0*%
%TO.N,unconnected-(U6-SD0-Pad21)*%
X180520000Y-127472500D03*
%TO.P,U6,22,SD1*%
%TO.N,unconnected-(U6-SD1-Pad22)*%
X183060000Y-127472500D03*
%TO.P,U6,23,IO15*%
%TO.N,unconnected-(U6-IO15-Pad23)*%
X185600000Y-127472500D03*
%TO.P,U6,24,IO2*%
%TO.N,unconnected-(U6-IO2-Pad24)*%
X188140000Y-127472500D03*
%TO.P,U6,25,IO0*%
%TO.N,unconnected-(U6-IO0-Pad25)*%
X190680000Y-127472500D03*
%TO.P,U6,26,IO4*%
%TO.N,unconnected-(U6-IO4-Pad26)*%
X193220000Y-127472500D03*
%TO.P,U6,27,IO16*%
%TO.N,SEN193_POWER*%
X195760000Y-127472500D03*
%TO.P,U6,28,IO17*%
%TO.N,BH1750(1)_POWER*%
X198300000Y-127472500D03*
%TO.P,U6,29,IO5*%
%TO.N,BH1750(2)_POWER*%
X200840000Y-127472500D03*
%TO.P,U6,30,IO18*%
%TO.N,czujnik_cisnienia_POWER*%
X203380000Y-127472500D03*
%TO.P,U6,31,IO19*%
%TO.N,unconnected-(U6-IO19-Pad31)*%
X205920000Y-127472500D03*
%TO.P,U6,32,GND2*%
%TO.N,GND*%
X208460000Y-127472500D03*
%TO.P,U6,33,IO21*%
%TO.N,unconnected-(U6-IO21-Pad33)*%
X211000000Y-127472500D03*
%TO.P,U6,34,RXD0*%
%TO.N,unconnected-(U6-RXD0-Pad34)*%
X213540000Y-127472500D03*
%TO.P,U6,35,TXD0*%
%TO.N,unconnected-(U6-TXD0-Pad35)*%
X216080000Y-127472500D03*
%TO.P,U6,36,IO22*%
%TO.N,unconnected-(U6-IO22-Pad36)*%
X218620000Y-127472500D03*
%TO.P,U6,37,IO23*%
%TO.N,unconnected-(U6-IO23-Pad37)*%
X221160000Y-127472500D03*
%TO.P,U6,38,GND3*%
%TO.N,GND*%
X223700000Y-127472500D03*
%TD*%
D21*
%TO.P,J5,1,Pin_1*%
%TO.N,Net-(D3-K)*%
X230250000Y-83540000D03*
D22*
%TO.P,J5,2,Pin_2*%
X230250000Y-81000000D03*
%TD*%
D18*
%TO.P,C3,1*%
%TO.N,Net-(D1-A)*%
X205730000Y-75422000D03*
%TO.P,C3,2*%
%TO.N,GND*%
X203230000Y-75422000D03*
%TD*%
D23*
%TO.P,J7,1*%
%TO.N,Net-(Q3-S)*%
X176850000Y-86070000D03*
D24*
%TO.P,J7,2*%
%TO.N,SDA*%
X179390000Y-87340000D03*
%TO.P,J7,3*%
%TO.N,SCL*%
X176850000Y-88610000D03*
%TO.P,J7,4*%
%TO.N,GND*%
X179390000Y-89880000D03*
%TO.P,J7,5*%
%TO.N,Net-(Q3-S)*%
X176850000Y-91150000D03*
%TO.P,J7,6*%
%TO.N,GND*%
X179390000Y-92420000D03*
%TO.P,J7,7*%
%TO.N,Net-(J7-Pad7)*%
X176850000Y-93690000D03*
%TO.P,J7,8*%
%TO.N,Net-(Q4-S)*%
X179390000Y-94960000D03*
%TD*%
D16*
%TO.P,REF\u002A\u002A,1*%
%TO.N,N/C*%
X227100000Y-59500000D03*
X227802944Y-57802944D03*
X227802944Y-61197056D03*
X229500000Y-57100000D03*
D17*
X229500000Y-59500000D03*
D16*
X229500000Y-61900000D03*
X231197056Y-57802944D03*
X231197056Y-61197056D03*
X231900000Y-59500000D03*
%TD*%
D25*
%TO.P,RV1,1,1*%
%TO.N,PV*%
X216000000Y-95000000D03*
D26*
%TO.P,RV1,2,2*%
%TO.N,V_pot*%
X213460000Y-95000000D03*
%TO.P,RV1,3,3*%
%TO.N,GND*%
X210920000Y-95000000D03*
%TD*%
D12*
%TO.P,J2,1,Pin_1*%
%TO.N,VL*%
X193500000Y-59000000D03*
D13*
%TO.P,J2,2,Pin_2*%
%TO.N,GND*%
X198500000Y-59000000D03*
%TD*%
D18*
%TO.P,C6,1*%
%TO.N,Vref*%
X221000000Y-84750000D03*
%TO.P,C6,2*%
%TO.N,GND*%
X221000000Y-87250000D03*
%TD*%
D16*
%TO.P,REF\u002A\u002A,1*%
%TO.N,N/C*%
X170100000Y-126900000D03*
X170802944Y-125202944D03*
X170802944Y-128597056D03*
X172500000Y-124500000D03*
D17*
X172500000Y-126900000D03*
D16*
X172500000Y-129300000D03*
X174197056Y-125202944D03*
X174197056Y-128597056D03*
X174900000Y-126900000D03*
%TD*%
D27*
%TO.P,J3,1,Pin_1*%
%TO.N,Net-(J3-Pin_1)*%
X204460000Y-58100000D03*
D22*
%TO.P,J3,2,Pin_2*%
X207000000Y-58100000D03*
%TD*%
D10*
%TO.P,J11,1,Pin_1*%
%TO.N,Net-(J11-Pin_1)*%
X232645000Y-104000000D03*
D11*
%TO.P,J11,2,Pin_2*%
%TO.N,V_pot*%
X232645000Y-106540000D03*
%TD*%
D28*
%TO.P,J4,1,Pin_1*%
%TO.N,PV*%
X230000000Y-70000000D03*
D13*
%TO.P,J4,2,Pin_2*%
%TO.N,GND*%
X230000000Y-75000000D03*
%TD*%
D18*
%TO.P,C7,1*%
%TO.N,Net-(D2-A)*%
X203250000Y-91250000D03*
%TO.P,C7,2*%
%TO.N,GND*%
X205750000Y-91250000D03*
%TD*%
%TO.P,C5,1*%
%TO.N,+5V*%
X203230000Y-86000000D03*
%TO.P,C5,2*%
%TO.N,GND*%
X205730000Y-86000000D03*
%TD*%
D16*
%TO.P,REF\u002A\u002A,1*%
%TO.N,N/C*%
X227100000Y-127000000D03*
X227802944Y-125302944D03*
X227802944Y-128697056D03*
X229500000Y-124600000D03*
D17*
X229500000Y-127000000D03*
D16*
X229500000Y-129400000D03*
X231197056Y-125302944D03*
X231197056Y-128697056D03*
X231900000Y-127000000D03*
%TD*%
D18*
%TO.P,C4,1*%
%TO.N,Net-(U1-REF)*%
X221000000Y-76500000D03*
%TO.P,C4,2*%
%TO.N,GND*%
X221000000Y-79000000D03*
%TD*%
D23*
%TO.P,J6,1*%
%TO.N,Net-(Q2-S)*%
X176850000Y-68840000D03*
D24*
%TO.P,J6,2*%
%TO.N,SDA*%
X179390000Y-70110000D03*
%TO.P,J6,3*%
%TO.N,SCL*%
X176850000Y-71380000D03*
%TO.P,J6,4*%
%TO.N,GND*%
X179390000Y-72650000D03*
%TO.P,J6,5*%
%TO.N,Net-(Q2-S)*%
X176850000Y-73920000D03*
%TO.P,J6,6*%
%TO.N,/SEN0193_WYJ\u015ACIE*%
X179390000Y-75190000D03*
%TO.P,J6,7*%
%TO.N,GND*%
X176850000Y-76460000D03*
%TO.P,J6,8*%
%TO.N,Net-(Q1-S)*%
X179390000Y-77730000D03*
%TD*%
D29*
%TO.P,R9,1*%
%TO.N,/Czujnik ci\u015Bnienia output*%
X205237500Y-106618750D03*
%TO.P,R9,2*%
%TO.N,GND*%
X208162500Y-106618750D03*
%TD*%
D30*
%TO.P,R7,1*%
%TO.N,Net-(U1-REF)*%
X215000000Y-80000000D03*
%TO.P,R7,2*%
%TO.N,GND*%
X212075000Y-80000000D03*
%TD*%
D29*
%TO.P,R8,1*%
%TO.N,VL*%
X212075000Y-72000000D03*
%TO.P,R8,2*%
%TO.N,Vref*%
X215000000Y-72000000D03*
%TD*%
%TO.P,R10,1*%
%TO.N,Net-(J7-Pad7)*%
X199775000Y-106618750D03*
%TO.P,R10,2*%
%TO.N,/Czujnik ci\u015Bnienia output*%
X202700000Y-106618750D03*
%TD*%
%TO.P,R6,1*%
%TO.N,Vref*%
X212062500Y-76000000D03*
%TO.P,R6,2*%
%TO.N,Net-(U1-REF)*%
X214987500Y-76000000D03*
%TD*%
D31*
%TO.N,Net-(U2-IN+)*%
X211075000Y-63000000D03*
X216250000Y-67500000D03*
%TO.N,Vref*%
X211750000Y-75856667D03*
%TO.N,GND*%
X211050000Y-67425000D03*
X211050000Y-77126667D03*
X177000000Y-80500000D03*
X209000000Y-68750000D03*
X209500000Y-85628333D03*
X211050000Y-68695000D03*
X176000000Y-80500000D03*
X209000000Y-67500000D03*
X211050000Y-78396667D03*
X176000000Y-77500000D03*
%TO.N,Net-(U1-REF)*%
X214987500Y-76000000D03*
%TO.N,+5V*%
X210500000Y-121500000D03*
%TO.N,VL*%
X214250000Y-64900000D03*
%TD*%
D32*
%TO.N,Net-(U2-IN+)*%
X219872000Y-68233873D02*
X219138127Y-67500000D01*
X214888127Y-63250000D02*
X219872000Y-68233873D01*
X211075000Y-63000000D02*
X211325000Y-63250000D01*
X211325000Y-63250000D02*
X214888127Y-63250000D01*
X219138127Y-67500000D02*
X216250000Y-67500000D01*
X219872000Y-69372000D02*
X219872000Y-68233873D01*
X221000000Y-70500000D02*
X219872000Y-69372000D01*
%TO.N,Vref*%
X215000000Y-72000000D02*
X215000000Y-73062500D01*
X228395000Y-84750000D02*
X232072500Y-88427500D01*
X231822000Y-93178000D02*
X233000000Y-92000000D01*
X215000000Y-73062500D02*
X212062500Y-76000000D01*
X232072500Y-91000000D02*
X232072500Y-91072500D01*
X229178000Y-107718000D02*
X233132944Y-107718000D01*
X228000000Y-106540000D02*
X229178000Y-107718000D01*
X232072500Y-88427500D02*
X232072500Y-91000000D01*
X233872000Y-97768000D02*
X231822000Y-95718000D01*
X233132944Y-107718000D02*
X233872000Y-106978944D01*
X221000000Y-84750000D02*
X228395000Y-84750000D01*
X233872000Y-106978944D02*
X233872000Y-97768000D01*
X232072500Y-91072500D02*
X233000000Y-92000000D01*
X231822000Y-95718000D02*
X231822000Y-93178000D01*
%TO.N,Net-(U1-REF)*%
X214987500Y-76000000D02*
X214987500Y-79987500D01*
X214987500Y-79987500D02*
X215000000Y-80000000D01*
D33*
%TO.N,+5V*%
X177980000Y-102072500D02*
X197407500Y-121500000D01*
X197407500Y-121500000D02*
X210500000Y-121500000D01*
D32*
%TO.N,/SEN0193_WYJ\u015ACIE*%
X205920000Y-101720000D02*
X205920000Y-102072500D01*
X181250000Y-77050000D02*
X179390000Y-75190000D01*
X204597500Y-100750000D02*
X201500000Y-100750000D01*
X181250000Y-80500000D02*
X181250000Y-77050000D01*
X201500000Y-100750000D02*
X181250000Y-80500000D01*
X205920000Y-102072500D02*
X204597500Y-100750000D01*
%TO.N,SCL*%
X185610000Y-88610000D02*
X198300000Y-101300000D01*
X176850000Y-88610000D02*
X174500000Y-86260000D01*
X174500000Y-73730000D02*
X176850000Y-71380000D01*
X198300000Y-101300000D02*
X198300000Y-102072500D01*
X176850000Y-88610000D02*
X185610000Y-88610000D01*
X174500000Y-86260000D02*
X174500000Y-73730000D01*
%TO.N,SDA*%
X186107500Y-87340000D02*
X179390000Y-87340000D01*
X179390000Y-87340000D02*
X178000000Y-85950000D01*
X186107500Y-87340000D02*
X200840000Y-102072500D01*
X178000000Y-71500000D02*
X179390000Y-70110000D01*
X178000000Y-85950000D02*
X178000000Y-71500000D01*
%TO.N,/Czujnik ci\u015Bnienia output*%
X203380000Y-105938750D02*
X202700000Y-106618750D01*
X203380000Y-102072500D02*
X203380000Y-105938750D01*
X205237500Y-106618750D02*
X202700000Y-106618750D01*
%TO.N,VL*%
X212075000Y-69675000D02*
X212075000Y-72000000D01*
X214250000Y-64885856D02*
X214250000Y-64900000D01*
X214250000Y-67500000D02*
X212075000Y-69675000D01*
X214250000Y-64900000D02*
X214250000Y-67500000D01*
%TO.N,V_pot*%
X215282000Y-93178000D02*
X226822000Y-93178000D01*
X226822000Y-93178000D02*
X228000000Y-92000000D01*
X232645000Y-106540000D02*
X226822000Y-100717000D01*
X226822000Y-100717000D02*
X226822000Y-93178000D01*
X213460000Y-95000000D02*
X215282000Y-93178000D01*
%TO.N,Net-(J3-Pin_1)*%
X201000000Y-107000000D02*
X201000000Y-106081908D01*
X205618092Y-108000000D02*
X202000000Y-108000000D01*
X207000000Y-58100000D02*
X204460000Y-58100000D01*
X204600000Y-58100000D02*
X207013000Y-60513000D01*
X201000000Y-106081908D02*
X198083592Y-103165500D01*
X202000000Y-108000000D02*
X201000000Y-107000000D01*
X204460000Y-58100000D02*
X204600000Y-58100000D01*
X198083592Y-103165500D02*
X196665500Y-103165500D01*
X207013000Y-106605092D02*
X205618092Y-108000000D01*
X207013000Y-60513000D02*
X207013000Y-106605092D01*
X196665500Y-103165500D02*
X196000000Y-102500000D01*
%TO.N,Net-(J7-Pad7)*%
X176850000Y-93690000D02*
X176850000Y-94316764D01*
X188600514Y-106618750D02*
X199775000Y-106618750D01*
X184507000Y-101973764D02*
X184507000Y-102525236D01*
X176850000Y-94316764D02*
X184507000Y-101973764D01*
X184507000Y-102525236D02*
X188600514Y-106618750D01*
%TD*%
%TA.AperFunction,Conductor*%
%TO.N,GND*%
G36*
X191734417Y-102773363D02*
G01*
X191734418Y-102773363D01*
X191761924Y-102735505D01*
X191839234Y-102583777D01*
X191887208Y-102532981D01*
X191955029Y-102516186D01*
X192021164Y-102538723D01*
X192060204Y-102583777D01*
X192105924Y-102673506D01*
X192137647Y-102735766D01*
X192254731Y-102896918D01*
X192395582Y-103037769D01*
X192556734Y-103154853D01*
X192715213Y-103235602D01*
X192734219Y-103245286D01*
X192923657Y-103306838D01*
X192923658Y-103306838D01*
X192923661Y-103306839D01*
X193120403Y-103338000D01*
X193120404Y-103338000D01*
X193319596Y-103338000D01*
X193319597Y-103338000D01*
X193516339Y-103306839D01*
X193516342Y-103306838D01*
X193516343Y-103306838D01*
X193705780Y-103245286D01*
X193705780Y-103245285D01*
X193705783Y-103245285D01*
X193883266Y-103154853D01*
X194044418Y-103037769D01*
X194185269Y-102896918D01*
X194302353Y-102735766D01*
X194379515Y-102584327D01*
X194427490Y-102533531D01*
X194495311Y-102516736D01*
X194561446Y-102539273D01*
X194600485Y-102584327D01*
X194636957Y-102655908D01*
X194677647Y-102735766D01*
X194794731Y-102896918D01*
X194935582Y-103037769D01*
X195096734Y-103154853D01*
X195255213Y-103235602D01*
X195274219Y-103245286D01*
X195463657Y-103306838D01*
X195463658Y-103306838D01*
X195463661Y-103306839D01*
X195660403Y-103338000D01*
X195660404Y-103338000D01*
X195859592Y-103338000D01*
X195859597Y-103338000D01*
X195875736Y-103335443D01*
X195945027Y-103344396D01*
X195982816Y-103370235D01*
X196178089Y-103565508D01*
X196265492Y-103652911D01*
X196265493Y-103652912D01*
X196368260Y-103721579D01*
X196368273Y-103721586D01*
X196482460Y-103768883D01*
X196482465Y-103768885D01*
X196482469Y-103768885D01*
X196482470Y-103768886D01*
X196603694Y-103793000D01*
X196603697Y-103793000D01*
X196727303Y-103793000D01*
X197772311Y-103793000D01*
X197839350Y-103812685D01*
X197859992Y-103829319D01*
X199153775Y-105123102D01*
X199187260Y-105184425D01*
X199182276Y-105254117D01*
X199140404Y-105310050D01*
X199131191Y-105316322D01*
X198993842Y-105401039D01*
X198869789Y-105525092D01*
X198777687Y-105674413D01*
X198777685Y-105674418D01*
X198722501Y-105840954D01*
X198722500Y-105840955D01*
X198718527Y-105879852D01*
X198692131Y-105944544D01*
X198634950Y-105984696D01*
X198595169Y-105991250D01*
X188911795Y-105991250D01*
X188844756Y-105971565D01*
X188824114Y-105954931D01*
X186225468Y-103356285D01*
X186191983Y-103294962D01*
X186196967Y-103225270D01*
X186238839Y-103169337D01*
X186256849Y-103158122D01*
X186263266Y-103154853D01*
X186424418Y-103037769D01*
X186565269Y-102896918D01*
X186682353Y-102735766D01*
X186759515Y-102584327D01*
X186807490Y-102533531D01*
X186875311Y-102516736D01*
X186941446Y-102539273D01*
X186980485Y-102584327D01*
X187016957Y-102655908D01*
X187057647Y-102735766D01*
X187174731Y-102896918D01*
X187315582Y-103037769D01*
X187476734Y-103154853D01*
X187635213Y-103235602D01*
X187654219Y-103245286D01*
X187843657Y-103306838D01*
X187843658Y-103306838D01*
X187843661Y-103306839D01*
X188040403Y-103338000D01*
X188040404Y-103338000D01*
X188239596Y-103338000D01*
X188239597Y-103338000D01*
X188436339Y-103306839D01*
X188436342Y-103306838D01*
X188436343Y-103306838D01*
X188625780Y-103245286D01*
X188625780Y-103245285D01*
X188625783Y-103245285D01*
X188803266Y-103154853D01*
X188964418Y-103037769D01*
X189105269Y-102896918D01*
X189222353Y-102735766D01*
X189299795Y-102583776D01*
X189347769Y-102532981D01*
X189415590Y-102516186D01*
X189481725Y-102538723D01*
X189520765Y-102583777D01*
X189598077Y-102735508D01*
X189625580Y-102773363D01*
X189625581Y-102773364D01*
X190188871Y-102210074D01*
X190204755Y-102269353D01*
X190271898Y-102385647D01*
X190366853Y-102480602D01*
X190483147Y-102547745D01*
X190542425Y-102563628D01*
X189979134Y-103126917D01*
X190016994Y-103154424D01*
X190194405Y-103244820D01*
X190383777Y-103306352D01*
X190580437Y-103337500D01*
X190779563Y-103337500D01*
X190976222Y-103306352D01*
X191165594Y-103244820D01*
X191343005Y-103154424D01*
X191380863Y-103126918D01*
X191380863Y-103126917D01*
X190817574Y-102563628D01*
X190876853Y-102547745D01*
X190993147Y-102480602D01*
X191088102Y-102385647D01*
X191155245Y-102269353D01*
X191171128Y-102210074D01*
X191734417Y-102773363D01*
G37*
%TD.AperFunction*%
%TA.AperFunction,Conductor*%
G36*
X185365758Y-89257185D02*
G01*
X185386400Y-89273819D01*
X197270756Y-101158175D01*
X197304241Y-101219498D01*
X197299257Y-101289190D01*
X197283393Y-101318741D01*
X197217649Y-101409230D01*
X197140485Y-101560672D01*
X197092510Y-101611468D01*
X197024689Y-101628263D01*
X196958554Y-101605725D01*
X196919515Y-101560672D01*
X196842485Y-101409494D01*
X196842353Y-101409234D01*
X196725269Y-101248082D01*
X196584418Y-101107231D01*
X196423266Y-100990147D01*
X196285063Y-100919729D01*
X196245780Y-100899713D01*
X196056342Y-100838161D01*
X195908782Y-100814790D01*
X195859597Y-100807000D01*
X195660403Y-100807000D01*
X195599267Y-100816683D01*
X195463659Y-100838161D01*
X195463656Y-100838161D01*
X195274219Y-100899713D01*
X195096733Y-100990147D01*
X195058286Y-101018081D01*
X194935582Y-101107231D01*
X194935580Y-101107233D01*
X194935579Y-101107233D01*
X194794733Y-101248079D01*
X194794733Y-101248080D01*
X194794731Y-101248082D01*
X194764864Y-101289190D01*
X194677647Y-101409233D01*
X194600485Y-101560672D01*
X194552510Y-101611468D01*
X194484689Y-101628263D01*
X194418554Y-101605725D01*
X194379515Y-101560672D01*
X194302485Y-101409494D01*
X194302353Y-101409234D01*
X194185269Y-101248082D01*
X194044418Y-101107231D01*
X193883266Y-100990147D01*
X193745063Y-100919729D01*
X193705780Y-100899713D01*
X193516342Y-100838161D01*
X193368782Y-100814790D01*
X193319597Y-100807000D01*
X193120403Y-100807000D01*
X193059267Y-100816683D01*
X192923659Y-100838161D01*
X192923656Y-100838161D01*
X192734219Y-100899713D01*
X192556733Y-100990147D01*
X192518286Y-101018081D01*
X192395582Y-101107231D01*
X192395580Y-101107233D01*
X192395579Y-101107233D01*
X192254733Y-101248079D01*
X192254733Y-101248080D01*
X192254731Y-101248082D01*
X192224864Y-101289190D01*
X192137645Y-101409235D01*
X192060203Y-101561223D01*
X192012229Y-101612018D01*
X191944408Y-101628813D01*
X191878273Y-101606275D01*
X191839234Y-101561222D01*
X191761924Y-101409494D01*
X191734417Y-101371635D01*
X191734417Y-101371634D01*
X191171128Y-101934924D01*
X191155245Y-101875647D01*
X191088102Y-101759353D01*
X190993147Y-101664398D01*
X190876853Y-101597255D01*
X190817574Y-101581371D01*
X191380864Y-101018081D01*
X191380863Y-101018080D01*
X191343008Y-100990577D01*
X191165594Y-100900179D01*
X190976222Y-100838647D01*
X190779563Y-100807500D01*
X190580437Y-100807500D01*
X190383777Y-100838647D01*
X190194405Y-100900179D01*
X190016990Y-100990577D01*
X189979135Y-101018080D01*
X189979135Y-101018081D01*
X190542425Y-101581371D01*
X190483147Y-101597255D01*
X190366853Y-101664398D01*
X190271898Y-101759353D01*
X190204755Y-101875647D01*
X190188871Y-101934925D01*
X189625581Y-101371635D01*
X189625580Y-101371635D01*
X189598075Y-101409493D01*
X189520764Y-101561223D01*
X189472790Y-101612018D01*
X189404969Y-101628813D01*
X189338834Y-101606275D01*
X189299795Y-101561222D01*
X189222485Y-101409494D01*
X189222353Y-101409234D01*
X189105269Y-101248082D01*
X188964418Y-101107231D01*
X188803266Y-100990147D01*
X188665063Y-100919729D01*
X188625780Y-100899713D01*
X188436342Y-100838161D01*
X188288782Y-100814790D01*
X188239597Y-100807000D01*
X188040403Y-100807000D01*
X187979267Y-100816683D01*
X187843659Y-100838161D01*
X187843656Y-100838161D01*
X187654219Y-100899713D01*
X187476733Y-100990147D01*
X187438286Y-101018081D01*
X187315582Y-101107231D01*
X187315580Y-101107233D01*
X187315579Y-101107233D01*
X187174733Y-101248079D01*
X187174733Y-101248080D01*
X187174731Y-101248082D01*
X187144864Y-101289190D01*
X187057647Y-101409233D01*
X186980485Y-101560672D01*
X186932510Y-101611468D01*
X186864689Y-101628263D01*
X186798554Y-101605725D01*
X186759515Y-101560672D01*
X186682485Y-101409494D01*
X186682353Y-101409234D01*
X186565269Y-101248082D01*
X186424418Y-101107231D01*
X186263266Y-100990147D01*
X186125063Y-100919729D01*
X186085780Y-100899713D01*
X185896342Y-100838161D01*
X185748782Y-100814790D01*
X185699597Y-100807000D01*
X185500403Y-100807000D01*
X185439267Y-100816683D01*
X185303659Y-100838161D01*
X185303656Y-100838161D01*
X185114219Y-100899713D01*
X184936733Y-100990147D01*
X184898286Y-101018081D01*
X184775582Y-101107231D01*
X184775580Y-101107233D01*
X184775579Y-101107233D01*
X184739415Y-101143398D01*
X184678092Y-101176883D01*
X184608400Y-101171899D01*
X184564053Y-101143398D01*
X179763669Y-96343014D01*
X179730184Y-96281691D01*
X179735168Y-96211999D01*
X179777040Y-96156066D01*
X179813030Y-96137402D01*
X179870025Y-96118884D01*
X180045405Y-96029524D01*
X180204646Y-95913828D01*
X180343828Y-95774646D01*
X180459524Y-95615405D01*
X180548884Y-95440025D01*
X180609709Y-95252826D01*
X180610502Y-95247820D01*
X180640500Y-95058422D01*
X180640500Y-94861577D01*
X180609709Y-94667173D01*
X180577088Y-94566777D01*
X180548884Y-94479975D01*
X180548882Y-94479972D01*
X180548882Y-94479970D01*
X180497690Y-94379500D01*
X180459524Y-94304595D01*
X180343828Y-94145354D01*
X180204646Y-94006172D01*
X180045405Y-93890476D01*
X179870025Y-93801116D01*
X179870024Y-93801115D01*
X179868235Y-93800204D01*
X179817439Y-93752230D01*
X179800644Y-93684409D01*
X179823181Y-93618274D01*
X179868236Y-93579234D01*
X180045141Y-93489097D01*
X180080125Y-93463678D01*
X180080126Y-93463678D01*
X179416448Y-92800000D01*
X179440028Y-92800000D01*
X179536675Y-92774104D01*
X179623325Y-92724076D01*
X179694076Y-92653325D01*
X179744104Y-92566675D01*
X179770000Y-92470028D01*
X179770000Y-92446448D01*
X180433678Y-93110126D01*
X180433678Y-93110125D01*
X180459095Y-93075143D01*
X180548418Y-92899835D01*
X180609221Y-92712705D01*
X180640000Y-92518382D01*
X180640000Y-92321617D01*
X180609221Y-92127294D01*
X180548418Y-91940164D01*
X180459096Y-91764858D01*
X180433678Y-91729873D01*
X180433677Y-91729873D01*
X179770000Y-92393551D01*
X179770000Y-92369972D01*
X179744104Y-92273325D01*
X179694076Y-92186675D01*
X179623325Y-92115924D01*
X179536675Y-92065896D01*
X179440028Y-92040000D01*
X179416447Y-92040000D01*
X180080125Y-91376320D01*
X180080125Y-91376319D01*
X180045145Y-91350905D01*
X179867684Y-91260485D01*
X179816888Y-91212511D01*
X179800093Y-91144690D01*
X179822630Y-91078555D01*
X179867685Y-91039515D01*
X180045141Y-90949097D01*
X180080125Y-90923678D01*
X180080126Y-90923678D01*
X179416448Y-90260000D01*
X179440028Y-90260000D01*
X179536675Y-90234104D01*
X179623325Y-90184076D01*
X179694076Y-90113325D01*
X179744104Y-90026675D01*
X179770000Y-89930028D01*
X179770000Y-89906447D01*
X180433678Y-90570126D01*
X180433678Y-90570125D01*
X180459095Y-90535143D01*
X180548418Y-90359835D01*
X180609221Y-90172705D01*
X180640000Y-89978382D01*
X180640000Y-89781617D01*
X180609221Y-89587296D01*
X180548306Y-89399819D01*
X180546311Y-89329977D01*
X180582391Y-89270144D01*
X180645092Y-89239316D01*
X180666237Y-89237500D01*
X185298719Y-89237500D01*
X185365758Y-89257185D01*
G37*
%TD.AperFunction*%
%TA.AperFunction,Conductor*%
G36*
X178180802Y-89257185D02*
G01*
X178226557Y-89309989D01*
X178236501Y-89379147D01*
X178231694Y-89399819D01*
X178170778Y-89587296D01*
X178140000Y-89781617D01*
X178140000Y-89978382D01*
X178170778Y-90172705D01*
X178231581Y-90359835D01*
X178320905Y-90535145D01*
X178346319Y-90570125D01*
X178346320Y-90570125D01*
X179010000Y-89906445D01*
X179010000Y-89930028D01*
X179035896Y-90026675D01*
X179085924Y-90113325D01*
X179156675Y-90184076D01*
X179243325Y-90234104D01*
X179339972Y-90260000D01*
X179363553Y-90260000D01*
X178699873Y-90923677D01*
X178699873Y-90923678D01*
X178734860Y-90949097D01*
X178912314Y-91039514D01*
X178963111Y-91087488D01*
X178979906Y-91155309D01*
X178957369Y-91221444D01*
X178912315Y-91260484D01*
X178734859Y-91350902D01*
X178699873Y-91376320D01*
X178699872Y-91376320D01*
X179363554Y-92040000D01*
X179339972Y-92040000D01*
X179243325Y-92065896D01*
X179156675Y-92115924D01*
X179085924Y-92186675D01*
X179035896Y-92273325D01*
X179010000Y-92369972D01*
X179010000Y-92393552D01*
X178346320Y-91729872D01*
X178346320Y-91729873D01*
X178320902Y-91764859D01*
X178320899Y-91764863D01*
X178231582Y-91940161D01*
X178170778Y-92127294D01*
X178140000Y-92321617D01*
X178140000Y-92518382D01*
X178170778Y-92712705D01*
X178231581Y-92899835D01*
X178320905Y-93075145D01*
X178346319Y-93110125D01*
X178346320Y-93110125D01*
X179010000Y-92446445D01*
X179010000Y-92470028D01*
X179035896Y-92566675D01*
X179085924Y-92653325D01*
X179156675Y-92724076D01*
X179243325Y-92774104D01*
X179339972Y-92800000D01*
X179363553Y-92800000D01*
X178699873Y-93463677D01*
X178699873Y-93463678D01*
X178734858Y-93489096D01*
X178911764Y-93579234D01*
X178962560Y-93627209D01*
X178979355Y-93695030D01*
X178956818Y-93761164D01*
X178911764Y-93800204D01*
X178734594Y-93890476D01*
X178680883Y-93929500D01*
X178575354Y-94006172D01*
X178575352Y-94006174D01*
X178575351Y-94006174D01*
X178436174Y-94145351D01*
X178436174Y-94145352D01*
X178436172Y-94145354D01*
X178392913Y-94204895D01*
X178320476Y-94304594D01*
X178231117Y-94479972D01*
X178231116Y-94479974D01*
X178231116Y-94479975D01*
X178214378Y-94531491D01*
X178212598Y-94536968D01*
X178211045Y-94539238D01*
X178210849Y-94541984D01*
X178191437Y-94567913D01*
X178173160Y-94594644D01*
X178170625Y-94595715D01*
X178168977Y-94597917D01*
X178138642Y-94609231D01*
X178108802Y-94621842D01*
X178106090Y-94621372D01*
X178103513Y-94622334D01*
X178071868Y-94615450D01*
X178039955Y-94609927D01*
X178037105Y-94607887D01*
X178035240Y-94607482D01*
X178006986Y-94586331D01*
X177929831Y-94509176D01*
X177896346Y-94447853D01*
X177901330Y-94378161D01*
X177917201Y-94348602D01*
X177919524Y-94345405D01*
X178008884Y-94170025D01*
X178069709Y-93982826D01*
X178070505Y-93977798D01*
X178100500Y-93788422D01*
X178100500Y-93591577D01*
X178069709Y-93397173D01*
X178008882Y-93209970D01*
X177940184Y-93075143D01*
X177919524Y-93034595D01*
X177803828Y-92875354D01*
X177664646Y-92736172D01*
X177550618Y-92653325D01*
X177505403Y-92620474D01*
X177328787Y-92530485D01*
X177320105Y-92522286D01*
X177308994Y-92517912D01*
X177295173Y-92498739D01*
X177277990Y-92482511D01*
X177275119Y-92470919D01*
X177268137Y-92461233D01*
X177266875Y-92437630D01*
X177261195Y-92414690D01*
X177265046Y-92403388D01*
X177264409Y-92391463D01*
X177276108Y-92370925D01*
X177283732Y-92348555D01*
X177293950Y-92339605D01*
X177298994Y-92330753D01*
X177326223Y-92311342D01*
X177327625Y-92310115D01*
X177329904Y-92308923D01*
X177330025Y-92308884D01*
X177505405Y-92219524D01*
X177664646Y-92103828D01*
X177803828Y-91964646D01*
X177919524Y-91805405D01*
X178008884Y-91630025D01*
X178069709Y-91442826D01*
X178076426Y-91400418D01*
X178100500Y-91248422D01*
X178100500Y-91051577D01*
X178069709Y-90857173D01*
X178020656Y-90706206D01*
X178008884Y-90669975D01*
X178008882Y-90669972D01*
X178008882Y-90669970D01*
X177957122Y-90568385D01*
X177919524Y-90494595D01*
X177803828Y-90335354D01*
X177664646Y-90196172D01*
X177550618Y-90113325D01*
X177505403Y-90080474D01*
X177328787Y-89990485D01*
X177277990Y-89942511D01*
X177261195Y-89874690D01*
X177283732Y-89808555D01*
X177328787Y-89769515D01*
X177505403Y-89679525D01*
X177505402Y-89679525D01*
X177505405Y-89679524D01*
X177664646Y-89563828D01*
X177803828Y-89424646D01*
X177902662Y-89288612D01*
X177906993Y-89285273D01*
X177909266Y-89280297D01*
X177934365Y-89264166D01*
X177957991Y-89245949D01*
X177964662Y-89244696D01*
X177968044Y-89242523D01*
X178002979Y-89237500D01*
X178113763Y-89237500D01*
X178180802Y-89257185D01*
G37*
%TD.AperFunction*%
%TA.AperFunction,Conductor*%
G36*
X175518834Y-73701098D02*
G01*
X175574767Y-73742970D01*
X175599184Y-73808434D01*
X175599500Y-73817280D01*
X175599500Y-74018422D01*
X175630290Y-74212826D01*
X175691117Y-74400029D01*
X175759682Y-74534594D01*
X175780476Y-74575405D01*
X175896172Y-74734646D01*
X176035354Y-74873828D01*
X176154784Y-74960600D01*
X176194596Y-74989525D01*
X176371763Y-75079795D01*
X176422560Y-75127769D01*
X176439355Y-75195590D01*
X176416818Y-75261725D01*
X176371764Y-75300765D01*
X176194859Y-75390902D01*
X176159873Y-75416320D01*
X176159872Y-75416320D01*
X176823553Y-76080000D01*
X176799972Y-76080000D01*
X176703325Y-76105896D01*
X176616675Y-76155924D01*
X176545924Y-76226675D01*
X176495896Y-76313325D01*
X176470000Y-76409972D01*
X176470000Y-76433552D01*
X175806320Y-75769872D01*
X175806320Y-75769873D01*
X175780902Y-75804859D01*
X175780899Y-75804863D01*
X175691582Y-75980161D01*
X175630778Y-76167294D01*
X175600000Y-76361617D01*
X175600000Y-76558382D01*
X175630778Y-76752705D01*
X175691581Y-76939835D01*
X175780905Y-77115145D01*
X175806319Y-77150125D01*
X175806320Y-77150125D01*
X176470000Y-76486445D01*
X176470000Y-76510028D01*
X176495896Y-76606675D01*
X176545924Y-76693325D01*
X176616675Y-76764076D01*
X176703325Y-76814104D01*
X176799972Y-76840000D01*
X176823552Y-76840000D01*
X176159873Y-77503677D01*
X176159873Y-77503678D01*
X176194858Y-77529096D01*
X176370164Y-77618418D01*
X176557294Y-77679221D01*
X176751618Y-77710000D01*
X176948382Y-77710000D01*
X177142703Y-77679221D01*
X177210181Y-77657297D01*
X177280023Y-77655302D01*
X177339856Y-77691382D01*
X177370684Y-77754083D01*
X177372500Y-77775228D01*
X177372500Y-84695500D01*
X177352815Y-84762539D01*
X177300011Y-84808294D01*
X177248500Y-84819500D01*
X176052129Y-84819500D01*
X176052123Y-84819501D01*
X175992516Y-84825908D01*
X175857671Y-84876202D01*
X175857664Y-84876206D01*
X175742455Y-84962452D01*
X175742452Y-84962455D01*
X175656206Y-85077664D01*
X175656202Y-85077671D01*
X175605908Y-85212517D01*
X175599501Y-85272116D01*
X175599500Y-85272135D01*
X175599500Y-86172719D01*
X175579815Y-86239758D01*
X175527011Y-86285513D01*
X175457853Y-86295457D01*
X175394297Y-86266432D01*
X175387819Y-86260400D01*
X175163819Y-86036400D01*
X175130334Y-85975077D01*
X175127500Y-85948719D01*
X175127500Y-74041280D01*
X175147185Y-73974241D01*
X175163815Y-73953603D01*
X175387820Y-73729598D01*
X175449142Y-73696114D01*
X175518834Y-73701098D01*
G37*
%TD.AperFunction*%
%TA.AperFunction,Conductor*%
G36*
X229502702Y-55000617D02*
G01*
X229886771Y-55017386D01*
X229897506Y-55018326D01*
X230275971Y-55068152D01*
X230286597Y-55070025D01*
X230659284Y-55152648D01*
X230669710Y-55155442D01*
X231033765Y-55270227D01*
X231043911Y-55273920D01*
X231396578Y-55420000D01*
X231406369Y-55424566D01*
X231744942Y-55600816D01*
X231754310Y-55606224D01*
X232076244Y-55811318D01*
X232085105Y-55817523D01*
X232387930Y-56049889D01*
X232396217Y-56056843D01*
X232677635Y-56314715D01*
X232685284Y-56322364D01*
X232943156Y-56603782D01*
X232950110Y-56612069D01*
X233182476Y-56914894D01*
X233188681Y-56923755D01*
X233393775Y-57245689D01*
X233399183Y-57255057D01*
X233575430Y-57593623D01*
X233580002Y-57603427D01*
X233726075Y-57956078D01*
X233729775Y-57966244D01*
X233844554Y-58330278D01*
X233847354Y-58340727D01*
X233929971Y-58713389D01*
X233931849Y-58724042D01*
X233981671Y-59102473D01*
X233982614Y-59113249D01*
X233999382Y-59497297D01*
X233999500Y-59502706D01*
X233999500Y-90813505D01*
X233979815Y-90880544D01*
X233927011Y-90926299D01*
X233857853Y-90936243D01*
X233802615Y-90913823D01*
X233707820Y-90844951D01*
X233518414Y-90748444D01*
X233518413Y-90748443D01*
X233518412Y-90748443D01*
X233316243Y-90682754D01*
X233316241Y-90682753D01*
X233316240Y-90682753D01*
X233154957Y-90657208D01*
X233106287Y-90649500D01*
X232893713Y-90649500D01*
X232893706Y-90649500D01*
X232843397Y-90657468D01*
X232774104Y-90648513D01*
X232720652Y-90603517D01*
X232700013Y-90536765D01*
X232700000Y-90534995D01*
X232700000Y-88365694D01*
X232675886Y-88244470D01*
X232675885Y-88244469D01*
X232675885Y-88244465D01*
X232673385Y-88238430D01*
X232628586Y-88130273D01*
X232628579Y-88130260D01*
X232559912Y-88027493D01*
X232539033Y-88006614D01*
X232472508Y-87940089D01*
X229784599Y-85252180D01*
X229751114Y-85190857D01*
X229756098Y-85121165D01*
X229797970Y-85065232D01*
X229863434Y-85040815D01*
X229872280Y-85040499D01*
X231050002Y-85040499D01*
X231050008Y-85040499D01*
X231152797Y-85029999D01*
X231319334Y-84974814D01*
X231468656Y-84882712D01*
X231592712Y-84758656D01*
X231684814Y-84609334D01*
X231739999Y-84442797D01*
X231750500Y-84340009D01*
X231750499Y-82739992D01*
X231739999Y-82637203D01*
X231684814Y-82470666D01*
X231592712Y-82321344D01*
X231468656Y-82197288D01*
X231468655Y-82197287D01*
X231420342Y-82167487D01*
X231373618Y-82115539D01*
X231362397Y-82046576D01*
X231390241Y-81982494D01*
X231391381Y-81981249D01*
X231391348Y-81981221D01*
X231394511Y-81977516D01*
X231394511Y-81977515D01*
X231394517Y-81977510D01*
X231533343Y-81786433D01*
X231640568Y-81575992D01*
X231713553Y-81351368D01*
X231750500Y-81118097D01*
X231750500Y-80881902D01*
X231713553Y-80648631D01*
X231640566Y-80424003D01*
X231561073Y-80267990D01*
X231533343Y-80213567D01*
X231394517Y-80022490D01*
X231227510Y-79855483D01*
X231036433Y-79716657D01*
X230967157Y-79681359D01*
X230825996Y-79609433D01*
X230601368Y-79536446D01*
X230368097Y-79499500D01*
X230368092Y-79499500D01*
X230131908Y-79499500D01*
X230131903Y-79499500D01*
X229898631Y-79536446D01*
X229674003Y-79609433D01*
X229463566Y-79716657D01*
X229417674Y-79750000D01*
X229272490Y-79855483D01*
X229272488Y-79855485D01*
X229272487Y-79855485D01*
X229105487Y-80022486D01*
X229105483Y-80022490D01*
X229022066Y-80137302D01*
X228966657Y-80213566D01*
X228859433Y-80424003D01*
X228786446Y-80648631D01*
X228749500Y-80881902D01*
X228749500Y-81118097D01*
X228786446Y-81351368D01*
X228859433Y-81575996D01*
X228966657Y-81786433D01*
X229105483Y-81977510D01*
X229105489Y-81977516D01*
X229108647Y-81981214D01*
X229106864Y-81982736D01*
X229135726Y-82035591D01*
X229130742Y-82105283D01*
X229088870Y-82161216D01*
X229079658Y-82167487D01*
X229031344Y-82197287D01*
X228907289Y-82321342D01*
X228815187Y-82470663D01*
X228815186Y-82470666D01*
X228760001Y-82637203D01*
X228760001Y-82637204D01*
X228760000Y-82637204D01*
X228749500Y-82739983D01*
X228749500Y-84032058D01*
X228729815Y-84099097D01*
X228677011Y-84144852D01*
X228607853Y-84154796D01*
X228583908Y-84148227D01*
X228583862Y-84148382D01*
X228578091Y-84146631D01*
X228578050Y-84146620D01*
X228578039Y-84146615D01*
X228578027Y-84146612D01*
X228456807Y-84122500D01*
X228456803Y-84122500D01*
X222214781Y-84122500D01*
X222147742Y-84102815D01*
X222114462Y-84071385D01*
X222112289Y-84068394D01*
X222112287Y-84068390D01*
X221991966Y-83902781D01*
X221847219Y-83758034D01*
X221847213Y-83758028D01*
X221681613Y-83637715D01*
X221681612Y-83637714D01*
X221681610Y-83637713D01*
X221624653Y-83608691D01*
X221499223Y-83544781D01*
X221304534Y-83481522D01*
X221129995Y-83453878D01*
X221102352Y-83449500D01*
X220897648Y-83449500D01*
X220873329Y-83453351D01*
X220695465Y-83481522D01*
X220500776Y-83544781D01*
X220318386Y-83637715D01*
X220152786Y-83758028D01*
X220008028Y-83902786D01*
X219887715Y-84068386D01*
X219794781Y-84250776D01*
X219731522Y-84445465D01*
X219699500Y-84647648D01*
X219699500Y-84852351D01*
X219731522Y-85054534D01*
X219794781Y-85249223D01*
X219857533Y-85372378D01*
X219880488Y-85417431D01*
X219887715Y-85431613D01*
X220008028Y-85597213D01*
X220152786Y-85741971D01*
X220318385Y-85862284D01*
X220318387Y-85862285D01*
X220318390Y-85862287D01*
X220372378Y-85889795D01*
X220423174Y-85937769D01*
X220439969Y-86005590D01*
X220417432Y-86071725D01*
X220372378Y-86110765D01*
X220318644Y-86138143D01*
X220274077Y-86170523D01*
X220274077Y-86170524D01*
X220953554Y-86850000D01*
X220947339Y-86850000D01*
X220845606Y-86877259D01*
X220754394Y-86929920D01*
X220679920Y-87004394D01*
X220627259Y-87095606D01*
X220600000Y-87197339D01*
X220600000Y-87203553D01*
X219920524Y-86524077D01*
X219920523Y-86524077D01*
X219888143Y-86568644D01*
X219795244Y-86750968D01*
X219732009Y-86945582D01*
X219700000Y-87147682D01*
X219700000Y-87352317D01*
X219732009Y-87554417D01*
X219795244Y-87749031D01*
X219888141Y-87931350D01*
X219888147Y-87931359D01*
X219920523Y-87975921D01*
X219920524Y-87975922D01*
X220600000Y-87296446D01*
X220600000Y-87302661D01*
X220627259Y-87404394D01*
X220679920Y-87495606D01*
X220754394Y-87570080D01*
X220845606Y-87622741D01*
X220947339Y-87650000D01*
X220953553Y-87650000D01*
X220274076Y-88329474D01*
X220318650Y-88361859D01*
X220500968Y-88454755D01*
X220695582Y-88517990D01*
X220897683Y-88550000D01*
X221102317Y-88550000D01*
X221304417Y-88517990D01*
X221499031Y-88454755D01*
X221681349Y-88361859D01*
X221725921Y-88329474D01*
X221046447Y-87650000D01*
X221052661Y-87650000D01*
X221154394Y-87622741D01*
X221245606Y-87570080D01*
X221320080Y-87495606D01*
X221372741Y-87404394D01*
X221400000Y-87302661D01*
X221400000Y-87296447D01*
X222079474Y-87975921D01*
X222111859Y-87931349D01*
X222204755Y-87749031D01*
X222267990Y-87554417D01*
X222300000Y-87352317D01*
X222300000Y-87147682D01*
X222267990Y-86945582D01*
X222204755Y-86750968D01*
X222111859Y-86568650D01*
X222079474Y-86524077D01*
X222079474Y-86524076D01*
X221400000Y-87203551D01*
X221400000Y-87197339D01*
X221372741Y-87095606D01*
X221320080Y-87004394D01*
X221245606Y-86929920D01*
X221154394Y-86877259D01*
X221052661Y-86850000D01*
X221046446Y-86850000D01*
X221725922Y-86170524D01*
X221725921Y-86170523D01*
X221681359Y-86138147D01*
X221681350Y-86138141D01*
X221627621Y-86110765D01*
X221576825Y-86062791D01*
X221560030Y-85994970D01*
X221582567Y-85928835D01*
X221627621Y-85889795D01*
X221681610Y-85862287D01*
X221731144Y-85826298D01*
X221847213Y-85741971D01*
X221847215Y-85741968D01*
X221847219Y-85741966D01*
X221991966Y-85597219D01*
X222112287Y-85431610D01*
X222112289Y-85431605D01*
X222114462Y-85428615D01*
X222169792Y-85385949D01*
X222214781Y-85377500D01*
X228083719Y-85377500D01*
X228150758Y-85397185D01*
X228171400Y-85413819D01*
X231408681Y-88651100D01*
X231442166Y-88712423D01*
X231445000Y-88738781D01*
X231445000Y-91134307D01*
X231469112Y-91255527D01*
X231469114Y-91255535D01*
X231502562Y-91336285D01*
X231516415Y-91369730D01*
X231516416Y-91369732D01*
X231516417Y-91369733D01*
X231541206Y-91406832D01*
X231585089Y-91472508D01*
X231660711Y-91548130D01*
X231664192Y-91552279D01*
X231676111Y-91579521D01*
X231690362Y-91605618D01*
X231690071Y-91611424D01*
X231692200Y-91616289D01*
X231688751Y-91637831D01*
X231687128Y-91670293D01*
X231682754Y-91683755D01*
X231649500Y-91893713D01*
X231649500Y-92106286D01*
X231682753Y-92316240D01*
X231682754Y-92316245D01*
X231687128Y-92329707D01*
X231689121Y-92399549D01*
X231656877Y-92455702D01*
X231421992Y-92690589D01*
X231399876Y-92712705D01*
X231334586Y-92777994D01*
X231334585Y-92777996D01*
X231265233Y-92881789D01*
X231263586Y-92886393D01*
X231218615Y-92994962D01*
X231218612Y-92994972D01*
X231205180Y-93062501D01*
X231194500Y-93116192D01*
X231194500Y-95779807D01*
X231218612Y-95901027D01*
X231218614Y-95901035D01*
X231252062Y-95981785D01*
X231265915Y-96015229D01*
X231265920Y-96015238D01*
X231328378Y-96108712D01*
X231328379Y-96108714D01*
X231334586Y-96118005D01*
X233208181Y-97991600D01*
X233241666Y-98052923D01*
X233244500Y-98079281D01*
X233244500Y-102525500D01*
X233224815Y-102592539D01*
X233172011Y-102638294D01*
X233120500Y-102649500D01*
X231747129Y-102649500D01*
X231747123Y-102649501D01*
X231687516Y-102655908D01*
X231552671Y-102706202D01*
X231552664Y-102706206D01*
X231437455Y-102792452D01*
X231437452Y-102792455D01*
X231351206Y-102907664D01*
X231351202Y-102907671D01*
X231300908Y-103042517D01*
X231294501Y-103102116D01*
X231294500Y-103102135D01*
X231294500Y-104002719D01*
X231274815Y-104069758D01*
X231222011Y-104115513D01*
X231152853Y-104125457D01*
X231089297Y-104096432D01*
X231082819Y-104090400D01*
X227485819Y-100493400D01*
X227452334Y-100432077D01*
X227449500Y-100405719D01*
X227449500Y-95951802D01*
X227469185Y-95884763D01*
X227521989Y-95839008D01*
X227591147Y-95829064D01*
X227611812Y-95833869D01*
X227683757Y-95857246D01*
X227893713Y-95890500D01*
X227893714Y-95890500D01*
X228106286Y-95890500D01*
X228106287Y-95890500D01*
X228316243Y-95857246D01*
X228518412Y-95791557D01*
X228707816Y-95695051D01*
X228744160Y-95668646D01*
X228879786Y-95570109D01*
X228879788Y-95570106D01*
X228879792Y-95570104D01*
X229030104Y-95419792D01*
X229030106Y-95419788D01*
X229030109Y-95419786D01*
X229155048Y-95247820D01*
X229155047Y-95247820D01*
X229155051Y-95247816D01*
X229251557Y-95058412D01*
X229317246Y-94856243D01*
X229350500Y-94646287D01*
X229350500Y-94433713D01*
X229317246Y-94223757D01*
X229251557Y-94021588D01*
X229155051Y-93832184D01*
X229155049Y-93832181D01*
X229155048Y-93832179D01*
X229030109Y-93660213D01*
X228916569Y-93546673D01*
X228883084Y-93485350D01*
X228888068Y-93415658D01*
X228929940Y-93359725D01*
X228960915Y-93342810D01*
X229092331Y-93293796D01*
X229207546Y-93207546D01*
X229293796Y-93092331D01*
X229344091Y-92957483D01*
X229350500Y-92897873D01*
X229350499Y-91102128D01*
X229344091Y-91042517D01*
X229342971Y-91039515D01*
X229293797Y-90907671D01*
X229293793Y-90907664D01*
X229207547Y-90792455D01*
X229207544Y-90792452D01*
X229092335Y-90706206D01*
X229092328Y-90706202D01*
X228957482Y-90655908D01*
X228957483Y-90655908D01*
X228897883Y-90649501D01*
X228897881Y-90649500D01*
X228897873Y-90649500D01*
X228897864Y-90649500D01*
X227102129Y-90649500D01*
X227102123Y-90649501D01*
X227042516Y-90655908D01*
X226907671Y-90706202D01*
X226907664Y-90706206D01*
X226792455Y-90792452D01*
X226792452Y-90792455D01*
X226706206Y-90907664D01*
X226706202Y-90907671D01*
X226655908Y-91042517D01*
X226652034Y-91078555D01*
X226649501Y-91102123D01*
X226649500Y-91102135D01*
X226649500Y-92411717D01*
X226640856Y-92441154D01*
X226634334Y-92471140D01*
X226630577Y-92476157D01*
X226629815Y-92478756D01*
X226613184Y-92499395D01*
X226598402Y-92514178D01*
X226537080Y-92547665D01*
X226510718Y-92550500D01*
X215220195Y-92550500D01*
X215098970Y-92574613D01*
X215098960Y-92574616D01*
X214984773Y-92621913D01*
X214984760Y-92621920D01*
X214881992Y-92690588D01*
X214881990Y-92690590D01*
X213805347Y-93767232D01*
X213744024Y-93800717D01*
X213698269Y-93802024D01*
X213556055Y-93779500D01*
X213363945Y-93779500D01*
X213307646Y-93788417D01*
X213174197Y-93809553D01*
X212991493Y-93868916D01*
X212820318Y-93956135D01*
X212751449Y-94006172D01*
X212664898Y-94069055D01*
X212664896Y-94069057D01*
X212664895Y-94069057D01*
X212529057Y-94204895D01*
X212529057Y-94204896D01*
X212529055Y-94204898D01*
X212515351Y-94223760D01*
X212416135Y-94360318D01*
X212328917Y-94531492D01*
X212307667Y-94596892D01*
X212268229Y-94654567D01*
X212203870Y-94681765D01*
X212135024Y-94669850D01*
X212083548Y-94622605D01*
X212071805Y-94596891D01*
X212050616Y-94531680D01*
X211963434Y-94360577D01*
X211942201Y-94331352D01*
X211942200Y-94331351D01*
X211320000Y-94953552D01*
X211320000Y-94947339D01*
X211292741Y-94845606D01*
X211240080Y-94754394D01*
X211165606Y-94679920D01*
X211074394Y-94627259D01*
X210972661Y-94600000D01*
X210966447Y-94600000D01*
X211588646Y-93977798D01*
X211559415Y-93956561D01*
X211388321Y-93869383D01*
X211205684Y-93810040D01*
X211016015Y-93780000D01*
X210823985Y-93780000D01*
X210634315Y-93810040D01*
X210451678Y-93869383D01*
X210280578Y-93956564D01*
X210251352Y-93977798D01*
X210251351Y-93977798D01*
X210873554Y-94600000D01*
X210867339Y-94600000D01*
X210765606Y-94627259D01*
X210674394Y-94679920D01*
X210599920Y-94754394D01*
X210547259Y-94845606D01*
X210520000Y-94947339D01*
X210520000Y-94953553D01*
X209897798Y-94331351D01*
X209897798Y-94331352D01*
X209876564Y-94360578D01*
X209789383Y-94531678D01*
X209730040Y-94714315D01*
X209700000Y-94903984D01*
X209700000Y-95096015D01*
X209730040Y-95285684D01*
X209789383Y-95468321D01*
X209876561Y-95639415D01*
X209897798Y-95668646D01*
X210520000Y-95046445D01*
X210520000Y-95052661D01*
X210547259Y-95154394D01*
X210599920Y-95245606D01*
X210674394Y-95320080D01*
X210765606Y-95372741D01*
X210867339Y-95400000D01*
X210873554Y-95400000D01*
X210251351Y-96022200D01*
X210251352Y-96022201D01*
X210280577Y-96043434D01*
X210451678Y-96130616D01*
X210634315Y-96189959D01*
X210823985Y-96220000D01*
X211016015Y-96220000D01*
X211205684Y-96189959D01*
X211388321Y-96130616D01*
X211559419Y-96043436D01*
X211588646Y-96022201D01*
X211588646Y-96022200D01*
X210966447Y-95400000D01*
X210972661Y-95400000D01*
X211074394Y-95372741D01*
X211165606Y-95320080D01*
X211240080Y-95245606D01*
X211292741Y-95154394D01*
X211320000Y-95052661D01*
X211320000Y-95046446D01*
X211942200Y-95668646D01*
X211942201Y-95668646D01*
X211963436Y-95639419D01*
X212050616Y-95468319D01*
X212071805Y-95403108D01*
X212111242Y-95345433D01*
X212175600Y-95318234D01*
X212244447Y-95330148D01*
X212295923Y-95377392D01*
X212307667Y-95403108D01*
X212328916Y-95468505D01*
X212328917Y-95468508D01*
X212328918Y-95468509D01*
X212416135Y-95639681D01*
X212529055Y-95795102D01*
X212664898Y-95930945D01*
X212820319Y-96043865D01*
X212934768Y-96102180D01*
X212991493Y-96131083D01*
X213064525Y-96154812D01*
X213174199Y-96190447D01*
X213363945Y-96220500D01*
X213363946Y-96220500D01*
X213556054Y-96220500D01*
X213556055Y-96220500D01*
X213745801Y-96190447D01*
X213928509Y-96131082D01*
X214099681Y-96043865D01*
X214255102Y-95930945D01*
X214390945Y-95795102D01*
X214503865Y-95639681D01*
X214552580Y-95544072D01*
X214600553Y-95493277D01*
X214668374Y-95476482D01*
X214734509Y-95499019D01*
X214777961Y-95553734D01*
X214786422Y-95587765D01*
X214790001Y-95622797D01*
X214790001Y-95622799D01*
X214845185Y-95789331D01*
X214845187Y-95789336D01*
X214872656Y-95833871D01*
X214937288Y-95938656D01*
X215061344Y-96062712D01*
X215210666Y-96154814D01*
X215377203Y-96209999D01*
X215479991Y-96220500D01*
X216520008Y-96220499D01*
X216520016Y-96220498D01*
X216520019Y-96220498D01*
X216603218Y-96211999D01*
X216622797Y-96209999D01*
X216789334Y-96154814D01*
X216938656Y-96062712D01*
X217062712Y-95938656D01*
X217154814Y-95789334D01*
X217209999Y-95622797D01*
X217220500Y-95520009D01*
X217220499Y-94479992D01*
X217219881Y-94473947D01*
X217209999Y-94377203D01*
X217209998Y-94377200D01*
X217204404Y-94360318D01*
X217154814Y-94210666D01*
X217062712Y-94061344D01*
X217018549Y-94017181D01*
X216985064Y-93955858D01*
X216990048Y-93886166D01*
X217031920Y-93830233D01*
X217097384Y-93805816D01*
X217106230Y-93805500D01*
X226070500Y-93805500D01*
X226137539Y-93825185D01*
X226183294Y-93877989D01*
X226194500Y-93929500D01*
X226194500Y-100778807D01*
X226218612Y-100900028D01*
X226218613Y-100900032D01*
X226218614Y-100900035D01*
X226239292Y-100949954D01*
X226265913Y-101014225D01*
X226265923Y-101014243D01*
X226318211Y-101092498D01*
X226318212Y-101092498D01*
X226318213Y-101092500D01*
X226334589Y-101117008D01*
X226334592Y-101117011D01*
X226334594Y-101117014D01*
X227704139Y-102486558D01*
X227737624Y-102547881D01*
X227732640Y-102617573D01*
X227690768Y-102673506D01*
X227654777Y-102692170D01*
X227481583Y-102748444D01*
X227292179Y-102844951D01*
X227120213Y-102969890D01*
X226969890Y-103120213D01*
X226844951Y-103292179D01*
X226748444Y-103481585D01*
X226682753Y-103683760D01*
X226649500Y-103893713D01*
X226649500Y-104106286D01*
X226679525Y-104295860D01*
X226682754Y-104316243D01*
X226692170Y-104345223D01*
X226748444Y-104518414D01*
X226844951Y-104707820D01*
X226969890Y-104879786D01*
X227083430Y-104993326D01*
X227116915Y-105054649D01*
X227111931Y-105124341D01*
X227070059Y-105180274D01*
X227039083Y-105197189D01*
X226907669Y-105246203D01*
X226907664Y-105246206D01*
X226792455Y-105332452D01*
X226792452Y-105332455D01*
X226706206Y-105447664D01*
X226706202Y-105447671D01*
X226655908Y-105582517D01*
X226649501Y-105642116D01*
X226649501Y-105642123D01*
X226649500Y-105642135D01*
X226649500Y-107437870D01*
X226649501Y-107437876D01*
X226655908Y-107497483D01*
X226706202Y-107632328D01*
X226706206Y-107632335D01*
X226792452Y-107747544D01*
X226792455Y-107747547D01*
X226907664Y-107833793D01*
X226907671Y-107833797D01*
X227042517Y-107884091D01*
X227042516Y-107884091D01*
X227049444Y-107884835D01*
X227102127Y-107890500D01*
X228411718Y-107890499D01*
X228478757Y-107910184D01*
X228499399Y-107926818D01*
X228690589Y-108118008D01*
X228777992Y-108205411D01*
X228777994Y-108205413D01*
X228777996Y-108205414D01*
X228880756Y-108274076D01*
X228880758Y-108274077D01*
X228880767Y-108274083D01*
X228905772Y-108284440D01*
X228928071Y-108293677D01*
X228970254Y-108311149D01*
X228994966Y-108321386D01*
X229116192Y-108345499D01*
X229116196Y-108345500D01*
X229116197Y-108345500D01*
X233194748Y-108345500D01*
X233194749Y-108345499D01*
X233315979Y-108321386D01*
X233396728Y-108287937D01*
X233430177Y-108274083D01*
X233532952Y-108205411D01*
X233620355Y-108118008D01*
X233787819Y-107950544D01*
X233849142Y-107917059D01*
X233918834Y-107922043D01*
X233974767Y-107963915D01*
X233999184Y-108029379D01*
X233999500Y-108038225D01*
X233999500Y-126997293D01*
X233999382Y-127002702D01*
X233982614Y-127386750D01*
X233981671Y-127397526D01*
X233931849Y-127775957D01*
X233929971Y-127786610D01*
X233847354Y-128159272D01*
X233844554Y-128169721D01*
X233729775Y-128533755D01*
X233726075Y-128543921D01*
X233580002Y-128896572D01*
X233575430Y-128906376D01*
X233399183Y-129244942D01*
X233393775Y-129254310D01*
X233188681Y-129576244D01*
X233182476Y-129585105D01*
X232950110Y-129887930D01*
X232943156Y-129896217D01*
X232685284Y-130177635D01*
X232677635Y-130185284D01*
X232396217Y-130443156D01*
X232387930Y-130450110D01*
X232085105Y-130682476D01*
X232076244Y-130688681D01*
X231754310Y-130893775D01*
X231744942Y-130899183D01*
X231406376Y-131075430D01*
X231396572Y-131080002D01*
X231043921Y-131226075D01*
X231033755Y-131229775D01*
X230669721Y-131344554D01*
X230659272Y-131347354D01*
X230286610Y-131429971D01*
X230275957Y-131431849D01*
X229897526Y-131481671D01*
X229886750Y-131482614D01*
X229502703Y-131499382D01*
X229497294Y-131499500D01*
X172502706Y-131499500D01*
X172497297Y-131499382D01*
X172113249Y-131482614D01*
X172102473Y-131481671D01*
X171724042Y-131431849D01*
X171713389Y-131429971D01*
X171340727Y-131347354D01*
X171330278Y-131344554D01*
X170966244Y-131229775D01*
X170956078Y-131226075D01*
X170603427Y-131080002D01*
X170593623Y-131075430D01*
X170255057Y-130899183D01*
X170245689Y-130893775D01*
X169923755Y-130688681D01*
X169914894Y-130682476D01*
X169612069Y-130450110D01*
X169603782Y-130443156D01*
X169322364Y-130185284D01*
X169314715Y-130177635D01*
X169056843Y-129896217D01*
X169049889Y-129887930D01*
X168817523Y-129585105D01*
X168811318Y-129576244D01*
X168606224Y-129254310D01*
X168600816Y-129244942D01*
X168581090Y-129207049D01*
X168424566Y-128906369D01*
X168419997Y-128896572D01*
X168381951Y-128804720D01*
X168273920Y-128543911D01*
X168270224Y-128533755D01*
X168155442Y-128169710D01*
X168152648Y-128159284D01*
X168070025Y-127786597D01*
X168068152Y-127775971D01*
X168018326Y-127397506D01*
X168017386Y-127386771D01*
X168000618Y-127002702D01*
X168000500Y-126997293D01*
X168000500Y-126718209D01*
X168799500Y-126718209D01*
X168799500Y-127081790D01*
X168835137Y-127443630D01*
X168906064Y-127800212D01*
X168906067Y-127800223D01*
X169011614Y-128148165D01*
X169150754Y-128484078D01*
X169150756Y-128484083D01*
X169322140Y-128804720D01*
X169322151Y-128804738D01*
X169524140Y-129107035D01*
X169524150Y-129107049D01*
X169754807Y-129388106D01*
X170011893Y-129645192D01*
X170011898Y-129645196D01*
X170011899Y-129645197D01*
X170292956Y-129875854D01*
X170595268Y-130077853D01*
X170595277Y-130077858D01*
X170595279Y-130077859D01*
X170915916Y-130249243D01*
X170915918Y-130249243D01*
X170915924Y-130249247D01*
X171251836Y-130388386D01*
X171599767Y-130493930D01*
X171599773Y-130493931D01*
X171599776Y-130493932D01*
X171599787Y-130493935D01*
X171921916Y-130558009D01*
X171956369Y-130564862D01*
X172318206Y-130600500D01*
X172318209Y-130600500D01*
X172681791Y-130600500D01*
X172681794Y-130600500D01*
X173043631Y-130564862D01*
X173113045Y-130551054D01*
X173400212Y-130493935D01*
X173400223Y-130493932D01*
X173400223Y-130493931D01*
X173400233Y-130493930D01*
X173748164Y-130388386D01*
X174084076Y-130249247D01*
X174404732Y-130077853D01*
X174707044Y-129875854D01*
X174988101Y-129645197D01*
X175245197Y-129388101D01*
X175475854Y-129107044D01*
X175677853Y-128804732D01*
X175849247Y-128484076D01*
X175988386Y-128148164D01*
X176093930Y-127800233D01*
X176093932Y-127800223D01*
X176093935Y-127800212D01*
X176164862Y-127443630D01*
X176171828Y-127372903D01*
X176714500Y-127372903D01*
X176714500Y-127572096D01*
X176745661Y-127768840D01*
X176745661Y-127768843D01*
X176807213Y-127958280D01*
X176820485Y-127984327D01*
X176897647Y-128135766D01*
X177014731Y-128296918D01*
X177155582Y-128437769D01*
X177316734Y-128554853D01*
X177493304Y-128644820D01*
X177494219Y-128645286D01*
X177683657Y-128706838D01*
X177683658Y-128706838D01*
X177683661Y-128706839D01*
X177880403Y-128738000D01*
X177880404Y-128738000D01*
X178079596Y-128738000D01*
X178079597Y-128738000D01*
X178276339Y-128706839D01*
X178276342Y-128706838D01*
X178276343Y-128706838D01*
X178465780Y-128645286D01*
X178465780Y-128645285D01*
X178465783Y-128645285D01*
X178643266Y-128554853D01*
X178804418Y-128437769D01*
X178945269Y-128296918D01*
X179062353Y-128135766D01*
X179139515Y-127984327D01*
X179187490Y-127933531D01*
X179255311Y-127916736D01*
X179321446Y-127939273D01*
X179360485Y-127984327D01*
X179437647Y-128135766D01*
X179554731Y-128296918D01*
X179695582Y-128437769D01*
X179856734Y-128554853D01*
X180033304Y-128644820D01*
X180034219Y-128645286D01*
X180223657Y-128706838D01*
X180223658Y-128706838D01*
X180223661Y-128706839D01*
X180420403Y-128738000D01*
X180420404Y-128738000D01*
X180619596Y-128738000D01*
X180619597Y-128738000D01*
X180816339Y-128706839D01*
X180816342Y-128706838D01*
X180816343Y-128706838D01*
X181005780Y-128645286D01*
X181005780Y-128645285D01*
X181005783Y-128645285D01*
X181183266Y-128554853D01*
X181344418Y-128437769D01*
X181485269Y-128296918D01*
X181602353Y-128135766D01*
X181679515Y-127984327D01*
X181727490Y-127933531D01*
X181795311Y-127916736D01*
X181861446Y-127939273D01*
X181900485Y-127984327D01*
X181977647Y-128135766D01*
X182094731Y-128296918D01*
X182235582Y-128437769D01*
X182396734Y-128554853D01*
X182573304Y-128644820D01*
X182574219Y-128645286D01*
X182763657Y-128706838D01*
X182763658Y-128706838D01*
X182763661Y-128706839D01*
X182960403Y-128738000D01*
X182960404Y-128738000D01*
X183159596Y-128738000D01*
X183159597Y-128738000D01*
X183356339Y-128706839D01*
X183356342Y-128706838D01*
X183356343Y-128706838D01*
X183545780Y-128645286D01*
X183545780Y-128645285D01*
X183545783Y-128645285D01*
X183723266Y-128554853D01*
X183884418Y-128437769D01*
X184025269Y-128296918D01*
X184142353Y-128135766D01*
X184219515Y-127984327D01*
X184267490Y-127933531D01*
X184335311Y-127916736D01*
X184401446Y-127939273D01*
X184440485Y-127984327D01*
X184517647Y-128135766D01*
X184634731Y-128296918D01*
X184775582Y-128437769D01*
X184936734Y-128554853D01*
X185113304Y-128644820D01*
X185114219Y-128645286D01*
X185303657Y-128706838D01*
X185303658Y-128706838D01*
X185303661Y-128706839D01*
X185500403Y-128738000D01*
X185500404Y-128738000D01*
X185699596Y-128738000D01*
X185699597Y-128738000D01*
X185896339Y-128706839D01*
X185896342Y-128706838D01*
X185896343Y-128706838D01*
X186085780Y-128645286D01*
X186085780Y-128645285D01*
X186085783Y-128645285D01*
X186263266Y-128554853D01*
X186424418Y-128437769D01*
X186565269Y-128296918D01*
X186682353Y-128135766D01*
X186759515Y-127984327D01*
X186807490Y-127933531D01*
X186875311Y-127916736D01*
X186941446Y-127939273D01*
X186980485Y-127984327D01*
X187057647Y-128135766D01*
X187174731Y-128296918D01*
X187315582Y-128437769D01*
X187476734Y-128554853D01*
X187653304Y-128644820D01*
X187654219Y-128645286D01*
X187843657Y-128706838D01*
X187843658Y-128706838D01*
X187843661Y-128706839D01*
X188040403Y-128738000D01*
X188040404Y-128738000D01*
X188239596Y-128738000D01*
X188239597Y-128738000D01*
X188436339Y-128706839D01*
X188436342Y-128706838D01*
X188436343Y-128706838D01*
X188625780Y-128645286D01*
X188625780Y-128645285D01*
X188625783Y-128645285D01*
X188803266Y-128554853D01*
X188964418Y-128437769D01*
X189105269Y-128296918D01*
X189222353Y-128135766D01*
X189299515Y-127984327D01*
X189347490Y-127933531D01*
X189415311Y-127916736D01*
X189481446Y-127939273D01*
X189520485Y-127984327D01*
X189597647Y-128135766D01*
X189714731Y-128296918D01*
X189855582Y-128437769D01*
X190016734Y-128554853D01*
X190193304Y-128644820D01*
X190194219Y-128645286D01*
X190383657Y-128706838D01*
X190383658Y-128706838D01*
X190383661Y-128706839D01*
X190580403Y-128738000D01*
X190580404Y-128738000D01*
X190779596Y-128738000D01*
X190779597Y-128738000D01*
X190976339Y-128706839D01*
X190976342Y-128706838D01*
X190976343Y-128706838D01*
X191165780Y-128645286D01*
X191165780Y-128645285D01*
X191165783Y-128645285D01*
X191343266Y-128554853D01*
X191504418Y-128437769D01*
X191645269Y-128296918D01*
X191762353Y-128135766D01*
X191839515Y-127984327D01*
X191887490Y-127933531D01*
X191955311Y-127916736D01*
X192021446Y-127939273D01*
X192060485Y-127984327D01*
X192137647Y-128135766D01*
X192254731Y-128296918D01*
X192395582Y-128437769D01*
X192556734Y-128554853D01*
X192733304Y-128644820D01*
X192734219Y-128645286D01*
X192923657Y-128706838D01*
X192923658Y-128706838D01*
X192923661Y-128706839D01*
X193120403Y-128738000D01*
X193120404Y-128738000D01*
X193319596Y-128738000D01*
X193319597Y-128738000D01*
X193516339Y-128706839D01*
X193516342Y-128706838D01*
X193516343Y-128706838D01*
X193705780Y-128645286D01*
X193705780Y-128645285D01*
X193705783Y-128645285D01*
X193883266Y-128554853D01*
X194044418Y-128437769D01*
X194185269Y-128296918D01*
X194302353Y-128135766D01*
X194379515Y-127984327D01*
X194427490Y-127933531D01*
X194495311Y-127916736D01*
X194561446Y-127939273D01*
X194600485Y-127984327D01*
X194677647Y-128135766D01*
X194794731Y-128296918D01*
X194935582Y-128437769D01*
X195096734Y-128554853D01*
X195273304Y-128644820D01*
X195274219Y-128645286D01*
X195463657Y-128706838D01*
X195463658Y-128706838D01*
X195463661Y-128706839D01*
X195660403Y-128738000D01*
X195660404Y-128738000D01*
X195859596Y-128738000D01*
X195859597Y-128738000D01*
X196056339Y-128706839D01*
X196056342Y-128706838D01*
X196056343Y-128706838D01*
X196245780Y-128645286D01*
X196245780Y-128645285D01*
X196245783Y-128645285D01*
X196423266Y-128554853D01*
X196584418Y-128437769D01*
X196725269Y-128296918D01*
X196842353Y-128135766D01*
X196919515Y-127984327D01*
X196967490Y-127933531D01*
X197035311Y-127916736D01*
X197101446Y-127939273D01*
X197140485Y-127984327D01*
X197217647Y-128135766D01*
X197334731Y-128296918D01*
X197475582Y-128437769D01*
X197636734Y-128554853D01*
X197813304Y-128644820D01*
X197814219Y-128645286D01*
X198003657Y-128706838D01*
X198003658Y-128706838D01*
X198003661Y-128706839D01*
X198200403Y-128738000D01*
X198200404Y-128738000D01*
X198399596Y-128738000D01*
X198399597Y-128738000D01*
X198596339Y-128706839D01*
X198596342Y-128706838D01*
X198596343Y-128706838D01*
X198785780Y-128645286D01*
X198785780Y-128645285D01*
X198785783Y-128645285D01*
X198963266Y-128554853D01*
X199124418Y-128437769D01*
X199265269Y-128296918D01*
X199382353Y-128135766D01*
X199459515Y-127984327D01*
X199507490Y-127933531D01*
X199575311Y-127916736D01*
X199641446Y-127939273D01*
X199680485Y-127984327D01*
X199757647Y-128135766D01*
X199874731Y-128296918D01*
X200015582Y-128437769D01*
X200176734Y-128554853D01*
X200353304Y-128644820D01*
X200354219Y-128645286D01*
X200543657Y-128706838D01*
X200543658Y-128706838D01*
X200543661Y-128706839D01*
X200740403Y-128738000D01*
X200740404Y-128738000D01*
X200939596Y-128738000D01*
X200939597Y-128738000D01*
X201136339Y-128706839D01*
X201136342Y-128706838D01*
X201136343Y-128706838D01*
X201325780Y-128645286D01*
X201325780Y-128645285D01*
X201325783Y-128645285D01*
X201503266Y-128554853D01*
X201664418Y-128437769D01*
X201805269Y-128296918D01*
X201922353Y-128135766D01*
X201999515Y-127984327D01*
X202047490Y-127933531D01*
X202115311Y-127916736D01*
X202181446Y-127939273D01*
X202220485Y-127984327D01*
X202297647Y-128135766D01*
X202414731Y-128296918D01*
X202555582Y-128437769D01*
X202716734Y-128554853D01*
X202893304Y-128644820D01*
X202894219Y-128645286D01*
X203083657Y-128706838D01*
X203083658Y-128706838D01*
X203083661Y-128706839D01*
X203280403Y-128738000D01*
X203280404Y-128738000D01*
X203479596Y-128738000D01*
X203479597Y-128738000D01*
X203676339Y-128706839D01*
X203676342Y-128706838D01*
X203676343Y-128706838D01*
X203865780Y-128645286D01*
X203865780Y-128645285D01*
X203865783Y-128645285D01*
X204043266Y-128554853D01*
X204204418Y-128437769D01*
X204345269Y-128296918D01*
X204462353Y-128135766D01*
X204539515Y-127984327D01*
X204587490Y-127933531D01*
X204655311Y-127916736D01*
X204721446Y-127939273D01*
X204760485Y-127984327D01*
X204837647Y-128135766D01*
X204954731Y-128296918D01*
X205095582Y-128437769D01*
X205256734Y-128554853D01*
X205433304Y-128644820D01*
X205434219Y-128645286D01*
X205623657Y-128706838D01*
X205623658Y-128706838D01*
X205623661Y-128706839D01*
X205820403Y-128738000D01*
X205820404Y-128738000D01*
X206019596Y-128738000D01*
X206019597Y-128738000D01*
X206216339Y-128706839D01*
X206216342Y-128706838D01*
X206216343Y-128706838D01*
X206405780Y-128645286D01*
X206405780Y-128645285D01*
X206405783Y-128645285D01*
X206583266Y-128554853D01*
X206744418Y-128437769D01*
X206885269Y-128296918D01*
X207002353Y-128135766D01*
X207079795Y-127983776D01*
X207127769Y-127932981D01*
X207195590Y-127916186D01*
X207261725Y-127938723D01*
X207300765Y-127983777D01*
X207378077Y-128135508D01*
X207405580Y-128173363D01*
X207405581Y-128173364D01*
X207968871Y-127610074D01*
X207984755Y-127669353D01*
X208051898Y-127785647D01*
X208146853Y-127880602D01*
X208263147Y-127947745D01*
X208322425Y-127963628D01*
X207759134Y-128526917D01*
X207796994Y-128554424D01*
X207974405Y-128644820D01*
X208163777Y-128706352D01*
X208360437Y-128737500D01*
X208559563Y-128737500D01*
X208756222Y-128706352D01*
X208945594Y-128644820D01*
X209123005Y-128554424D01*
X209160863Y-128526918D01*
X209160863Y-128526917D01*
X208597574Y-127963628D01*
X208656853Y-127947745D01*
X208773147Y-127880602D01*
X208868102Y-127785647D01*
X208935245Y-127669353D01*
X208951128Y-127610074D01*
X209514417Y-128173363D01*
X209514418Y-128173363D01*
X209541924Y-128135505D01*
X209619234Y-127983777D01*
X209667208Y-127932981D01*
X209735029Y-127916186D01*
X209801164Y-127938723D01*
X209840204Y-127983777D01*
X209914583Y-128129752D01*
X209917647Y-128135766D01*
X210034731Y-128296918D01*
X210175582Y-128437769D01*
X210336734Y-128554853D01*
X210513304Y-128644820D01*
X210514219Y-128645286D01*
X210703657Y-128706838D01*
X210703658Y-128706838D01*
X210703661Y-128706839D01*
X210900403Y-128738000D01*
X210900404Y-128738000D01*
X211099596Y-128738000D01*
X211099597Y-128738000D01*
X211296339Y-128706839D01*
X211296342Y-128706838D01*
X211296343Y-128706838D01*
X211485780Y-128645286D01*
X211485780Y-128645285D01*
X211485783Y-128645285D01*
X211663266Y-128554853D01*
X211824418Y-128437769D01*
X211965269Y-128296918D01*
X212082353Y-128135766D01*
X212159515Y-127984327D01*
X212207490Y-127933531D01*
X212275311Y-127916736D01*
X212341446Y-127939273D01*
X212380485Y-127984327D01*
X212457647Y-128135766D01*
X212574731Y-128296918D01*
X212715582Y-128437769D01*
X212876734Y-128554853D01*
X213053304Y-128644820D01*
X213054219Y-128645286D01*
X213243657Y-128706838D01*
X213243658Y-128706838D01*
X213243661Y-128706839D01*
X213440403Y-128738000D01*
X213440404Y-128738000D01*
X213639596Y-128738000D01*
X213639597Y-128738000D01*
X213836339Y-128706839D01*
X213836342Y-128706838D01*
X213836343Y-128706838D01*
X214025780Y-128645286D01*
X214025780Y-128645285D01*
X214025783Y-128645285D01*
X214203266Y-128554853D01*
X214364418Y-128437769D01*
X214505269Y-128296918D01*
X214622353Y-128135766D01*
X214699515Y-127984327D01*
X214747490Y-127933531D01*
X214815311Y-127916736D01*
X214881446Y-127939273D01*
X214920485Y-127984327D01*
X214997647Y-128135766D01*
X215114731Y-128296918D01*
X215255582Y-128437769D01*
X215416734Y-128554853D01*
X215593304Y-128644820D01*
X215594219Y-128645286D01*
X215783657Y-128706838D01*
X215783658Y-128706838D01*
X215783661Y-128706839D01*
X215980403Y-128738000D01*
X215980404Y-128738000D01*
X216179596Y-128738000D01*
X216179597Y-128738000D01*
X216376339Y-128706839D01*
X216376342Y-128706838D01*
X216376343Y-128706838D01*
X216565780Y-128645286D01*
X216565780Y-128645285D01*
X216565783Y-128645285D01*
X216743266Y-128554853D01*
X216904418Y-128437769D01*
X217045269Y-128296918D01*
X217162353Y-128135766D01*
X217239515Y-127984327D01*
X217287490Y-127933531D01*
X217355311Y-127916736D01*
X217421446Y-127939273D01*
X217460485Y-127984327D01*
X217537647Y-128135766D01*
X217654731Y-128296918D01*
X217795582Y-128437769D01*
X217956734Y-128554853D01*
X218133304Y-128644820D01*
X218134219Y-128645286D01*
X218323657Y-128706838D01*
X218323658Y-128706838D01*
X218323661Y-128706839D01*
X218520403Y-128738000D01*
X218520404Y-128738000D01*
X218719596Y-128738000D01*
X218719597Y-128738000D01*
X218916339Y-128706839D01*
X218916342Y-128706838D01*
X218916343Y-128706838D01*
X219105780Y-128645286D01*
X219105780Y-128645285D01*
X219105783Y-128645285D01*
X219283266Y-128554853D01*
X219444418Y-128437769D01*
X219585269Y-128296918D01*
X219702353Y-128135766D01*
X219779515Y-127984327D01*
X219827490Y-127933531D01*
X219895311Y-127916736D01*
X219961446Y-127939273D01*
X220000485Y-127984327D01*
X220077647Y-128135766D01*
X220194731Y-128296918D01*
X220335582Y-128437769D01*
X220496734Y-128554853D01*
X220673304Y-128644820D01*
X220674219Y-128645286D01*
X220863657Y-128706838D01*
X220863658Y-128706838D01*
X220863661Y-128706839D01*
X221060403Y-128738000D01*
X221060404Y-128738000D01*
X221259596Y-128738000D01*
X221259597Y-128738000D01*
X221456339Y-128706839D01*
X221456342Y-128706838D01*
X221456343Y-128706838D01*
X221645780Y-128645286D01*
X221645780Y-128645285D01*
X221645783Y-128645285D01*
X221823266Y-128554853D01*
X221984418Y-128437769D01*
X222125269Y-128296918D01*
X222242353Y-128135766D01*
X222319795Y-127983776D01*
X222367769Y-127932981D01*
X222435590Y-127916186D01*
X222501725Y-127938723D01*
X222540765Y-127983777D01*
X222618077Y-128135508D01*
X222645580Y-128173363D01*
X222645581Y-128173364D01*
X223208871Y-127610074D01*
X223224755Y-127669353D01*
X223291898Y-127785647D01*
X223386853Y-127880602D01*
X223503147Y-127947745D01*
X223562425Y-127963628D01*
X222999134Y-128526917D01*
X223036994Y-128554424D01*
X223214405Y-128644820D01*
X223403777Y-128706352D01*
X223600437Y-128737500D01*
X223799563Y-128737500D01*
X223996222Y-128706352D01*
X224185594Y-128644820D01*
X224363005Y-128554424D01*
X224400863Y-128526918D01*
X224400863Y-128526917D01*
X223837574Y-127963628D01*
X223896853Y-127947745D01*
X224013147Y-127880602D01*
X224108102Y-127785647D01*
X224175245Y-127669353D01*
X224191128Y-127610074D01*
X224754417Y-128173363D01*
X224754418Y-128173363D01*
X224781924Y-128135505D01*
X224872320Y-127958094D01*
X224933852Y-127768722D01*
X224965000Y-127572063D01*
X224965000Y-127372936D01*
X224933852Y-127176277D01*
X224872320Y-126986903D01*
X224813497Y-126871458D01*
X224813496Y-126871457D01*
X224786365Y-126818209D01*
X225799500Y-126818209D01*
X225799500Y-127181790D01*
X225835137Y-127543630D01*
X225906064Y-127900212D01*
X225906067Y-127900223D01*
X226011614Y-128248165D01*
X226090151Y-128437769D01*
X226138648Y-128554853D01*
X226150754Y-128584078D01*
X226150756Y-128584083D01*
X226322140Y-128904720D01*
X226322151Y-128904738D01*
X226524140Y-129207035D01*
X226524150Y-129207049D01*
X226754807Y-129488106D01*
X227011893Y-129745192D01*
X227011898Y-129745196D01*
X227011899Y-129745197D01*
X227292956Y-129975854D01*
X227595268Y-130177853D01*
X227595277Y-130177858D01*
X227595279Y-130177859D01*
X227915916Y-130349243D01*
X227915918Y-130349243D01*
X227915924Y-130349247D01*
X228251836Y-130488386D01*
X228599767Y-130593930D01*
X228599773Y-130593931D01*
X228599776Y-130593932D01*
X228599787Y-130593935D01*
X228956369Y-130664862D01*
X229318206Y-130700500D01*
X229318209Y-130700500D01*
X229681791Y-130700500D01*
X229681794Y-130700500D01*
X230043631Y-130664862D01*
X230113045Y-130651054D01*
X230400212Y-130593935D01*
X230400223Y-130593932D01*
X230400223Y-130593931D01*
X230400233Y-130593930D01*
X230748164Y-130488386D01*
X231084076Y-130349247D01*
X231404732Y-130177853D01*
X231707044Y-129975854D01*
X231988101Y-129745197D01*
X232245197Y-129488101D01*
X232475854Y-129207044D01*
X232677853Y-128904732D01*
X232849247Y-128584076D01*
X232988386Y-128248164D01*
X233093930Y-127900233D01*
X233093932Y-127900223D01*
X233093935Y-127900212D01*
X233159200Y-127572096D01*
X233164862Y-127543631D01*
X233200500Y-127181794D01*
X233200500Y-126818206D01*
X233164862Y-126456369D01*
X233144971Y-126356369D01*
X233093935Y-126099787D01*
X233093932Y-126099776D01*
X233093931Y-126099773D01*
X233093930Y-126099767D01*
X232988386Y-125751836D01*
X232849247Y-125415924D01*
X232795794Y-125315921D01*
X232677859Y-125095279D01*
X232677858Y-125095277D01*
X232677853Y-125095268D01*
X232475854Y-124792956D01*
X232245197Y-124511899D01*
X232245196Y-124511898D01*
X232245192Y-124511893D01*
X231988106Y-124254807D01*
X231707049Y-124024150D01*
X231707048Y-124024149D01*
X231707044Y-124024146D01*
X231404732Y-123822147D01*
X231404727Y-123822144D01*
X231404720Y-123822140D01*
X231084083Y-123650756D01*
X231084078Y-123650754D01*
X230748165Y-123511614D01*
X230400223Y-123406067D01*
X230400212Y-123406064D01*
X230043630Y-123335137D01*
X229771111Y-123308296D01*
X229681794Y-123299500D01*
X229318206Y-123299500D01*
X229235679Y-123307628D01*
X228956369Y-123335137D01*
X228599787Y-123406064D01*
X228599776Y-123406067D01*
X228251834Y-123511614D01*
X227915921Y-123650754D01*
X227915916Y-123650756D01*
X227595279Y-123822140D01*
X227595261Y-123822151D01*
X227292964Y-124024140D01*
X227292950Y-124024150D01*
X227011893Y-124254807D01*
X226754807Y-124511893D01*
X226524150Y-124792950D01*
X226524140Y-124792964D01*
X226322151Y-125095261D01*
X226322140Y-125095279D01*
X226150756Y-125415916D01*
X226150754Y-125415921D01*
X226011614Y-125751834D01*
X225906067Y-126099776D01*
X225906064Y-126099787D01*
X225835137Y-126456369D01*
X225799500Y-126818209D01*
X224786365Y-126818209D01*
X224781924Y-126809494D01*
X224754417Y-126771635D01*
X224754417Y-126771634D01*
X224191128Y-127334924D01*
X224175245Y-127275647D01*
X224108102Y-127159353D01*
X224013147Y-127064398D01*
X223896853Y-126997255D01*
X223837574Y-126981371D01*
X224400864Y-126418081D01*
X224400863Y-126418080D01*
X224363008Y-126390577D01*
X224185594Y-126300179D01*
X223996222Y-126238647D01*
X223799563Y-126207500D01*
X223600437Y-126207500D01*
X223403777Y-126238647D01*
X223214405Y-126300179D01*
X223036990Y-126390577D01*
X222999135Y-126418080D01*
X222999135Y-126418081D01*
X223562425Y-126981371D01*
X223503147Y-126997255D01*
X223386853Y-127064398D01*
X223291898Y-127159353D01*
X223224755Y-127275647D01*
X223208871Y-127334925D01*
X222645581Y-126771635D01*
X222645580Y-126771635D01*
X222618075Y-126809493D01*
X222540764Y-126961223D01*
X222492790Y-127012018D01*
X222424969Y-127028813D01*
X222358834Y-127006275D01*
X222319795Y-126961222D01*
X222242485Y-126809494D01*
X222242353Y-126809234D01*
X222125269Y-126648082D01*
X221984418Y-126507231D01*
X221823266Y-126390147D01*
X221756973Y-126356369D01*
X221645780Y-126299713D01*
X221456342Y-126238161D01*
X221308782Y-126214790D01*
X221259597Y-126207000D01*
X221060403Y-126207000D01*
X220994822Y-126217387D01*
X220863659Y-126238161D01*
X220863656Y-126238161D01*
X220674219Y-126299713D01*
X220496733Y-126390147D01*
X220458286Y-126418081D01*
X220335582Y-126507231D01*
X220335580Y-126507233D01*
X220335579Y-126507233D01*
X220194733Y-126648079D01*
X220194733Y-126648080D01*
X220194731Y-126648082D01*
X220144447Y-126717290D01*
X220077647Y-126809233D01*
X220000485Y-126960672D01*
X219952510Y-127011468D01*
X219884689Y-127028263D01*
X219818554Y-127005725D01*
X219779515Y-126960672D01*
X219702485Y-126809494D01*
X219702353Y-126809234D01*
X219585269Y-126648082D01*
X219444418Y-126507231D01*
X219283266Y-126390147D01*
X219216973Y-126356369D01*
X219105780Y-126299713D01*
X218916342Y-126238161D01*
X218768782Y-126214790D01*
X218719597Y-126207000D01*
X218520403Y-126207000D01*
X218454822Y-126217387D01*
X218323659Y-126238161D01*
X218323656Y-126238161D01*
X218134219Y-126299713D01*
X217956733Y-126390147D01*
X217918286Y-126418081D01*
X217795582Y-126507231D01*
X217795580Y-126507233D01*
X217795579Y-126507233D01*
X217654733Y-126648079D01*
X217654733Y-126648080D01*
X217654731Y-126648082D01*
X217604447Y-126717290D01*
X217537647Y-126809233D01*
X217460485Y-126960672D01*
X217412510Y-127011468D01*
X217344689Y-127028263D01*
X217278554Y-127005725D01*
X217239515Y-126960672D01*
X217162485Y-126809494D01*
X217162353Y-126809234D01*
X217045269Y-126648082D01*
X216904418Y-126507231D01*
X216743266Y-126390147D01*
X216676973Y-126356369D01*
X216565780Y-126299713D01*
X216376342Y-126238161D01*
X216228782Y-126214790D01*
X216179597Y-126207000D01*
X215980403Y-126207000D01*
X215914822Y-126217387D01*
X215783659Y-126238161D01*
X215783656Y-126238161D01*
X215594219Y-126299713D01*
X215416733Y-126390147D01*
X215378286Y-126418081D01*
X215255582Y-126507231D01*
X215255580Y-126507233D01*
X215255579Y-126507233D01*
X215114733Y-126648079D01*
X215114733Y-126648080D01*
X215114731Y-126648082D01*
X215064447Y-126717290D01*
X214997647Y-126809233D01*
X214920485Y-126960672D01*
X214872510Y-127011468D01*
X214804689Y-127028263D01*
X214738554Y-127005725D01*
X214699515Y-126960672D01*
X214622485Y-126809494D01*
X214622353Y-126809234D01*
X214505269Y-126648082D01*
X214364418Y-126507231D01*
X214203266Y-126390147D01*
X214136973Y-126356369D01*
X214025780Y-126299713D01*
X213836342Y-126238161D01*
X213688782Y-126214790D01*
X213639597Y-126207000D01*
X213440403Y-126207000D01*
X213374822Y-126217387D01*
X213243659Y-126238161D01*
X213243656Y-126238161D01*
X213054219Y-126299713D01*
X212876733Y-126390147D01*
X212838286Y-126418081D01*
X212715582Y-126507231D01*
X212715580Y-126507233D01*
X212715579Y-126507233D01*
X212574733Y-126648079D01*
X212574733Y-126648080D01*
X212574731Y-126648082D01*
X212524447Y-126717290D01*
X212457647Y-126809233D01*
X212380485Y-126960672D01*
X212332510Y-127011468D01*
X212264689Y-127028263D01*
X212198554Y-127005725D01*
X212159515Y-126960672D01*
X212082485Y-126809494D01*
X212082353Y-126809234D01*
X211965269Y-126648082D01*
X211824418Y-126507231D01*
X211663266Y-126390147D01*
X211596973Y-126356369D01*
X211485780Y-126299713D01*
X211296342Y-126238161D01*
X211148782Y-126214790D01*
X211099597Y-126207000D01*
X210900403Y-126207000D01*
X210834822Y-126217387D01*
X210703659Y-126238161D01*
X210703656Y-126238161D01*
X210514219Y-126299713D01*
X210336733Y-126390147D01*
X210298286Y-126418081D01*
X210175582Y-126507231D01*
X210175580Y-126507233D01*
X210175579Y-126507233D01*
X210034733Y-126648079D01*
X210034733Y-126648080D01*
X210034731Y-126648082D01*
X209999555Y-126696497D01*
X209917645Y-126809235D01*
X209840203Y-126961223D01*
X209792229Y-127012018D01*
X209724408Y-127028813D01*
X209658273Y-127006275D01*
X209619234Y-126961222D01*
X209541924Y-126809494D01*
X209514417Y-126771635D01*
X209514417Y-126771634D01*
X208951128Y-127334924D01*
X208935245Y-127275647D01*
X208868102Y-127159353D01*
X208773147Y-127064398D01*
X208656853Y-126997255D01*
X208597574Y-126981371D01*
X209160864Y-126418081D01*
X209160863Y-126418080D01*
X209123008Y-126390577D01*
X208945594Y-126300179D01*
X208756222Y-126238647D01*
X208559563Y-126207500D01*
X208360437Y-126207500D01*
X208163777Y-126238647D01*
X207974405Y-126300179D01*
X207796990Y-126390577D01*
X207759135Y-126418080D01*
X207759135Y-126418081D01*
X208322425Y-126981371D01*
X208263147Y-126997255D01*
X208146853Y-127064398D01*
X208051898Y-127159353D01*
X207984755Y-127275647D01*
X207968871Y-127334925D01*
X207405581Y-126771635D01*
X207405580Y-126771635D01*
X207378075Y-126809493D01*
X207300764Y-126961223D01*
X207252790Y-127012018D01*
X207184969Y-127028813D01*
X207118834Y-127006275D01*
X207079795Y-126961222D01*
X207002485Y-126809494D01*
X207002353Y-126809234D01*
X206885269Y-126648082D01*
X206744418Y-126507231D01*
X206583266Y-126390147D01*
X206516973Y-126356369D01*
X206405780Y-126299713D01*
X206216342Y-126238161D01*
X206068782Y-126214790D01*
X206019597Y-126207000D01*
X205820403Y-126207000D01*
X205754822Y-126217387D01*
X205623659Y-126238161D01*
X205623656Y-126238161D01*
X205434219Y-126299713D01*
X205256733Y-126390147D01*
X205218286Y-126418081D01*
X205095582Y-126507231D01*
X205095580Y-126507233D01*
X205095579Y-126507233D01*
X204954733Y-126648079D01*
X204954733Y-126648080D01*
X204954731Y-126648082D01*
X204904447Y-126717290D01*
X204837647Y-126809233D01*
X204760485Y-126960672D01*
X204712510Y-127011468D01*
X204644689Y-127028263D01*
X204578554Y-127005725D01*
X204539515Y-126960672D01*
X204462485Y-126809494D01*
X204462353Y-126809234D01*
X204345269Y-126648082D01*
X204204418Y-126507231D01*
X204043266Y-126390147D01*
X203976973Y-126356369D01*
X203865780Y-126299713D01*
X203676342Y-126238161D01*
X203528782Y-126214790D01*
X203479597Y-126207000D01*
X203280403Y-126207000D01*
X203214822Y-126217387D01*
X203083659Y-126238161D01*
X203083656Y-126238161D01*
X202894219Y-126299713D01*
X202716733Y-126390147D01*
X202678286Y-126418081D01*
X202555582Y-126507231D01*
X202555580Y-126507233D01*
X202555579Y-126507233D01*
X202414733Y-126648079D01*
X202414733Y-126648080D01*
X202414731Y-126648082D01*
X202364447Y-126717290D01*
X202297647Y-126809233D01*
X202220485Y-126960672D01*
X202172510Y-127011468D01*
X202104689Y-127028263D01*
X202038554Y-127005725D01*
X201999515Y-126960672D01*
X201922485Y-126809494D01*
X201922353Y-126809234D01*
X201805269Y-126648082D01*
X201664418Y-126507231D01*
X201503266Y-126390147D01*
X201436973Y-126356369D01*
X201325780Y-126299713D01*
X201136342Y-126238161D01*
X200988782Y-126214790D01*
X200939597Y-126207000D01*
X200740403Y-126207000D01*
X200674822Y-126217387D01*
X200543659Y-126238161D01*
X200543656Y-126238161D01*
X200354219Y-126299713D01*
X200176733Y-126390147D01*
X200138286Y-126418081D01*
X200015582Y-126507231D01*
X200015580Y-126507233D01*
X200015579Y-126507233D01*
X199874733Y-126648079D01*
X199874733Y-126648080D01*
X199874731Y-126648082D01*
X199824447Y-126717290D01*
X199757647Y-126809233D01*
X199680485Y-126960672D01*
X199632510Y-127011468D01*
X199564689Y-127028263D01*
X199498554Y-127005725D01*
X199459515Y-126960672D01*
X199382485Y-126809494D01*
X199382353Y-126809234D01*
X199265269Y-126648082D01*
X199124418Y-126507231D01*
X198963266Y-126390147D01*
X198896973Y-126356369D01*
X198785780Y-126299713D01*
X198596342Y-126238161D01*
X198448782Y-126214790D01*
X198399597Y-126207000D01*
X198200403Y-126207000D01*
X198134822Y-126217387D01*
X198003659Y-126238161D01*
X198003656Y-126238161D01*
X197814219Y-126299713D01*
X197636733Y-126390147D01*
X197598286Y-126418081D01*
X197475582Y-126507231D01*
X197475580Y-126507233D01*
X197475579Y-126507233D01*
X197334733Y-126648079D01*
X197334733Y-126648080D01*
X197334731Y-126648082D01*
X197284447Y-126717290D01*
X197217647Y-126809233D01*
X197140485Y-126960672D01*
X197092510Y-127011468D01*
X197024689Y-127028263D01*
X196958554Y-127005725D01*
X196919515Y-126960672D01*
X196842485Y-126809494D01*
X196842353Y-126809234D01*
X196725269Y-126648082D01*
X196584418Y-126507231D01*
X196423266Y-126390147D01*
X196356973Y-126356369D01*
X196245780Y-126299713D01*
X196056342Y-126238161D01*
X195908782Y-126214790D01*
X195859597Y-126207000D01*
X195660403Y-126207000D01*
X195594822Y-126217387D01*
X195463659Y-126238161D01*
X195463656Y-126238161D01*
X195274219Y-126299713D01*
X195096733Y-126390147D01*
X195058286Y-126418081D01*
X194935582Y-126507231D01*
X194935580Y-126507233D01*
X194935579Y-126507233D01*
X194794733Y-126648079D01*
X194794733Y-126648080D01*
X194794731Y-126648082D01*
X194744447Y-126717290D01*
X194677647Y-126809233D01*
X194600485Y-126960672D01*
X194552510Y-127011468D01*
X194484689Y-127028263D01*
X194418554Y-127005725D01*
X194379515Y-126960672D01*
X194302485Y-126809494D01*
X194302353Y-126809234D01*
X194185269Y-126648082D01*
X194044418Y-126507231D01*
X193883266Y-126390147D01*
X193816973Y-126356369D01*
X193705780Y-126299713D01*
X193516342Y-126238161D01*
X193368782Y-126214790D01*
X193319597Y-126207000D01*
X193120403Y-126207000D01*
X193054822Y-126217387D01*
X192923659Y-126238161D01*
X192923656Y-126238161D01*
X192734219Y-126299713D01*
X192556733Y-126390147D01*
X192518286Y-126418081D01*
X192395582Y-126507231D01*
X192395580Y-126507233D01*
X192395579Y-126507233D01*
X192254733Y-126648079D01*
X192254733Y-126648080D01*
X192254731Y-126648082D01*
X192204447Y-126717290D01*
X192137647Y-126809233D01*
X192060485Y-126960672D01*
X192012510Y-127011468D01*
X191944689Y-127028263D01*
X191878554Y-127005725D01*
X191839515Y-126960672D01*
X191762485Y-126809494D01*
X191762353Y-126809234D01*
X191645269Y-126648082D01*
X191504418Y-126507231D01*
X191343266Y-126390147D01*
X191276973Y-126356369D01*
X191165780Y-126299713D01*
X190976342Y-126238161D01*
X190828782Y-126214790D01*
X190779597Y-126207000D01*
X190580403Y-126207000D01*
X190514822Y-126217387D01*
X190383659Y-126238161D01*
X190383656Y-126238161D01*
X190194219Y-126299713D01*
X190016733Y-126390147D01*
X189978286Y-126418081D01*
X189855582Y-126507231D01*
X189855580Y-126507233D01*
X189855579Y-126507233D01*
X189714733Y-126648079D01*
X189714733Y-126648080D01*
X189714731Y-126648082D01*
X189664447Y-126717290D01*
X189597647Y-126809233D01*
X189520485Y-126960672D01*
X189472510Y-127011468D01*
X189404689Y-127028263D01*
X189338554Y-127005725D01*
X189299515Y-126960672D01*
X189222485Y-126809494D01*
X189222353Y-126809234D01*
X189105269Y-126648082D01*
X188964418Y-126507231D01*
X188803266Y-126390147D01*
X188736973Y-126356369D01*
X188625780Y-126299713D01*
X188436342Y-126238161D01*
X188288782Y-126214790D01*
X188239597Y-126207000D01*
X188040403Y-126207000D01*
X187974822Y-126217387D01*
X187843659Y-126238161D01*
X187843656Y-126238161D01*
X187654219Y-126299713D01*
X187476733Y-126390147D01*
X187438286Y-126418081D01*
X187315582Y-126507231D01*
X187315580Y-126507233D01*
X187315579Y-126507233D01*
X187174733Y-126648079D01*
X187174733Y-126648080D01*
X187174731Y-126648082D01*
X187124447Y-126717290D01*
X187057647Y-126809233D01*
X186980485Y-126960672D01*
X186932510Y-127011468D01*
X186864689Y-127028263D01*
X186798554Y-127005725D01*
X186759515Y-126960672D01*
X186682485Y-126809494D01*
X186682353Y-126809234D01*
X186565269Y-126648082D01*
X186424418Y-126507231D01*
X186263266Y-126390147D01*
X186196973Y-126356369D01*
X186085780Y-126299713D01*
X185896342Y-126238161D01*
X185748782Y-126214790D01*
X185699597Y-126207000D01*
X185500403Y-126207000D01*
X185434822Y-126217387D01*
X185303659Y-126238161D01*
X185303656Y-126238161D01*
X185114219Y-126299713D01*
X184936733Y-126390147D01*
X184898286Y-126418081D01*
X184775582Y-126507231D01*
X184775580Y-126507233D01*
X184775579Y-126507233D01*
X184634733Y-126648079D01*
X184634733Y-126648080D01*
X184634731Y-126648082D01*
X184584447Y-126717290D01*
X184517647Y-126809233D01*
X184440485Y-126960672D01*
X184392510Y-127011468D01*
X184324689Y-127028263D01*
X184258554Y-127005725D01*
X184219515Y-126960672D01*
X184142485Y-126809494D01*
X184142353Y-126809234D01*
X184025269Y-126648082D01*
X183884418Y-126507231D01*
X183723266Y-126390147D01*
X183656973Y-126356369D01*
X183545780Y-126299713D01*
X183356342Y-126238161D01*
X183208782Y-126214790D01*
X183159597Y-126207000D01*
X182960403Y-126207000D01*
X182894822Y-126217387D01*
X182763659Y-126238161D01*
X182763656Y-126238161D01*
X182574219Y-126299713D01*
X182396733Y-126390147D01*
X182358286Y-126418081D01*
X182235582Y-126507231D01*
X182235580Y-126507233D01*
X182235579Y-126507233D01*
X182094733Y-126648079D01*
X182094733Y-126648080D01*
X182094731Y-126648082D01*
X182044447Y-126717290D01*
X181977647Y-126809233D01*
X181900485Y-126960672D01*
X181852510Y-127011468D01*
X181784689Y-127028263D01*
X181718554Y-127005725D01*
X181679515Y-126960672D01*
X181602485Y-126809494D01*
X181602353Y-126809234D01*
X181485269Y-126648082D01*
X181344418Y-126507231D01*
X181183266Y-126390147D01*
X181116973Y-126356369D01*
X181005780Y-126299713D01*
X180816342Y-126238161D01*
X180668782Y-126214790D01*
X180619597Y-126207000D01*
X180420403Y-126207000D01*
X180354822Y-126217387D01*
X180223659Y-126238161D01*
X180223656Y-126238161D01*
X180034219Y-126299713D01*
X179856733Y-126390147D01*
X179818286Y-126418081D01*
X179695582Y-126507231D01*
X179695580Y-126507233D01*
X179695579Y-126507233D01*
X179554733Y-126648079D01*
X179554733Y-126648080D01*
X179554731Y-126648082D01*
X179504447Y-126717290D01*
X179437647Y-126809233D01*
X179360485Y-126960672D01*
X179312510Y-127011468D01*
X179244689Y-127028263D01*
X179178554Y-127005725D01*
X179139515Y-126960672D01*
X179062485Y-126809494D01*
X179062353Y-126809234D01*
X178945269Y-126648082D01*
X178804418Y-126507231D01*
X178643266Y-126390147D01*
X178576973Y-126356369D01*
X178465780Y-126299713D01*
X178276342Y-126238161D01*
X178128782Y-126214790D01*
X178079597Y-126207000D01*
X177880403Y-126207000D01*
X177814822Y-126217387D01*
X177683659Y-126238161D01*
X177683656Y-126238161D01*
X177494219Y-126299713D01*
X177316733Y-126390147D01*
X177278286Y-126418081D01*
X177155582Y-126507231D01*
X177155580Y-126507233D01*
X177155579Y-126507233D01*
X177014733Y-126648079D01*
X177014733Y-126648080D01*
X177014731Y-126648082D01*
X176964447Y-126717290D01*
X176897647Y-126809233D01*
X176807213Y-126986719D01*
X176745661Y-127176156D01*
X176745661Y-127176159D01*
X176714500Y-127372903D01*
X176171828Y-127372903D01*
X176173505Y-127355877D01*
X176191194Y-127176277D01*
X176200500Y-127081794D01*
X176200500Y-126718206D01*
X176164862Y-126356369D01*
X176141349Y-126238161D01*
X176093935Y-125999787D01*
X176093932Y-125999776D01*
X176093931Y-125999773D01*
X176093930Y-125999767D01*
X175988386Y-125651836D01*
X175849247Y-125315924D01*
X175677853Y-124995268D01*
X175475854Y-124692956D01*
X175245197Y-124411899D01*
X175245196Y-124411898D01*
X175245192Y-124411893D01*
X174988106Y-124154807D01*
X174707049Y-123924150D01*
X174707048Y-123924149D01*
X174707044Y-123924146D01*
X174404732Y-123722147D01*
X174404727Y-123722144D01*
X174404720Y-123722140D01*
X174084083Y-123550756D01*
X174084078Y-123550754D01*
X173748165Y-123411614D01*
X173400223Y-123306067D01*
X173400212Y-123306064D01*
X173043630Y-123235137D01*
X172771111Y-123208296D01*
X172681794Y-123199500D01*
X172318206Y-123199500D01*
X172235679Y-123207628D01*
X171956369Y-123235137D01*
X171599787Y-123306064D01*
X171599776Y-123306067D01*
X171251834Y-123411614D01*
X170915921Y-123550754D01*
X170915916Y-123550756D01*
X170595279Y-123722140D01*
X170595261Y-123722151D01*
X170292964Y-123924140D01*
X170292950Y-123924150D01*
X170011893Y-124154807D01*
X169754807Y-124411893D01*
X169524150Y-124692950D01*
X169524140Y-124692964D01*
X169322151Y-124995261D01*
X169322140Y-124995279D01*
X169150756Y-125315916D01*
X169150754Y-125315921D01*
X169011614Y-125651834D01*
X168906067Y-125999776D01*
X168906064Y-125999787D01*
X168835137Y-126356369D01*
X168799500Y-126718209D01*
X168000500Y-126718209D01*
X168000500Y-96108711D01*
X168649500Y-96108711D01*
X168649500Y-96351288D01*
X168681161Y-96591785D01*
X168743947Y-96826104D01*
X168819325Y-97008081D01*
X168836776Y-97050212D01*
X168958064Y-97260289D01*
X168958066Y-97260292D01*
X168958067Y-97260293D01*
X169105733Y-97452736D01*
X169105739Y-97452743D01*
X169277256Y-97624260D01*
X169277262Y-97624265D01*
X169469711Y-97771936D01*
X169679788Y-97893224D01*
X169903900Y-97986054D01*
X170138211Y-98048838D01*
X170318586Y-98072584D01*
X170378711Y-98080500D01*
X170378712Y-98080500D01*
X170621289Y-98080500D01*
X170669388Y-98074167D01*
X170861789Y-98048838D01*
X171096100Y-97986054D01*
X171320212Y-97893224D01*
X171530289Y-97771936D01*
X171722738Y-97624265D01*
X171894265Y-97452738D01*
X172041936Y-97260289D01*
X172163224Y-97050212D01*
X172256054Y-96826100D01*
X172318838Y-96591789D01*
X172350500Y-96351288D01*
X172350500Y-96108712D01*
X172318838Y-95868211D01*
X172256054Y-95633900D01*
X172163224Y-95409788D01*
X172041936Y-95199711D01*
X171894265Y-95007262D01*
X171894260Y-95007256D01*
X171722743Y-94835739D01*
X171722736Y-94835733D01*
X171530293Y-94688067D01*
X171530292Y-94688066D01*
X171530289Y-94688064D01*
X171322190Y-94567918D01*
X171320214Y-94566777D01*
X171320205Y-94566773D01*
X171096104Y-94473947D01*
X170861785Y-94411161D01*
X170621289Y-94379500D01*
X170621288Y-94379500D01*
X170378712Y-94379500D01*
X170378711Y-94379500D01*
X170138214Y-94411161D01*
X169903895Y-94473947D01*
X169679794Y-94566773D01*
X169679785Y-94566777D01*
X169469706Y-94688067D01*
X169277263Y-94835733D01*
X169277256Y-94835739D01*
X169105739Y-95007256D01*
X169105733Y-95007263D01*
X168958067Y-95199706D01*
X168836777Y-95409785D01*
X168836773Y-95409794D01*
X168743947Y-95633895D01*
X168681161Y-95868214D01*
X168649500Y-96108711D01*
X168000500Y-96108711D01*
X168000500Y-84678711D01*
X168649500Y-84678711D01*
X168649500Y-84921288D01*
X168681161Y-85161785D01*
X168743947Y-85396104D01*
X168836773Y-85620205D01*
X168836777Y-85620214D01*
X168847461Y-85638719D01*
X168958064Y-85830289D01*
X168958066Y-85830292D01*
X168958067Y-85830293D01*
X169105733Y-86022736D01*
X169105739Y-86022743D01*
X169277256Y-86194260D01*
X169277262Y-86194265D01*
X169469711Y-86341936D01*
X169679788Y-86463224D01*
X169903900Y-86556054D01*
X170138211Y-86618838D01*
X170318586Y-86642584D01*
X170378711Y-86650500D01*
X170378712Y-86650500D01*
X170621289Y-86650500D01*
X170669388Y-86644167D01*
X170861789Y-86618838D01*
X171096100Y-86556054D01*
X171320212Y-86463224D01*
X171530289Y-86341936D01*
X171722738Y-86194265D01*
X171894265Y-86022738D01*
X172041936Y-85830289D01*
X172163224Y-85620212D01*
X172256054Y-85396100D01*
X172318838Y-85161789D01*
X172350500Y-84921288D01*
X172350500Y-84678712D01*
X172318838Y-84438211D01*
X172256054Y-84203900D01*
X172163224Y-83979788D01*
X172041936Y-83769711D01*
X171894265Y-83577262D01*
X171894260Y-83577256D01*
X171722743Y-83405739D01*
X171722736Y-83405733D01*
X171530293Y-83258067D01*
X171530292Y-83258066D01*
X171530289Y-83258064D01*
X171320212Y-83136776D01*
X171320205Y-83136773D01*
X171096104Y-83043947D01*
X170861785Y-82981161D01*
X170621289Y-82949500D01*
X170621288Y-82949500D01*
X170378712Y-82949500D01*
X170378711Y-82949500D01*
X170138214Y-82981161D01*
X169903895Y-83043947D01*
X169679794Y-83136773D01*
X169679785Y-83136777D01*
X169469706Y-83258067D01*
X169277263Y-83405733D01*
X169277256Y-83405739D01*
X169105739Y-83577256D01*
X169105733Y-83577263D01*
X168958067Y-83769706D01*
X168836777Y-83979785D01*
X168836773Y-83979794D01*
X168743947Y-84203895D01*
X168681161Y-84438214D01*
X168649500Y-84678711D01*
X168000500Y-84678711D01*
X168000500Y-78878711D01*
X168649500Y-78878711D01*
X168649500Y-79121288D01*
X168681161Y-79361785D01*
X168743947Y-79596104D01*
X168779261Y-79681359D01*
X168836776Y-79820212D01*
X168958064Y-80030289D01*
X168958066Y-80030292D01*
X168958067Y-80030293D01*
X169105733Y-80222736D01*
X169105739Y-80222743D01*
X169277256Y-80394260D01*
X169277262Y-80394265D01*
X169469711Y-80541936D01*
X169679788Y-80663224D01*
X169903900Y-80756054D01*
X170138211Y-80818838D01*
X170318586Y-80842584D01*
X170378711Y-80850500D01*
X170378712Y-80850500D01*
X170621289Y-80850500D01*
X170669388Y-80844167D01*
X170861789Y-80818838D01*
X171096100Y-80756054D01*
X171320212Y-80663224D01*
X171530289Y-80541936D01*
X171722738Y-80394265D01*
X171894265Y-80222738D01*
X172041936Y-80030289D01*
X172163224Y-79820212D01*
X172256054Y-79596100D01*
X172318838Y-79361789D01*
X172350500Y-79121288D01*
X172350500Y-78878712D01*
X172318838Y-78638211D01*
X172256054Y-78403900D01*
X172163224Y-78179788D01*
X172041936Y-77969711D01*
X171894265Y-77777262D01*
X171894260Y-77777256D01*
X171722743Y-77605739D01*
X171722736Y-77605733D01*
X171530293Y-77458067D01*
X171530292Y-77458066D01*
X171530289Y-77458064D01*
X171338300Y-77347219D01*
X171320214Y-77336777D01*
X171320205Y-77336773D01*
X171096104Y-77243947D01*
X170861785Y-77181161D01*
X170621289Y-77149500D01*
X170621288Y-77149500D01*
X170378712Y-77149500D01*
X170378711Y-77149500D01*
X170138214Y-77181161D01*
X169903895Y-77243947D01*
X169679794Y-77336773D01*
X169679785Y-77336777D01*
X169469706Y-77458067D01*
X169277263Y-77605733D01*
X169277256Y-77605739D01*
X169105739Y-77777256D01*
X169105733Y-77777263D01*
X168958067Y-77969706D01*
X168836777Y-78179785D01*
X168836773Y-78179794D01*
X168743947Y-78403895D01*
X168681161Y-78638214D01*
X168649500Y-78878711D01*
X168000500Y-78878711D01*
X168000500Y-73668197D01*
X173872500Y-73668197D01*
X173872500Y-73673232D01*
X173872500Y-86321807D01*
X173896612Y-86443028D01*
X173896614Y-86443035D01*
X173919887Y-86499219D01*
X173943917Y-86557233D01*
X173985080Y-86618838D01*
X173988225Y-86623545D01*
X173988229Y-86623552D01*
X174012585Y-86660003D01*
X174012591Y-86660011D01*
X175591010Y-88238430D01*
X175624495Y-88299753D01*
X175625802Y-88345508D01*
X175599500Y-88511576D01*
X175599500Y-88708422D01*
X175630290Y-88902826D01*
X175691117Y-89090029D01*
X175766258Y-89237500D01*
X175780476Y-89265405D01*
X175896172Y-89424646D01*
X176035354Y-89563828D01*
X176194595Y-89679524D01*
X176300186Y-89733325D01*
X176371213Y-89769515D01*
X176422009Y-89817489D01*
X176438804Y-89885310D01*
X176416267Y-89951445D01*
X176371213Y-89990485D01*
X176194594Y-90080476D01*
X176103741Y-90146485D01*
X176035354Y-90196172D01*
X176035352Y-90196174D01*
X176035351Y-90196174D01*
X175896174Y-90335351D01*
X175896174Y-90335352D01*
X175896172Y-90335354D01*
X175847183Y-90402781D01*
X175780476Y-90494594D01*
X175691117Y-90669970D01*
X175630290Y-90857173D01*
X175599500Y-91051577D01*
X175599500Y-91248422D01*
X175630290Y-91442826D01*
X175691117Y-91630029D01*
X175751848Y-91749219D01*
X175780476Y-91805405D01*
X175896172Y-91964646D01*
X176035354Y-92103828D01*
X176194595Y-92219524D01*
X176300186Y-92273325D01*
X176371213Y-92309515D01*
X176422009Y-92357489D01*
X176438804Y-92425310D01*
X176416267Y-92491445D01*
X176371213Y-92530485D01*
X176194594Y-92620476D01*
X176149382Y-92653325D01*
X176035354Y-92736172D01*
X176035352Y-92736174D01*
X176035351Y-92736174D01*
X175896174Y-92875351D01*
X175896174Y-92875352D01*
X175896172Y-92875354D01*
X175846485Y-92943741D01*
X175780476Y-93034594D01*
X175691117Y-93209970D01*
X175630290Y-93397173D01*
X175599500Y-93591577D01*
X175599500Y-93788422D01*
X175630290Y-93982826D01*
X175691117Y-94170029D01*
X175759682Y-94304594D01*
X175780476Y-94345405D01*
X175896172Y-94504646D01*
X176035354Y-94643828D01*
X176194595Y-94759524D01*
X176369975Y-94848884D01*
X176369977Y-94848884D01*
X176369980Y-94848886D01*
X176463497Y-94879271D01*
X176526418Y-94899715D01*
X176575782Y-94929965D01*
X182434531Y-100788714D01*
X182468016Y-100850037D01*
X182463032Y-100919729D01*
X182421160Y-100975662D01*
X182403150Y-100986877D01*
X182396736Y-100990145D01*
X182358286Y-101018081D01*
X182235582Y-101107231D01*
X182235580Y-101107233D01*
X182235579Y-101107233D01*
X182094733Y-101248079D01*
X182094733Y-101248080D01*
X182094731Y-101248082D01*
X182064864Y-101289190D01*
X181977647Y-101409233D01*
X181900485Y-101560672D01*
X181852510Y-101611468D01*
X181784689Y-101628263D01*
X181718554Y-101605725D01*
X181679515Y-101560672D01*
X181602485Y-101409494D01*
X181602353Y-101409234D01*
X181485269Y-101248082D01*
X181344418Y-101107231D01*
X181183266Y-100990147D01*
X181045063Y-100919729D01*
X181005780Y-100899713D01*
X180816342Y-100838161D01*
X180668782Y-100814790D01*
X180619597Y-100807000D01*
X180420403Y-100807000D01*
X180359267Y-100816683D01*
X180223659Y-100838161D01*
X180223656Y-100838161D01*
X180034219Y-100899713D01*
X179856733Y-100990147D01*
X179818286Y-101018081D01*
X179695582Y-101107231D01*
X179695580Y-101107233D01*
X179695579Y-101107233D01*
X179554733Y-101248079D01*
X179554733Y-101248080D01*
X179554731Y-101248082D01*
X179524864Y-101289190D01*
X179437647Y-101409233D01*
X179360485Y-101560672D01*
X179312510Y-101611468D01*
X179244689Y-101628263D01*
X179178554Y-101605725D01*
X179139515Y-101560672D01*
X179062485Y-101409494D01*
X179062353Y-101409234D01*
X178945269Y-101248082D01*
X178804418Y-101107231D01*
X178643266Y-100990147D01*
X178505063Y-100919729D01*
X178465780Y-100899713D01*
X178276342Y-100838161D01*
X178128782Y-100814790D01*
X178079597Y-100807000D01*
X177880403Y-100807000D01*
X177819267Y-100816683D01*
X177683659Y-100838161D01*
X177683656Y-100838161D01*
X177494219Y-100899713D01*
X177316733Y-100990147D01*
X177278286Y-101018081D01*
X177155582Y-101107231D01*
X177155580Y-101107233D01*
X177155579Y-101107233D01*
X177014733Y-101248079D01*
X177014733Y-101248080D01*
X177014731Y-101248082D01*
X176984864Y-101289190D01*
X176897647Y-101409233D01*
X176807213Y-101586719D01*
X176745661Y-101776156D01*
X176745661Y-101776159D01*
X176714500Y-101972903D01*
X176714500Y-102172096D01*
X176745661Y-102368840D01*
X176745661Y-102368843D01*
X176807213Y-102558280D01*
X176856957Y-102655908D01*
X176897647Y-102735766D01*
X177014731Y-102896918D01*
X177155582Y-103037769D01*
X177316734Y-103154853D01*
X177475213Y-103235602D01*
X177494219Y-103245286D01*
X177683657Y-103306838D01*
X177683658Y-103306838D01*
X177683661Y-103306839D01*
X177880403Y-103338000D01*
X177880404Y-103338000D01*
X178037311Y-103338000D01*
X178104350Y-103357685D01*
X178124992Y-103374319D01*
X196886051Y-122135379D01*
X196886055Y-122135382D01*
X197020032Y-122224903D01*
X197094463Y-122255732D01*
X197094464Y-122255733D01*
X197094465Y-122255733D01*
X197168898Y-122286565D01*
X197326929Y-122317999D01*
X197326933Y-122318000D01*
X197326934Y-122318000D01*
X210580567Y-122318000D01*
X210580568Y-122317999D01*
X210738602Y-122286565D01*
X210887468Y-122224902D01*
X211021445Y-122135382D01*
X211135382Y-122021445D01*
X211224902Y-121887468D01*
X211286565Y-121738602D01*
X211318000Y-121580566D01*
X211318000Y-121419434D01*
X211286565Y-121261398D01*
X211255733Y-121186965D01*
X211224903Y-121112533D01*
X211135380Y-120978552D01*
X211021447Y-120864619D01*
X210887466Y-120775096D01*
X210738602Y-120713435D01*
X210738594Y-120713433D01*
X210580570Y-120682000D01*
X210580566Y-120682000D01*
X197797689Y-120682000D01*
X197730650Y-120662315D01*
X197710008Y-120645681D01*
X180604117Y-103539790D01*
X180570632Y-103478467D01*
X180575616Y-103408775D01*
X180617488Y-103352842D01*
X180672398Y-103329637D01*
X180816339Y-103306839D01*
X180816343Y-103306838D01*
X181005780Y-103245286D01*
X181005780Y-103245285D01*
X181005783Y-103245285D01*
X181183266Y-103154853D01*
X181344418Y-103037769D01*
X181485269Y-102896918D01*
X181602353Y-102735766D01*
X181679515Y-102584327D01*
X181727490Y-102533531D01*
X181795311Y-102516736D01*
X181861446Y-102539273D01*
X181900485Y-102584327D01*
X181936957Y-102655908D01*
X181977647Y-102735766D01*
X182094731Y-102896918D01*
X182235582Y-103037769D01*
X182396734Y-103154853D01*
X182555213Y-103235602D01*
X182574219Y-103245286D01*
X182763657Y-103306838D01*
X182763658Y-103306838D01*
X182763661Y-103306839D01*
X182960403Y-103338000D01*
X182960404Y-103338000D01*
X183159596Y-103338000D01*
X183159597Y-103338000D01*
X183356339Y-103306839D01*
X183356342Y-103306838D01*
X183356343Y-103306838D01*
X183545780Y-103245286D01*
X183545780Y-103245285D01*
X183545783Y-103245285D01*
X183723266Y-103154853D01*
X183884418Y-103037769D01*
X183920583Y-103001603D01*
X183981904Y-102968117D01*
X184051596Y-102973100D01*
X184095946Y-103001602D01*
X188113103Y-107018758D01*
X188165160Y-107070815D01*
X188200508Y-107106163D01*
X188200511Y-107106164D01*
X188303281Y-107174833D01*
X188310393Y-107177778D01*
X188310399Y-107177783D01*
X188310400Y-107177782D01*
X188354754Y-107196153D01*
X188417479Y-107222136D01*
X188538706Y-107246249D01*
X188538710Y-107246250D01*
X188538711Y-107246250D01*
X188662317Y-107246250D01*
X198595169Y-107246250D01*
X198662208Y-107265935D01*
X198707963Y-107318739D01*
X198718527Y-107357647D01*
X198722501Y-107396547D01*
X198722501Y-107396549D01*
X198736196Y-107437876D01*
X198777686Y-107563084D01*
X198869788Y-107712406D01*
X198993844Y-107836462D01*
X199143166Y-107928564D01*
X199309703Y-107983749D01*
X199412491Y-107994250D01*
X200137508Y-107994249D01*
X200137516Y-107994248D01*
X200137519Y-107994248D01*
X200193802Y-107988498D01*
X200240297Y-107983749D01*
X200406834Y-107928564D01*
X200556156Y-107836462D01*
X200664921Y-107727696D01*
X200726240Y-107694214D01*
X200795932Y-107699198D01*
X200840280Y-107727699D01*
X201512589Y-108400008D01*
X201599992Y-108487411D01*
X201599994Y-108487413D01*
X201599996Y-108487414D01*
X201702756Y-108556076D01*
X201702758Y-108556077D01*
X201702767Y-108556083D01*
X201727772Y-108566440D01*
X201750071Y-108575677D01*
X201792254Y-108593149D01*
X201816966Y-108603386D01*
X201938192Y-108627499D01*
X201938196Y-108627500D01*
X201938197Y-108627500D01*
X205679896Y-108627500D01*
X205679897Y-108627499D01*
X205801127Y-108603386D01*
X205881876Y-108569937D01*
X205915325Y-108556083D01*
X206018100Y-108487411D01*
X206105503Y-108400008D01*
X206969679Y-107535831D01*
X207030998Y-107502349D01*
X207100689Y-107507333D01*
X207156623Y-107549204D01*
X207162895Y-107558418D01*
X207257684Y-107712095D01*
X207381654Y-107836065D01*
X207530875Y-107928106D01*
X207530880Y-107928108D01*
X207697302Y-107983255D01*
X207697309Y-107983256D01*
X207800019Y-107993749D01*
X207912499Y-107993749D01*
X208412500Y-107993749D01*
X208524972Y-107993749D01*
X208524986Y-107993748D01*
X208627697Y-107983255D01*
X208794119Y-107928108D01*
X208794124Y-107928106D01*
X208943345Y-107836065D01*
X209067315Y-107712095D01*
X209159356Y-107562874D01*
X209159358Y-107562869D01*
X209214505Y-107396447D01*
X209214506Y-107396440D01*
X209224999Y-107293736D01*
X209225000Y-107293723D01*
X209225000Y-106868750D01*
X208412500Y-106868750D01*
X208412500Y-107993749D01*
X207912499Y-107993749D01*
X207912500Y-107993748D01*
X207912500Y-106368750D01*
X208412500Y-106368750D01*
X209224999Y-106368750D01*
X209224999Y-105943778D01*
X209224998Y-105943763D01*
X209214505Y-105841052D01*
X209159358Y-105674630D01*
X209159356Y-105674625D01*
X209067315Y-105525404D01*
X208943345Y-105401434D01*
X208794124Y-105309393D01*
X208794119Y-105309391D01*
X208627697Y-105254244D01*
X208627690Y-105254243D01*
X208524986Y-105243750D01*
X208412500Y-105243750D01*
X208412500Y-106368750D01*
X207912500Y-106368750D01*
X207912500Y-105243750D01*
X207800027Y-105243750D01*
X207800009Y-105243751D01*
X207777101Y-105246092D01*
X207708408Y-105233322D01*
X207657524Y-105185441D01*
X207640500Y-105122734D01*
X207640500Y-103277597D01*
X207660185Y-103210558D01*
X207712989Y-103164803D01*
X207782147Y-103154859D01*
X207820791Y-103167110D01*
X207955213Y-103235602D01*
X207974219Y-103245286D01*
X208163657Y-103306838D01*
X208163658Y-103306838D01*
X208163661Y-103306839D01*
X208360403Y-103338000D01*
X208360404Y-103338000D01*
X208559596Y-103338000D01*
X208559597Y-103338000D01*
X208756339Y-103306839D01*
X208756342Y-103306838D01*
X208756343Y-103306838D01*
X208945780Y-103245286D01*
X208945780Y-103245285D01*
X208945783Y-103245285D01*
X209123266Y-103154853D01*
X209284418Y-103037769D01*
X209425269Y-102896918D01*
X209542353Y-102735766D01*
X209619515Y-102584327D01*
X209667490Y-102533531D01*
X209735311Y-102516736D01*
X209801446Y-102539273D01*
X209840485Y-102584327D01*
X209876957Y-102655908D01*
X209917647Y-102735766D01*
X210034731Y-102896918D01*
X210175582Y-103037769D01*
X210336734Y-103154853D01*
X210495213Y-103235602D01*
X210514219Y-103245286D01*
X210703657Y-103306838D01*
X210703658Y-103306838D01*
X210703661Y-103306839D01*
X210900403Y-103338000D01*
X210900404Y-103338000D01*
X211099596Y-103338000D01*
X211099597Y-103338000D01*
X211296339Y-103306839D01*
X211296342Y-103306838D01*
X211296343Y-103306838D01*
X211485780Y-103245286D01*
X211485780Y-103245285D01*
X211485783Y-103245285D01*
X211663266Y-103154853D01*
X211824418Y-103037769D01*
X211965269Y-102896918D01*
X212082353Y-102735766D01*
X212159515Y-102584327D01*
X212207490Y-102533531D01*
X212275311Y-102516736D01*
X212341446Y-102539273D01*
X212380485Y-102584327D01*
X212416957Y-102655908D01*
X212457647Y-102735766D01*
X212574731Y-102896918D01*
X212715582Y-103037769D01*
X212876734Y-103154853D01*
X213035213Y-103235602D01*
X213054219Y-103245286D01*
X213243657Y-103306838D01*
X213243658Y-103306838D01*
X213243661Y-103306839D01*
X213440403Y-103338000D01*
X213440404Y-103338000D01*
X213639596Y-103338000D01*
X213639597Y-103338000D01*
X213836339Y-103306839D01*
X213836342Y-103306838D01*
X213836343Y-103306838D01*
X214025780Y-103245286D01*
X214025780Y-103245285D01*
X214025783Y-103245285D01*
X214203266Y-103154853D01*
X214364418Y-103037769D01*
X214505269Y-102896918D01*
X214622353Y-102735766D01*
X214699515Y-102584327D01*
X214747490Y-102533531D01*
X214815311Y-102516736D01*
X214881446Y-102539273D01*
X214920485Y-102584327D01*
X214956957Y-102655908D01*
X214997647Y-102735766D01*
X215114731Y-102896918D01*
X215255582Y-103037769D01*
X215416734Y-103154853D01*
X215575213Y-103235602D01*
X215594219Y-103245286D01*
X215783657Y-103306838D01*
X215783658Y-103306838D01*
X215783661Y-103306839D01*
X215980403Y-103338000D01*
X215980404Y-103338000D01*
X216179596Y-103338000D01*
X216179597Y-103338000D01*
X216376339Y-103306839D01*
X216376342Y-103306838D01*
X216376343Y-103306838D01*
X216565780Y-103245286D01*
X216565780Y-103245285D01*
X216565783Y-103245285D01*
X216743266Y-103154853D01*
X216904418Y-103037769D01*
X217045269Y-102896918D01*
X217162353Y-102735766D01*
X217239515Y-102584327D01*
X217287490Y-102533531D01*
X217355311Y-102516736D01*
X217421446Y-102539273D01*
X217460485Y-102584327D01*
X217496957Y-102655908D01*
X217537647Y-102735766D01*
X217654731Y-102896918D01*
X217795582Y-103037769D01*
X217956734Y-103154853D01*
X218115213Y-103235602D01*
X218134219Y-103245286D01*
X218323657Y-103306838D01*
X218323658Y-103306838D01*
X218323661Y-103306839D01*
X218520403Y-103338000D01*
X218520404Y-103338000D01*
X218719596Y-103338000D01*
X218719597Y-103338000D01*
X218916339Y-103306839D01*
X218916342Y-103306838D01*
X218916343Y-103306838D01*
X219105780Y-103245286D01*
X219105780Y-103245285D01*
X219105783Y-103245285D01*
X219283266Y-103154853D01*
X219444418Y-103037769D01*
X219585269Y-102896918D01*
X219702353Y-102735766D01*
X219779515Y-102584327D01*
X219827490Y-102533531D01*
X219895311Y-102516736D01*
X219961446Y-102539273D01*
X220000485Y-102584327D01*
X220036957Y-102655908D01*
X220077647Y-102735766D01*
X220194731Y-102896918D01*
X220335582Y-103037769D01*
X220496734Y-103154853D01*
X220655213Y-103235602D01*
X220674219Y-103245286D01*
X220863657Y-103306838D01*
X220863658Y-103306838D01*
X220863661Y-103306839D01*
X221060403Y-103338000D01*
X221060404Y-103338000D01*
X221259596Y-103338000D01*
X221259597Y-103338000D01*
X221456339Y-103306839D01*
X221456342Y-103306838D01*
X221456343Y-103306838D01*
X221645780Y-103245286D01*
X221645780Y-103245285D01*
X221645783Y-103245285D01*
X221823266Y-103154853D01*
X221984418Y-103037769D01*
X222125269Y-102896918D01*
X222210184Y-102780042D01*
X222265511Y-102737378D01*
X222335125Y-102731399D01*
X222396920Y-102764004D01*
X222431277Y-102824843D01*
X222434500Y-102852926D01*
X222434500Y-102885368D01*
X222434501Y-102885376D01*
X222440908Y-102944983D01*
X222491202Y-103079828D01*
X222491206Y-103079835D01*
X222577452Y-103195044D01*
X222577455Y-103195047D01*
X222692664Y-103281293D01*
X222692671Y-103281297D01*
X222827517Y-103331591D01*
X222827516Y-103331591D01*
X222834444Y-103332335D01*
X222887127Y-103338000D01*
X224512872Y-103337999D01*
X224572483Y-103331591D01*
X224707331Y-103281296D01*
X224822546Y-103195046D01*
X224908796Y-103079831D01*
X224959091Y-102944983D01*
X224965500Y-102885373D01*
X224965499Y-101259628D01*
X224959091Y-101200017D01*
X224908796Y-101065169D01*
X224908795Y-101065168D01*
X224908793Y-101065164D01*
X224822546Y-100949954D01*
X224822544Y-100949952D01*
X224707335Y-100863706D01*
X224707328Y-100863702D01*
X224572482Y-100813408D01*
X224572483Y-100813408D01*
X224512883Y-100807001D01*
X224512881Y-100807000D01*
X224512873Y-100807000D01*
X224512864Y-100807000D01*
X222887129Y-100807000D01*
X222887123Y-100807001D01*
X222827516Y-100813408D01*
X222692671Y-100863702D01*
X222692664Y-100863706D01*
X222577455Y-100949952D01*
X222577454Y-100949954D01*
X222491206Y-101065164D01*
X222491202Y-101065171D01*
X222440908Y-101200017D01*
X222435741Y-101248080D01*
X222434501Y-101259623D01*
X222434500Y-101259635D01*
X222434500Y-101292068D01*
X222414815Y-101359107D01*
X222362011Y-101404862D01*
X222292853Y-101414806D01*
X222229297Y-101385781D01*
X222210182Y-101364954D01*
X222155136Y-101289190D01*
X222125269Y-101248082D01*
X221984418Y-101107231D01*
X221823266Y-100990147D01*
X221685063Y-100919729D01*
X221645780Y-100899713D01*
X221456342Y-100838161D01*
X221308782Y-100814790D01*
X221259597Y-100807000D01*
X221060403Y-100807000D01*
X220999267Y-100816683D01*
X220863659Y-100838161D01*
X220863656Y-100838161D01*
X220674219Y-100899713D01*
X220496733Y-100990147D01*
X220458286Y-101018081D01*
X220335582Y-101107231D01*
X220335580Y-101107233D01*
X220335579Y-101107233D01*
X220194733Y-101248079D01*
X220194733Y-101248080D01*
X220194731Y-101248082D01*
X220164864Y-101289190D01*
X220077647Y-101409233D01*
X220000485Y-101560672D01*
X219952510Y-101611468D01*
X219884689Y-101628263D01*
X219818554Y-101605725D01*
X219779515Y-101560672D01*
X219702485Y-101409494D01*
X219702353Y-101409234D01*
X219585269Y-101248082D01*
X219444418Y-101107231D01*
X219283266Y-100990147D01*
X219145063Y-100919729D01*
X219105780Y-100899713D01*
X218916342Y-100838161D01*
X218768782Y-100814790D01*
X218719597Y-100807000D01*
X218520403Y-100807000D01*
X218459267Y-100816683D01*
X218323659Y-100838161D01*
X218323656Y-100838161D01*
X218134219Y-100899713D01*
X217956733Y-100990147D01*
X217918286Y-101018081D01*
X217795582Y-101107231D01*
X217795580Y-101107233D01*
X217795579Y-101107233D01*
X217654733Y-101248079D01*
X217654733Y-101248080D01*
X217654731Y-101248082D01*
X217624864Y-101289190D01*
X217537647Y-101409233D01*
X217460485Y-101560672D01*
X217412510Y-101611468D01*
X217344689Y-101628263D01*
X217278554Y-101605725D01*
X217239515Y-101560672D01*
X217162485Y-101409494D01*
X217162353Y-101409234D01*
X217045269Y-101248082D01*
X216904418Y-101107231D01*
X216743266Y-100990147D01*
X216605063Y-100919729D01*
X216565780Y-100899713D01*
X216376342Y-100838161D01*
X216228782Y-100814790D01*
X216179597Y-100807000D01*
X215980403Y-100807000D01*
X215919267Y-100816683D01*
X215783659Y-100838161D01*
X215783656Y-100838161D01*
X215594219Y-100899713D01*
X215416733Y-100990147D01*
X215378286Y-101018081D01*
X215255582Y-101107231D01*
X215255580Y-101107233D01*
X215255579Y-101107233D01*
X215114733Y-101248079D01*
X215114733Y-101248080D01*
X215114731Y-101248082D01*
X215084864Y-101289190D01*
X214997647Y-101409233D01*
X214920485Y-101560672D01*
X214872510Y-101611468D01*
X214804689Y-101628263D01*
X214738554Y-101605725D01*
X214699515Y-101560672D01*
X214622485Y-101409494D01*
X214622353Y-101409234D01*
X214505269Y-101248082D01*
X214364418Y-101107231D01*
X214203266Y-100990147D01*
X214065063Y-100919729D01*
X214025780Y-100899713D01*
X213836342Y-100838161D01*
X213688782Y-100814790D01*
X213639597Y-100807000D01*
X213440403Y-100807000D01*
X213379267Y-100816683D01*
X213243659Y-100838161D01*
X213243656Y-100838161D01*
X213054219Y-100899713D01*
X212876733Y-100990147D01*
X212838286Y-101018081D01*
X212715582Y-101107231D01*
X212715580Y-101107233D01*
X212715579Y-101107233D01*
X212574733Y-101248079D01*
X212574733Y-101248080D01*
X212574731Y-101248082D01*
X212544864Y-101289190D01*
X212457647Y-101409233D01*
X212380485Y-101560672D01*
X212332510Y-101611468D01*
X212264689Y-101628263D01*
X212198554Y-101605725D01*
X212159515Y-101560672D01*
X212082485Y-101409494D01*
X212082353Y-101409234D01*
X211965269Y-101248082D01*
X211824418Y-101107231D01*
X211663266Y-100990147D01*
X211525063Y-100919729D01*
X211485780Y-100899713D01*
X211296342Y-100838161D01*
X211148782Y-100814790D01*
X211099597Y-100807000D01*
X210900403Y-100807000D01*
X210839267Y-100816683D01*
X210703659Y-100838161D01*
X210703656Y-100838161D01*
X210514219Y-100899713D01*
X210336733Y-100990147D01*
X210298286Y-101018081D01*
X210175582Y-101107231D01*
X210175580Y-101107233D01*
X210175579Y-101107233D01*
X210034733Y-101248079D01*
X210034733Y-101248080D01*
X210034731Y-101248082D01*
X210004864Y-101289190D01*
X209917647Y-101409233D01*
X209840485Y-101560672D01*
X209792510Y-101611468D01*
X209724689Y-101628263D01*
X209658554Y-101605725D01*
X209619515Y-101560672D01*
X209542485Y-101409494D01*
X209542353Y-101409234D01*
X209425269Y-101248082D01*
X209284418Y-101107231D01*
X209123266Y-100990147D01*
X208985063Y-100919729D01*
X208945780Y-100899713D01*
X208756342Y-100838161D01*
X208608782Y-100814790D01*
X208559597Y-100807000D01*
X208360403Y-100807000D01*
X208299267Y-100816683D01*
X208163659Y-100838161D01*
X208163656Y-100838161D01*
X207974219Y-100899713D01*
X207820795Y-100977887D01*
X207752125Y-100990783D01*
X207687385Y-100964507D01*
X207647128Y-100907400D01*
X207640500Y-100867402D01*
X207640500Y-80674986D01*
X211012501Y-80674986D01*
X211022994Y-80777697D01*
X211078141Y-80944119D01*
X211078143Y-80944124D01*
X211170184Y-81093345D01*
X211294154Y-81217315D01*
X211443375Y-81309356D01*
X211443380Y-81309358D01*
X211609802Y-81364505D01*
X211609809Y-81364506D01*
X211712519Y-81374999D01*
X211824999Y-81374999D01*
X212325000Y-81374999D01*
X212437472Y-81374999D01*
X212437486Y-81374998D01*
X212540197Y-81364505D01*
X212706619Y-81309358D01*
X212706624Y-81309356D01*
X212855845Y-81217315D01*
X212979815Y-81093345D01*
X213071856Y-80944124D01*
X213071858Y-80944119D01*
X213127005Y-80777697D01*
X213127006Y-80777690D01*
X213137499Y-80674986D01*
X213137500Y-80674973D01*
X213137500Y-80250000D01*
X212325000Y-80250000D01*
X212325000Y-81374999D01*
X211824999Y-81374999D01*
X211825000Y-81374998D01*
X211825000Y-80250000D01*
X211012501Y-80250000D01*
X211012501Y-80674986D01*
X207640500Y-80674986D01*
X207640500Y-79325013D01*
X211012500Y-79325013D01*
X211012500Y-79750000D01*
X211825000Y-79750000D01*
X212325000Y-79750000D01*
X213137499Y-79750000D01*
X213137499Y-79325028D01*
X213137498Y-79325013D01*
X213127005Y-79222302D01*
X213071858Y-79055880D01*
X213071856Y-79055875D01*
X212979815Y-78906654D01*
X212855845Y-78782684D01*
X212706624Y-78690643D01*
X212706619Y-78690641D01*
X212540197Y-78635494D01*
X212540190Y-78635493D01*
X212437486Y-78625000D01*
X212325000Y-78625000D01*
X212325000Y-79750000D01*
X211825000Y-79750000D01*
X211825000Y-78625000D01*
X211712527Y-78625000D01*
X211712512Y-78625001D01*
X211609802Y-78635494D01*
X211443380Y-78690641D01*
X211443375Y-78690643D01*
X211294154Y-78782684D01*
X211170184Y-78906654D01*
X211078143Y-79055875D01*
X211078141Y-79055880D01*
X211022994Y-79222302D01*
X211022993Y-79222309D01*
X211012500Y-79325013D01*
X207640500Y-79325013D01*
X207640500Y-75777825D01*
X210949500Y-75777825D01*
X210949500Y-75785668D01*
X210949500Y-75935513D01*
X210980261Y-76090161D01*
X210980264Y-76090169D01*
X210990061Y-76113821D01*
X210999500Y-76161273D01*
X210999500Y-76675001D01*
X210999501Y-76675019D01*
X211010000Y-76777796D01*
X211010001Y-76777799D01*
X211050495Y-76900000D01*
X211065186Y-76944334D01*
X211157288Y-77093656D01*
X211281344Y-77217712D01*
X211430666Y-77309814D01*
X211597203Y-77364999D01*
X211699991Y-77375500D01*
X212425008Y-77375499D01*
X212425016Y-77375498D01*
X212425019Y-77375498D01*
X212481302Y-77369748D01*
X212527797Y-77364999D01*
X212694334Y-77309814D01*
X212843656Y-77217712D01*
X212967712Y-77093656D01*
X213059814Y-76944334D01*
X213114999Y-76777797D01*
X213125500Y-76675009D01*
X213125499Y-75875779D01*
X213145183Y-75808741D01*
X213161813Y-75788104D01*
X213712819Y-75237098D01*
X213774142Y-75203614D01*
X213843834Y-75208598D01*
X213899767Y-75250470D01*
X213924184Y-75315934D01*
X213924500Y-75324780D01*
X213924500Y-76675001D01*
X213924501Y-76675018D01*
X213935000Y-76777796D01*
X213935001Y-76777799D01*
X213990185Y-76944331D01*
X213990187Y-76944336D01*
X214082289Y-77093657D01*
X214206344Y-77217712D01*
X214301096Y-77276155D01*
X214347821Y-77328103D01*
X214360000Y-77381694D01*
X214360000Y-78626014D01*
X214340315Y-78693053D01*
X214301098Y-78731552D01*
X214218844Y-78782287D01*
X214094789Y-78906342D01*
X214002687Y-79055663D01*
X214002685Y-79055668D01*
X214002615Y-79055880D01*
X213947501Y-79222203D01*
X213947501Y-79222204D01*
X213947500Y-79222204D01*
X213937000Y-79324983D01*
X213937000Y-80675001D01*
X213937001Y-80675018D01*
X213947500Y-80777796D01*
X213947501Y-80777799D01*
X213981998Y-80881902D01*
X214002686Y-80944334D01*
X214094788Y-81093656D01*
X214218844Y-81217712D01*
X214368166Y-81309814D01*
X214534703Y-81364999D01*
X214637491Y-81375500D01*
X215362508Y-81375499D01*
X215362516Y-81375498D01*
X215362519Y-81375498D01*
X215418802Y-81369748D01*
X215465297Y-81364999D01*
X215631834Y-81309814D01*
X215781156Y-81217712D01*
X215905212Y-81093656D01*
X215997314Y-80944334D01*
X216052499Y-80777797D01*
X216063000Y-80675009D01*
X216062999Y-79855485D01*
X216062999Y-79324998D01*
X216062998Y-79324981D01*
X216052499Y-79222203D01*
X216052498Y-79222200D01*
X216019059Y-79121288D01*
X215997314Y-79055666D01*
X215905212Y-78906344D01*
X215781156Y-78782288D01*
X215698899Y-78731552D01*
X215673903Y-78716134D01*
X215627178Y-78664186D01*
X215615000Y-78610595D01*
X215615000Y-77381694D01*
X215634685Y-77314655D01*
X215673904Y-77276155D01*
X215768656Y-77217712D01*
X215892712Y-77093656D01*
X215984814Y-76944334D01*
X216039999Y-76777797D01*
X216050500Y-76675009D01*
X216050500Y-76397648D01*
X219699500Y-76397648D01*
X219699500Y-76602351D01*
X219731522Y-76804534D01*
X219794781Y-76999223D01*
X219853847Y-77115145D01*
X219887484Y-77181161D01*
X219887715Y-77181613D01*
X220008028Y-77347213D01*
X220152786Y-77491971D01*
X220318385Y-77612284D01*
X220318387Y-77612285D01*
X220318390Y-77612287D01*
X220372378Y-77639795D01*
X220423174Y-77687769D01*
X220439969Y-77755590D01*
X220417432Y-77821725D01*
X220372378Y-77860765D01*
X220318644Y-77888143D01*
X220274077Y-77920523D01*
X220274077Y-77920524D01*
X220953554Y-78600000D01*
X220947339Y-78600000D01*
X220845606Y-78627259D01*
X220754394Y-78679920D01*
X220679920Y-78754394D01*
X220627259Y-78845606D01*
X220600000Y-78947339D01*
X220600000Y-78953553D01*
X219920524Y-78274077D01*
X219920523Y-78274077D01*
X219888143Y-78318644D01*
X219795244Y-78500968D01*
X219732009Y-78695582D01*
X219700000Y-78897682D01*
X219700000Y-79102317D01*
X219732009Y-79304417D01*
X219795244Y-79499031D01*
X219888141Y-79681350D01*
X219888147Y-79681359D01*
X219920523Y-79725921D01*
X219920524Y-79725922D01*
X220600000Y-79046446D01*
X220600000Y-79052661D01*
X220627259Y-79154394D01*
X220679920Y-79245606D01*
X220754394Y-79320080D01*
X220845606Y-79372741D01*
X220947339Y-79400000D01*
X220953553Y-79400000D01*
X220274076Y-80079474D01*
X220318650Y-80111859D01*
X220500968Y-80204755D01*
X220695582Y-80267990D01*
X220897683Y-80300000D01*
X221102317Y-80300000D01*
X221304417Y-80267990D01*
X221499031Y-80204755D01*
X221681349Y-80111859D01*
X221725921Y-80079474D01*
X221046447Y-79400000D01*
X221052661Y-79400000D01*
X221154394Y-79372741D01*
X221245606Y-79320080D01*
X221320080Y-79245606D01*
X221372741Y-79154394D01*
X221400000Y-79052661D01*
X221400000Y-79046447D01*
X222079474Y-79725921D01*
X222111859Y-79681349D01*
X222204755Y-79499031D01*
X222267990Y-79304417D01*
X222300000Y-79102317D01*
X222300000Y-78897682D01*
X222267990Y-78695582D01*
X222204755Y-78500968D01*
X222111859Y-78318650D01*
X222079474Y-78274077D01*
X222079474Y-78274076D01*
X221400000Y-78953551D01*
X221400000Y-78947339D01*
X221372741Y-78845606D01*
X221320080Y-78754394D01*
X221245606Y-78679920D01*
X221154394Y-78627259D01*
X221052661Y-78600000D01*
X221046446Y-78600000D01*
X221725922Y-77920524D01*
X221725921Y-77920523D01*
X221681359Y-77888147D01*
X221681350Y-77888141D01*
X221627621Y-77860765D01*
X221576825Y-77812791D01*
X221560030Y-77744970D01*
X221582567Y-77678835D01*
X221627621Y-77639795D01*
X221681610Y-77612287D01*
X221831099Y-77503678D01*
X221847213Y-77491971D01*
X221847215Y-77491968D01*
X221847219Y-77491966D01*
X221991966Y-77347219D01*
X221991968Y-77347215D01*
X221991971Y-77347213D01*
X222066997Y-77243947D01*
X222112287Y-77181610D01*
X222205220Y-76999219D01*
X222268477Y-76804534D01*
X222300500Y-76602352D01*
X222300500Y-76397648D01*
X222268477Y-76195466D01*
X222259323Y-76167294D01*
X222223764Y-76057855D01*
X222205220Y-76000781D01*
X222205218Y-76000778D01*
X222205218Y-76000776D01*
X222164585Y-75921031D01*
X222112287Y-75818390D01*
X222095105Y-75794741D01*
X221991971Y-75652786D01*
X221847213Y-75508028D01*
X221681613Y-75387715D01*
X221681612Y-75387714D01*
X221681610Y-75387713D01*
X221614567Y-75353553D01*
X221499223Y-75294781D01*
X221304534Y-75231522D01*
X221128326Y-75203614D01*
X221102352Y-75199500D01*
X220897648Y-75199500D01*
X220873329Y-75203351D01*
X220695465Y-75231522D01*
X220500776Y-75294781D01*
X220318386Y-75387715D01*
X220152786Y-75508028D01*
X220008028Y-75652786D01*
X219887715Y-75818386D01*
X219794781Y-76000776D01*
X219731522Y-76195465D01*
X219699500Y-76397648D01*
X216050500Y-76397648D01*
X216050499Y-75998827D01*
X216050499Y-75324998D01*
X216050498Y-75324981D01*
X216039999Y-75222203D01*
X216039998Y-75222200D01*
X216012663Y-75139709D01*
X215984814Y-75055666D01*
X215892712Y-74906344D01*
X215861834Y-74875466D01*
X228100000Y-74875466D01*
X228100000Y-75124533D01*
X228132508Y-75371463D01*
X228196973Y-75612049D01*
X228292283Y-75842148D01*
X228292288Y-75842159D01*
X228416813Y-76057841D01*
X228416819Y-76057849D01*
X228491400Y-76155045D01*
X229398958Y-75247487D01*
X229423978Y-75307890D01*
X229495112Y-75414351D01*
X229585649Y-75504888D01*
X229692110Y-75576022D01*
X229752511Y-75601041D01*
X228844953Y-76508598D01*
X228942150Y-76583180D01*
X228942158Y-76583186D01*
X229157840Y-76707711D01*
X229157851Y-76707716D01*
X229387950Y-76803026D01*
X229628536Y-76867491D01*
X229875466Y-76900000D01*
X230124534Y-76900000D01*
X230371463Y-76867491D01*
X230612049Y-76803026D01*
X230842148Y-76707716D01*
X230842159Y-76707711D01*
X231057855Y-76583178D01*
X231155045Y-76508600D01*
X231155045Y-76508597D01*
X230247488Y-75601041D01*
X230307890Y-75576022D01*
X230414351Y-75504888D01*
X230504888Y-75414351D01*
X230576022Y-75307890D01*
X230601041Y-75247489D01*
X231508597Y-76155045D01*
X231508600Y-76155045D01*
X231583178Y-76057855D01*
X231707711Y-75842159D01*
X231707716Y-75842148D01*
X231803026Y-75612049D01*
X231867491Y-75371463D01*
X231900000Y-75124533D01*
X231900000Y-74875466D01*
X231867491Y-74628536D01*
X231803026Y-74387950D01*
X231707716Y-74157851D01*
X231707711Y-74157840D01*
X231583186Y-73942158D01*
X231583180Y-73942150D01*
X231508598Y-73844953D01*
X230601041Y-74752510D01*
X230576022Y-74692110D01*
X230504888Y-74585649D01*
X230414351Y-74495112D01*
X230307890Y-74423978D01*
X230247487Y-74398957D01*
X231155045Y-73491400D01*
X231057849Y-73416819D01*
X231057841Y-73416813D01*
X230842159Y-73292288D01*
X230842148Y-73292283D01*
X230612049Y-73196973D01*
X230371463Y-73132508D01*
X230124534Y-73100000D01*
X229875466Y-73100000D01*
X229628536Y-73132508D01*
X229387950Y-73196973D01*
X229157851Y-73292283D01*
X229157847Y-73292285D01*
X228942143Y-73416823D01*
X228844953Y-73491399D01*
X228844953Y-73491400D01*
X229752511Y-74398958D01*
X229692110Y-74423978D01*
X229585649Y-74495112D01*
X229495112Y-74585649D01*
X229423978Y-74692110D01*
X229398958Y-74752511D01*
X228491400Y-73844953D01*
X228491399Y-73844953D01*
X228416823Y-73942143D01*
X228292285Y-74157847D01*
X228292283Y-74157851D01*
X228196973Y-74387950D01*
X228132508Y-74628536D01*
X228100000Y-74875466D01*
X215861834Y-74875466D01*
X215768656Y-74782288D01*
X215628885Y-74696077D01*
X215619336Y-74690187D01*
X215619331Y-74690185D01*
X215617862Y-74689698D01*
X215452797Y-74635001D01*
X215452795Y-74635000D01*
X215350016Y-74624500D01*
X214624780Y-74624500D01*
X214557741Y-74604815D01*
X214511986Y-74552011D01*
X214502042Y-74482853D01*
X214531067Y-74419297D01*
X214537090Y-74412827D01*
X215487411Y-73462508D01*
X215553911Y-73362982D01*
X215580599Y-73340807D01*
X215607327Y-73318470D01*
X215607613Y-73318360D01*
X215607650Y-73318330D01*
X215607713Y-73318322D01*
X215617816Y-73314459D01*
X215631834Y-73309814D01*
X215781156Y-73217712D01*
X215905212Y-73093656D01*
X215997314Y-72944334D01*
X216052499Y-72777797D01*
X216063000Y-72675009D01*
X216062999Y-71324992D01*
X216061348Y-71308834D01*
X216052499Y-71222203D01*
X216052498Y-71222200D01*
X216038357Y-71179525D01*
X215997314Y-71055666D01*
X215905212Y-70906344D01*
X215781156Y-70782288D01*
X215633092Y-70690962D01*
X215631836Y-70690187D01*
X215631831Y-70690185D01*
X215617225Y-70685345D01*
X215465297Y-70635001D01*
X215465295Y-70635000D01*
X215362510Y-70624500D01*
X214637498Y-70624500D01*
X214637480Y-70624501D01*
X214534703Y-70635000D01*
X214534700Y-70635001D01*
X214368168Y-70690185D01*
X214368163Y-70690187D01*
X214218842Y-70782289D01*
X214094789Y-70906342D01*
X214002687Y-71055663D01*
X214002685Y-71055668D01*
X213992245Y-71087174D01*
X213947501Y-71222203D01*
X213947501Y-71222204D01*
X213947500Y-71222204D01*
X213937000Y-71324983D01*
X213937000Y-72675001D01*
X213937001Y-72675018D01*
X213947500Y-72777796D01*
X213947501Y-72777799D01*
X213985868Y-72893582D01*
X214002686Y-72944334D01*
X214002690Y-72944340D01*
X214038218Y-73001942D01*
X214056658Y-73069335D01*
X214035735Y-73135998D01*
X214020360Y-73154719D01*
X212580606Y-74594473D01*
X212519283Y-74627958D01*
X212480324Y-74630150D01*
X212425012Y-74624500D01*
X211699998Y-74624500D01*
X211699980Y-74624501D01*
X211597203Y-74635000D01*
X211597200Y-74635001D01*
X211430668Y-74690185D01*
X211430663Y-74690187D01*
X211281342Y-74782289D01*
X211157289Y-74906342D01*
X211065187Y-75055663D01*
X211065185Y-75055668D01*
X211062418Y-75064019D01*
X211010001Y-75222203D01*
X211010001Y-75222204D01*
X211010000Y-75222204D01*
X210999500Y-75324983D01*
X210999500Y-75552060D01*
X210998049Y-75559351D01*
X210996408Y-75579580D01*
X210994078Y-75589815D01*
X210980263Y-75623170D01*
X210949500Y-75777825D01*
X207640500Y-75777825D01*
X207640500Y-62921153D01*
X210274500Y-62921153D01*
X210274500Y-63078846D01*
X210305261Y-63233489D01*
X210305264Y-63233501D01*
X210365602Y-63379172D01*
X210365609Y-63379185D01*
X210453210Y-63510288D01*
X210453213Y-63510292D01*
X210564707Y-63621786D01*
X210564711Y-63621789D01*
X210695814Y-63709390D01*
X210695827Y-63709397D01*
X210841498Y-63769735D01*
X210841503Y-63769737D01*
X210946048Y-63790532D01*
X210996147Y-63800498D01*
X210996148Y-63800498D01*
X210996158Y-63800500D01*
X210996167Y-63800500D01*
X211001629Y-63801038D01*
X211036933Y-63809879D01*
X211141965Y-63853385D01*
X211141969Y-63853385D01*
X211141970Y-63853386D01*
X211263193Y-63877500D01*
X211263196Y-63877500D01*
X211263197Y-63877500D01*
X214028234Y-63877500D01*
X214095273Y-63897185D01*
X214141028Y-63949989D01*
X214150972Y-64019147D01*
X214121947Y-64082703D01*
X214063169Y-64120477D01*
X214052426Y-64123117D01*
X214016508Y-64130261D01*
X214016498Y-64130264D01*
X213870827Y-64190602D01*
X213870814Y-64190609D01*
X213739711Y-64278210D01*
X213739707Y-64278213D01*
X213628213Y-64389707D01*
X213628210Y-64389711D01*
X213540609Y-64520814D01*
X213540602Y-64520827D01*
X213480264Y-64666498D01*
X213480261Y-64666510D01*
X213449500Y-64821153D01*
X213449500Y-64978846D01*
X213480261Y-65133489D01*
X213480264Y-65133501D01*
X213540603Y-65279174D01*
X213540604Y-65279175D01*
X213540606Y-65279179D01*
X213601602Y-65370465D01*
X213622480Y-65437142D01*
X213622500Y-65439356D01*
X213622500Y-67188719D01*
X213602815Y-67255758D01*
X213586181Y-67276400D01*
X211674992Y-69187589D01*
X211631289Y-69231291D01*
X211587587Y-69274993D01*
X211518920Y-69377760D01*
X211518913Y-69377772D01*
X211510948Y-69397005D01*
X211510948Y-69397006D01*
X211471614Y-69491964D01*
X211471612Y-69491972D01*
X211447500Y-69613192D01*
X211447500Y-70618306D01*
X211427815Y-70685345D01*
X211388596Y-70723844D01*
X211387380Y-70724595D01*
X211293844Y-70782287D01*
X211169789Y-70906342D01*
X211077687Y-71055663D01*
X211077685Y-71055668D01*
X211067245Y-71087174D01*
X211022501Y-71222203D01*
X211022501Y-71222204D01*
X211022500Y-71222204D01*
X211012000Y-71324983D01*
X211012000Y-72675001D01*
X211012001Y-72675018D01*
X211022500Y-72777796D01*
X211022501Y-72777799D01*
X211077685Y-72944331D01*
X211077687Y-72944336D01*
X211098765Y-72978509D01*
X211169788Y-73093656D01*
X211293844Y-73217712D01*
X211443166Y-73309814D01*
X211609703Y-73364999D01*
X211712491Y-73375500D01*
X212437508Y-73375499D01*
X212437516Y-73375498D01*
X212437519Y-73375498D01*
X212493802Y-73369748D01*
X212540297Y-73364999D01*
X212706834Y-73309814D01*
X212856156Y-73217712D01*
X212980212Y-73093656D01*
X213072314Y-72944334D01*
X213127499Y-72777797D01*
X213138000Y-72675009D01*
X213137999Y-71324992D01*
X213136348Y-71308834D01*
X213127499Y-71222203D01*
X213127498Y-71222200D01*
X213113357Y-71179525D01*
X213072314Y-71055666D01*
X212980212Y-70906344D01*
X212856156Y-70782288D01*
X212856155Y-70782287D01*
X212762620Y-70724595D01*
X212761403Y-70723844D01*
X212714679Y-70671897D01*
X212702500Y-70618306D01*
X212702500Y-69986281D01*
X212722185Y-69919242D01*
X212738819Y-69898600D01*
X214737407Y-67900012D01*
X214737410Y-67900009D01*
X214806083Y-67797233D01*
X214853385Y-67683035D01*
X214877500Y-67561804D01*
X214877500Y-67438197D01*
X214877500Y-65439356D01*
X214897185Y-65372317D01*
X214898398Y-65370465D01*
X214959394Y-65279179D01*
X215019737Y-65133497D01*
X215050500Y-64978842D01*
X215050500Y-64821158D01*
X215050500Y-64821155D01*
X215050499Y-64821153D01*
X215019738Y-64666510D01*
X215019737Y-64666503D01*
X214977240Y-64563907D01*
X214969772Y-64494439D01*
X215001047Y-64431960D01*
X215061136Y-64396308D01*
X215130961Y-64398802D01*
X215179483Y-64428775D01*
X217411527Y-66660819D01*
X217445012Y-66722142D01*
X217440028Y-66791834D01*
X217398156Y-66847767D01*
X217332692Y-66872184D01*
X217323846Y-66872500D01*
X216789357Y-66872500D01*
X216722318Y-66852815D01*
X216720466Y-66851602D01*
X216629185Y-66790609D01*
X216629172Y-66790602D01*
X216483501Y-66730264D01*
X216483489Y-66730261D01*
X216328845Y-66699500D01*
X216328842Y-66699500D01*
X216171158Y-66699500D01*
X216171155Y-66699500D01*
X216016510Y-66730261D01*
X216016498Y-66730264D01*
X215870827Y-66790602D01*
X215870814Y-66790609D01*
X215739711Y-66878210D01*
X215739707Y-66878213D01*
X215628213Y-66989707D01*
X215628210Y-66989711D01*
X215540609Y-67120814D01*
X215540602Y-67120827D01*
X215480264Y-67266498D01*
X215480261Y-67266510D01*
X215449500Y-67421153D01*
X215449500Y-67578846D01*
X215480261Y-67733489D01*
X215480264Y-67733501D01*
X215540602Y-67879172D01*
X215540609Y-67879185D01*
X215628210Y-68010288D01*
X215628213Y-68010292D01*
X215739707Y-68121786D01*
X215739711Y-68121789D01*
X215870814Y-68209390D01*
X215870827Y-68209397D01*
X216016498Y-68269735D01*
X216016503Y-68269737D01*
X216171153Y-68300499D01*
X216171156Y-68300500D01*
X216171158Y-68300500D01*
X216328844Y-68300500D01*
X216328845Y-68300499D01*
X216483497Y-68269737D01*
X216629179Y-68209394D01*
X216720466Y-68148398D01*
X216787143Y-68127520D01*
X216789357Y-68127500D01*
X218826846Y-68127500D01*
X218893885Y-68147185D01*
X218914527Y-68163819D01*
X219208181Y-68457473D01*
X219241666Y-68518796D01*
X219244500Y-68545154D01*
X219244500Y-69433807D01*
X219268612Y-69555027D01*
X219268614Y-69555035D01*
X219296800Y-69623082D01*
X219296802Y-69623087D01*
X219299656Y-69629975D01*
X219315917Y-69669233D01*
X219356915Y-69730591D01*
X219359546Y-69734528D01*
X219384590Y-69772010D01*
X219384591Y-69772011D01*
X219697310Y-70084729D01*
X219730795Y-70146052D01*
X219732102Y-70191808D01*
X219699500Y-70397648D01*
X219699500Y-70602351D01*
X219731522Y-70804534D01*
X219794781Y-70999223D01*
X219839595Y-71087173D01*
X219886650Y-71179524D01*
X219887715Y-71181613D01*
X220008028Y-71347213D01*
X220152786Y-71491971D01*
X220263502Y-71572409D01*
X220318390Y-71612287D01*
X220415669Y-71661853D01*
X220500776Y-71705218D01*
X220500778Y-71705218D01*
X220500781Y-71705220D01*
X220605137Y-71739127D01*
X220695465Y-71768477D01*
X220796557Y-71784488D01*
X220897648Y-71800500D01*
X220897649Y-71800500D01*
X221102351Y-71800500D01*
X221102352Y-71800500D01*
X221304534Y-71768477D01*
X221499219Y-71705220D01*
X221681610Y-71612287D01*
X221774590Y-71544732D01*
X221847213Y-71491971D01*
X221847215Y-71491968D01*
X221847219Y-71491966D01*
X221991966Y-71347219D01*
X221991968Y-71347215D01*
X221991971Y-71347213D01*
X222048879Y-71268884D01*
X222112287Y-71181610D01*
X222205220Y-70999219D01*
X222268477Y-70804534D01*
X222300500Y-70602352D01*
X222300500Y-70397648D01*
X222287381Y-70314817D01*
X222268477Y-70195465D01*
X222216429Y-70035278D01*
X222205220Y-70000781D01*
X222205218Y-70000778D01*
X222205218Y-70000776D01*
X222153156Y-69898600D01*
X222112287Y-69818390D01*
X222078591Y-69772011D01*
X221991971Y-69652786D01*
X221847213Y-69508028D01*
X221681613Y-69387715D01*
X221681612Y-69387714D01*
X221681610Y-69387713D01*
X221628171Y-69360484D01*
X221577376Y-69312510D01*
X221560581Y-69244689D01*
X221583118Y-69178554D01*
X221628172Y-69139515D01*
X221681610Y-69112287D01*
X221780450Y-69040476D01*
X221847213Y-68991971D01*
X221847215Y-68991968D01*
X221847219Y-68991966D01*
X221991966Y-68847219D01*
X222026284Y-68799984D01*
X228099500Y-68799984D01*
X228099500Y-71200015D01*
X228110000Y-71302795D01*
X228110001Y-71302797D01*
X228137593Y-71386065D01*
X228165186Y-71469335D01*
X228165187Y-71469337D01*
X228257286Y-71618651D01*
X228257289Y-71618655D01*
X228381344Y-71742710D01*
X228381348Y-71742713D01*
X228530662Y-71834812D01*
X228530664Y-71834813D01*
X228530666Y-71834814D01*
X228697203Y-71889999D01*
X228799992Y-71900500D01*
X228799997Y-71900500D01*
X231200003Y-71900500D01*
X231200008Y-71900500D01*
X231302797Y-71889999D01*
X231469334Y-71834814D01*
X231618655Y-71742711D01*
X231742711Y-71618655D01*
X231834814Y-71469334D01*
X231889999Y-71302797D01*
X231900500Y-71200008D01*
X231900500Y-68799992D01*
X231889999Y-68697203D01*
X231834814Y-68530666D01*
X231827492Y-68518796D01*
X231742713Y-68381348D01*
X231742710Y-68381344D01*
X231618655Y-68257289D01*
X231618651Y-68257286D01*
X231469337Y-68165187D01*
X231469335Y-68165186D01*
X231386065Y-68137593D01*
X231302797Y-68110001D01*
X231302795Y-68110000D01*
X231200015Y-68099500D01*
X231200008Y-68099500D01*
X228799992Y-68099500D01*
X228799984Y-68099500D01*
X228697204Y-68110000D01*
X228697203Y-68110001D01*
X228530664Y-68165186D01*
X228530662Y-68165187D01*
X228381348Y-68257286D01*
X228381344Y-68257289D01*
X228257289Y-68381344D01*
X228257286Y-68381348D01*
X228165187Y-68530662D01*
X228165186Y-68530664D01*
X228110001Y-68697203D01*
X228110000Y-68697204D01*
X228099500Y-68799984D01*
X222026284Y-68799984D01*
X222112287Y-68681610D01*
X222205220Y-68499219D01*
X222268477Y-68304534D01*
X222300500Y-68102352D01*
X222300500Y-67897648D01*
X222284596Y-67797233D01*
X222268477Y-67695465D01*
X222234047Y-67589501D01*
X222205220Y-67500781D01*
X222205218Y-67500778D01*
X222205218Y-67500776D01*
X222127063Y-67347390D01*
X222112287Y-67318390D01*
X222080713Y-67274932D01*
X221991971Y-67152786D01*
X221847213Y-67008028D01*
X221681613Y-66887715D01*
X221681612Y-66887714D01*
X221681610Y-66887713D01*
X221613119Y-66852815D01*
X221499223Y-66794781D01*
X221304534Y-66731522D01*
X221129995Y-66703878D01*
X221102352Y-66699500D01*
X220897648Y-66699500D01*
X220873329Y-66703351D01*
X220695465Y-66731522D01*
X220500776Y-66794781D01*
X220318386Y-66887715D01*
X220152786Y-67008028D01*
X220008032Y-67152782D01*
X220008028Y-67152787D01*
X219954628Y-67226287D01*
X219899298Y-67268953D01*
X219829685Y-67274932D01*
X219767890Y-67242327D01*
X219766629Y-67241083D01*
X215288138Y-62762591D01*
X215288133Y-62762587D01*
X215244413Y-62733375D01*
X215198606Y-62702768D01*
X215185360Y-62693917D01*
X215146578Y-62677853D01*
X215142737Y-62676262D01*
X215142727Y-62676257D01*
X215071162Y-62646614D01*
X215071154Y-62646612D01*
X214949934Y-62622500D01*
X214949930Y-62622500D01*
X211851796Y-62622500D01*
X211784757Y-62602815D01*
X211748694Y-62567391D01*
X211696789Y-62489711D01*
X211696786Y-62489707D01*
X211585292Y-62378213D01*
X211585288Y-62378210D01*
X211454185Y-62290609D01*
X211454172Y-62290602D01*
X211308501Y-62230264D01*
X211308489Y-62230261D01*
X211153845Y-62199500D01*
X211153842Y-62199500D01*
X210996158Y-62199500D01*
X210996155Y-62199500D01*
X210841510Y-62230261D01*
X210841498Y-62230264D01*
X210695827Y-62290602D01*
X210695814Y-62290609D01*
X210564711Y-62378210D01*
X210564707Y-62378213D01*
X210453213Y-62489707D01*
X210453210Y-62489711D01*
X210365609Y-62620814D01*
X210365602Y-62620827D01*
X210305264Y-62766498D01*
X210305261Y-62766510D01*
X210274500Y-62921153D01*
X207640500Y-62921153D01*
X207640500Y-60451194D01*
X207616386Y-60329970D01*
X207616385Y-60329969D01*
X207616385Y-60329965D01*
X207605131Y-60302795D01*
X207569086Y-60215773D01*
X207569079Y-60215760D01*
X207500412Y-60112993D01*
X207500411Y-60112992D01*
X207413008Y-60025589D01*
X207177801Y-59790382D01*
X207144316Y-59729059D01*
X207149300Y-59659367D01*
X207191172Y-59603434D01*
X207246085Y-59580228D01*
X207272641Y-59576022D01*
X207351368Y-59563553D01*
X207575992Y-59490568D01*
X207786433Y-59383343D01*
X207876082Y-59318209D01*
X225799500Y-59318209D01*
X225799500Y-59681790D01*
X225835137Y-60043630D01*
X225906064Y-60400212D01*
X225906067Y-60400223D01*
X226011614Y-60748165D01*
X226150754Y-61084078D01*
X226150756Y-61084083D01*
X226322140Y-61404720D01*
X226322151Y-61404738D01*
X226524140Y-61707035D01*
X226524150Y-61707049D01*
X226754807Y-61988106D01*
X227011893Y-62245192D01*
X227011898Y-62245196D01*
X227011899Y-62245197D01*
X227292956Y-62475854D01*
X227595268Y-62677853D01*
X227595277Y-62677858D01*
X227595279Y-62677859D01*
X227915916Y-62849243D01*
X227915918Y-62849243D01*
X227915924Y-62849247D01*
X228251836Y-62988386D01*
X228599767Y-63093930D01*
X228599773Y-63093931D01*
X228599776Y-63093932D01*
X228599787Y-63093935D01*
X228956369Y-63164862D01*
X229318206Y-63200500D01*
X229318209Y-63200500D01*
X229681791Y-63200500D01*
X229681794Y-63200500D01*
X230043631Y-63164862D01*
X230113045Y-63151054D01*
X230400212Y-63093935D01*
X230400223Y-63093932D01*
X230400223Y-63093931D01*
X230400233Y-63093930D01*
X230748164Y-62988386D01*
X231084076Y-62849247D01*
X231404732Y-62677853D01*
X231707044Y-62475854D01*
X231988101Y-62245197D01*
X232245197Y-61988101D01*
X232475854Y-61707044D01*
X232677853Y-61404732D01*
X232849247Y-61084076D01*
X232988386Y-60748164D01*
X233093930Y-60400233D01*
X233093932Y-60400223D01*
X233093935Y-60400212D01*
X233164862Y-60043630D01*
X233189805Y-59790382D01*
X233200500Y-59681794D01*
X233200500Y-59318206D01*
X233164862Y-58956369D01*
X233148770Y-58875466D01*
X233093935Y-58599787D01*
X233093932Y-58599776D01*
X233093931Y-58599773D01*
X233093930Y-58599767D01*
X232988386Y-58251836D01*
X232849247Y-57915924D01*
X232825941Y-57872322D01*
X232677859Y-57595279D01*
X232677858Y-57595277D01*
X232677853Y-57595268D01*
X232475854Y-57292956D01*
X232245197Y-57011899D01*
X232245196Y-57011898D01*
X232245192Y-57011893D01*
X231988106Y-56754807D01*
X231707049Y-56524150D01*
X231707048Y-56524149D01*
X231707044Y-56524146D01*
X231404732Y-56322147D01*
X231404727Y-56322144D01*
X231404720Y-56322140D01*
X231084083Y-56150756D01*
X231084078Y-56150754D01*
X230748165Y-56011614D01*
X230400223Y-55906067D01*
X230400212Y-55906064D01*
X230043630Y-55835137D01*
X229771111Y-55808296D01*
X229681794Y-55799500D01*
X229318206Y-55799500D01*
X229235679Y-55807628D01*
X228956369Y-55835137D01*
X228599787Y-55906064D01*
X228599776Y-55906067D01*
X228251834Y-56011614D01*
X227915921Y-56150754D01*
X227915916Y-56150756D01*
X227595279Y-56322140D01*
X227595261Y-56322151D01*
X227292964Y-56524140D01*
X227292950Y-56524150D01*
X227011893Y-56754807D01*
X226754807Y-57011893D01*
X226524150Y-57292950D01*
X226524140Y-57292964D01*
X226322151Y-57595261D01*
X226322140Y-57595279D01*
X226150756Y-57915916D01*
X226150754Y-57915921D01*
X226011614Y-58251834D01*
X225906067Y-58599776D01*
X225906064Y-58599787D01*
X225835137Y-58956369D01*
X225799500Y-59318209D01*
X207876082Y-59318209D01*
X207977510Y-59244517D01*
X208144517Y-59077510D01*
X208283343Y-58886433D01*
X208390568Y-58675992D01*
X208463553Y-58451368D01*
X208467891Y-58423978D01*
X208500500Y-58218097D01*
X208500500Y-57981902D01*
X208463553Y-57748631D01*
X208413722Y-57595268D01*
X208390568Y-57524008D01*
X208390566Y-57524005D01*
X208390566Y-57524003D01*
X208317879Y-57381348D01*
X208283343Y-57313567D01*
X208144517Y-57122490D01*
X207977510Y-56955483D01*
X207786433Y-56816657D01*
X207575996Y-56709433D01*
X207351368Y-56636446D01*
X207118097Y-56599500D01*
X207118092Y-56599500D01*
X206881908Y-56599500D01*
X206881903Y-56599500D01*
X206648631Y-56636446D01*
X206424003Y-56709433D01*
X206213566Y-56816657D01*
X206124533Y-56881344D01*
X206022490Y-56955483D01*
X206022488Y-56955485D01*
X206018786Y-56958647D01*
X206017305Y-56956913D01*
X205964110Y-56985791D01*
X205894431Y-56980635D01*
X205838601Y-56938626D01*
X205832511Y-56929656D01*
X205823406Y-56914894D01*
X205802712Y-56881344D01*
X205678656Y-56757288D01*
X205529334Y-56665186D01*
X205362797Y-56610001D01*
X205362795Y-56610000D01*
X205260010Y-56599500D01*
X203659998Y-56599500D01*
X203659981Y-56599501D01*
X203557203Y-56610000D01*
X203557200Y-56610001D01*
X203390668Y-56665185D01*
X203390663Y-56665187D01*
X203241342Y-56757289D01*
X203117289Y-56881342D01*
X203025187Y-57030663D01*
X203025186Y-57030666D01*
X202970001Y-57197203D01*
X202970001Y-57197204D01*
X202970000Y-57197204D01*
X202959500Y-57299983D01*
X202959500Y-58900001D01*
X202959501Y-58900018D01*
X202970000Y-59002796D01*
X202970001Y-59002799D01*
X203010340Y-59124533D01*
X203025186Y-59169334D01*
X203117288Y-59318656D01*
X203241344Y-59442712D01*
X203390666Y-59534814D01*
X203557203Y-59589999D01*
X203659991Y-59600500D01*
X205161718Y-59600499D01*
X205228757Y-59620184D01*
X205249399Y-59636818D01*
X206349181Y-60736600D01*
X206382666Y-60797923D01*
X206385500Y-60824281D01*
X206385500Y-74096887D01*
X206365815Y-74163926D01*
X206313011Y-74209681D01*
X206243853Y-74219625D01*
X206223182Y-74214818D01*
X206034536Y-74153523D01*
X205899746Y-74132174D01*
X205832352Y-74121500D01*
X205627648Y-74121500D01*
X205603329Y-74125351D01*
X205425465Y-74153522D01*
X205230776Y-74216781D01*
X205048386Y-74309715D01*
X204882786Y-74430028D01*
X204738028Y-74574786D01*
X204617714Y-74740386D01*
X204590203Y-74794379D01*
X204542227Y-74845174D01*
X204474406Y-74861968D01*
X204408272Y-74839429D01*
X204369234Y-74794376D01*
X204341861Y-74740652D01*
X204309474Y-74696077D01*
X204309474Y-74696076D01*
X203630000Y-75375551D01*
X203630000Y-75369339D01*
X203602741Y-75267606D01*
X203550080Y-75176394D01*
X203475606Y-75101920D01*
X203384394Y-75049259D01*
X203282661Y-75022000D01*
X203276446Y-75022000D01*
X203955922Y-74342524D01*
X203955921Y-74342523D01*
X203911359Y-74310147D01*
X203911350Y-74310141D01*
X203729031Y-74217244D01*
X203534417Y-74154009D01*
X203332317Y-74122000D01*
X203127683Y-74122000D01*
X202925582Y-74154009D01*
X202730968Y-74217244D01*
X202548644Y-74310143D01*
X202504077Y-74342523D01*
X202504077Y-74342524D01*
X203183554Y-75022000D01*
X203177339Y-75022000D01*
X203075606Y-75049259D01*
X202984394Y-75101920D01*
X202909920Y-75176394D01*
X202857259Y-75267606D01*
X202830000Y-75369339D01*
X202830000Y-75375553D01*
X202150524Y-74696077D01*
X202150523Y-74696077D01*
X202118143Y-74740644D01*
X202025244Y-74922968D01*
X201962009Y-75117582D01*
X201930000Y-75319682D01*
X201930000Y-75524317D01*
X201962009Y-75726417D01*
X202025244Y-75921031D01*
X202118141Y-76103350D01*
X202118147Y-76103359D01*
X202150523Y-76147921D01*
X202150524Y-76147922D01*
X202830000Y-75468446D01*
X202830000Y-75474661D01*
X202857259Y-75576394D01*
X202909920Y-75667606D01*
X202984394Y-75742080D01*
X203075606Y-75794741D01*
X203177339Y-75822000D01*
X203183553Y-75822000D01*
X202504076Y-76501474D01*
X202548650Y-76533859D01*
X202730968Y-76626755D01*
X202925582Y-76689990D01*
X203127683Y-76722000D01*
X203332317Y-76722000D01*
X203534417Y-76689990D01*
X203729031Y-76626755D01*
X203911349Y-76533859D01*
X203955921Y-76501474D01*
X203276447Y-75822000D01*
X203282661Y-75822000D01*
X203384394Y-75794741D01*
X203475606Y-75742080D01*
X203550080Y-75667606D01*
X203602741Y-75576394D01*
X203630000Y-75474661D01*
X203630000Y-75468447D01*
X204309474Y-76147921D01*
X204341859Y-76103349D01*
X204369233Y-76049624D01*
X204417207Y-75998827D01*
X204485028Y-75982031D01*
X204551163Y-76004567D01*
X204590203Y-76049621D01*
X204617713Y-76103611D01*
X204738028Y-76269213D01*
X204882786Y-76413971D01*
X205015000Y-76510028D01*
X205048390Y-76534287D01*
X205144344Y-76583178D01*
X205230776Y-76627218D01*
X205230778Y-76627218D01*
X205230781Y-76627220D01*
X205300866Y-76649992D01*
X205425465Y-76690477D01*
X205526557Y-76706488D01*
X205627648Y-76722500D01*
X205627649Y-76722500D01*
X205832351Y-76722500D01*
X205832352Y-76722500D01*
X206034534Y-76690477D01*
X206223183Y-76629180D01*
X206293022Y-76627186D01*
X206352855Y-76663266D01*
X206383684Y-76725967D01*
X206385500Y-76747112D01*
X206385500Y-84675413D01*
X206365815Y-84742452D01*
X206313011Y-84788207D01*
X206243853Y-84798151D01*
X206223181Y-84793344D01*
X206034417Y-84732009D01*
X205832317Y-84700000D01*
X205627683Y-84700000D01*
X205425582Y-84732009D01*
X205230968Y-84795244D01*
X205048644Y-84888143D01*
X205004077Y-84920523D01*
X205004077Y-84920524D01*
X205683553Y-85600000D01*
X205677339Y-85600000D01*
X205575606Y-85627259D01*
X205484394Y-85679920D01*
X205409920Y-85754394D01*
X205357259Y-85845606D01*
X205330000Y-85947339D01*
X205330000Y-85953553D01*
X204650524Y-85274077D01*
X204650523Y-85274077D01*
X204618143Y-85318644D01*
X204590765Y-85372378D01*
X204542790Y-85423174D01*
X204474969Y-85439969D01*
X204408834Y-85417431D01*
X204369795Y-85372378D01*
X204342284Y-85318385D01*
X204221971Y-85152786D01*
X204077213Y-85008028D01*
X203911613Y-84887715D01*
X203911612Y-84887714D01*
X203911610Y-84887713D01*
X203842208Y-84852351D01*
X203729223Y-84794781D01*
X203534534Y-84731522D01*
X203359995Y-84703878D01*
X203332352Y-84699500D01*
X203127648Y-84699500D01*
X203103329Y-84703351D01*
X202925465Y-84731522D01*
X202730776Y-84794781D01*
X202548386Y-84887715D01*
X202382786Y-85008028D01*
X202238028Y-85152786D01*
X202117715Y-85318386D01*
X202024781Y-85500776D01*
X201961522Y-85695465D01*
X201929500Y-85897648D01*
X201929500Y-86102351D01*
X201961522Y-86304534D01*
X202024781Y-86499223D01*
X202085729Y-86618838D01*
X202117585Y-86681359D01*
X202117715Y-86681613D01*
X202238028Y-86847213D01*
X202382786Y-86991971D01*
X202503226Y-87079474D01*
X202548390Y-87112287D01*
X202652577Y-87165373D01*
X202730776Y-87205218D01*
X202730778Y-87205218D01*
X202730781Y-87205220D01*
X202805904Y-87229629D01*
X202925465Y-87268477D01*
X203026557Y-87284488D01*
X203127648Y-87300500D01*
X203127649Y-87300500D01*
X203332351Y-87300500D01*
X203332352Y-87300500D01*
X203534534Y-87268477D01*
X203729219Y-87205220D01*
X203911610Y-87112287D01*
X204004590Y-87044732D01*
X204077213Y-86991971D01*
X204077215Y-86991968D01*
X204077219Y-86991966D01*
X204221966Y-86847219D01*
X204221968Y-86847215D01*
X204221971Y-86847213D01*
X204342286Y-86681611D01*
X204342415Y-86681359D01*
X204369795Y-86627621D01*
X204417769Y-86576826D01*
X204485589Y-86560030D01*
X204551725Y-86582567D01*
X204590765Y-86627621D01*
X204618141Y-86681350D01*
X204618147Y-86681359D01*
X204650523Y-86725921D01*
X204650524Y-86725922D01*
X205330000Y-86046446D01*
X205330000Y-86052661D01*
X205357259Y-86154394D01*
X205409920Y-86245606D01*
X205484394Y-86320080D01*
X205575606Y-86372741D01*
X205677339Y-86400000D01*
X205683552Y-86400000D01*
X205004076Y-87079474D01*
X205048650Y-87111859D01*
X205230968Y-87204755D01*
X205425582Y-87267990D01*
X205627683Y-87300000D01*
X205832317Y-87300000D01*
X206034417Y-87267990D01*
X206223181Y-87206655D01*
X206293022Y-87204659D01*
X206352855Y-87240739D01*
X206383684Y-87303440D01*
X206385500Y-87324586D01*
X206385500Y-89918913D01*
X206365815Y-89985952D01*
X206313011Y-90031707D01*
X206243853Y-90041651D01*
X206223182Y-90036844D01*
X206054420Y-89982010D01*
X205852317Y-89950000D01*
X205647683Y-89950000D01*
X205445582Y-89982009D01*
X205250968Y-90045244D01*
X205068644Y-90138143D01*
X205024077Y-90170523D01*
X205024077Y-90170524D01*
X205703553Y-90850000D01*
X205697339Y-90850000D01*
X205595606Y-90877259D01*
X205504394Y-90929920D01*
X205429920Y-91004394D01*
X205377259Y-91095606D01*
X205350000Y-91197339D01*
X205350000Y-91203553D01*
X204670524Y-90524077D01*
X204670523Y-90524077D01*
X204638143Y-90568644D01*
X204610765Y-90622378D01*
X204562790Y-90673174D01*
X204494969Y-90689969D01*
X204428834Y-90667431D01*
X204389795Y-90622378D01*
X204380185Y-90603517D01*
X204362287Y-90568390D01*
X204362285Y-90568387D01*
X204362284Y-90568385D01*
X204241970Y-90402785D01*
X204097213Y-90258028D01*
X203931613Y-90137715D01*
X203931612Y-90137714D01*
X203931610Y-90137713D01*
X203874653Y-90108691D01*
X203749223Y-90044781D01*
X203554534Y-89981522D01*
X203379995Y-89953878D01*
X203352352Y-89949500D01*
X203147648Y-89949500D01*
X203135368Y-89951445D01*
X202945465Y-89981522D01*
X202750776Y-90044781D01*
X202568386Y-90137715D01*
X202402786Y-90258028D01*
X202258032Y-90402782D01*
X202258030Y-90402785D01*
X202137715Y-90568386D01*
X202044781Y-90750776D01*
X201981522Y-90945465D01*
X201949500Y-91147648D01*
X201949500Y-91352352D01*
X201952253Y-91369733D01*
X201981522Y-91554534D01*
X202044781Y-91749223D01*
X202087248Y-91832567D01*
X202137585Y-91931359D01*
X202137715Y-91931613D01*
X202258028Y-92097213D01*
X202402786Y-92241971D01*
X202549489Y-92348555D01*
X202568390Y-92362287D01*
X202665402Y-92411717D01*
X202750776Y-92455218D01*
X202750778Y-92455218D01*
X202750781Y-92455220D01*
X202834774Y-92482511D01*
X202945465Y-92518477D01*
X203021280Y-92530485D01*
X203147648Y-92550500D01*
X203147649Y-92550500D01*
X203352351Y-92550500D01*
X203352352Y-92550500D01*
X203554534Y-92518477D01*
X203749219Y-92455220D01*
X203931610Y-92362287D01*
X204054057Y-92273325D01*
X204097213Y-92241971D01*
X204097215Y-92241968D01*
X204097219Y-92241966D01*
X204241966Y-92097219D01*
X204241968Y-92097215D01*
X204241971Y-92097213D01*
X204362286Y-91931611D01*
X204362415Y-91931359D01*
X204389795Y-91877621D01*
X204437769Y-91826826D01*
X204505589Y-91810030D01*
X204571725Y-91832567D01*
X204610765Y-91877621D01*
X204638141Y-91931350D01*
X204638147Y-91931359D01*
X204670523Y-91975921D01*
X204670524Y-91975922D01*
X205350000Y-91296446D01*
X205350000Y-91302661D01*
X205377259Y-91404394D01*
X205429920Y-91495606D01*
X205504394Y-91570080D01*
X205595606Y-91622741D01*
X205697339Y-91650000D01*
X205703552Y-91650000D01*
X205024076Y-92329474D01*
X205068650Y-92361859D01*
X205250968Y-92454755D01*
X205445582Y-92517990D01*
X205647683Y-92550000D01*
X205852317Y-92550000D01*
X206054417Y-92517990D01*
X206223181Y-92463154D01*
X206293022Y-92461159D01*
X206352855Y-92497239D01*
X206383684Y-92559939D01*
X206385500Y-92581085D01*
X206385500Y-100722453D01*
X206365815Y-100789492D01*
X206313011Y-100835247D01*
X206243853Y-100845191D01*
X206223183Y-100840384D01*
X206216341Y-100838161D01*
X206216342Y-100838161D01*
X206068782Y-100814790D01*
X206019597Y-100807000D01*
X205820403Y-100807000D01*
X205759267Y-100816683D01*
X205642399Y-100835193D01*
X205573105Y-100826238D01*
X205535320Y-100800401D01*
X204997511Y-100262591D01*
X204997507Y-100262588D01*
X204894739Y-100193920D01*
X204894726Y-100193913D01*
X204861285Y-100180062D01*
X204780535Y-100146614D01*
X204780527Y-100146612D01*
X204659307Y-100122500D01*
X204659303Y-100122500D01*
X201811281Y-100122500D01*
X201744242Y-100102815D01*
X201723600Y-100086181D01*
X181913819Y-80276400D01*
X181880334Y-80215077D01*
X181877500Y-80188719D01*
X181877500Y-76988194D01*
X181853386Y-76866970D01*
X181853385Y-76866969D01*
X181853385Y-76866965D01*
X181842216Y-76840000D01*
X181806086Y-76752773D01*
X181806079Y-76752760D01*
X181737412Y-76649993D01*
X181694094Y-76606675D01*
X181650008Y-76562589D01*
X180648989Y-75561570D01*
X180615504Y-75500247D01*
X180614197Y-75454491D01*
X180639392Y-75295418D01*
X180640500Y-75288422D01*
X180640500Y-75091577D01*
X180609709Y-74897173D01*
X180572380Y-74782288D01*
X180548884Y-74709975D01*
X180548882Y-74709972D01*
X180548882Y-74709970D01*
X180485537Y-74585649D01*
X180459524Y-74534595D01*
X180343828Y-74375354D01*
X180204646Y-74236172D01*
X180045405Y-74120476D01*
X179870025Y-74031116D01*
X179870024Y-74031115D01*
X179868235Y-74030204D01*
X179817439Y-73982230D01*
X179800644Y-73914409D01*
X179823181Y-73848274D01*
X179868236Y-73809234D01*
X180045141Y-73719097D01*
X180080125Y-73693678D01*
X180080126Y-73693678D01*
X179416447Y-73030000D01*
X179440028Y-73030000D01*
X179536675Y-73004104D01*
X179623325Y-72954076D01*
X179694076Y-72883325D01*
X179744104Y-72796675D01*
X179770000Y-72700028D01*
X179770000Y-72676448D01*
X180433678Y-73340126D01*
X180433678Y-73340125D01*
X180459095Y-73305143D01*
X180548418Y-73129835D01*
X180609221Y-72942705D01*
X180640000Y-72748382D01*
X180640000Y-72551617D01*
X180609221Y-72357294D01*
X180548418Y-72170164D01*
X180459096Y-71994858D01*
X180433678Y-71959873D01*
X180433677Y-71959873D01*
X179770000Y-72623551D01*
X179770000Y-72599972D01*
X179744104Y-72503325D01*
X179694076Y-72416675D01*
X179623325Y-72345924D01*
X179536675Y-72295896D01*
X179440028Y-72270000D01*
X179416446Y-72270000D01*
X180080125Y-71606320D01*
X180080125Y-71606319D01*
X180045145Y-71580905D01*
X179868235Y-71490765D01*
X179859080Y-71482118D01*
X179847415Y-71477384D01*
X179834162Y-71458585D01*
X179817439Y-71442790D01*
X179814412Y-71430567D01*
X179807158Y-71420277D01*
X179806172Y-71397295D01*
X179800644Y-71374969D01*
X179804705Y-71363051D01*
X179804166Y-71350472D01*
X179811360Y-71338146D01*
X187967000Y-71338146D01*
X187967000Y-71661854D01*
X187979807Y-71742711D01*
X188002778Y-71887746D01*
X188002778Y-71887749D01*
X188073450Y-72105255D01*
X188073452Y-72105258D01*
X188177283Y-72309038D01*
X188311714Y-72494066D01*
X188473434Y-72655786D01*
X188658462Y-72790217D01*
X188671137Y-72796675D01*
X188862244Y-72894049D01*
X189079751Y-72964721D01*
X189079752Y-72964721D01*
X189079755Y-72964722D01*
X189305646Y-73000500D01*
X189305647Y-73000500D01*
X189534353Y-73000500D01*
X189534354Y-73000500D01*
X189760245Y-72964722D01*
X189760248Y-72964721D01*
X189760249Y-72964721D01*
X189977755Y-72894049D01*
X189977755Y-72894048D01*
X189977758Y-72894048D01*
X190181538Y-72790217D01*
X190366566Y-72655786D01*
X190528286Y-72494066D01*
X190589992Y-72409134D01*
X190645319Y-72366470D01*
X190714932Y-72360491D01*
X190776727Y-72393096D01*
X190790626Y-72409135D01*
X190852097Y-72493741D01*
X190852097Y-72493742D01*
X191013757Y-72655402D01*
X191198723Y-72789788D01*
X191402429Y-72893582D01*
X191619871Y-72964234D01*
X191710000Y-72978509D01*
X191710000Y-71990747D01*
X191747708Y-72012518D01*
X191887591Y-72050000D01*
X192032409Y-72050000D01*
X192172292Y-72012518D01*
X192210000Y-71990747D01*
X192210000Y-72978508D01*
X192300128Y-72964234D01*
X192517570Y-72893582D01*
X192721276Y-72789788D01*
X192904059Y-72656988D01*
X192969865Y-72633508D01*
X193037919Y-72649333D01*
X193086614Y-72699439D01*
X193093127Y-72713974D01*
X193103701Y-72742326D01*
X193103706Y-72742335D01*
X193189952Y-72857544D01*
X193189955Y-72857547D01*
X193305164Y-72943793D01*
X193305171Y-72943797D01*
X193440017Y-72994091D01*
X193440016Y-72994091D01*
X193446944Y-72994835D01*
X193499627Y-73000500D01*
X195500372Y-73000499D01*
X195559983Y-72994091D01*
X195694831Y-72943796D01*
X195810046Y-72857546D01*
X195896296Y-72742331D01*
X195946591Y-72607483D01*
X195953000Y-72547873D01*
X195952999Y-70452128D01*
X195946591Y-70392517D01*
X195939867Y-70374490D01*
X195896297Y-70257671D01*
X195896293Y-70257664D01*
X195810047Y-70142455D01*
X195810044Y-70142452D01*
X195694835Y-70056206D01*
X195694828Y-70056202D01*
X195559982Y-70005908D01*
X195559983Y-70005908D01*
X195500383Y-69999501D01*
X195500381Y-69999500D01*
X195500373Y-69999500D01*
X195500364Y-69999500D01*
X193499629Y-69999500D01*
X193499623Y-69999501D01*
X193440016Y-70005908D01*
X193305171Y-70056202D01*
X193305164Y-70056206D01*
X193189955Y-70142452D01*
X193189952Y-70142455D01*
X193103706Y-70257664D01*
X193103702Y-70257671D01*
X193093127Y-70286026D01*
X193051256Y-70341960D01*
X192985791Y-70366377D01*
X192917518Y-70351525D01*
X192904060Y-70343011D01*
X192721279Y-70210213D01*
X192517568Y-70106417D01*
X192300124Y-70035765D01*
X192210000Y-70021490D01*
X192210000Y-71009252D01*
X192172292Y-70987482D01*
X192032409Y-70950000D01*
X191887591Y-70950000D01*
X191747708Y-70987482D01*
X191710000Y-71009252D01*
X191710000Y-70021490D01*
X191709999Y-70021490D01*
X191619875Y-70035765D01*
X191402431Y-70106417D01*
X191198723Y-70210211D01*
X191013757Y-70344597D01*
X190852097Y-70506257D01*
X190790627Y-70590864D01*
X190735297Y-70633529D01*
X190665684Y-70639508D01*
X190603889Y-70606902D01*
X190589991Y-70590864D01*
X190589578Y-70590295D01*
X190528286Y-70505934D01*
X190366566Y-70344214D01*
X190181538Y-70209783D01*
X190146260Y-70191808D01*
X189977755Y-70105950D01*
X189760248Y-70035278D01*
X189574812Y-70005908D01*
X189534354Y-69999500D01*
X189305646Y-69999500D01*
X189265188Y-70005908D01*
X189079753Y-70035278D01*
X189079750Y-70035278D01*
X188862244Y-70105950D01*
X188658461Y-70209783D01*
X188592550Y-70257671D01*
X188473434Y-70344214D01*
X188473432Y-70344216D01*
X188473431Y-70344216D01*
X188311716Y-70505931D01*
X188311716Y-70505932D01*
X188311714Y-70505934D01*
X188268545Y-70565351D01*
X188177283Y-70690961D01*
X188073450Y-70894744D01*
X188002778Y-71112250D01*
X188002778Y-71112253D01*
X187985271Y-71222789D01*
X187967000Y-71338146D01*
X179811360Y-71338146D01*
X179815762Y-71330605D01*
X179823182Y-71308834D01*
X179833884Y-71299560D01*
X179839389Y-71290130D01*
X179868236Y-71269795D01*
X179870022Y-71268884D01*
X179870025Y-71268884D01*
X180045405Y-71179524D01*
X180204646Y-71063828D01*
X180343828Y-70924646D01*
X180459524Y-70765405D01*
X180548884Y-70590025D01*
X180609709Y-70402826D01*
X180617834Y-70351525D01*
X180640500Y-70208422D01*
X180640500Y-70011577D01*
X180609709Y-69817173D01*
X180561640Y-69669233D01*
X180548884Y-69629975D01*
X180548882Y-69629972D01*
X180548882Y-69629970D01*
X180478218Y-69491285D01*
X180459524Y-69454595D01*
X180343828Y-69295354D01*
X180204646Y-69156172D01*
X180045405Y-69040476D01*
X179870029Y-68951117D01*
X179682826Y-68890290D01*
X179488422Y-68859500D01*
X179488417Y-68859500D01*
X179291583Y-68859500D01*
X179291578Y-68859500D01*
X179097173Y-68890290D01*
X178909970Y-68951117D01*
X178734594Y-69040476D01*
X178643741Y-69106485D01*
X178575354Y-69156172D01*
X178575352Y-69156174D01*
X178575351Y-69156174D01*
X178436174Y-69295351D01*
X178436167Y-69295360D01*
X178324816Y-69448619D01*
X178269486Y-69491285D01*
X178199873Y-69497263D01*
X178138078Y-69464657D01*
X178103721Y-69403818D01*
X178100499Y-69375740D01*
X178100499Y-68042128D01*
X178094091Y-67982517D01*
X178075169Y-67931785D01*
X178043797Y-67847671D01*
X178043793Y-67847664D01*
X177957547Y-67732455D01*
X177957544Y-67732452D01*
X177842335Y-67646206D01*
X177842328Y-67646202D01*
X177707482Y-67595908D01*
X177707483Y-67595908D01*
X177647883Y-67589501D01*
X177647881Y-67589500D01*
X177647873Y-67589500D01*
X177647864Y-67589500D01*
X176052129Y-67589500D01*
X176052123Y-67589501D01*
X175992516Y-67595908D01*
X175857671Y-67646202D01*
X175857664Y-67646206D01*
X175742455Y-67732452D01*
X175742452Y-67732455D01*
X175656206Y-67847664D01*
X175656202Y-67847671D01*
X175605908Y-67982517D01*
X175599501Y-68042116D01*
X175599501Y-68042123D01*
X175599500Y-68042135D01*
X175599500Y-69637870D01*
X175599501Y-69637876D01*
X175605908Y-69697483D01*
X175656202Y-69832328D01*
X175656206Y-69832335D01*
X175742452Y-69947544D01*
X175742455Y-69947547D01*
X175857664Y-70033793D01*
X175857671Y-70033797D01*
X175992517Y-70084091D01*
X175992516Y-70084091D01*
X175998451Y-70084729D01*
X176052127Y-70090500D01*
X176115733Y-70090499D01*
X176182770Y-70110183D01*
X176228526Y-70162986D01*
X176238470Y-70232144D01*
X176209446Y-70295700D01*
X176188619Y-70314816D01*
X176035354Y-70426171D01*
X175896174Y-70565351D01*
X175896174Y-70565352D01*
X175896172Y-70565354D01*
X175857700Y-70618306D01*
X175780476Y-70724594D01*
X175691117Y-70899970D01*
X175630290Y-71087173D01*
X175599500Y-71281577D01*
X175599500Y-71478422D01*
X175625802Y-71644490D01*
X175616847Y-71713784D01*
X175591010Y-71751569D01*
X174459256Y-72883325D01*
X174099992Y-73242589D01*
X174056289Y-73286292D01*
X174012586Y-73329994D01*
X174012585Y-73329996D01*
X173943923Y-73432756D01*
X173943912Y-73432776D01*
X173931597Y-73462506D01*
X173931598Y-73462507D01*
X173896615Y-73546962D01*
X173896612Y-73546972D01*
X173882583Y-73617498D01*
X173882564Y-73617598D01*
X173882369Y-73618583D01*
X173872500Y-73668197D01*
X168000500Y-73668197D01*
X168000500Y-67448711D01*
X168649500Y-67448711D01*
X168649500Y-67691288D01*
X168681161Y-67931785D01*
X168743947Y-68166104D01*
X168799616Y-68300500D01*
X168836776Y-68390212D01*
X168958064Y-68600289D01*
X168958066Y-68600292D01*
X168958067Y-68600293D01*
X169105733Y-68792736D01*
X169105739Y-68792743D01*
X169277256Y-68964260D01*
X169277262Y-68964265D01*
X169469711Y-69111936D01*
X169679788Y-69233224D01*
X169903900Y-69326054D01*
X170138211Y-69388838D01*
X170318586Y-69412584D01*
X170378711Y-69420500D01*
X170378712Y-69420500D01*
X170621289Y-69420500D01*
X170669388Y-69414167D01*
X170861789Y-69388838D01*
X171096100Y-69326054D01*
X171320212Y-69233224D01*
X171530289Y-69111936D01*
X171722738Y-68964265D01*
X171894265Y-68792738D01*
X172041936Y-68600289D01*
X172163224Y-68390212D01*
X172256054Y-68166100D01*
X172318838Y-67931789D01*
X172350500Y-67691288D01*
X172350500Y-67448712D01*
X172318838Y-67208211D01*
X172256054Y-66973900D01*
X172163224Y-66749788D01*
X172041936Y-66539711D01*
X171894265Y-66347262D01*
X171894260Y-66347256D01*
X171722743Y-66175739D01*
X171722736Y-66175733D01*
X171530293Y-66028067D01*
X171530292Y-66028066D01*
X171530289Y-66028064D01*
X171320212Y-65906776D01*
X171320205Y-65906773D01*
X171096104Y-65813947D01*
X170861785Y-65751161D01*
X170621289Y-65719500D01*
X170621288Y-65719500D01*
X170378712Y-65719500D01*
X170378711Y-65719500D01*
X170138214Y-65751161D01*
X169903895Y-65813947D01*
X169679794Y-65906773D01*
X169679785Y-65906777D01*
X169469706Y-66028067D01*
X169277263Y-66175733D01*
X169277256Y-66175739D01*
X169105739Y-66347256D01*
X169105733Y-66347263D01*
X168958067Y-66539706D01*
X168836777Y-66749785D01*
X168836773Y-66749794D01*
X168743947Y-66973895D01*
X168681161Y-67208214D01*
X168649500Y-67448711D01*
X168000500Y-67448711D01*
X168000500Y-59502706D01*
X168000618Y-59497297D01*
X168003377Y-59434108D01*
X168008437Y-59318209D01*
X168799500Y-59318209D01*
X168799500Y-59681790D01*
X168835137Y-60043630D01*
X168906064Y-60400212D01*
X168906067Y-60400223D01*
X169011614Y-60748165D01*
X169150754Y-61084078D01*
X169150756Y-61084083D01*
X169322140Y-61404720D01*
X169322151Y-61404738D01*
X169524140Y-61707035D01*
X169524150Y-61707049D01*
X169754807Y-61988106D01*
X170011893Y-62245192D01*
X170011898Y-62245196D01*
X170011899Y-62245197D01*
X170292956Y-62475854D01*
X170595268Y-62677853D01*
X170595277Y-62677858D01*
X170595279Y-62677859D01*
X170915916Y-62849243D01*
X170915918Y-62849243D01*
X170915924Y-62849247D01*
X171251836Y-62988386D01*
X171599767Y-63093930D01*
X171599773Y-63093931D01*
X171599776Y-63093932D01*
X171599787Y-63093935D01*
X171956369Y-63164862D01*
X172318206Y-63200500D01*
X172318209Y-63200500D01*
X172681791Y-63200500D01*
X172681794Y-63200500D01*
X173043631Y-63164862D01*
X173113045Y-63151054D01*
X173400212Y-63093935D01*
X173400223Y-63093932D01*
X173400223Y-63093931D01*
X173400233Y-63093930D01*
X173748164Y-62988386D01*
X174084076Y-62849247D01*
X174404732Y-62677853D01*
X174707044Y-62475854D01*
X174988101Y-62245197D01*
X175245197Y-61988101D01*
X175475854Y-61707044D01*
X175677853Y-61404732D01*
X175849247Y-61084076D01*
X175988386Y-60748164D01*
X176093930Y-60400233D01*
X176093932Y-60400223D01*
X176093935Y-60400212D01*
X176164862Y-60043630D01*
X176189805Y-59790382D01*
X176200500Y-59681794D01*
X176200500Y-59318206D01*
X176164862Y-58956369D01*
X176148770Y-58875466D01*
X176093935Y-58599787D01*
X176093932Y-58599776D01*
X176093931Y-58599773D01*
X176093930Y-58599767D01*
X175988386Y-58251836D01*
X175849247Y-57915924D01*
X175849243Y-57915916D01*
X175816837Y-57855288D01*
X175787276Y-57799984D01*
X179099500Y-57799984D01*
X179099500Y-60200015D01*
X179110000Y-60302795D01*
X179110001Y-60302796D01*
X179165186Y-60469335D01*
X179165187Y-60469337D01*
X179257286Y-60618651D01*
X179257289Y-60618655D01*
X179381344Y-60742710D01*
X179381348Y-60742713D01*
X179530662Y-60834812D01*
X179530664Y-60834813D01*
X179530666Y-60834814D01*
X179697203Y-60889999D01*
X179799992Y-60900500D01*
X179799997Y-60900500D01*
X182200003Y-60900500D01*
X182200008Y-60900500D01*
X182302797Y-60889999D01*
X182469334Y-60834814D01*
X182618655Y-60742711D01*
X182742711Y-60618655D01*
X182834814Y-60469334D01*
X182889999Y-60302797D01*
X182900500Y-60200008D01*
X182900500Y-58875466D01*
X184100000Y-58875466D01*
X184100000Y-59124533D01*
X184132508Y-59371463D01*
X184196973Y-59612049D01*
X184292283Y-59842148D01*
X184292288Y-59842159D01*
X184416813Y-60057841D01*
X184416819Y-60057849D01*
X184491400Y-60155045D01*
X185398958Y-59247487D01*
X185423978Y-59307890D01*
X185495112Y-59414351D01*
X185585649Y-59504888D01*
X185692110Y-59576022D01*
X185752511Y-59601041D01*
X184844953Y-60508598D01*
X184942150Y-60583180D01*
X184942158Y-60583186D01*
X185157840Y-60707711D01*
X185157851Y-60707716D01*
X185387950Y-60803026D01*
X185628536Y-60867491D01*
X185875466Y-60900000D01*
X186124534Y-60900000D01*
X186371463Y-60867491D01*
X186612049Y-60803026D01*
X186842148Y-60707716D01*
X186842159Y-60707711D01*
X187057855Y-60583178D01*
X187155045Y-60508600D01*
X187155045Y-60508597D01*
X186247488Y-59601041D01*
X186307890Y-59576022D01*
X186414351Y-59504888D01*
X186504888Y-59414351D01*
X186576022Y-59307890D01*
X186601041Y-59247489D01*
X187508597Y-60155045D01*
X187508600Y-60155045D01*
X187583178Y-60057855D01*
X187707711Y-59842159D01*
X187707716Y-59842148D01*
X187803026Y-59612049D01*
X187867491Y-59371463D01*
X187900000Y-59124533D01*
X187900000Y-58875466D01*
X187867491Y-58628536D01*
X187803026Y-58387950D01*
X187707716Y-58157851D01*
X187707711Y-58157840D01*
X187583186Y-57942158D01*
X187583174Y-57942140D01*
X187529600Y-57872322D01*
X187529599Y-57872321D01*
X187508598Y-57844953D01*
X186601041Y-58752510D01*
X186576022Y-58692110D01*
X186504888Y-58585649D01*
X186414351Y-58495112D01*
X186307890Y-58423978D01*
X186247487Y-58398957D01*
X186846461Y-57799984D01*
X191599500Y-57799984D01*
X191599500Y-60200015D01*
X191610000Y-60302795D01*
X191610001Y-60302796D01*
X191665186Y-60469335D01*
X191665187Y-60469337D01*
X191757286Y-60618651D01*
X191757289Y-60618655D01*
X191881344Y-60742710D01*
X191881348Y-60742713D01*
X192030662Y-60834812D01*
X192030664Y-60834813D01*
X192030666Y-60834814D01*
X192197203Y-60889999D01*
X192299992Y-60900500D01*
X192299997Y-60900500D01*
X194700003Y-60900500D01*
X194700008Y-60900500D01*
X194802797Y-60889999D01*
X194969334Y-60834814D01*
X195118655Y-60742711D01*
X195242711Y-60618655D01*
X195334814Y-60469334D01*
X195389999Y-60302797D01*
X195400500Y-60200008D01*
X195400500Y-58875466D01*
X196600000Y-58875466D01*
X196600000Y-59124533D01*
X196632508Y-59371463D01*
X196696973Y-59612049D01*
X196792283Y-59842148D01*
X196792288Y-59842159D01*
X196916813Y-60057841D01*
X196916819Y-60057849D01*
X196991400Y-60155045D01*
X197898958Y-59247487D01*
X197923978Y-59307890D01*
X197995112Y-59414351D01*
X198085649Y-59504888D01*
X198192110Y-59576022D01*
X198252511Y-59601041D01*
X197344953Y-60508598D01*
X197442150Y-60583180D01*
X197442158Y-60583186D01*
X197657840Y-60707711D01*
X197657851Y-60707716D01*
X197887950Y-60803026D01*
X198128536Y-60867491D01*
X198375466Y-60900000D01*
X198624534Y-60900000D01*
X198871463Y-60867491D01*
X199112049Y-60803026D01*
X199342148Y-60707716D01*
X199342159Y-60707711D01*
X199557855Y-60583178D01*
X199655045Y-60508600D01*
X199655045Y-60508597D01*
X198747488Y-59601041D01*
X198807890Y-59576022D01*
X198914351Y-59504888D01*
X199004888Y-59414351D01*
X199076022Y-59307890D01*
X199101041Y-59247489D01*
X200008597Y-60155045D01*
X200008600Y-60155045D01*
X200083178Y-60057855D01*
X200207711Y-59842159D01*
X200207716Y-59842148D01*
X200303026Y-59612049D01*
X200367491Y-59371463D01*
X200400000Y-59124533D01*
X200400000Y-58875466D01*
X200367491Y-58628536D01*
X200303026Y-58387950D01*
X200207716Y-58157851D01*
X200207711Y-58157840D01*
X200083186Y-57942158D01*
X200083180Y-57942150D01*
X200008598Y-57844953D01*
X199101041Y-58752510D01*
X199076022Y-58692110D01*
X199004888Y-58585649D01*
X198914351Y-58495112D01*
X198807890Y-58423978D01*
X198747487Y-58398957D01*
X199655045Y-57491400D01*
X199557849Y-57416819D01*
X199557841Y-57416813D01*
X199342159Y-57292288D01*
X199342148Y-57292283D01*
X199112049Y-57196973D01*
X198871463Y-57132508D01*
X198624534Y-57100000D01*
X198375466Y-57100000D01*
X198128536Y-57132508D01*
X197887950Y-57196973D01*
X197657851Y-57292283D01*
X197657847Y-57292285D01*
X197442143Y-57416823D01*
X197344953Y-57491399D01*
X197344953Y-57491400D01*
X198252511Y-58398958D01*
X198192110Y-58423978D01*
X198085649Y-58495112D01*
X197995112Y-58585649D01*
X197923978Y-58692110D01*
X197898958Y-58752511D01*
X196991400Y-57844953D01*
X196991399Y-57844953D01*
X196916823Y-57942143D01*
X196792285Y-58157847D01*
X196792283Y-58157851D01*
X196696973Y-58387950D01*
X196632508Y-58628536D01*
X196600000Y-58875466D01*
X195400500Y-58875466D01*
X195400500Y-57799992D01*
X195389999Y-57697203D01*
X195334814Y-57530666D01*
X195330707Y-57524008D01*
X195242713Y-57381348D01*
X195242710Y-57381344D01*
X195118655Y-57257289D01*
X195118651Y-57257286D01*
X194969337Y-57165187D01*
X194969335Y-57165186D01*
X194886065Y-57137593D01*
X194802797Y-57110001D01*
X194802795Y-57110000D01*
X194700015Y-57099500D01*
X194700008Y-57099500D01*
X192299992Y-57099500D01*
X192299984Y-57099500D01*
X192197204Y-57110000D01*
X192197203Y-57110001D01*
X192030664Y-57165186D01*
X192030662Y-57165187D01*
X191881348Y-57257286D01*
X191881344Y-57257289D01*
X191757289Y-57381344D01*
X191757286Y-57381348D01*
X191665187Y-57530662D01*
X191665186Y-57530664D01*
X191610001Y-57697203D01*
X191610000Y-57697204D01*
X191599500Y-57799984D01*
X186846461Y-57799984D01*
X187155045Y-57491400D01*
X187057849Y-57416819D01*
X187057841Y-57416813D01*
X186842159Y-57292288D01*
X186842148Y-57292283D01*
X186612049Y-57196973D01*
X186371463Y-57132508D01*
X186124534Y-57100000D01*
X185875466Y-57100000D01*
X185628536Y-57132508D01*
X185387950Y-57196973D01*
X185157851Y-57292283D01*
X185157847Y-57292285D01*
X184942143Y-57416823D01*
X184844953Y-57491399D01*
X184844953Y-57491400D01*
X185752511Y-58398958D01*
X185692110Y-58423978D01*
X185585649Y-58495112D01*
X185495112Y-58585649D01*
X185423978Y-58692110D01*
X185398958Y-58752511D01*
X184491400Y-57844953D01*
X184491399Y-57844953D01*
X184416823Y-57942143D01*
X184292285Y-58157847D01*
X184292283Y-58157851D01*
X184196973Y-58387950D01*
X184132508Y-58628536D01*
X184100000Y-58875466D01*
X182900500Y-58875466D01*
X182900500Y-57799992D01*
X182889999Y-57697203D01*
X182834814Y-57530666D01*
X182830707Y-57524008D01*
X182742713Y-57381348D01*
X182742710Y-57381344D01*
X182618655Y-57257289D01*
X182618651Y-57257286D01*
X182469337Y-57165187D01*
X182469335Y-57165186D01*
X182386065Y-57137593D01*
X182302797Y-57110001D01*
X182302795Y-57110000D01*
X182200015Y-57099500D01*
X182200008Y-57099500D01*
X179799992Y-57099500D01*
X179799984Y-57099500D01*
X179697204Y-57110000D01*
X179697203Y-57110001D01*
X179530664Y-57165186D01*
X179530662Y-57165187D01*
X179381348Y-57257286D01*
X179381344Y-57257289D01*
X179257289Y-57381344D01*
X179257286Y-57381348D01*
X179165187Y-57530662D01*
X179165186Y-57530664D01*
X179110001Y-57697203D01*
X179110000Y-57697204D01*
X179099500Y-57799984D01*
X175787276Y-57799984D01*
X175677859Y-57595279D01*
X175677858Y-57595277D01*
X175677853Y-57595268D01*
X175475854Y-57292956D01*
X175245197Y-57011899D01*
X175245196Y-57011898D01*
X175245192Y-57011893D01*
X174988106Y-56754807D01*
X174707049Y-56524150D01*
X174707048Y-56524149D01*
X174707044Y-56524146D01*
X174404732Y-56322147D01*
X174404727Y-56322144D01*
X174404720Y-56322140D01*
X174084083Y-56150756D01*
X174084078Y-56150754D01*
X173748165Y-56011614D01*
X173400223Y-55906067D01*
X173400212Y-55906064D01*
X173043630Y-55835137D01*
X172771111Y-55808296D01*
X172681794Y-55799500D01*
X172318206Y-55799500D01*
X172235679Y-55807628D01*
X171956369Y-55835137D01*
X171599787Y-55906064D01*
X171599776Y-55906067D01*
X171251834Y-56011614D01*
X170915921Y-56150754D01*
X170915916Y-56150756D01*
X170595279Y-56322140D01*
X170595261Y-56322151D01*
X170292964Y-56524140D01*
X170292950Y-56524150D01*
X170011893Y-56754807D01*
X169754807Y-57011893D01*
X169524150Y-57292950D01*
X169524140Y-57292964D01*
X169322151Y-57595261D01*
X169322140Y-57595279D01*
X169150756Y-57915916D01*
X169150754Y-57915921D01*
X169011614Y-58251834D01*
X168906067Y-58599776D01*
X168906064Y-58599787D01*
X168835137Y-58956369D01*
X168799500Y-59318209D01*
X168008437Y-59318209D01*
X168017386Y-59113228D01*
X168018326Y-59102495D01*
X168068152Y-58724025D01*
X168070025Y-58713405D01*
X168152649Y-58340709D01*
X168155440Y-58330295D01*
X168270230Y-57966227D01*
X168273917Y-57956095D01*
X168420003Y-57603412D01*
X168424561Y-57593638D01*
X168600822Y-57255045D01*
X168606217Y-57245700D01*
X168811325Y-56923744D01*
X168817515Y-56914905D01*
X169049896Y-56612060D01*
X169056834Y-56603791D01*
X169314726Y-56322352D01*
X169322352Y-56314726D01*
X169603791Y-56056834D01*
X169612060Y-56049896D01*
X169914905Y-55817515D01*
X169923744Y-55811325D01*
X170245700Y-55606217D01*
X170255045Y-55600822D01*
X170593638Y-55424561D01*
X170603412Y-55420003D01*
X170956095Y-55273917D01*
X170966227Y-55270230D01*
X171330295Y-55155440D01*
X171340709Y-55152649D01*
X171713405Y-55070025D01*
X171724025Y-55068152D01*
X172102495Y-55018326D01*
X172113226Y-55017386D01*
X172497297Y-55000617D01*
X172502706Y-55000500D01*
X172565892Y-55000500D01*
X229434108Y-55000500D01*
X229497294Y-55000500D01*
X229502702Y-55000617D01*
G37*
%TD.AperFunction*%
%TD*%
M02*
