%TF.GenerationSoftware,KiCad,Pcbnew,9.0.4*%
%TF.CreationDate,2025-10-29T20:45:07+01:00*%
%TF.ProjectId,Modu__Zaworu,4d6f6475-425f-45a6-9177-6f72752e6b69,rev?*%
%TF.SameCoordinates,Original*%
%TF.FileFunction,Legend,Top*%
%TF.FilePolarity,Positive*%
%FSLAX46Y46*%
G04 Gerber Fmt 4.6, Leading zero omitted, Abs format (unit mm)*
G04 Created by KiCad (PCBNEW 9.0.4) date 2025-10-29 20:45:07*
%MOMM*%
%LPD*%
G01*
G04 APERTURE LIST*
%ADD10C,0.175000*%
%ADD11C,0.200000*%
%ADD12C,0.250000*%
%ADD13C,0.125000*%
%ADD14C,0.150000*%
%ADD15C,0.120000*%
%ADD16C,0.127000*%
G04 APERTURE END LIST*
D10*
X212348464Y-59783471D02*
X212281797Y-59745376D01*
X212281797Y-59745376D02*
X212148464Y-59745376D01*
X212148464Y-59745376D02*
X212081797Y-59783471D01*
X212081797Y-59783471D02*
X212015131Y-59859661D01*
X212015131Y-59859661D02*
X211981797Y-59935852D01*
X211981797Y-59935852D02*
X211981797Y-60088233D01*
X211981797Y-60088233D02*
X212015131Y-60164423D01*
X212015131Y-60164423D02*
X212081797Y-60240614D01*
X212081797Y-60240614D02*
X212148464Y-60278709D01*
X212148464Y-60278709D02*
X212281797Y-60278709D01*
X212281797Y-60278709D02*
X212348464Y-60240614D01*
X212215131Y-59478709D02*
X212048464Y-59516804D01*
X212048464Y-59516804D02*
X211881797Y-59631090D01*
X211881797Y-59631090D02*
X211781797Y-59821566D01*
X211781797Y-59821566D02*
X211748464Y-60012042D01*
X211748464Y-60012042D02*
X211781797Y-60202519D01*
X211781797Y-60202519D02*
X211881797Y-60392995D01*
X211881797Y-60392995D02*
X212048464Y-60507280D01*
X212048464Y-60507280D02*
X212215131Y-60545376D01*
X212215131Y-60545376D02*
X212381797Y-60507280D01*
X212381797Y-60507280D02*
X212548464Y-60392995D01*
X212548464Y-60392995D02*
X212648464Y-60202519D01*
X212648464Y-60202519D02*
X212681797Y-60012042D01*
X212681797Y-60012042D02*
X212648464Y-59821566D01*
X212648464Y-59821566D02*
X212548464Y-59631090D01*
X212548464Y-59631090D02*
X212381797Y-59516804D01*
X212381797Y-59516804D02*
X212215131Y-59478709D01*
X213215131Y-59973947D02*
X212981797Y-59973947D01*
X212981797Y-60392995D02*
X212981797Y-59592995D01*
X212981797Y-59592995D02*
X213315131Y-59592995D01*
X213581797Y-60392995D02*
X213581797Y-59859661D01*
X213581797Y-59592995D02*
X213548464Y-59631090D01*
X213548464Y-59631090D02*
X213581797Y-59669185D01*
X213581797Y-59669185D02*
X213615131Y-59631090D01*
X213615131Y-59631090D02*
X213581797Y-59592995D01*
X213581797Y-59592995D02*
X213581797Y-59669185D01*
X214015130Y-60392995D02*
X213948464Y-60354900D01*
X213948464Y-60354900D02*
X213915130Y-60278709D01*
X213915130Y-60278709D02*
X213915130Y-59592995D01*
X214281797Y-60392995D02*
X214281797Y-59859661D01*
X214281797Y-59592995D02*
X214248464Y-59631090D01*
X214248464Y-59631090D02*
X214281797Y-59669185D01*
X214281797Y-59669185D02*
X214315131Y-59631090D01*
X214315131Y-59631090D02*
X214281797Y-59592995D01*
X214281797Y-59592995D02*
X214281797Y-59669185D01*
X214615130Y-59859661D02*
X214615130Y-60659661D01*
X214615130Y-59897757D02*
X214681797Y-59859661D01*
X214681797Y-59859661D02*
X214815130Y-59859661D01*
X214815130Y-59859661D02*
X214881797Y-59897757D01*
X214881797Y-59897757D02*
X214915130Y-59935852D01*
X214915130Y-59935852D02*
X214948464Y-60012042D01*
X214948464Y-60012042D02*
X214948464Y-60240614D01*
X214948464Y-60240614D02*
X214915130Y-60316804D01*
X214915130Y-60316804D02*
X214881797Y-60354900D01*
X214881797Y-60354900D02*
X214815130Y-60392995D01*
X214815130Y-60392995D02*
X214681797Y-60392995D01*
X214681797Y-60392995D02*
X214615130Y-60354900D01*
X216148463Y-59631090D02*
X216081796Y-59592995D01*
X216081796Y-59592995D02*
X215981796Y-59592995D01*
X215981796Y-59592995D02*
X215881796Y-59631090D01*
X215881796Y-59631090D02*
X215815130Y-59707280D01*
X215815130Y-59707280D02*
X215781796Y-59783471D01*
X215781796Y-59783471D02*
X215748463Y-59935852D01*
X215748463Y-59935852D02*
X215748463Y-60050138D01*
X215748463Y-60050138D02*
X215781796Y-60202519D01*
X215781796Y-60202519D02*
X215815130Y-60278709D01*
X215815130Y-60278709D02*
X215881796Y-60354900D01*
X215881796Y-60354900D02*
X215981796Y-60392995D01*
X215981796Y-60392995D02*
X216048463Y-60392995D01*
X216048463Y-60392995D02*
X216148463Y-60354900D01*
X216148463Y-60354900D02*
X216181796Y-60316804D01*
X216181796Y-60316804D02*
X216181796Y-60050138D01*
X216181796Y-60050138D02*
X216048463Y-60050138D01*
X216781796Y-60392995D02*
X216781796Y-59973947D01*
X216781796Y-59973947D02*
X216748463Y-59897757D01*
X216748463Y-59897757D02*
X216681796Y-59859661D01*
X216681796Y-59859661D02*
X216548463Y-59859661D01*
X216548463Y-59859661D02*
X216481796Y-59897757D01*
X216781796Y-60354900D02*
X216715130Y-60392995D01*
X216715130Y-60392995D02*
X216548463Y-60392995D01*
X216548463Y-60392995D02*
X216481796Y-60354900D01*
X216481796Y-60354900D02*
X216448463Y-60278709D01*
X216448463Y-60278709D02*
X216448463Y-60202519D01*
X216448463Y-60202519D02*
X216481796Y-60126328D01*
X216481796Y-60126328D02*
X216548463Y-60088233D01*
X216548463Y-60088233D02*
X216715130Y-60088233D01*
X216715130Y-60088233D02*
X216781796Y-60050138D01*
X217115129Y-59859661D02*
X217115129Y-60545376D01*
X217115129Y-60545376D02*
X217081796Y-60621566D01*
X217081796Y-60621566D02*
X217015129Y-60659661D01*
X217015129Y-60659661D02*
X216981796Y-60659661D01*
X217115129Y-59592995D02*
X217081796Y-59631090D01*
X217081796Y-59631090D02*
X217115129Y-59669185D01*
X217115129Y-59669185D02*
X217148463Y-59631090D01*
X217148463Y-59631090D02*
X217115129Y-59592995D01*
X217115129Y-59592995D02*
X217115129Y-59669185D01*
X217715129Y-60354900D02*
X217648462Y-60392995D01*
X217648462Y-60392995D02*
X217515129Y-60392995D01*
X217515129Y-60392995D02*
X217448462Y-60354900D01*
X217448462Y-60354900D02*
X217415129Y-60278709D01*
X217415129Y-60278709D02*
X217415129Y-59973947D01*
X217415129Y-59973947D02*
X217448462Y-59897757D01*
X217448462Y-59897757D02*
X217515129Y-59859661D01*
X217515129Y-59859661D02*
X217648462Y-59859661D01*
X217648462Y-59859661D02*
X217715129Y-59897757D01*
X217715129Y-59897757D02*
X217748462Y-59973947D01*
X217748462Y-59973947D02*
X217748462Y-60050138D01*
X217748462Y-60050138D02*
X217415129Y-60126328D01*
X217981796Y-59859661D02*
X218115129Y-60392995D01*
X218115129Y-60392995D02*
X218248462Y-60012042D01*
X218248462Y-60012042D02*
X218381796Y-60392995D01*
X218381796Y-60392995D02*
X218515129Y-59859661D01*
X218748462Y-60354900D02*
X218815129Y-60392995D01*
X218815129Y-60392995D02*
X218948462Y-60392995D01*
X218948462Y-60392995D02*
X219015129Y-60354900D01*
X219015129Y-60354900D02*
X219048462Y-60278709D01*
X219048462Y-60278709D02*
X219048462Y-60240614D01*
X219048462Y-60240614D02*
X219015129Y-60164423D01*
X219015129Y-60164423D02*
X218948462Y-60126328D01*
X218948462Y-60126328D02*
X218848462Y-60126328D01*
X218848462Y-60126328D02*
X218781795Y-60088233D01*
X218781795Y-60088233D02*
X218748462Y-60012042D01*
X218748462Y-60012042D02*
X218748462Y-59973947D01*
X218748462Y-59973947D02*
X218781795Y-59897757D01*
X218781795Y-59897757D02*
X218848462Y-59859661D01*
X218848462Y-59859661D02*
X218948462Y-59859661D01*
X218948462Y-59859661D02*
X219015129Y-59897757D01*
X219348462Y-60392995D02*
X219348462Y-59592995D01*
X219415129Y-60088233D02*
X219615129Y-60392995D01*
X219615129Y-59859661D02*
X219348462Y-60164423D01*
X219915129Y-60392995D02*
X219915129Y-59859661D01*
X219915129Y-59592995D02*
X219881796Y-59631090D01*
X219881796Y-59631090D02*
X219915129Y-59669185D01*
X219915129Y-59669185D02*
X219948463Y-59631090D01*
X219948463Y-59631090D02*
X219915129Y-59592995D01*
X219915129Y-59592995D02*
X219915129Y-59669185D01*
X220748462Y-59669185D02*
X220781795Y-59631090D01*
X220781795Y-59631090D02*
X220848462Y-59592995D01*
X220848462Y-59592995D02*
X221015129Y-59592995D01*
X221015129Y-59592995D02*
X221081795Y-59631090D01*
X221081795Y-59631090D02*
X221115129Y-59669185D01*
X221115129Y-59669185D02*
X221148462Y-59745376D01*
X221148462Y-59745376D02*
X221148462Y-59821566D01*
X221148462Y-59821566D02*
X221115129Y-59935852D01*
X221115129Y-59935852D02*
X220715129Y-60392995D01*
X220715129Y-60392995D02*
X221148462Y-60392995D01*
X221581796Y-59592995D02*
X221648462Y-59592995D01*
X221648462Y-59592995D02*
X221715129Y-59631090D01*
X221715129Y-59631090D02*
X221748462Y-59669185D01*
X221748462Y-59669185D02*
X221781796Y-59745376D01*
X221781796Y-59745376D02*
X221815129Y-59897757D01*
X221815129Y-59897757D02*
X221815129Y-60088233D01*
X221815129Y-60088233D02*
X221781796Y-60240614D01*
X221781796Y-60240614D02*
X221748462Y-60316804D01*
X221748462Y-60316804D02*
X221715129Y-60354900D01*
X221715129Y-60354900D02*
X221648462Y-60392995D01*
X221648462Y-60392995D02*
X221581796Y-60392995D01*
X221581796Y-60392995D02*
X221515129Y-60354900D01*
X221515129Y-60354900D02*
X221481796Y-60316804D01*
X221481796Y-60316804D02*
X221448462Y-60240614D01*
X221448462Y-60240614D02*
X221415129Y-60088233D01*
X221415129Y-60088233D02*
X221415129Y-59897757D01*
X221415129Y-59897757D02*
X221448462Y-59745376D01*
X221448462Y-59745376D02*
X221481796Y-59669185D01*
X221481796Y-59669185D02*
X221515129Y-59631090D01*
X221515129Y-59631090D02*
X221581796Y-59592995D01*
X222081796Y-59669185D02*
X222115129Y-59631090D01*
X222115129Y-59631090D02*
X222181796Y-59592995D01*
X222181796Y-59592995D02*
X222348463Y-59592995D01*
X222348463Y-59592995D02*
X222415129Y-59631090D01*
X222415129Y-59631090D02*
X222448463Y-59669185D01*
X222448463Y-59669185D02*
X222481796Y-59745376D01*
X222481796Y-59745376D02*
X222481796Y-59821566D01*
X222481796Y-59821566D02*
X222448463Y-59935852D01*
X222448463Y-59935852D02*
X222048463Y-60392995D01*
X222048463Y-60392995D02*
X222481796Y-60392995D01*
X223115130Y-59592995D02*
X222781796Y-59592995D01*
X222781796Y-59592995D02*
X222748463Y-59973947D01*
X222748463Y-59973947D02*
X222781796Y-59935852D01*
X222781796Y-59935852D02*
X222848463Y-59897757D01*
X222848463Y-59897757D02*
X223015130Y-59897757D01*
X223015130Y-59897757D02*
X223081796Y-59935852D01*
X223081796Y-59935852D02*
X223115130Y-59973947D01*
X223115130Y-59973947D02*
X223148463Y-60050138D01*
X223148463Y-60050138D02*
X223148463Y-60240614D01*
X223148463Y-60240614D02*
X223115130Y-60316804D01*
X223115130Y-60316804D02*
X223081796Y-60354900D01*
X223081796Y-60354900D02*
X223015130Y-60392995D01*
X223015130Y-60392995D02*
X222848463Y-60392995D01*
X222848463Y-60392995D02*
X222781796Y-60354900D01*
X222781796Y-60354900D02*
X222748463Y-60316804D01*
D11*
X173591695Y-76949374D02*
X174163123Y-76949374D01*
X174163123Y-76949374D02*
X174277409Y-76987469D01*
X174277409Y-76987469D02*
X174353600Y-77063660D01*
X174353600Y-77063660D02*
X174391695Y-77177945D01*
X174391695Y-77177945D02*
X174391695Y-77254136D01*
X174391695Y-76187469D02*
X174391695Y-76568421D01*
X174391695Y-76568421D02*
X173591695Y-76568421D01*
X174315504Y-75463659D02*
X174353600Y-75501755D01*
X174353600Y-75501755D02*
X174391695Y-75616040D01*
X174391695Y-75616040D02*
X174391695Y-75692231D01*
X174391695Y-75692231D02*
X174353600Y-75806517D01*
X174353600Y-75806517D02*
X174277409Y-75882707D01*
X174277409Y-75882707D02*
X174201219Y-75920802D01*
X174201219Y-75920802D02*
X174048838Y-75958898D01*
X174048838Y-75958898D02*
X173934552Y-75958898D01*
X173934552Y-75958898D02*
X173782171Y-75920802D01*
X173782171Y-75920802D02*
X173705980Y-75882707D01*
X173705980Y-75882707D02*
X173629790Y-75806517D01*
X173629790Y-75806517D02*
X173591695Y-75692231D01*
X173591695Y-75692231D02*
X173591695Y-75616040D01*
X173591695Y-75616040D02*
X173629790Y-75501755D01*
X173629790Y-75501755D02*
X173667885Y-75463659D01*
X173591695Y-74892231D02*
X174163123Y-74892231D01*
X174163123Y-74892231D02*
X174277409Y-74930326D01*
X174277409Y-74930326D02*
X174353600Y-75006517D01*
X174353600Y-75006517D02*
X174391695Y-75120802D01*
X174391695Y-75120802D02*
X174391695Y-75196993D01*
X174391695Y-74130326D02*
X174391695Y-74511278D01*
X174391695Y-74511278D02*
X173591695Y-74511278D01*
X174315504Y-73406516D02*
X174353600Y-73444612D01*
X174353600Y-73444612D02*
X174391695Y-73558897D01*
X174391695Y-73558897D02*
X174391695Y-73635088D01*
X174391695Y-73635088D02*
X174353600Y-73749374D01*
X174353600Y-73749374D02*
X174277409Y-73825564D01*
X174277409Y-73825564D02*
X174201219Y-73863659D01*
X174201219Y-73863659D02*
X174048838Y-73901755D01*
X174048838Y-73901755D02*
X173934552Y-73901755D01*
X173934552Y-73901755D02*
X173782171Y-73863659D01*
X173782171Y-73863659D02*
X173705980Y-73825564D01*
X173705980Y-73825564D02*
X173629790Y-73749374D01*
X173629790Y-73749374D02*
X173591695Y-73635088D01*
X173591695Y-73635088D02*
X173591695Y-73558897D01*
X173591695Y-73558897D02*
X173629790Y-73444612D01*
X173629790Y-73444612D02*
X173667885Y-73406516D01*
X173591695Y-72835088D02*
X174163123Y-72835088D01*
X174163123Y-72835088D02*
X174277409Y-72873183D01*
X174277409Y-72873183D02*
X174353600Y-72949374D01*
X174353600Y-72949374D02*
X174391695Y-73063659D01*
X174391695Y-73063659D02*
X174391695Y-73139850D01*
X174391695Y-72073183D02*
X174391695Y-72454135D01*
X174391695Y-72454135D02*
X173591695Y-72454135D01*
X174315504Y-71349373D02*
X174353600Y-71387469D01*
X174353600Y-71387469D02*
X174391695Y-71501754D01*
X174391695Y-71501754D02*
X174391695Y-71577945D01*
X174391695Y-71577945D02*
X174353600Y-71692231D01*
X174353600Y-71692231D02*
X174277409Y-71768421D01*
X174277409Y-71768421D02*
X174201219Y-71806516D01*
X174201219Y-71806516D02*
X174048838Y-71844612D01*
X174048838Y-71844612D02*
X173934552Y-71844612D01*
X173934552Y-71844612D02*
X173782171Y-71806516D01*
X173782171Y-71806516D02*
X173705980Y-71768421D01*
X173705980Y-71768421D02*
X173629790Y-71692231D01*
X173629790Y-71692231D02*
X173591695Y-71577945D01*
X173591695Y-71577945D02*
X173591695Y-71501754D01*
X173591695Y-71501754D02*
X173629790Y-71387469D01*
X173629790Y-71387469D02*
X173667885Y-71349373D01*
X173591695Y-70777945D02*
X174163123Y-70777945D01*
X174163123Y-70777945D02*
X174277409Y-70816040D01*
X174277409Y-70816040D02*
X174353600Y-70892231D01*
X174353600Y-70892231D02*
X174391695Y-71006516D01*
X174391695Y-71006516D02*
X174391695Y-71082707D01*
X174391695Y-70016040D02*
X174391695Y-70396992D01*
X174391695Y-70396992D02*
X173591695Y-70396992D01*
X174315504Y-69292230D02*
X174353600Y-69330326D01*
X174353600Y-69330326D02*
X174391695Y-69444611D01*
X174391695Y-69444611D02*
X174391695Y-69520802D01*
X174391695Y-69520802D02*
X174353600Y-69635088D01*
X174353600Y-69635088D02*
X174277409Y-69711278D01*
X174277409Y-69711278D02*
X174201219Y-69749373D01*
X174201219Y-69749373D02*
X174048838Y-69787469D01*
X174048838Y-69787469D02*
X173934552Y-69787469D01*
X173934552Y-69787469D02*
X173782171Y-69749373D01*
X173782171Y-69749373D02*
X173705980Y-69711278D01*
X173705980Y-69711278D02*
X173629790Y-69635088D01*
X173629790Y-69635088D02*
X173591695Y-69520802D01*
X173591695Y-69520802D02*
X173591695Y-69444611D01*
X173591695Y-69444611D02*
X173629790Y-69330326D01*
X173629790Y-69330326D02*
X173667885Y-69292230D01*
D12*
X211402568Y-56821593D02*
X211402568Y-55571593D01*
X211402568Y-55571593D02*
X211735901Y-56464450D01*
X211735901Y-56464450D02*
X212069234Y-55571593D01*
X212069234Y-55571593D02*
X212069234Y-56821593D01*
X212688282Y-56821593D02*
X212593044Y-56762070D01*
X212593044Y-56762070D02*
X212545425Y-56702546D01*
X212545425Y-56702546D02*
X212497806Y-56583498D01*
X212497806Y-56583498D02*
X212497806Y-56226355D01*
X212497806Y-56226355D02*
X212545425Y-56107308D01*
X212545425Y-56107308D02*
X212593044Y-56047784D01*
X212593044Y-56047784D02*
X212688282Y-55988260D01*
X212688282Y-55988260D02*
X212831139Y-55988260D01*
X212831139Y-55988260D02*
X212926377Y-56047784D01*
X212926377Y-56047784D02*
X212973996Y-56107308D01*
X212973996Y-56107308D02*
X213021615Y-56226355D01*
X213021615Y-56226355D02*
X213021615Y-56583498D01*
X213021615Y-56583498D02*
X212973996Y-56702546D01*
X212973996Y-56702546D02*
X212926377Y-56762070D01*
X212926377Y-56762070D02*
X212831139Y-56821593D01*
X212831139Y-56821593D02*
X212688282Y-56821593D01*
X213878758Y-56821593D02*
X213878758Y-55571593D01*
X213878758Y-56762070D02*
X213783520Y-56821593D01*
X213783520Y-56821593D02*
X213593044Y-56821593D01*
X213593044Y-56821593D02*
X213497806Y-56762070D01*
X213497806Y-56762070D02*
X213450187Y-56702546D01*
X213450187Y-56702546D02*
X213402568Y-56583498D01*
X213402568Y-56583498D02*
X213402568Y-56226355D01*
X213402568Y-56226355D02*
X213450187Y-56107308D01*
X213450187Y-56107308D02*
X213497806Y-56047784D01*
X213497806Y-56047784D02*
X213593044Y-55988260D01*
X213593044Y-55988260D02*
X213783520Y-55988260D01*
X213783520Y-55988260D02*
X213878758Y-56047784D01*
X214783520Y-55988260D02*
X214783520Y-56821593D01*
X214354949Y-55988260D02*
X214354949Y-56643022D01*
X214354949Y-56643022D02*
X214402568Y-56762070D01*
X214402568Y-56762070D02*
X214497806Y-56821593D01*
X214497806Y-56821593D02*
X214640663Y-56821593D01*
X214640663Y-56821593D02*
X214735901Y-56762070D01*
X214735901Y-56762070D02*
X214783520Y-56702546D01*
X215402568Y-56821593D02*
X215307330Y-56762070D01*
X215307330Y-56762070D02*
X215259711Y-56643022D01*
X215259711Y-56643022D02*
X215259711Y-55571593D01*
X215116854Y-56226355D02*
X215402568Y-55988260D01*
X216450188Y-55988260D02*
X216973997Y-55988260D01*
X216973997Y-55988260D02*
X216450188Y-56821593D01*
X216450188Y-56821593D02*
X216973997Y-56821593D01*
X217783521Y-56821593D02*
X217783521Y-56166831D01*
X217783521Y-56166831D02*
X217735902Y-56047784D01*
X217735902Y-56047784D02*
X217640664Y-55988260D01*
X217640664Y-55988260D02*
X217450188Y-55988260D01*
X217450188Y-55988260D02*
X217354950Y-56047784D01*
X217783521Y-56762070D02*
X217688283Y-56821593D01*
X217688283Y-56821593D02*
X217450188Y-56821593D01*
X217450188Y-56821593D02*
X217354950Y-56762070D01*
X217354950Y-56762070D02*
X217307331Y-56643022D01*
X217307331Y-56643022D02*
X217307331Y-56523974D01*
X217307331Y-56523974D02*
X217354950Y-56404927D01*
X217354950Y-56404927D02*
X217450188Y-56345403D01*
X217450188Y-56345403D02*
X217688283Y-56345403D01*
X217688283Y-56345403D02*
X217783521Y-56285879D01*
X218164474Y-55988260D02*
X218354950Y-56821593D01*
X218354950Y-56821593D02*
X218545426Y-56226355D01*
X218545426Y-56226355D02*
X218735902Y-56821593D01*
X218735902Y-56821593D02*
X218926378Y-55988260D01*
X219450188Y-56821593D02*
X219354950Y-56762070D01*
X219354950Y-56762070D02*
X219307331Y-56702546D01*
X219307331Y-56702546D02*
X219259712Y-56583498D01*
X219259712Y-56583498D02*
X219259712Y-56226355D01*
X219259712Y-56226355D02*
X219307331Y-56107308D01*
X219307331Y-56107308D02*
X219354950Y-56047784D01*
X219354950Y-56047784D02*
X219450188Y-55988260D01*
X219450188Y-55988260D02*
X219593045Y-55988260D01*
X219593045Y-55988260D02*
X219688283Y-56047784D01*
X219688283Y-56047784D02*
X219735902Y-56107308D01*
X219735902Y-56107308D02*
X219783521Y-56226355D01*
X219783521Y-56226355D02*
X219783521Y-56583498D01*
X219783521Y-56583498D02*
X219735902Y-56702546D01*
X219735902Y-56702546D02*
X219688283Y-56762070D01*
X219688283Y-56762070D02*
X219593045Y-56821593D01*
X219593045Y-56821593D02*
X219450188Y-56821593D01*
X220212093Y-56821593D02*
X220212093Y-55988260D01*
X220212093Y-56226355D02*
X220259712Y-56107308D01*
X220259712Y-56107308D02*
X220307331Y-56047784D01*
X220307331Y-56047784D02*
X220402569Y-55988260D01*
X220402569Y-55988260D02*
X220497807Y-55988260D01*
X221259712Y-55988260D02*
X221259712Y-56821593D01*
X220831141Y-55988260D02*
X220831141Y-56643022D01*
X220831141Y-56643022D02*
X220878760Y-56762070D01*
X220878760Y-56762070D02*
X220973998Y-56821593D01*
X220973998Y-56821593D02*
X221116855Y-56821593D01*
X221116855Y-56821593D02*
X221212093Y-56762070D01*
X221212093Y-56762070D02*
X221259712Y-56702546D01*
X211402568Y-58834023D02*
X211402568Y-57584023D01*
X211402568Y-57584023D02*
X211783520Y-57584023D01*
X211783520Y-57584023D02*
X211878758Y-57643547D01*
X211878758Y-57643547D02*
X211926377Y-57703071D01*
X211926377Y-57703071D02*
X211973996Y-57822119D01*
X211973996Y-57822119D02*
X211973996Y-58000690D01*
X211973996Y-58000690D02*
X211926377Y-58119738D01*
X211926377Y-58119738D02*
X211878758Y-58179261D01*
X211878758Y-58179261D02*
X211783520Y-58238785D01*
X211783520Y-58238785D02*
X211402568Y-58238785D01*
X212402568Y-58834023D02*
X212402568Y-58000690D01*
X212402568Y-58238785D02*
X212450187Y-58119738D01*
X212450187Y-58119738D02*
X212497806Y-58060214D01*
X212497806Y-58060214D02*
X212593044Y-58000690D01*
X212593044Y-58000690D02*
X212688282Y-58000690D01*
X213450187Y-58834023D02*
X213450187Y-58179261D01*
X213450187Y-58179261D02*
X213402568Y-58060214D01*
X213402568Y-58060214D02*
X213307330Y-58000690D01*
X213307330Y-58000690D02*
X213116854Y-58000690D01*
X213116854Y-58000690D02*
X213021616Y-58060214D01*
X213450187Y-58774500D02*
X213354949Y-58834023D01*
X213354949Y-58834023D02*
X213116854Y-58834023D01*
X213116854Y-58834023D02*
X213021616Y-58774500D01*
X213021616Y-58774500D02*
X212973997Y-58655452D01*
X212973997Y-58655452D02*
X212973997Y-58536404D01*
X212973997Y-58536404D02*
X213021616Y-58417357D01*
X213021616Y-58417357D02*
X213116854Y-58357833D01*
X213116854Y-58357833D02*
X213354949Y-58357833D01*
X213354949Y-58357833D02*
X213450187Y-58298309D01*
X214354949Y-58774500D02*
X214259711Y-58834023D01*
X214259711Y-58834023D02*
X214069235Y-58834023D01*
X214069235Y-58834023D02*
X213973997Y-58774500D01*
X213973997Y-58774500D02*
X213926378Y-58714976D01*
X213926378Y-58714976D02*
X213878759Y-58595928D01*
X213878759Y-58595928D02*
X213878759Y-58238785D01*
X213878759Y-58238785D02*
X213926378Y-58119738D01*
X213926378Y-58119738D02*
X213973997Y-58060214D01*
X213973997Y-58060214D02*
X214069235Y-58000690D01*
X214069235Y-58000690D02*
X214259711Y-58000690D01*
X214259711Y-58000690D02*
X214354949Y-58060214D01*
X215212092Y-58834023D02*
X215212092Y-58179261D01*
X215212092Y-58179261D02*
X215164473Y-58060214D01*
X215164473Y-58060214D02*
X215069235Y-58000690D01*
X215069235Y-58000690D02*
X214878759Y-58000690D01*
X214878759Y-58000690D02*
X214783521Y-58060214D01*
X215212092Y-58774500D02*
X215116854Y-58834023D01*
X215116854Y-58834023D02*
X214878759Y-58834023D01*
X214878759Y-58834023D02*
X214783521Y-58774500D01*
X214783521Y-58774500D02*
X214735902Y-58655452D01*
X214735902Y-58655452D02*
X214735902Y-58536404D01*
X214735902Y-58536404D02*
X214783521Y-58417357D01*
X214783521Y-58417357D02*
X214878759Y-58357833D01*
X214878759Y-58357833D02*
X215116854Y-58357833D01*
X215116854Y-58357833D02*
X215212092Y-58298309D01*
X216450188Y-58834023D02*
X216450188Y-58000690D01*
X216450188Y-57584023D02*
X216402569Y-57643547D01*
X216402569Y-57643547D02*
X216450188Y-57703071D01*
X216450188Y-57703071D02*
X216497807Y-57643547D01*
X216497807Y-57643547D02*
X216450188Y-57584023D01*
X216450188Y-57584023D02*
X216450188Y-57703071D01*
X216926378Y-58000690D02*
X216926378Y-58834023D01*
X216926378Y-58119738D02*
X216973997Y-58060214D01*
X216973997Y-58060214D02*
X217069235Y-58000690D01*
X217069235Y-58000690D02*
X217212092Y-58000690D01*
X217212092Y-58000690D02*
X217307330Y-58060214D01*
X217307330Y-58060214D02*
X217354949Y-58179261D01*
X217354949Y-58179261D02*
X217354949Y-58834023D01*
X217735902Y-58000690D02*
X218259711Y-58000690D01*
X218259711Y-58000690D02*
X217735902Y-58834023D01*
X217735902Y-58834023D02*
X218259711Y-58834023D01*
X218021616Y-57584023D02*
X217973997Y-57643547D01*
X217973997Y-57643547D02*
X218021616Y-57703071D01*
X218021616Y-57703071D02*
X218069235Y-57643547D01*
X218069235Y-57643547D02*
X218021616Y-57584023D01*
X218021616Y-57584023D02*
X218021616Y-57703071D01*
X218545426Y-58000690D02*
X218783521Y-58834023D01*
X219021616Y-58000690D02*
X218783521Y-58834023D01*
X218783521Y-58834023D02*
X218688283Y-59131642D01*
X218688283Y-59131642D02*
X218640664Y-59191166D01*
X218640664Y-59191166D02*
X218545426Y-59250690D01*
X219402569Y-58000690D02*
X219402569Y-58834023D01*
X219402569Y-58119738D02*
X219450188Y-58060214D01*
X219450188Y-58060214D02*
X219545426Y-58000690D01*
X219545426Y-58000690D02*
X219688283Y-58000690D01*
X219688283Y-58000690D02*
X219783521Y-58060214D01*
X219783521Y-58060214D02*
X219831140Y-58179261D01*
X219831140Y-58179261D02*
X219831140Y-58834023D01*
X220307331Y-58834023D02*
X220307331Y-58000690D01*
X220307331Y-57584023D02*
X220259712Y-57643547D01*
X220259712Y-57643547D02*
X220307331Y-57703071D01*
X220307331Y-57703071D02*
X220354950Y-57643547D01*
X220354950Y-57643547D02*
X220307331Y-57584023D01*
X220307331Y-57584023D02*
X220307331Y-57703071D01*
X221164473Y-58774500D02*
X221069235Y-58834023D01*
X221069235Y-58834023D02*
X220878759Y-58834023D01*
X220878759Y-58834023D02*
X220783521Y-58774500D01*
X220783521Y-58774500D02*
X220735902Y-58655452D01*
X220735902Y-58655452D02*
X220735902Y-58179261D01*
X220735902Y-58179261D02*
X220783521Y-58060214D01*
X220783521Y-58060214D02*
X220878759Y-58000690D01*
X220878759Y-58000690D02*
X221069235Y-58000690D01*
X221069235Y-58000690D02*
X221164473Y-58060214D01*
X221164473Y-58060214D02*
X221212092Y-58179261D01*
X221212092Y-58179261D02*
X221212092Y-58298309D01*
X221212092Y-58298309D02*
X220735902Y-58417357D01*
X221640664Y-58834023D02*
X221640664Y-58000690D01*
X221640664Y-58238785D02*
X221688283Y-58119738D01*
X221688283Y-58119738D02*
X221735902Y-58060214D01*
X221735902Y-58060214D02*
X221831140Y-58000690D01*
X221831140Y-58000690D02*
X221926378Y-58000690D01*
X222212093Y-58774500D02*
X222307331Y-58834023D01*
X222307331Y-58834023D02*
X222497807Y-58834023D01*
X222497807Y-58834023D02*
X222593045Y-58774500D01*
X222593045Y-58774500D02*
X222640664Y-58655452D01*
X222640664Y-58655452D02*
X222640664Y-58595928D01*
X222640664Y-58595928D02*
X222593045Y-58476880D01*
X222593045Y-58476880D02*
X222497807Y-58417357D01*
X222497807Y-58417357D02*
X222354950Y-58417357D01*
X222354950Y-58417357D02*
X222259712Y-58357833D01*
X222259712Y-58357833D02*
X222212093Y-58238785D01*
X222212093Y-58238785D02*
X222212093Y-58179261D01*
X222212093Y-58179261D02*
X222259712Y-58060214D01*
X222259712Y-58060214D02*
X222354950Y-58000690D01*
X222354950Y-58000690D02*
X222497807Y-58000690D01*
X222497807Y-58000690D02*
X222593045Y-58060214D01*
X223069236Y-58834023D02*
X223069236Y-57584023D01*
X223164474Y-58357833D02*
X223450188Y-58834023D01*
X223450188Y-58000690D02*
X223069236Y-58476880D01*
X224307331Y-58834023D02*
X224307331Y-58179261D01*
X224307331Y-58179261D02*
X224259712Y-58060214D01*
X224259712Y-58060214D02*
X224164474Y-58000690D01*
X224164474Y-58000690D02*
X223973998Y-58000690D01*
X223973998Y-58000690D02*
X223878760Y-58060214D01*
X224307331Y-58774500D02*
X224212093Y-58834023D01*
X224212093Y-58834023D02*
X223973998Y-58834023D01*
X223973998Y-58834023D02*
X223878760Y-58774500D01*
X223878760Y-58774500D02*
X223831141Y-58655452D01*
X223831141Y-58655452D02*
X223831141Y-58536404D01*
X223831141Y-58536404D02*
X223878760Y-58417357D01*
X223878760Y-58417357D02*
X223973998Y-58357833D01*
X223973998Y-58357833D02*
X224212093Y-58357833D01*
X224212093Y-58357833D02*
X224307331Y-58298309D01*
D13*
X203691759Y-64371119D02*
X203234616Y-64371119D01*
X203463188Y-64371119D02*
X203463188Y-63371119D01*
X203463188Y-63371119D02*
X203386997Y-63513976D01*
X203386997Y-63513976D02*
X203310807Y-63609214D01*
X203310807Y-63609214D02*
X203234616Y-63656833D01*
X204034617Y-64275880D02*
X204072712Y-64323500D01*
X204072712Y-64323500D02*
X204034617Y-64371119D01*
X204034617Y-64371119D02*
X203996521Y-64323500D01*
X203996521Y-64323500D02*
X204034617Y-64275880D01*
X204034617Y-64275880D02*
X204034617Y-64371119D01*
X204415569Y-63847309D02*
X204682235Y-63847309D01*
X204796521Y-64371119D02*
X204415569Y-64371119D01*
X204415569Y-64371119D02*
X204415569Y-63371119D01*
X204415569Y-63371119D02*
X204796521Y-63371119D01*
X205139379Y-64371119D02*
X205139379Y-63371119D01*
X205139379Y-63371119D02*
X205596522Y-64371119D01*
X205596522Y-64371119D02*
X205596522Y-63371119D01*
X206548902Y-63466357D02*
X206586998Y-63418738D01*
X206586998Y-63418738D02*
X206663188Y-63371119D01*
X206663188Y-63371119D02*
X206853664Y-63371119D01*
X206853664Y-63371119D02*
X206929855Y-63418738D01*
X206929855Y-63418738D02*
X206967950Y-63466357D01*
X206967950Y-63466357D02*
X207006045Y-63561595D01*
X207006045Y-63561595D02*
X207006045Y-63656833D01*
X207006045Y-63656833D02*
X206967950Y-63799690D01*
X206967950Y-63799690D02*
X206510807Y-64371119D01*
X206510807Y-64371119D02*
X207006045Y-64371119D01*
X207348903Y-64275880D02*
X207386998Y-64323500D01*
X207386998Y-64323500D02*
X207348903Y-64371119D01*
X207348903Y-64371119D02*
X207310807Y-64323500D01*
X207310807Y-64323500D02*
X207348903Y-64275880D01*
X207348903Y-64275880D02*
X207348903Y-64371119D01*
X207729855Y-63847309D02*
X207996521Y-63847309D01*
X208110807Y-64371119D02*
X207729855Y-64371119D01*
X207729855Y-64371119D02*
X207729855Y-63371119D01*
X207729855Y-63371119D02*
X208110807Y-63371119D01*
X208453665Y-64371119D02*
X208453665Y-63371119D01*
X208453665Y-63371119D02*
X208910808Y-64371119D01*
X208910808Y-64371119D02*
X208910808Y-63371119D01*
D12*
X228688283Y-98254675D02*
X228688283Y-97254675D01*
X228688283Y-97254675D02*
X229021616Y-97968960D01*
X229021616Y-97968960D02*
X229354949Y-97254675D01*
X229354949Y-97254675D02*
X229354949Y-98254675D01*
X229831140Y-98254675D02*
X229831140Y-97254675D01*
X229831140Y-97254675D02*
X230212092Y-97254675D01*
X230212092Y-97254675D02*
X230307330Y-97302294D01*
X230307330Y-97302294D02*
X230354949Y-97349913D01*
X230354949Y-97349913D02*
X230402568Y-97445151D01*
X230402568Y-97445151D02*
X230402568Y-97588008D01*
X230402568Y-97588008D02*
X230354949Y-97683246D01*
X230354949Y-97683246D02*
X230307330Y-97730865D01*
X230307330Y-97730865D02*
X230212092Y-97778484D01*
X230212092Y-97778484D02*
X229831140Y-97778484D01*
X230831140Y-98254675D02*
X230831140Y-97254675D01*
X230831140Y-97254675D02*
X231212092Y-97254675D01*
X231212092Y-97254675D02*
X231307330Y-97302294D01*
X231307330Y-97302294D02*
X231354949Y-97349913D01*
X231354949Y-97349913D02*
X231402568Y-97445151D01*
X231402568Y-97445151D02*
X231402568Y-97588008D01*
X231402568Y-97588008D02*
X231354949Y-97683246D01*
X231354949Y-97683246D02*
X231307330Y-97730865D01*
X231307330Y-97730865D02*
X231212092Y-97778484D01*
X231212092Y-97778484D02*
X230831140Y-97778484D01*
X231688283Y-97254675D02*
X232259711Y-97254675D01*
X231973997Y-98254675D02*
X231973997Y-97254675D01*
X226354949Y-99817000D02*
X226450187Y-99864619D01*
X226450187Y-99864619D02*
X226640663Y-99864619D01*
X226640663Y-99864619D02*
X226735901Y-99817000D01*
X226735901Y-99817000D02*
X226783520Y-99721761D01*
X226783520Y-99721761D02*
X226783520Y-99674142D01*
X226783520Y-99674142D02*
X226735901Y-99578904D01*
X226735901Y-99578904D02*
X226640663Y-99531285D01*
X226640663Y-99531285D02*
X226497806Y-99531285D01*
X226497806Y-99531285D02*
X226402568Y-99483666D01*
X226402568Y-99483666D02*
X226354949Y-99388428D01*
X226354949Y-99388428D02*
X226354949Y-99340809D01*
X226354949Y-99340809D02*
X226402568Y-99245571D01*
X226402568Y-99245571D02*
X226497806Y-99197952D01*
X226497806Y-99197952D02*
X226640663Y-99197952D01*
X226640663Y-99197952D02*
X226735901Y-99245571D01*
X227069235Y-99197952D02*
X227450187Y-99197952D01*
X227212092Y-98864619D02*
X227212092Y-99721761D01*
X227212092Y-99721761D02*
X227259711Y-99817000D01*
X227259711Y-99817000D02*
X227354949Y-99864619D01*
X227354949Y-99864619D02*
X227450187Y-99864619D01*
X228164473Y-99817000D02*
X228069235Y-99864619D01*
X228069235Y-99864619D02*
X227878759Y-99864619D01*
X227878759Y-99864619D02*
X227783521Y-99817000D01*
X227783521Y-99817000D02*
X227735902Y-99721761D01*
X227735902Y-99721761D02*
X227735902Y-99340809D01*
X227735902Y-99340809D02*
X227783521Y-99245571D01*
X227783521Y-99245571D02*
X227878759Y-99197952D01*
X227878759Y-99197952D02*
X228069235Y-99197952D01*
X228069235Y-99197952D02*
X228164473Y-99245571D01*
X228164473Y-99245571D02*
X228212092Y-99340809D01*
X228212092Y-99340809D02*
X228212092Y-99436047D01*
X228212092Y-99436047D02*
X227735902Y-99531285D01*
X228640664Y-99197952D02*
X228640664Y-100197952D01*
X228640664Y-99245571D02*
X228735902Y-99197952D01*
X228735902Y-99197952D02*
X228926378Y-99197952D01*
X228926378Y-99197952D02*
X229021616Y-99245571D01*
X229021616Y-99245571D02*
X229069235Y-99293190D01*
X229069235Y-99293190D02*
X229116854Y-99388428D01*
X229116854Y-99388428D02*
X229116854Y-99674142D01*
X229116854Y-99674142D02*
X229069235Y-99769380D01*
X229069235Y-99769380D02*
X229021616Y-99817000D01*
X229021616Y-99817000D02*
X228926378Y-99864619D01*
X228926378Y-99864619D02*
X228735902Y-99864619D01*
X228735902Y-99864619D02*
X228640664Y-99817000D01*
X229545426Y-99483666D02*
X230307331Y-99483666D01*
X231212092Y-99864619D02*
X231212092Y-98864619D01*
X231212092Y-99817000D02*
X231116854Y-99864619D01*
X231116854Y-99864619D02*
X230926378Y-99864619D01*
X230926378Y-99864619D02*
X230831140Y-99817000D01*
X230831140Y-99817000D02*
X230783521Y-99769380D01*
X230783521Y-99769380D02*
X230735902Y-99674142D01*
X230735902Y-99674142D02*
X230735902Y-99388428D01*
X230735902Y-99388428D02*
X230783521Y-99293190D01*
X230783521Y-99293190D02*
X230831140Y-99245571D01*
X230831140Y-99245571D02*
X230926378Y-99197952D01*
X230926378Y-99197952D02*
X231116854Y-99197952D01*
X231116854Y-99197952D02*
X231212092Y-99245571D01*
X231831140Y-99864619D02*
X231735902Y-99817000D01*
X231735902Y-99817000D02*
X231688283Y-99769380D01*
X231688283Y-99769380D02*
X231640664Y-99674142D01*
X231640664Y-99674142D02*
X231640664Y-99388428D01*
X231640664Y-99388428D02*
X231688283Y-99293190D01*
X231688283Y-99293190D02*
X231735902Y-99245571D01*
X231735902Y-99245571D02*
X231831140Y-99197952D01*
X231831140Y-99197952D02*
X231973997Y-99197952D01*
X231973997Y-99197952D02*
X232069235Y-99245571D01*
X232069235Y-99245571D02*
X232116854Y-99293190D01*
X232116854Y-99293190D02*
X232164473Y-99388428D01*
X232164473Y-99388428D02*
X232164473Y-99674142D01*
X232164473Y-99674142D02*
X232116854Y-99769380D01*
X232116854Y-99769380D02*
X232069235Y-99817000D01*
X232069235Y-99817000D02*
X231973997Y-99864619D01*
X231973997Y-99864619D02*
X231831140Y-99864619D01*
X232497807Y-99197952D02*
X232688283Y-99864619D01*
X232688283Y-99864619D02*
X232878759Y-99388428D01*
X232878759Y-99388428D02*
X233069235Y-99864619D01*
X233069235Y-99864619D02*
X233259711Y-99197952D01*
X233640664Y-99197952D02*
X233640664Y-99864619D01*
X233640664Y-99293190D02*
X233688283Y-99245571D01*
X233688283Y-99245571D02*
X233783521Y-99197952D01*
X233783521Y-99197952D02*
X233926378Y-99197952D01*
X233926378Y-99197952D02*
X234021616Y-99245571D01*
X234021616Y-99245571D02*
X234069235Y-99340809D01*
X234069235Y-99340809D02*
X234069235Y-99864619D01*
D13*
X194844140Y-65871119D02*
X194272712Y-65871119D01*
X194558426Y-65871119D02*
X194558426Y-64871119D01*
X194558426Y-64871119D02*
X194463188Y-65013976D01*
X194463188Y-65013976D02*
X194367950Y-65109214D01*
X194367950Y-65109214D02*
X194272712Y-65156833D01*
X195272712Y-65775880D02*
X195320331Y-65823500D01*
X195320331Y-65823500D02*
X195272712Y-65871119D01*
X195272712Y-65871119D02*
X195225093Y-65823500D01*
X195225093Y-65823500D02*
X195272712Y-65775880D01*
X195272712Y-65775880D02*
X195272712Y-65871119D01*
X195606045Y-64871119D02*
X195939378Y-65871119D01*
X195939378Y-65871119D02*
X196272711Y-64871119D01*
X197082235Y-65871119D02*
X196606045Y-65871119D01*
X196606045Y-65871119D02*
X196606045Y-64871119D01*
X198129855Y-64966357D02*
X198177474Y-64918738D01*
X198177474Y-64918738D02*
X198272712Y-64871119D01*
X198272712Y-64871119D02*
X198510807Y-64871119D01*
X198510807Y-64871119D02*
X198606045Y-64918738D01*
X198606045Y-64918738D02*
X198653664Y-64966357D01*
X198653664Y-64966357D02*
X198701283Y-65061595D01*
X198701283Y-65061595D02*
X198701283Y-65156833D01*
X198701283Y-65156833D02*
X198653664Y-65299690D01*
X198653664Y-65299690D02*
X198082236Y-65871119D01*
X198082236Y-65871119D02*
X198701283Y-65871119D01*
X199129855Y-65775880D02*
X199177474Y-65823500D01*
X199177474Y-65823500D02*
X199129855Y-65871119D01*
X199129855Y-65871119D02*
X199082236Y-65823500D01*
X199082236Y-65823500D02*
X199129855Y-65775880D01*
X199129855Y-65775880D02*
X199129855Y-65871119D01*
X200129854Y-64918738D02*
X200034616Y-64871119D01*
X200034616Y-64871119D02*
X199891759Y-64871119D01*
X199891759Y-64871119D02*
X199748902Y-64918738D01*
X199748902Y-64918738D02*
X199653664Y-65013976D01*
X199653664Y-65013976D02*
X199606045Y-65109214D01*
X199606045Y-65109214D02*
X199558426Y-65299690D01*
X199558426Y-65299690D02*
X199558426Y-65442547D01*
X199558426Y-65442547D02*
X199606045Y-65633023D01*
X199606045Y-65633023D02*
X199653664Y-65728261D01*
X199653664Y-65728261D02*
X199748902Y-65823500D01*
X199748902Y-65823500D02*
X199891759Y-65871119D01*
X199891759Y-65871119D02*
X199986997Y-65871119D01*
X199986997Y-65871119D02*
X200129854Y-65823500D01*
X200129854Y-65823500D02*
X200177473Y-65775880D01*
X200177473Y-65775880D02*
X200177473Y-65442547D01*
X200177473Y-65442547D02*
X199986997Y-65442547D01*
X200606045Y-65871119D02*
X200606045Y-64871119D01*
X200606045Y-64871119D02*
X201177473Y-65871119D01*
X201177473Y-65871119D02*
X201177473Y-64871119D01*
X201653664Y-65871119D02*
X201653664Y-64871119D01*
X201653664Y-64871119D02*
X201891759Y-64871119D01*
X201891759Y-64871119D02*
X202034616Y-64918738D01*
X202034616Y-64918738D02*
X202129854Y-65013976D01*
X202129854Y-65013976D02*
X202177473Y-65109214D01*
X202177473Y-65109214D02*
X202225092Y-65299690D01*
X202225092Y-65299690D02*
X202225092Y-65442547D01*
X202225092Y-65442547D02*
X202177473Y-65633023D01*
X202177473Y-65633023D02*
X202129854Y-65728261D01*
X202129854Y-65728261D02*
X202034616Y-65823500D01*
X202034616Y-65823500D02*
X201891759Y-65871119D01*
X201891759Y-65871119D02*
X201653664Y-65871119D01*
D12*
X228926378Y-110754675D02*
X228926378Y-109754675D01*
X228926378Y-109754675D02*
X229259711Y-110468960D01*
X229259711Y-110468960D02*
X229593044Y-109754675D01*
X229593044Y-109754675D02*
X229593044Y-110754675D01*
X230069235Y-110754675D02*
X230069235Y-109754675D01*
X230069235Y-109754675D02*
X230450187Y-109754675D01*
X230450187Y-109754675D02*
X230545425Y-109802294D01*
X230545425Y-109802294D02*
X230593044Y-109849913D01*
X230593044Y-109849913D02*
X230640663Y-109945151D01*
X230640663Y-109945151D02*
X230640663Y-110088008D01*
X230640663Y-110088008D02*
X230593044Y-110183246D01*
X230593044Y-110183246D02*
X230545425Y-110230865D01*
X230545425Y-110230865D02*
X230450187Y-110278484D01*
X230450187Y-110278484D02*
X230069235Y-110278484D01*
X231069235Y-110754675D02*
X231069235Y-109754675D01*
X231069235Y-109754675D02*
X231450187Y-109754675D01*
X231450187Y-109754675D02*
X231545425Y-109802294D01*
X231545425Y-109802294D02*
X231593044Y-109849913D01*
X231593044Y-109849913D02*
X231640663Y-109945151D01*
X231640663Y-109945151D02*
X231640663Y-110088008D01*
X231640663Y-110088008D02*
X231593044Y-110183246D01*
X231593044Y-110183246D02*
X231545425Y-110230865D01*
X231545425Y-110230865D02*
X231450187Y-110278484D01*
X231450187Y-110278484D02*
X231069235Y-110278484D01*
X231926378Y-109754675D02*
X232497806Y-109754675D01*
X232212092Y-110754675D02*
X232212092Y-109754675D01*
X227354949Y-112317000D02*
X227450187Y-112364619D01*
X227450187Y-112364619D02*
X227640663Y-112364619D01*
X227640663Y-112364619D02*
X227735901Y-112317000D01*
X227735901Y-112317000D02*
X227783520Y-112221761D01*
X227783520Y-112221761D02*
X227783520Y-112174142D01*
X227783520Y-112174142D02*
X227735901Y-112078904D01*
X227735901Y-112078904D02*
X227640663Y-112031285D01*
X227640663Y-112031285D02*
X227497806Y-112031285D01*
X227497806Y-112031285D02*
X227402568Y-111983666D01*
X227402568Y-111983666D02*
X227354949Y-111888428D01*
X227354949Y-111888428D02*
X227354949Y-111840809D01*
X227354949Y-111840809D02*
X227402568Y-111745571D01*
X227402568Y-111745571D02*
X227497806Y-111697952D01*
X227497806Y-111697952D02*
X227640663Y-111697952D01*
X227640663Y-111697952D02*
X227735901Y-111745571D01*
X228069235Y-111697952D02*
X228450187Y-111697952D01*
X228212092Y-111364619D02*
X228212092Y-112221761D01*
X228212092Y-112221761D02*
X228259711Y-112317000D01*
X228259711Y-112317000D02*
X228354949Y-112364619D01*
X228354949Y-112364619D02*
X228450187Y-112364619D01*
X229164473Y-112317000D02*
X229069235Y-112364619D01*
X229069235Y-112364619D02*
X228878759Y-112364619D01*
X228878759Y-112364619D02*
X228783521Y-112317000D01*
X228783521Y-112317000D02*
X228735902Y-112221761D01*
X228735902Y-112221761D02*
X228735902Y-111840809D01*
X228735902Y-111840809D02*
X228783521Y-111745571D01*
X228783521Y-111745571D02*
X228878759Y-111697952D01*
X228878759Y-111697952D02*
X229069235Y-111697952D01*
X229069235Y-111697952D02*
X229164473Y-111745571D01*
X229164473Y-111745571D02*
X229212092Y-111840809D01*
X229212092Y-111840809D02*
X229212092Y-111936047D01*
X229212092Y-111936047D02*
X228735902Y-112031285D01*
X229640664Y-111697952D02*
X229640664Y-112697952D01*
X229640664Y-111745571D02*
X229735902Y-111697952D01*
X229735902Y-111697952D02*
X229926378Y-111697952D01*
X229926378Y-111697952D02*
X230021616Y-111745571D01*
X230021616Y-111745571D02*
X230069235Y-111793190D01*
X230069235Y-111793190D02*
X230116854Y-111888428D01*
X230116854Y-111888428D02*
X230116854Y-112174142D01*
X230116854Y-112174142D02*
X230069235Y-112269380D01*
X230069235Y-112269380D02*
X230021616Y-112317000D01*
X230021616Y-112317000D02*
X229926378Y-112364619D01*
X229926378Y-112364619D02*
X229735902Y-112364619D01*
X229735902Y-112364619D02*
X229640664Y-112317000D01*
X230545426Y-111983666D02*
X231307331Y-111983666D01*
X232212092Y-111697952D02*
X232212092Y-112364619D01*
X231783521Y-111697952D02*
X231783521Y-112221761D01*
X231783521Y-112221761D02*
X231831140Y-112317000D01*
X231831140Y-112317000D02*
X231926378Y-112364619D01*
X231926378Y-112364619D02*
X232069235Y-112364619D01*
X232069235Y-112364619D02*
X232164473Y-112317000D01*
X232164473Y-112317000D02*
X232212092Y-112269380D01*
X232688283Y-111697952D02*
X232688283Y-112697952D01*
X232688283Y-111745571D02*
X232783521Y-111697952D01*
X232783521Y-111697952D02*
X232973997Y-111697952D01*
X232973997Y-111697952D02*
X233069235Y-111745571D01*
X233069235Y-111745571D02*
X233116854Y-111793190D01*
X233116854Y-111793190D02*
X233164473Y-111888428D01*
X233164473Y-111888428D02*
X233164473Y-112174142D01*
X233164473Y-112174142D02*
X233116854Y-112269380D01*
X233116854Y-112269380D02*
X233069235Y-112317000D01*
X233069235Y-112317000D02*
X232973997Y-112364619D01*
X232973997Y-112364619D02*
X232783521Y-112364619D01*
X232783521Y-112364619D02*
X232688283Y-112317000D01*
D13*
X178344140Y-62871119D02*
X177772712Y-62871119D01*
X178058426Y-62871119D02*
X178058426Y-61871119D01*
X178058426Y-61871119D02*
X177963188Y-62013976D01*
X177963188Y-62013976D02*
X177867950Y-62109214D01*
X177867950Y-62109214D02*
X177772712Y-62156833D01*
X178772712Y-62775880D02*
X178820331Y-62823500D01*
X178820331Y-62823500D02*
X178772712Y-62871119D01*
X178772712Y-62871119D02*
X178725093Y-62823500D01*
X178725093Y-62823500D02*
X178772712Y-62775880D01*
X178772712Y-62775880D02*
X178772712Y-62871119D01*
X179106045Y-61871119D02*
X179439378Y-62871119D01*
X179439378Y-62871119D02*
X179772711Y-61871119D01*
X180439378Y-62347309D02*
X180582235Y-62394928D01*
X180582235Y-62394928D02*
X180629854Y-62442547D01*
X180629854Y-62442547D02*
X180677473Y-62537785D01*
X180677473Y-62537785D02*
X180677473Y-62680642D01*
X180677473Y-62680642D02*
X180629854Y-62775880D01*
X180629854Y-62775880D02*
X180582235Y-62823500D01*
X180582235Y-62823500D02*
X180486997Y-62871119D01*
X180486997Y-62871119D02*
X180106045Y-62871119D01*
X180106045Y-62871119D02*
X180106045Y-61871119D01*
X180106045Y-61871119D02*
X180439378Y-61871119D01*
X180439378Y-61871119D02*
X180534616Y-61918738D01*
X180534616Y-61918738D02*
X180582235Y-61966357D01*
X180582235Y-61966357D02*
X180629854Y-62061595D01*
X180629854Y-62061595D02*
X180629854Y-62156833D01*
X180629854Y-62156833D02*
X180582235Y-62252071D01*
X180582235Y-62252071D02*
X180534616Y-62299690D01*
X180534616Y-62299690D02*
X180439378Y-62347309D01*
X180439378Y-62347309D02*
X180106045Y-62347309D01*
X181106045Y-61871119D02*
X181106045Y-62680642D01*
X181106045Y-62680642D02*
X181153664Y-62775880D01*
X181153664Y-62775880D02*
X181201283Y-62823500D01*
X181201283Y-62823500D02*
X181296521Y-62871119D01*
X181296521Y-62871119D02*
X181486997Y-62871119D01*
X181486997Y-62871119D02*
X181582235Y-62823500D01*
X181582235Y-62823500D02*
X181629854Y-62775880D01*
X181629854Y-62775880D02*
X181677473Y-62680642D01*
X181677473Y-62680642D02*
X181677473Y-61871119D01*
X182106045Y-62823500D02*
X182248902Y-62871119D01*
X182248902Y-62871119D02*
X182486997Y-62871119D01*
X182486997Y-62871119D02*
X182582235Y-62823500D01*
X182582235Y-62823500D02*
X182629854Y-62775880D01*
X182629854Y-62775880D02*
X182677473Y-62680642D01*
X182677473Y-62680642D02*
X182677473Y-62585404D01*
X182677473Y-62585404D02*
X182629854Y-62490166D01*
X182629854Y-62490166D02*
X182582235Y-62442547D01*
X182582235Y-62442547D02*
X182486997Y-62394928D01*
X182486997Y-62394928D02*
X182296521Y-62347309D01*
X182296521Y-62347309D02*
X182201283Y-62299690D01*
X182201283Y-62299690D02*
X182153664Y-62252071D01*
X182153664Y-62252071D02*
X182106045Y-62156833D01*
X182106045Y-62156833D02*
X182106045Y-62061595D01*
X182106045Y-62061595D02*
X182153664Y-61966357D01*
X182153664Y-61966357D02*
X182201283Y-61918738D01*
X182201283Y-61918738D02*
X182296521Y-61871119D01*
X182296521Y-61871119D02*
X182534616Y-61871119D01*
X182534616Y-61871119D02*
X182677473Y-61918738D01*
X183820331Y-61966357D02*
X183867950Y-61918738D01*
X183867950Y-61918738D02*
X183963188Y-61871119D01*
X183963188Y-61871119D02*
X184201283Y-61871119D01*
X184201283Y-61871119D02*
X184296521Y-61918738D01*
X184296521Y-61918738D02*
X184344140Y-61966357D01*
X184344140Y-61966357D02*
X184391759Y-62061595D01*
X184391759Y-62061595D02*
X184391759Y-62156833D01*
X184391759Y-62156833D02*
X184344140Y-62299690D01*
X184344140Y-62299690D02*
X183772712Y-62871119D01*
X183772712Y-62871119D02*
X184391759Y-62871119D01*
X184820331Y-62775880D02*
X184867950Y-62823500D01*
X184867950Y-62823500D02*
X184820331Y-62871119D01*
X184820331Y-62871119D02*
X184772712Y-62823500D01*
X184772712Y-62823500D02*
X184820331Y-62775880D01*
X184820331Y-62775880D02*
X184820331Y-62871119D01*
X185820330Y-61918738D02*
X185725092Y-61871119D01*
X185725092Y-61871119D02*
X185582235Y-61871119D01*
X185582235Y-61871119D02*
X185439378Y-61918738D01*
X185439378Y-61918738D02*
X185344140Y-62013976D01*
X185344140Y-62013976D02*
X185296521Y-62109214D01*
X185296521Y-62109214D02*
X185248902Y-62299690D01*
X185248902Y-62299690D02*
X185248902Y-62442547D01*
X185248902Y-62442547D02*
X185296521Y-62633023D01*
X185296521Y-62633023D02*
X185344140Y-62728261D01*
X185344140Y-62728261D02*
X185439378Y-62823500D01*
X185439378Y-62823500D02*
X185582235Y-62871119D01*
X185582235Y-62871119D02*
X185677473Y-62871119D01*
X185677473Y-62871119D02*
X185820330Y-62823500D01*
X185820330Y-62823500D02*
X185867949Y-62775880D01*
X185867949Y-62775880D02*
X185867949Y-62442547D01*
X185867949Y-62442547D02*
X185677473Y-62442547D01*
X186296521Y-62871119D02*
X186296521Y-61871119D01*
X186296521Y-61871119D02*
X186867949Y-62871119D01*
X186867949Y-62871119D02*
X186867949Y-61871119D01*
X187344140Y-62871119D02*
X187344140Y-61871119D01*
X187344140Y-61871119D02*
X187582235Y-61871119D01*
X187582235Y-61871119D02*
X187725092Y-61918738D01*
X187725092Y-61918738D02*
X187820330Y-62013976D01*
X187820330Y-62013976D02*
X187867949Y-62109214D01*
X187867949Y-62109214D02*
X187915568Y-62299690D01*
X187915568Y-62299690D02*
X187915568Y-62442547D01*
X187915568Y-62442547D02*
X187867949Y-62633023D01*
X187867949Y-62633023D02*
X187820330Y-62728261D01*
X187820330Y-62728261D02*
X187725092Y-62823500D01*
X187725092Y-62823500D02*
X187582235Y-62871119D01*
X187582235Y-62871119D02*
X187344140Y-62871119D01*
X224238824Y-79344140D02*
X224238824Y-78772712D01*
X224238824Y-79058426D02*
X225238824Y-79058426D01*
X225238824Y-79058426D02*
X225095967Y-78963188D01*
X225095967Y-78963188D02*
X225000729Y-78867950D01*
X225000729Y-78867950D02*
X224953110Y-78772712D01*
X224334063Y-79772712D02*
X224286444Y-79820331D01*
X224286444Y-79820331D02*
X224238824Y-79772712D01*
X224238824Y-79772712D02*
X224286444Y-79725093D01*
X224286444Y-79725093D02*
X224334063Y-79772712D01*
X224334063Y-79772712D02*
X224238824Y-79772712D01*
X224762634Y-80582235D02*
X224762634Y-80248902D01*
X224238824Y-80248902D02*
X225238824Y-80248902D01*
X225238824Y-80248902D02*
X225238824Y-80725092D01*
X224286444Y-81486997D02*
X224238824Y-81391759D01*
X224238824Y-81391759D02*
X224238824Y-81201283D01*
X224238824Y-81201283D02*
X224286444Y-81106045D01*
X224286444Y-81106045D02*
X224381682Y-81058426D01*
X224381682Y-81058426D02*
X224762634Y-81058426D01*
X224762634Y-81058426D02*
X224857872Y-81106045D01*
X224857872Y-81106045D02*
X224905491Y-81201283D01*
X224905491Y-81201283D02*
X224905491Y-81391759D01*
X224905491Y-81391759D02*
X224857872Y-81486997D01*
X224857872Y-81486997D02*
X224762634Y-81534616D01*
X224762634Y-81534616D02*
X224667396Y-81534616D01*
X224667396Y-81534616D02*
X224572158Y-81058426D01*
X224286444Y-82344140D02*
X224238824Y-82248902D01*
X224238824Y-82248902D02*
X224238824Y-82058426D01*
X224238824Y-82058426D02*
X224286444Y-81963188D01*
X224286444Y-81963188D02*
X224381682Y-81915569D01*
X224381682Y-81915569D02*
X224762634Y-81915569D01*
X224762634Y-81915569D02*
X224857872Y-81963188D01*
X224857872Y-81963188D02*
X224905491Y-82058426D01*
X224905491Y-82058426D02*
X224905491Y-82248902D01*
X224905491Y-82248902D02*
X224857872Y-82344140D01*
X224857872Y-82344140D02*
X224762634Y-82391759D01*
X224762634Y-82391759D02*
X224667396Y-82391759D01*
X224667396Y-82391759D02*
X224572158Y-81915569D01*
X224238824Y-83248902D02*
X225238824Y-83248902D01*
X224286444Y-83248902D02*
X224238824Y-83153664D01*
X224238824Y-83153664D02*
X224238824Y-82963188D01*
X224238824Y-82963188D02*
X224286444Y-82867950D01*
X224286444Y-82867950D02*
X224334063Y-82820331D01*
X224334063Y-82820331D02*
X224429301Y-82772712D01*
X224429301Y-82772712D02*
X224715015Y-82772712D01*
X224715015Y-82772712D02*
X224810253Y-82820331D01*
X224810253Y-82820331D02*
X224857872Y-82867950D01*
X224857872Y-82867950D02*
X224905491Y-82963188D01*
X224905491Y-82963188D02*
X224905491Y-83153664D01*
X224905491Y-83153664D02*
X224857872Y-83248902D01*
X224238824Y-83725093D02*
X225238824Y-83725093D01*
X224857872Y-83725093D02*
X224905491Y-83820331D01*
X224905491Y-83820331D02*
X224905491Y-84010807D01*
X224905491Y-84010807D02*
X224857872Y-84106045D01*
X224857872Y-84106045D02*
X224810253Y-84153664D01*
X224810253Y-84153664D02*
X224715015Y-84201283D01*
X224715015Y-84201283D02*
X224429301Y-84201283D01*
X224429301Y-84201283D02*
X224334063Y-84153664D01*
X224334063Y-84153664D02*
X224286444Y-84106045D01*
X224286444Y-84106045D02*
X224238824Y-84010807D01*
X224238824Y-84010807D02*
X224238824Y-83820331D01*
X224238824Y-83820331D02*
X224286444Y-83725093D01*
X224238824Y-85058426D02*
X224762634Y-85058426D01*
X224762634Y-85058426D02*
X224857872Y-85010807D01*
X224857872Y-85010807D02*
X224905491Y-84915569D01*
X224905491Y-84915569D02*
X224905491Y-84725093D01*
X224905491Y-84725093D02*
X224857872Y-84629855D01*
X224286444Y-85058426D02*
X224238824Y-84963188D01*
X224238824Y-84963188D02*
X224238824Y-84725093D01*
X224238824Y-84725093D02*
X224286444Y-84629855D01*
X224286444Y-84629855D02*
X224381682Y-84582236D01*
X224381682Y-84582236D02*
X224476920Y-84582236D01*
X224476920Y-84582236D02*
X224572158Y-84629855D01*
X224572158Y-84629855D02*
X224619777Y-84725093D01*
X224619777Y-84725093D02*
X224619777Y-84963188D01*
X224619777Y-84963188D02*
X224667396Y-85058426D01*
X224286444Y-85963188D02*
X224238824Y-85867950D01*
X224238824Y-85867950D02*
X224238824Y-85677474D01*
X224238824Y-85677474D02*
X224286444Y-85582236D01*
X224286444Y-85582236D02*
X224334063Y-85534617D01*
X224334063Y-85534617D02*
X224429301Y-85486998D01*
X224429301Y-85486998D02*
X224715015Y-85486998D01*
X224715015Y-85486998D02*
X224810253Y-85534617D01*
X224810253Y-85534617D02*
X224857872Y-85582236D01*
X224857872Y-85582236D02*
X224905491Y-85677474D01*
X224905491Y-85677474D02*
X224905491Y-85867950D01*
X224905491Y-85867950D02*
X224857872Y-85963188D01*
X224238824Y-86391760D02*
X225238824Y-86391760D01*
X224619777Y-86486998D02*
X224238824Y-86772712D01*
X224905491Y-86772712D02*
X224524539Y-86391760D01*
X223533642Y-78772712D02*
X223581261Y-78820331D01*
X223581261Y-78820331D02*
X223628880Y-78915569D01*
X223628880Y-78915569D02*
X223628880Y-79153664D01*
X223628880Y-79153664D02*
X223581261Y-79248902D01*
X223581261Y-79248902D02*
X223533642Y-79296521D01*
X223533642Y-79296521D02*
X223438404Y-79344140D01*
X223438404Y-79344140D02*
X223343166Y-79344140D01*
X223343166Y-79344140D02*
X223200309Y-79296521D01*
X223200309Y-79296521D02*
X222628880Y-78725093D01*
X222628880Y-78725093D02*
X222628880Y-79344140D01*
X222724119Y-79772712D02*
X222676500Y-79820331D01*
X222676500Y-79820331D02*
X222628880Y-79772712D01*
X222628880Y-79772712D02*
X222676500Y-79725093D01*
X222676500Y-79725093D02*
X222724119Y-79772712D01*
X222724119Y-79772712D02*
X222628880Y-79772712D01*
X223152690Y-80582235D02*
X223152690Y-80248902D01*
X222628880Y-80248902D02*
X223628880Y-80248902D01*
X223628880Y-80248902D02*
X223628880Y-80725092D01*
X222676500Y-81486997D02*
X222628880Y-81391759D01*
X222628880Y-81391759D02*
X222628880Y-81201283D01*
X222628880Y-81201283D02*
X222676500Y-81106045D01*
X222676500Y-81106045D02*
X222771738Y-81058426D01*
X222771738Y-81058426D02*
X223152690Y-81058426D01*
X223152690Y-81058426D02*
X223247928Y-81106045D01*
X223247928Y-81106045D02*
X223295547Y-81201283D01*
X223295547Y-81201283D02*
X223295547Y-81391759D01*
X223295547Y-81391759D02*
X223247928Y-81486997D01*
X223247928Y-81486997D02*
X223152690Y-81534616D01*
X223152690Y-81534616D02*
X223057452Y-81534616D01*
X223057452Y-81534616D02*
X222962214Y-81058426D01*
X222676500Y-82344140D02*
X222628880Y-82248902D01*
X222628880Y-82248902D02*
X222628880Y-82058426D01*
X222628880Y-82058426D02*
X222676500Y-81963188D01*
X222676500Y-81963188D02*
X222771738Y-81915569D01*
X222771738Y-81915569D02*
X223152690Y-81915569D01*
X223152690Y-81915569D02*
X223247928Y-81963188D01*
X223247928Y-81963188D02*
X223295547Y-82058426D01*
X223295547Y-82058426D02*
X223295547Y-82248902D01*
X223295547Y-82248902D02*
X223247928Y-82344140D01*
X223247928Y-82344140D02*
X223152690Y-82391759D01*
X223152690Y-82391759D02*
X223057452Y-82391759D01*
X223057452Y-82391759D02*
X222962214Y-81915569D01*
X222628880Y-83248902D02*
X223628880Y-83248902D01*
X222676500Y-83248902D02*
X222628880Y-83153664D01*
X222628880Y-83153664D02*
X222628880Y-82963188D01*
X222628880Y-82963188D02*
X222676500Y-82867950D01*
X222676500Y-82867950D02*
X222724119Y-82820331D01*
X222724119Y-82820331D02*
X222819357Y-82772712D01*
X222819357Y-82772712D02*
X223105071Y-82772712D01*
X223105071Y-82772712D02*
X223200309Y-82820331D01*
X223200309Y-82820331D02*
X223247928Y-82867950D01*
X223247928Y-82867950D02*
X223295547Y-82963188D01*
X223295547Y-82963188D02*
X223295547Y-83153664D01*
X223295547Y-83153664D02*
X223247928Y-83248902D01*
X222628880Y-83725093D02*
X223628880Y-83725093D01*
X223247928Y-83725093D02*
X223295547Y-83820331D01*
X223295547Y-83820331D02*
X223295547Y-84010807D01*
X223295547Y-84010807D02*
X223247928Y-84106045D01*
X223247928Y-84106045D02*
X223200309Y-84153664D01*
X223200309Y-84153664D02*
X223105071Y-84201283D01*
X223105071Y-84201283D02*
X222819357Y-84201283D01*
X222819357Y-84201283D02*
X222724119Y-84153664D01*
X222724119Y-84153664D02*
X222676500Y-84106045D01*
X222676500Y-84106045D02*
X222628880Y-84010807D01*
X222628880Y-84010807D02*
X222628880Y-83820331D01*
X222628880Y-83820331D02*
X222676500Y-83725093D01*
X222628880Y-85058426D02*
X223152690Y-85058426D01*
X223152690Y-85058426D02*
X223247928Y-85010807D01*
X223247928Y-85010807D02*
X223295547Y-84915569D01*
X223295547Y-84915569D02*
X223295547Y-84725093D01*
X223295547Y-84725093D02*
X223247928Y-84629855D01*
X222676500Y-85058426D02*
X222628880Y-84963188D01*
X222628880Y-84963188D02*
X222628880Y-84725093D01*
X222628880Y-84725093D02*
X222676500Y-84629855D01*
X222676500Y-84629855D02*
X222771738Y-84582236D01*
X222771738Y-84582236D02*
X222866976Y-84582236D01*
X222866976Y-84582236D02*
X222962214Y-84629855D01*
X222962214Y-84629855D02*
X223009833Y-84725093D01*
X223009833Y-84725093D02*
X223009833Y-84963188D01*
X223009833Y-84963188D02*
X223057452Y-85058426D01*
X222676500Y-85963188D02*
X222628880Y-85867950D01*
X222628880Y-85867950D02*
X222628880Y-85677474D01*
X222628880Y-85677474D02*
X222676500Y-85582236D01*
X222676500Y-85582236D02*
X222724119Y-85534617D01*
X222724119Y-85534617D02*
X222819357Y-85486998D01*
X222819357Y-85486998D02*
X223105071Y-85486998D01*
X223105071Y-85486998D02*
X223200309Y-85534617D01*
X223200309Y-85534617D02*
X223247928Y-85582236D01*
X223247928Y-85582236D02*
X223295547Y-85677474D01*
X223295547Y-85677474D02*
X223295547Y-85867950D01*
X223295547Y-85867950D02*
X223247928Y-85963188D01*
X222628880Y-86391760D02*
X223628880Y-86391760D01*
X223009833Y-86486998D02*
X222628880Y-86772712D01*
X223295547Y-86772712D02*
X222914595Y-86391760D01*
X191844140Y-62871119D02*
X191272712Y-62871119D01*
X191558426Y-62871119D02*
X191558426Y-61871119D01*
X191558426Y-61871119D02*
X191463188Y-62013976D01*
X191463188Y-62013976D02*
X191367950Y-62109214D01*
X191367950Y-62109214D02*
X191272712Y-62156833D01*
X192272712Y-62775880D02*
X192320331Y-62823500D01*
X192320331Y-62823500D02*
X192272712Y-62871119D01*
X192272712Y-62871119D02*
X192225093Y-62823500D01*
X192225093Y-62823500D02*
X192272712Y-62775880D01*
X192272712Y-62775880D02*
X192272712Y-62871119D01*
X192606045Y-61871119D02*
X192939378Y-62871119D01*
X192939378Y-62871119D02*
X193272711Y-61871119D01*
X194082235Y-62871119D02*
X193606045Y-62871119D01*
X193606045Y-62871119D02*
X193606045Y-61871119D01*
X195129855Y-61966357D02*
X195177474Y-61918738D01*
X195177474Y-61918738D02*
X195272712Y-61871119D01*
X195272712Y-61871119D02*
X195510807Y-61871119D01*
X195510807Y-61871119D02*
X195606045Y-61918738D01*
X195606045Y-61918738D02*
X195653664Y-61966357D01*
X195653664Y-61966357D02*
X195701283Y-62061595D01*
X195701283Y-62061595D02*
X195701283Y-62156833D01*
X195701283Y-62156833D02*
X195653664Y-62299690D01*
X195653664Y-62299690D02*
X195082236Y-62871119D01*
X195082236Y-62871119D02*
X195701283Y-62871119D01*
X196129855Y-62775880D02*
X196177474Y-62823500D01*
X196177474Y-62823500D02*
X196129855Y-62871119D01*
X196129855Y-62871119D02*
X196082236Y-62823500D01*
X196082236Y-62823500D02*
X196129855Y-62775880D01*
X196129855Y-62775880D02*
X196129855Y-62871119D01*
X197129854Y-61918738D02*
X197034616Y-61871119D01*
X197034616Y-61871119D02*
X196891759Y-61871119D01*
X196891759Y-61871119D02*
X196748902Y-61918738D01*
X196748902Y-61918738D02*
X196653664Y-62013976D01*
X196653664Y-62013976D02*
X196606045Y-62109214D01*
X196606045Y-62109214D02*
X196558426Y-62299690D01*
X196558426Y-62299690D02*
X196558426Y-62442547D01*
X196558426Y-62442547D02*
X196606045Y-62633023D01*
X196606045Y-62633023D02*
X196653664Y-62728261D01*
X196653664Y-62728261D02*
X196748902Y-62823500D01*
X196748902Y-62823500D02*
X196891759Y-62871119D01*
X196891759Y-62871119D02*
X196986997Y-62871119D01*
X196986997Y-62871119D02*
X197129854Y-62823500D01*
X197129854Y-62823500D02*
X197177473Y-62775880D01*
X197177473Y-62775880D02*
X197177473Y-62442547D01*
X197177473Y-62442547D02*
X196986997Y-62442547D01*
X197606045Y-62871119D02*
X197606045Y-61871119D01*
X197606045Y-61871119D02*
X198177473Y-62871119D01*
X198177473Y-62871119D02*
X198177473Y-61871119D01*
X198653664Y-62871119D02*
X198653664Y-61871119D01*
X198653664Y-61871119D02*
X198891759Y-61871119D01*
X198891759Y-61871119D02*
X199034616Y-61918738D01*
X199034616Y-61918738D02*
X199129854Y-62013976D01*
X199129854Y-62013976D02*
X199177473Y-62109214D01*
X199177473Y-62109214D02*
X199225092Y-62299690D01*
X199225092Y-62299690D02*
X199225092Y-62442547D01*
X199225092Y-62442547D02*
X199177473Y-62633023D01*
X199177473Y-62633023D02*
X199129854Y-62728261D01*
X199129854Y-62728261D02*
X199034616Y-62823500D01*
X199034616Y-62823500D02*
X198891759Y-62871119D01*
X198891759Y-62871119D02*
X198653664Y-62871119D01*
X182844140Y-65871119D02*
X182272712Y-65871119D01*
X182558426Y-65871119D02*
X182558426Y-64871119D01*
X182558426Y-64871119D02*
X182463188Y-65013976D01*
X182463188Y-65013976D02*
X182367950Y-65109214D01*
X182367950Y-65109214D02*
X182272712Y-65156833D01*
X183272712Y-65775880D02*
X183320331Y-65823500D01*
X183320331Y-65823500D02*
X183272712Y-65871119D01*
X183272712Y-65871119D02*
X183225093Y-65823500D01*
X183225093Y-65823500D02*
X183272712Y-65775880D01*
X183272712Y-65775880D02*
X183272712Y-65871119D01*
X183606045Y-64871119D02*
X183939378Y-65871119D01*
X183939378Y-65871119D02*
X184272711Y-64871119D01*
X184939378Y-65347309D02*
X185082235Y-65394928D01*
X185082235Y-65394928D02*
X185129854Y-65442547D01*
X185129854Y-65442547D02*
X185177473Y-65537785D01*
X185177473Y-65537785D02*
X185177473Y-65680642D01*
X185177473Y-65680642D02*
X185129854Y-65775880D01*
X185129854Y-65775880D02*
X185082235Y-65823500D01*
X185082235Y-65823500D02*
X184986997Y-65871119D01*
X184986997Y-65871119D02*
X184606045Y-65871119D01*
X184606045Y-65871119D02*
X184606045Y-64871119D01*
X184606045Y-64871119D02*
X184939378Y-64871119D01*
X184939378Y-64871119D02*
X185034616Y-64918738D01*
X185034616Y-64918738D02*
X185082235Y-64966357D01*
X185082235Y-64966357D02*
X185129854Y-65061595D01*
X185129854Y-65061595D02*
X185129854Y-65156833D01*
X185129854Y-65156833D02*
X185082235Y-65252071D01*
X185082235Y-65252071D02*
X185034616Y-65299690D01*
X185034616Y-65299690D02*
X184939378Y-65347309D01*
X184939378Y-65347309D02*
X184606045Y-65347309D01*
X185606045Y-64871119D02*
X185606045Y-65680642D01*
X185606045Y-65680642D02*
X185653664Y-65775880D01*
X185653664Y-65775880D02*
X185701283Y-65823500D01*
X185701283Y-65823500D02*
X185796521Y-65871119D01*
X185796521Y-65871119D02*
X185986997Y-65871119D01*
X185986997Y-65871119D02*
X186082235Y-65823500D01*
X186082235Y-65823500D02*
X186129854Y-65775880D01*
X186129854Y-65775880D02*
X186177473Y-65680642D01*
X186177473Y-65680642D02*
X186177473Y-64871119D01*
X186606045Y-65823500D02*
X186748902Y-65871119D01*
X186748902Y-65871119D02*
X186986997Y-65871119D01*
X186986997Y-65871119D02*
X187082235Y-65823500D01*
X187082235Y-65823500D02*
X187129854Y-65775880D01*
X187129854Y-65775880D02*
X187177473Y-65680642D01*
X187177473Y-65680642D02*
X187177473Y-65585404D01*
X187177473Y-65585404D02*
X187129854Y-65490166D01*
X187129854Y-65490166D02*
X187082235Y-65442547D01*
X187082235Y-65442547D02*
X186986997Y-65394928D01*
X186986997Y-65394928D02*
X186796521Y-65347309D01*
X186796521Y-65347309D02*
X186701283Y-65299690D01*
X186701283Y-65299690D02*
X186653664Y-65252071D01*
X186653664Y-65252071D02*
X186606045Y-65156833D01*
X186606045Y-65156833D02*
X186606045Y-65061595D01*
X186606045Y-65061595D02*
X186653664Y-64966357D01*
X186653664Y-64966357D02*
X186701283Y-64918738D01*
X186701283Y-64918738D02*
X186796521Y-64871119D01*
X186796521Y-64871119D02*
X187034616Y-64871119D01*
X187034616Y-64871119D02*
X187177473Y-64918738D01*
X188320331Y-64966357D02*
X188367950Y-64918738D01*
X188367950Y-64918738D02*
X188463188Y-64871119D01*
X188463188Y-64871119D02*
X188701283Y-64871119D01*
X188701283Y-64871119D02*
X188796521Y-64918738D01*
X188796521Y-64918738D02*
X188844140Y-64966357D01*
X188844140Y-64966357D02*
X188891759Y-65061595D01*
X188891759Y-65061595D02*
X188891759Y-65156833D01*
X188891759Y-65156833D02*
X188844140Y-65299690D01*
X188844140Y-65299690D02*
X188272712Y-65871119D01*
X188272712Y-65871119D02*
X188891759Y-65871119D01*
X189320331Y-65775880D02*
X189367950Y-65823500D01*
X189367950Y-65823500D02*
X189320331Y-65871119D01*
X189320331Y-65871119D02*
X189272712Y-65823500D01*
X189272712Y-65823500D02*
X189320331Y-65775880D01*
X189320331Y-65775880D02*
X189320331Y-65871119D01*
X190320330Y-64918738D02*
X190225092Y-64871119D01*
X190225092Y-64871119D02*
X190082235Y-64871119D01*
X190082235Y-64871119D02*
X189939378Y-64918738D01*
X189939378Y-64918738D02*
X189844140Y-65013976D01*
X189844140Y-65013976D02*
X189796521Y-65109214D01*
X189796521Y-65109214D02*
X189748902Y-65299690D01*
X189748902Y-65299690D02*
X189748902Y-65442547D01*
X189748902Y-65442547D02*
X189796521Y-65633023D01*
X189796521Y-65633023D02*
X189844140Y-65728261D01*
X189844140Y-65728261D02*
X189939378Y-65823500D01*
X189939378Y-65823500D02*
X190082235Y-65871119D01*
X190082235Y-65871119D02*
X190177473Y-65871119D01*
X190177473Y-65871119D02*
X190320330Y-65823500D01*
X190320330Y-65823500D02*
X190367949Y-65775880D01*
X190367949Y-65775880D02*
X190367949Y-65442547D01*
X190367949Y-65442547D02*
X190177473Y-65442547D01*
X190796521Y-65871119D02*
X190796521Y-64871119D01*
X190796521Y-64871119D02*
X191367949Y-65871119D01*
X191367949Y-65871119D02*
X191367949Y-64871119D01*
X191844140Y-65871119D02*
X191844140Y-64871119D01*
X191844140Y-64871119D02*
X192082235Y-64871119D01*
X192082235Y-64871119D02*
X192225092Y-64918738D01*
X192225092Y-64918738D02*
X192320330Y-65013976D01*
X192320330Y-65013976D02*
X192367949Y-65109214D01*
X192367949Y-65109214D02*
X192415568Y-65299690D01*
X192415568Y-65299690D02*
X192415568Y-65442547D01*
X192415568Y-65442547D02*
X192367949Y-65633023D01*
X192367949Y-65633023D02*
X192320330Y-65728261D01*
X192320330Y-65728261D02*
X192225092Y-65823500D01*
X192225092Y-65823500D02*
X192082235Y-65871119D01*
X192082235Y-65871119D02*
X191844140Y-65871119D01*
X223128880Y-68844140D02*
X223128880Y-68272712D01*
X223128880Y-68558426D02*
X224128880Y-68558426D01*
X224128880Y-68558426D02*
X223986023Y-68463188D01*
X223986023Y-68463188D02*
X223890785Y-68367950D01*
X223890785Y-68367950D02*
X223843166Y-68272712D01*
X223224119Y-69272712D02*
X223176500Y-69320331D01*
X223176500Y-69320331D02*
X223128880Y-69272712D01*
X223128880Y-69272712D02*
X223176500Y-69225093D01*
X223176500Y-69225093D02*
X223224119Y-69272712D01*
X223224119Y-69272712D02*
X223128880Y-69272712D01*
X223128880Y-69748902D02*
X224128880Y-69748902D01*
X224128880Y-69748902D02*
X224128880Y-70129854D01*
X224128880Y-70129854D02*
X224081261Y-70225092D01*
X224081261Y-70225092D02*
X224033642Y-70272711D01*
X224033642Y-70272711D02*
X223938404Y-70320330D01*
X223938404Y-70320330D02*
X223795547Y-70320330D01*
X223795547Y-70320330D02*
X223700309Y-70272711D01*
X223700309Y-70272711D02*
X223652690Y-70225092D01*
X223652690Y-70225092D02*
X223605071Y-70129854D01*
X223605071Y-70129854D02*
X223605071Y-69748902D01*
X224128880Y-70606045D02*
X223128880Y-70939378D01*
X223128880Y-70939378D02*
X224128880Y-71272711D01*
X224033642Y-72320331D02*
X224081261Y-72367950D01*
X224081261Y-72367950D02*
X224128880Y-72463188D01*
X224128880Y-72463188D02*
X224128880Y-72701283D01*
X224128880Y-72701283D02*
X224081261Y-72796521D01*
X224081261Y-72796521D02*
X224033642Y-72844140D01*
X224033642Y-72844140D02*
X223938404Y-72891759D01*
X223938404Y-72891759D02*
X223843166Y-72891759D01*
X223843166Y-72891759D02*
X223700309Y-72844140D01*
X223700309Y-72844140D02*
X223128880Y-72272712D01*
X223128880Y-72272712D02*
X223128880Y-72891759D01*
X223224119Y-73320331D02*
X223176500Y-73367950D01*
X223176500Y-73367950D02*
X223128880Y-73320331D01*
X223128880Y-73320331D02*
X223176500Y-73272712D01*
X223176500Y-73272712D02*
X223224119Y-73320331D01*
X223224119Y-73320331D02*
X223128880Y-73320331D01*
X224081261Y-74320330D02*
X224128880Y-74225092D01*
X224128880Y-74225092D02*
X224128880Y-74082235D01*
X224128880Y-74082235D02*
X224081261Y-73939378D01*
X224081261Y-73939378D02*
X223986023Y-73844140D01*
X223986023Y-73844140D02*
X223890785Y-73796521D01*
X223890785Y-73796521D02*
X223700309Y-73748902D01*
X223700309Y-73748902D02*
X223557452Y-73748902D01*
X223557452Y-73748902D02*
X223366976Y-73796521D01*
X223366976Y-73796521D02*
X223271738Y-73844140D01*
X223271738Y-73844140D02*
X223176500Y-73939378D01*
X223176500Y-73939378D02*
X223128880Y-74082235D01*
X223128880Y-74082235D02*
X223128880Y-74177473D01*
X223128880Y-74177473D02*
X223176500Y-74320330D01*
X223176500Y-74320330D02*
X223224119Y-74367949D01*
X223224119Y-74367949D02*
X223557452Y-74367949D01*
X223557452Y-74367949D02*
X223557452Y-74177473D01*
X223128880Y-74796521D02*
X224128880Y-74796521D01*
X224128880Y-74796521D02*
X223128880Y-75367949D01*
X223128880Y-75367949D02*
X224128880Y-75367949D01*
X223128880Y-75844140D02*
X224128880Y-75844140D01*
X224128880Y-75844140D02*
X224128880Y-76082235D01*
X224128880Y-76082235D02*
X224081261Y-76225092D01*
X224081261Y-76225092D02*
X223986023Y-76320330D01*
X223986023Y-76320330D02*
X223890785Y-76367949D01*
X223890785Y-76367949D02*
X223700309Y-76415568D01*
X223700309Y-76415568D02*
X223557452Y-76415568D01*
X223557452Y-76415568D02*
X223366976Y-76367949D01*
X223366976Y-76367949D02*
X223271738Y-76320330D01*
X223271738Y-76320330D02*
X223176500Y-76225092D01*
X223176500Y-76225092D02*
X223128880Y-76082235D01*
X223128880Y-76082235D02*
X223128880Y-75844140D01*
D14*
X232666666Y-89454819D02*
X232666666Y-90169104D01*
X232666666Y-90169104D02*
X232619047Y-90311961D01*
X232619047Y-90311961D02*
X232523809Y-90407200D01*
X232523809Y-90407200D02*
X232380952Y-90454819D01*
X232380952Y-90454819D02*
X232285714Y-90454819D01*
X233190476Y-90454819D02*
X233380952Y-90454819D01*
X233380952Y-90454819D02*
X233476190Y-90407200D01*
X233476190Y-90407200D02*
X233523809Y-90359580D01*
X233523809Y-90359580D02*
X233619047Y-90216723D01*
X233619047Y-90216723D02*
X233666666Y-90026247D01*
X233666666Y-90026247D02*
X233666666Y-89645295D01*
X233666666Y-89645295D02*
X233619047Y-89550057D01*
X233619047Y-89550057D02*
X233571428Y-89502438D01*
X233571428Y-89502438D02*
X233476190Y-89454819D01*
X233476190Y-89454819D02*
X233285714Y-89454819D01*
X233285714Y-89454819D02*
X233190476Y-89502438D01*
X233190476Y-89502438D02*
X233142857Y-89550057D01*
X233142857Y-89550057D02*
X233095238Y-89645295D01*
X233095238Y-89645295D02*
X233095238Y-89883390D01*
X233095238Y-89883390D02*
X233142857Y-89978628D01*
X233142857Y-89978628D02*
X233190476Y-90026247D01*
X233190476Y-90026247D02*
X233285714Y-90073866D01*
X233285714Y-90073866D02*
X233476190Y-90073866D01*
X233476190Y-90073866D02*
X233571428Y-90026247D01*
X233571428Y-90026247D02*
X233619047Y-89978628D01*
X233619047Y-89978628D02*
X233666666Y-89883390D01*
X182916666Y-60954819D02*
X182916666Y-61669104D01*
X182916666Y-61669104D02*
X182869047Y-61811961D01*
X182869047Y-61811961D02*
X182773809Y-61907200D01*
X182773809Y-61907200D02*
X182630952Y-61954819D01*
X182630952Y-61954819D02*
X182535714Y-61954819D01*
X183916666Y-61954819D02*
X183345238Y-61954819D01*
X183630952Y-61954819D02*
X183630952Y-60954819D01*
X183630952Y-60954819D02*
X183535714Y-61097676D01*
X183535714Y-61097676D02*
X183440476Y-61192914D01*
X183440476Y-61192914D02*
X183345238Y-61240533D01*
X197448095Y-70954819D02*
X197448095Y-71764342D01*
X197448095Y-71764342D02*
X197495714Y-71859580D01*
X197495714Y-71859580D02*
X197543333Y-71907200D01*
X197543333Y-71907200D02*
X197638571Y-71954819D01*
X197638571Y-71954819D02*
X197829047Y-71954819D01*
X197829047Y-71954819D02*
X197924285Y-71907200D01*
X197924285Y-71907200D02*
X197971904Y-71859580D01*
X197971904Y-71859580D02*
X198019523Y-71764342D01*
X198019523Y-71764342D02*
X198019523Y-70954819D01*
X198400476Y-70954819D02*
X199019523Y-70954819D01*
X199019523Y-70954819D02*
X198686190Y-71335771D01*
X198686190Y-71335771D02*
X198829047Y-71335771D01*
X198829047Y-71335771D02*
X198924285Y-71383390D01*
X198924285Y-71383390D02*
X198971904Y-71431009D01*
X198971904Y-71431009D02*
X199019523Y-71526247D01*
X199019523Y-71526247D02*
X199019523Y-71764342D01*
X199019523Y-71764342D02*
X198971904Y-71859580D01*
X198971904Y-71859580D02*
X198924285Y-71907200D01*
X198924285Y-71907200D02*
X198829047Y-71954819D01*
X198829047Y-71954819D02*
X198543333Y-71954819D01*
X198543333Y-71954819D02*
X198448095Y-71907200D01*
X198448095Y-71907200D02*
X198400476Y-71859580D01*
X212763095Y-72379819D02*
X212763095Y-73189342D01*
X212763095Y-73189342D02*
X212810714Y-73284580D01*
X212810714Y-73284580D02*
X212858333Y-73332200D01*
X212858333Y-73332200D02*
X212953571Y-73379819D01*
X212953571Y-73379819D02*
X213144047Y-73379819D01*
X213144047Y-73379819D02*
X213239285Y-73332200D01*
X213239285Y-73332200D02*
X213286904Y-73284580D01*
X213286904Y-73284580D02*
X213334523Y-73189342D01*
X213334523Y-73189342D02*
X213334523Y-72379819D01*
X213763095Y-72475057D02*
X213810714Y-72427438D01*
X213810714Y-72427438D02*
X213905952Y-72379819D01*
X213905952Y-72379819D02*
X214144047Y-72379819D01*
X214144047Y-72379819D02*
X214239285Y-72427438D01*
X214239285Y-72427438D02*
X214286904Y-72475057D01*
X214286904Y-72475057D02*
X214334523Y-72570295D01*
X214334523Y-72570295D02*
X214334523Y-72665533D01*
X214334523Y-72665533D02*
X214286904Y-72808390D01*
X214286904Y-72808390D02*
X213715476Y-73379819D01*
X213715476Y-73379819D02*
X214334523Y-73379819D01*
X197070833Y-108854819D02*
X196737500Y-108378628D01*
X196499405Y-108854819D02*
X196499405Y-107854819D01*
X196499405Y-107854819D02*
X196880357Y-107854819D01*
X196880357Y-107854819D02*
X196975595Y-107902438D01*
X196975595Y-107902438D02*
X197023214Y-107950057D01*
X197023214Y-107950057D02*
X197070833Y-108045295D01*
X197070833Y-108045295D02*
X197070833Y-108188152D01*
X197070833Y-108188152D02*
X197023214Y-108283390D01*
X197023214Y-108283390D02*
X196975595Y-108331009D01*
X196975595Y-108331009D02*
X196880357Y-108378628D01*
X196880357Y-108378628D02*
X196499405Y-108378628D01*
X197927976Y-108188152D02*
X197927976Y-108854819D01*
X197689881Y-107807200D02*
X197451786Y-108521485D01*
X197451786Y-108521485D02*
X198070833Y-108521485D01*
X227666666Y-89454819D02*
X227666666Y-90169104D01*
X227666666Y-90169104D02*
X227619047Y-90311961D01*
X227619047Y-90311961D02*
X227523809Y-90407200D01*
X227523809Y-90407200D02*
X227380952Y-90454819D01*
X227380952Y-90454819D02*
X227285714Y-90454819D01*
X228285714Y-89883390D02*
X228190476Y-89835771D01*
X228190476Y-89835771D02*
X228142857Y-89788152D01*
X228142857Y-89788152D02*
X228095238Y-89692914D01*
X228095238Y-89692914D02*
X228095238Y-89645295D01*
X228095238Y-89645295D02*
X228142857Y-89550057D01*
X228142857Y-89550057D02*
X228190476Y-89502438D01*
X228190476Y-89502438D02*
X228285714Y-89454819D01*
X228285714Y-89454819D02*
X228476190Y-89454819D01*
X228476190Y-89454819D02*
X228571428Y-89502438D01*
X228571428Y-89502438D02*
X228619047Y-89550057D01*
X228619047Y-89550057D02*
X228666666Y-89645295D01*
X228666666Y-89645295D02*
X228666666Y-89692914D01*
X228666666Y-89692914D02*
X228619047Y-89788152D01*
X228619047Y-89788152D02*
X228571428Y-89835771D01*
X228571428Y-89835771D02*
X228476190Y-89883390D01*
X228476190Y-89883390D02*
X228285714Y-89883390D01*
X228285714Y-89883390D02*
X228190476Y-89931009D01*
X228190476Y-89931009D02*
X228142857Y-89978628D01*
X228142857Y-89978628D02*
X228095238Y-90073866D01*
X228095238Y-90073866D02*
X228095238Y-90264342D01*
X228095238Y-90264342D02*
X228142857Y-90359580D01*
X228142857Y-90359580D02*
X228190476Y-90407200D01*
X228190476Y-90407200D02*
X228285714Y-90454819D01*
X228285714Y-90454819D02*
X228476190Y-90454819D01*
X228476190Y-90454819D02*
X228571428Y-90407200D01*
X228571428Y-90407200D02*
X228619047Y-90359580D01*
X228619047Y-90359580D02*
X228666666Y-90264342D01*
X228666666Y-90264342D02*
X228666666Y-90073866D01*
X228666666Y-90073866D02*
X228619047Y-89978628D01*
X228619047Y-89978628D02*
X228571428Y-89931009D01*
X228571428Y-89931009D02*
X228476190Y-89883390D01*
X227190476Y-101454819D02*
X227190476Y-102169104D01*
X227190476Y-102169104D02*
X227142857Y-102311961D01*
X227142857Y-102311961D02*
X227047619Y-102407200D01*
X227047619Y-102407200D02*
X226904762Y-102454819D01*
X226904762Y-102454819D02*
X226809524Y-102454819D01*
X228190476Y-102454819D02*
X227619048Y-102454819D01*
X227904762Y-102454819D02*
X227904762Y-101454819D01*
X227904762Y-101454819D02*
X227809524Y-101597676D01*
X227809524Y-101597676D02*
X227714286Y-101692914D01*
X227714286Y-101692914D02*
X227619048Y-101740533D01*
X228809524Y-101454819D02*
X228904762Y-101454819D01*
X228904762Y-101454819D02*
X229000000Y-101502438D01*
X229000000Y-101502438D02*
X229047619Y-101550057D01*
X229047619Y-101550057D02*
X229095238Y-101645295D01*
X229095238Y-101645295D02*
X229142857Y-101835771D01*
X229142857Y-101835771D02*
X229142857Y-102073866D01*
X229142857Y-102073866D02*
X229095238Y-102264342D01*
X229095238Y-102264342D02*
X229047619Y-102359580D01*
X229047619Y-102359580D02*
X229000000Y-102407200D01*
X229000000Y-102407200D02*
X228904762Y-102454819D01*
X228904762Y-102454819D02*
X228809524Y-102454819D01*
X228809524Y-102454819D02*
X228714286Y-102407200D01*
X228714286Y-102407200D02*
X228666667Y-102359580D01*
X228666667Y-102359580D02*
X228619048Y-102264342D01*
X228619048Y-102264342D02*
X228571429Y-102073866D01*
X228571429Y-102073866D02*
X228571429Y-101835771D01*
X228571429Y-101835771D02*
X228619048Y-101645295D01*
X228619048Y-101645295D02*
X228666667Y-101550057D01*
X228666667Y-101550057D02*
X228714286Y-101502438D01*
X228714286Y-101502438D02*
X228809524Y-101454819D01*
X219609580Y-69416666D02*
X219657200Y-69464285D01*
X219657200Y-69464285D02*
X219704819Y-69607142D01*
X219704819Y-69607142D02*
X219704819Y-69702380D01*
X219704819Y-69702380D02*
X219657200Y-69845237D01*
X219657200Y-69845237D02*
X219561961Y-69940475D01*
X219561961Y-69940475D02*
X219466723Y-69988094D01*
X219466723Y-69988094D02*
X219276247Y-70035713D01*
X219276247Y-70035713D02*
X219133390Y-70035713D01*
X219133390Y-70035713D02*
X218942914Y-69988094D01*
X218942914Y-69988094D02*
X218847676Y-69940475D01*
X218847676Y-69940475D02*
X218752438Y-69845237D01*
X218752438Y-69845237D02*
X218704819Y-69702380D01*
X218704819Y-69702380D02*
X218704819Y-69607142D01*
X218704819Y-69607142D02*
X218752438Y-69464285D01*
X218752438Y-69464285D02*
X218800057Y-69416666D01*
X218800057Y-69035713D02*
X218752438Y-68988094D01*
X218752438Y-68988094D02*
X218704819Y-68892856D01*
X218704819Y-68892856D02*
X218704819Y-68654761D01*
X218704819Y-68654761D02*
X218752438Y-68559523D01*
X218752438Y-68559523D02*
X218800057Y-68511904D01*
X218800057Y-68511904D02*
X218895295Y-68464285D01*
X218895295Y-68464285D02*
X218990533Y-68464285D01*
X218990533Y-68464285D02*
X219133390Y-68511904D01*
X219133390Y-68511904D02*
X219704819Y-69083332D01*
X219704819Y-69083332D02*
X219704819Y-68464285D01*
X207550057Y-120095238D02*
X207502438Y-120190476D01*
X207502438Y-120190476D02*
X207407200Y-120285714D01*
X207407200Y-120285714D02*
X207264342Y-120428571D01*
X207264342Y-120428571D02*
X207216723Y-120523809D01*
X207216723Y-120523809D02*
X207216723Y-120619047D01*
X207454819Y-120571428D02*
X207407200Y-120666666D01*
X207407200Y-120666666D02*
X207311961Y-120761904D01*
X207311961Y-120761904D02*
X207121485Y-120809523D01*
X207121485Y-120809523D02*
X206788152Y-120809523D01*
X206788152Y-120809523D02*
X206597676Y-120761904D01*
X206597676Y-120761904D02*
X206502438Y-120666666D01*
X206502438Y-120666666D02*
X206454819Y-120571428D01*
X206454819Y-120571428D02*
X206454819Y-120380952D01*
X206454819Y-120380952D02*
X206502438Y-120285714D01*
X206502438Y-120285714D02*
X206597676Y-120190476D01*
X206597676Y-120190476D02*
X206788152Y-120142857D01*
X206788152Y-120142857D02*
X207121485Y-120142857D01*
X207121485Y-120142857D02*
X207311961Y-120190476D01*
X207311961Y-120190476D02*
X207407200Y-120285714D01*
X207407200Y-120285714D02*
X207454819Y-120380952D01*
X207454819Y-120380952D02*
X207454819Y-120571428D01*
X206788152Y-119285714D02*
X207454819Y-119285714D01*
X206407200Y-119523809D02*
X207121485Y-119761904D01*
X207121485Y-119761904D02*
X207121485Y-119142857D01*
X200304819Y-115534404D02*
X201114342Y-115534404D01*
X201114342Y-115534404D02*
X201209580Y-115486785D01*
X201209580Y-115486785D02*
X201257200Y-115439166D01*
X201257200Y-115439166D02*
X201304819Y-115343928D01*
X201304819Y-115343928D02*
X201304819Y-115153452D01*
X201304819Y-115153452D02*
X201257200Y-115058214D01*
X201257200Y-115058214D02*
X201209580Y-115010595D01*
X201209580Y-115010595D02*
X201114342Y-114962976D01*
X201114342Y-114962976D02*
X200304819Y-114962976D01*
X200304819Y-114058214D02*
X200304819Y-114248690D01*
X200304819Y-114248690D02*
X200352438Y-114343928D01*
X200352438Y-114343928D02*
X200400057Y-114391547D01*
X200400057Y-114391547D02*
X200542914Y-114486785D01*
X200542914Y-114486785D02*
X200733390Y-114534404D01*
X200733390Y-114534404D02*
X201114342Y-114534404D01*
X201114342Y-114534404D02*
X201209580Y-114486785D01*
X201209580Y-114486785D02*
X201257200Y-114439166D01*
X201257200Y-114439166D02*
X201304819Y-114343928D01*
X201304819Y-114343928D02*
X201304819Y-114153452D01*
X201304819Y-114153452D02*
X201257200Y-114058214D01*
X201257200Y-114058214D02*
X201209580Y-114010595D01*
X201209580Y-114010595D02*
X201114342Y-113962976D01*
X201114342Y-113962976D02*
X200876247Y-113962976D01*
X200876247Y-113962976D02*
X200781009Y-114010595D01*
X200781009Y-114010595D02*
X200733390Y-114058214D01*
X200733390Y-114058214D02*
X200685771Y-114153452D01*
X200685771Y-114153452D02*
X200685771Y-114343928D01*
X200685771Y-114343928D02*
X200733390Y-114439166D01*
X200733390Y-114439166D02*
X200781009Y-114486785D01*
X200781009Y-114486785D02*
X200876247Y-114534404D01*
X191488095Y-84954819D02*
X191488095Y-85764342D01*
X191488095Y-85764342D02*
X191535714Y-85859580D01*
X191535714Y-85859580D02*
X191583333Y-85907200D01*
X191583333Y-85907200D02*
X191678571Y-85954819D01*
X191678571Y-85954819D02*
X191869047Y-85954819D01*
X191869047Y-85954819D02*
X191964285Y-85907200D01*
X191964285Y-85907200D02*
X192011904Y-85859580D01*
X192011904Y-85859580D02*
X192059523Y-85764342D01*
X192059523Y-85764342D02*
X192059523Y-84954819D01*
X193011904Y-84954819D02*
X192535714Y-84954819D01*
X192535714Y-84954819D02*
X192488095Y-85431009D01*
X192488095Y-85431009D02*
X192535714Y-85383390D01*
X192535714Y-85383390D02*
X192630952Y-85335771D01*
X192630952Y-85335771D02*
X192869047Y-85335771D01*
X192869047Y-85335771D02*
X192964285Y-85383390D01*
X192964285Y-85383390D02*
X193011904Y-85431009D01*
X193011904Y-85431009D02*
X193059523Y-85526247D01*
X193059523Y-85526247D02*
X193059523Y-85764342D01*
X193059523Y-85764342D02*
X193011904Y-85859580D01*
X193011904Y-85859580D02*
X192964285Y-85907200D01*
X192964285Y-85907200D02*
X192869047Y-85954819D01*
X192869047Y-85954819D02*
X192630952Y-85954819D01*
X192630952Y-85954819D02*
X192535714Y-85907200D01*
X192535714Y-85907200D02*
X192488095Y-85859580D01*
X227454819Y-82833333D02*
X228169104Y-82833333D01*
X228169104Y-82833333D02*
X228311961Y-82880952D01*
X228311961Y-82880952D02*
X228407200Y-82976190D01*
X228407200Y-82976190D02*
X228454819Y-83119047D01*
X228454819Y-83119047D02*
X228454819Y-83214285D01*
X227454819Y-81880952D02*
X227454819Y-82357142D01*
X227454819Y-82357142D02*
X227931009Y-82404761D01*
X227931009Y-82404761D02*
X227883390Y-82357142D01*
X227883390Y-82357142D02*
X227835771Y-82261904D01*
X227835771Y-82261904D02*
X227835771Y-82023809D01*
X227835771Y-82023809D02*
X227883390Y-81928571D01*
X227883390Y-81928571D02*
X227931009Y-81880952D01*
X227931009Y-81880952D02*
X228026247Y-81833333D01*
X228026247Y-81833333D02*
X228264342Y-81833333D01*
X228264342Y-81833333D02*
X228359580Y-81880952D01*
X228359580Y-81880952D02*
X228407200Y-81928571D01*
X228407200Y-81928571D02*
X228454819Y-82023809D01*
X228454819Y-82023809D02*
X228454819Y-82261904D01*
X228454819Y-82261904D02*
X228407200Y-82357142D01*
X228407200Y-82357142D02*
X228359580Y-82404761D01*
X202533333Y-108903569D02*
X202200000Y-108427378D01*
X201961905Y-108903569D02*
X201961905Y-107903569D01*
X201961905Y-107903569D02*
X202342857Y-107903569D01*
X202342857Y-107903569D02*
X202438095Y-107951188D01*
X202438095Y-107951188D02*
X202485714Y-107998807D01*
X202485714Y-107998807D02*
X202533333Y-108094045D01*
X202533333Y-108094045D02*
X202533333Y-108236902D01*
X202533333Y-108236902D02*
X202485714Y-108332140D01*
X202485714Y-108332140D02*
X202438095Y-108379759D01*
X202438095Y-108379759D02*
X202342857Y-108427378D01*
X202342857Y-108427378D02*
X201961905Y-108427378D01*
X203438095Y-107903569D02*
X202961905Y-107903569D01*
X202961905Y-107903569D02*
X202914286Y-108379759D01*
X202914286Y-108379759D02*
X202961905Y-108332140D01*
X202961905Y-108332140D02*
X203057143Y-108284521D01*
X203057143Y-108284521D02*
X203295238Y-108284521D01*
X203295238Y-108284521D02*
X203390476Y-108332140D01*
X203390476Y-108332140D02*
X203438095Y-108379759D01*
X203438095Y-108379759D02*
X203485714Y-108474997D01*
X203485714Y-108474997D02*
X203485714Y-108713092D01*
X203485714Y-108713092D02*
X203438095Y-108808330D01*
X203438095Y-108808330D02*
X203390476Y-108855950D01*
X203390476Y-108855950D02*
X203295238Y-108903569D01*
X203295238Y-108903569D02*
X203057143Y-108903569D01*
X203057143Y-108903569D02*
X202961905Y-108855950D01*
X202961905Y-108855950D02*
X202914286Y-108808330D01*
X201133390Y-120095238D02*
X201085771Y-120190476D01*
X201085771Y-120190476D02*
X200990533Y-120285714D01*
X200990533Y-120285714D02*
X200847675Y-120428571D01*
X200847675Y-120428571D02*
X200800056Y-120523809D01*
X200800056Y-120523809D02*
X200800056Y-120619047D01*
X201038152Y-120571428D02*
X200990533Y-120666666D01*
X200990533Y-120666666D02*
X200895294Y-120761904D01*
X200895294Y-120761904D02*
X200704818Y-120809523D01*
X200704818Y-120809523D02*
X200371485Y-120809523D01*
X200371485Y-120809523D02*
X200181009Y-120761904D01*
X200181009Y-120761904D02*
X200085771Y-120666666D01*
X200085771Y-120666666D02*
X200038152Y-120571428D01*
X200038152Y-120571428D02*
X200038152Y-120380952D01*
X200038152Y-120380952D02*
X200085771Y-120285714D01*
X200085771Y-120285714D02*
X200181009Y-120190476D01*
X200181009Y-120190476D02*
X200371485Y-120142857D01*
X200371485Y-120142857D02*
X200704818Y-120142857D01*
X200704818Y-120142857D02*
X200895294Y-120190476D01*
X200895294Y-120190476D02*
X200990533Y-120285714D01*
X200990533Y-120285714D02*
X201038152Y-120380952D01*
X201038152Y-120380952D02*
X201038152Y-120571428D01*
X200038152Y-119809523D02*
X200038152Y-119190476D01*
X200038152Y-119190476D02*
X200419104Y-119523809D01*
X200419104Y-119523809D02*
X200419104Y-119380952D01*
X200419104Y-119380952D02*
X200466723Y-119285714D01*
X200466723Y-119285714D02*
X200514342Y-119238095D01*
X200514342Y-119238095D02*
X200609580Y-119190476D01*
X200609580Y-119190476D02*
X200847675Y-119190476D01*
X200847675Y-119190476D02*
X200942913Y-119238095D01*
X200942913Y-119238095D02*
X200990533Y-119285714D01*
X200990533Y-119285714D02*
X201038152Y-119380952D01*
X201038152Y-119380952D02*
X201038152Y-119666666D01*
X201038152Y-119666666D02*
X200990533Y-119761904D01*
X200990533Y-119761904D02*
X200942913Y-119809523D01*
X204225000Y-77781580D02*
X204177381Y-77829200D01*
X204177381Y-77829200D02*
X204034524Y-77876819D01*
X204034524Y-77876819D02*
X203939286Y-77876819D01*
X203939286Y-77876819D02*
X203796429Y-77829200D01*
X203796429Y-77829200D02*
X203701191Y-77733961D01*
X203701191Y-77733961D02*
X203653572Y-77638723D01*
X203653572Y-77638723D02*
X203605953Y-77448247D01*
X203605953Y-77448247D02*
X203605953Y-77305390D01*
X203605953Y-77305390D02*
X203653572Y-77114914D01*
X203653572Y-77114914D02*
X203701191Y-77019676D01*
X203701191Y-77019676D02*
X203796429Y-76924438D01*
X203796429Y-76924438D02*
X203939286Y-76876819D01*
X203939286Y-76876819D02*
X204034524Y-76876819D01*
X204034524Y-76876819D02*
X204177381Y-76924438D01*
X204177381Y-76924438D02*
X204225000Y-76972057D01*
X204558334Y-76876819D02*
X205177381Y-76876819D01*
X205177381Y-76876819D02*
X204844048Y-77257771D01*
X204844048Y-77257771D02*
X204986905Y-77257771D01*
X204986905Y-77257771D02*
X205082143Y-77305390D01*
X205082143Y-77305390D02*
X205129762Y-77353009D01*
X205129762Y-77353009D02*
X205177381Y-77448247D01*
X205177381Y-77448247D02*
X205177381Y-77686342D01*
X205177381Y-77686342D02*
X205129762Y-77781580D01*
X205129762Y-77781580D02*
X205082143Y-77829200D01*
X205082143Y-77829200D02*
X204986905Y-77876819D01*
X204986905Y-77876819D02*
X204701191Y-77876819D01*
X204701191Y-77876819D02*
X204605953Y-77829200D01*
X204605953Y-77829200D02*
X204558334Y-77781580D01*
X181304819Y-90848333D02*
X182019104Y-90848333D01*
X182019104Y-90848333D02*
X182161961Y-90895952D01*
X182161961Y-90895952D02*
X182257200Y-90991190D01*
X182257200Y-90991190D02*
X182304819Y-91134047D01*
X182304819Y-91134047D02*
X182304819Y-91229285D01*
X181304819Y-90467380D02*
X181304819Y-89800714D01*
X181304819Y-89800714D02*
X182304819Y-90229285D01*
X217370833Y-65204819D02*
X217037500Y-64728628D01*
X216799405Y-65204819D02*
X216799405Y-64204819D01*
X216799405Y-64204819D02*
X217180357Y-64204819D01*
X217180357Y-64204819D02*
X217275595Y-64252438D01*
X217275595Y-64252438D02*
X217323214Y-64300057D01*
X217323214Y-64300057D02*
X217370833Y-64395295D01*
X217370833Y-64395295D02*
X217370833Y-64538152D01*
X217370833Y-64538152D02*
X217323214Y-64633390D01*
X217323214Y-64633390D02*
X217275595Y-64681009D01*
X217275595Y-64681009D02*
X217180357Y-64728628D01*
X217180357Y-64728628D02*
X216799405Y-64728628D01*
X217704167Y-64204819D02*
X218323214Y-64204819D01*
X218323214Y-64204819D02*
X217989881Y-64585771D01*
X217989881Y-64585771D02*
X218132738Y-64585771D01*
X218132738Y-64585771D02*
X218227976Y-64633390D01*
X218227976Y-64633390D02*
X218275595Y-64681009D01*
X218275595Y-64681009D02*
X218323214Y-64776247D01*
X218323214Y-64776247D02*
X218323214Y-65014342D01*
X218323214Y-65014342D02*
X218275595Y-65109580D01*
X218275595Y-65109580D02*
X218227976Y-65157200D01*
X218227976Y-65157200D02*
X218132738Y-65204819D01*
X218132738Y-65204819D02*
X217847024Y-65204819D01*
X217847024Y-65204819D02*
X217751786Y-65157200D01*
X217751786Y-65157200D02*
X217704167Y-65109580D01*
X213154761Y-98704819D02*
X212821428Y-98228628D01*
X212583333Y-98704819D02*
X212583333Y-97704819D01*
X212583333Y-97704819D02*
X212964285Y-97704819D01*
X212964285Y-97704819D02*
X213059523Y-97752438D01*
X213059523Y-97752438D02*
X213107142Y-97800057D01*
X213107142Y-97800057D02*
X213154761Y-97895295D01*
X213154761Y-97895295D02*
X213154761Y-98038152D01*
X213154761Y-98038152D02*
X213107142Y-98133390D01*
X213107142Y-98133390D02*
X213059523Y-98181009D01*
X213059523Y-98181009D02*
X212964285Y-98228628D01*
X212964285Y-98228628D02*
X212583333Y-98228628D01*
X213440476Y-97704819D02*
X213773809Y-98704819D01*
X213773809Y-98704819D02*
X214107142Y-97704819D01*
X214964285Y-98704819D02*
X214392857Y-98704819D01*
X214678571Y-98704819D02*
X214678571Y-97704819D01*
X214678571Y-97704819D02*
X214583333Y-97847676D01*
X214583333Y-97847676D02*
X214488095Y-97942914D01*
X214488095Y-97942914D02*
X214392857Y-97990533D01*
X196166666Y-60954819D02*
X196166666Y-61669104D01*
X196166666Y-61669104D02*
X196119047Y-61811961D01*
X196119047Y-61811961D02*
X196023809Y-61907200D01*
X196023809Y-61907200D02*
X195880952Y-61954819D01*
X195880952Y-61954819D02*
X195785714Y-61954819D01*
X196595238Y-61050057D02*
X196642857Y-61002438D01*
X196642857Y-61002438D02*
X196738095Y-60954819D01*
X196738095Y-60954819D02*
X196976190Y-60954819D01*
X196976190Y-60954819D02*
X197071428Y-61002438D01*
X197071428Y-61002438D02*
X197119047Y-61050057D01*
X197119047Y-61050057D02*
X197166666Y-61145295D01*
X197166666Y-61145295D02*
X197166666Y-61240533D01*
X197166666Y-61240533D02*
X197119047Y-61383390D01*
X197119047Y-61383390D02*
X196547619Y-61954819D01*
X196547619Y-61954819D02*
X197166666Y-61954819D01*
X211870833Y-65454819D02*
X211537500Y-64978628D01*
X211299405Y-65454819D02*
X211299405Y-64454819D01*
X211299405Y-64454819D02*
X211680357Y-64454819D01*
X211680357Y-64454819D02*
X211775595Y-64502438D01*
X211775595Y-64502438D02*
X211823214Y-64550057D01*
X211823214Y-64550057D02*
X211870833Y-64645295D01*
X211870833Y-64645295D02*
X211870833Y-64788152D01*
X211870833Y-64788152D02*
X211823214Y-64883390D01*
X211823214Y-64883390D02*
X211775595Y-64931009D01*
X211775595Y-64931009D02*
X211680357Y-64978628D01*
X211680357Y-64978628D02*
X211299405Y-64978628D01*
X212823214Y-65454819D02*
X212251786Y-65454819D01*
X212537500Y-65454819D02*
X212537500Y-64454819D01*
X212537500Y-64454819D02*
X212442262Y-64597676D01*
X212442262Y-64597676D02*
X212347024Y-64692914D01*
X212347024Y-64692914D02*
X212251786Y-64740533D01*
X203761905Y-98954819D02*
X203761905Y-97954819D01*
X203761905Y-97954819D02*
X204000000Y-97954819D01*
X204000000Y-97954819D02*
X204142857Y-98002438D01*
X204142857Y-98002438D02*
X204238095Y-98097676D01*
X204238095Y-98097676D02*
X204285714Y-98192914D01*
X204285714Y-98192914D02*
X204333333Y-98383390D01*
X204333333Y-98383390D02*
X204333333Y-98526247D01*
X204333333Y-98526247D02*
X204285714Y-98716723D01*
X204285714Y-98716723D02*
X204238095Y-98811961D01*
X204238095Y-98811961D02*
X204142857Y-98907200D01*
X204142857Y-98907200D02*
X204000000Y-98954819D01*
X204000000Y-98954819D02*
X203761905Y-98954819D01*
X204714286Y-98050057D02*
X204761905Y-98002438D01*
X204761905Y-98002438D02*
X204857143Y-97954819D01*
X204857143Y-97954819D02*
X205095238Y-97954819D01*
X205095238Y-97954819D02*
X205190476Y-98002438D01*
X205190476Y-98002438D02*
X205238095Y-98050057D01*
X205238095Y-98050057D02*
X205285714Y-98145295D01*
X205285714Y-98145295D02*
X205285714Y-98240533D01*
X205285714Y-98240533D02*
X205238095Y-98383390D01*
X205238095Y-98383390D02*
X204666667Y-98954819D01*
X204666667Y-98954819D02*
X205285714Y-98954819D01*
X219609580Y-86416666D02*
X219657200Y-86464285D01*
X219657200Y-86464285D02*
X219704819Y-86607142D01*
X219704819Y-86607142D02*
X219704819Y-86702380D01*
X219704819Y-86702380D02*
X219657200Y-86845237D01*
X219657200Y-86845237D02*
X219561961Y-86940475D01*
X219561961Y-86940475D02*
X219466723Y-86988094D01*
X219466723Y-86988094D02*
X219276247Y-87035713D01*
X219276247Y-87035713D02*
X219133390Y-87035713D01*
X219133390Y-87035713D02*
X218942914Y-86988094D01*
X218942914Y-86988094D02*
X218847676Y-86940475D01*
X218847676Y-86940475D02*
X218752438Y-86845237D01*
X218752438Y-86845237D02*
X218704819Y-86702380D01*
X218704819Y-86702380D02*
X218704819Y-86607142D01*
X218704819Y-86607142D02*
X218752438Y-86464285D01*
X218752438Y-86464285D02*
X218800057Y-86416666D01*
X218704819Y-85559523D02*
X218704819Y-85749999D01*
X218704819Y-85749999D02*
X218752438Y-85845237D01*
X218752438Y-85845237D02*
X218800057Y-85892856D01*
X218800057Y-85892856D02*
X218942914Y-85988094D01*
X218942914Y-85988094D02*
X219133390Y-86035713D01*
X219133390Y-86035713D02*
X219514342Y-86035713D01*
X219514342Y-86035713D02*
X219609580Y-85988094D01*
X219609580Y-85988094D02*
X219657200Y-85940475D01*
X219657200Y-85940475D02*
X219704819Y-85845237D01*
X219704819Y-85845237D02*
X219704819Y-85654761D01*
X219704819Y-85654761D02*
X219657200Y-85559523D01*
X219657200Y-85559523D02*
X219609580Y-85511904D01*
X219609580Y-85511904D02*
X219514342Y-85464285D01*
X219514342Y-85464285D02*
X219276247Y-85464285D01*
X219276247Y-85464285D02*
X219181009Y-85511904D01*
X219181009Y-85511904D02*
X219133390Y-85559523D01*
X219133390Y-85559523D02*
X219085771Y-85654761D01*
X219085771Y-85654761D02*
X219085771Y-85845237D01*
X219085771Y-85845237D02*
X219133390Y-85940475D01*
X219133390Y-85940475D02*
X219181009Y-85988094D01*
X219181009Y-85988094D02*
X219276247Y-86035713D01*
X205166666Y-59954819D02*
X205166666Y-60669104D01*
X205166666Y-60669104D02*
X205119047Y-60811961D01*
X205119047Y-60811961D02*
X205023809Y-60907200D01*
X205023809Y-60907200D02*
X204880952Y-60954819D01*
X204880952Y-60954819D02*
X204785714Y-60954819D01*
X205547619Y-59954819D02*
X206166666Y-59954819D01*
X206166666Y-59954819D02*
X205833333Y-60335771D01*
X205833333Y-60335771D02*
X205976190Y-60335771D01*
X205976190Y-60335771D02*
X206071428Y-60383390D01*
X206071428Y-60383390D02*
X206119047Y-60431009D01*
X206119047Y-60431009D02*
X206166666Y-60526247D01*
X206166666Y-60526247D02*
X206166666Y-60764342D01*
X206166666Y-60764342D02*
X206119047Y-60859580D01*
X206119047Y-60859580D02*
X206071428Y-60907200D01*
X206071428Y-60907200D02*
X205976190Y-60954819D01*
X205976190Y-60954819D02*
X205690476Y-60954819D01*
X205690476Y-60954819D02*
X205595238Y-60907200D01*
X205595238Y-60907200D02*
X205547619Y-60859580D01*
X212763095Y-80716486D02*
X212763095Y-81526009D01*
X212763095Y-81526009D02*
X212810714Y-81621247D01*
X212810714Y-81621247D02*
X212858333Y-81668867D01*
X212858333Y-81668867D02*
X212953571Y-81716486D01*
X212953571Y-81716486D02*
X213144047Y-81716486D01*
X213144047Y-81716486D02*
X213239285Y-81668867D01*
X213239285Y-81668867D02*
X213286904Y-81621247D01*
X213286904Y-81621247D02*
X213334523Y-81526009D01*
X213334523Y-81526009D02*
X213334523Y-80716486D01*
X214334523Y-81716486D02*
X213763095Y-81716486D01*
X214048809Y-81716486D02*
X214048809Y-80716486D01*
X214048809Y-80716486D02*
X213953571Y-80859343D01*
X213953571Y-80859343D02*
X213858333Y-80954581D01*
X213858333Y-80954581D02*
X213763095Y-81002200D01*
X231835476Y-101354819D02*
X231835476Y-102069104D01*
X231835476Y-102069104D02*
X231787857Y-102211961D01*
X231787857Y-102211961D02*
X231692619Y-102307200D01*
X231692619Y-102307200D02*
X231549762Y-102354819D01*
X231549762Y-102354819D02*
X231454524Y-102354819D01*
X232835476Y-102354819D02*
X232264048Y-102354819D01*
X232549762Y-102354819D02*
X232549762Y-101354819D01*
X232549762Y-101354819D02*
X232454524Y-101497676D01*
X232454524Y-101497676D02*
X232359286Y-101592914D01*
X232359286Y-101592914D02*
X232264048Y-101640533D01*
X233787857Y-102354819D02*
X233216429Y-102354819D01*
X233502143Y-102354819D02*
X233502143Y-101354819D01*
X233502143Y-101354819D02*
X233406905Y-101497676D01*
X233406905Y-101497676D02*
X233311667Y-101592914D01*
X233311667Y-101592914D02*
X233216429Y-101640533D01*
X212763095Y-89468152D02*
X212763095Y-90277675D01*
X212763095Y-90277675D02*
X212810714Y-90372913D01*
X212810714Y-90372913D02*
X212858333Y-90420533D01*
X212858333Y-90420533D02*
X212953571Y-90468152D01*
X212953571Y-90468152D02*
X213144047Y-90468152D01*
X213144047Y-90468152D02*
X213239285Y-90420533D01*
X213239285Y-90420533D02*
X213286904Y-90372913D01*
X213286904Y-90372913D02*
X213334523Y-90277675D01*
X213334523Y-90277675D02*
X213334523Y-89468152D01*
X214239285Y-89801485D02*
X214239285Y-90468152D01*
X214001190Y-89420533D02*
X213763095Y-90134818D01*
X213763095Y-90134818D02*
X214382142Y-90134818D01*
X226454819Y-72533333D02*
X227169104Y-72533333D01*
X227169104Y-72533333D02*
X227311961Y-72580952D01*
X227311961Y-72580952D02*
X227407200Y-72676190D01*
X227407200Y-72676190D02*
X227454819Y-72819047D01*
X227454819Y-72819047D02*
X227454819Y-72914285D01*
X226788152Y-71628571D02*
X227454819Y-71628571D01*
X226407200Y-71866666D02*
X227121485Y-72104761D01*
X227121485Y-72104761D02*
X227121485Y-71485714D01*
X221204819Y-95638094D02*
X220204819Y-95638094D01*
X220204819Y-95638094D02*
X220204819Y-95399999D01*
X220204819Y-95399999D02*
X220252438Y-95257142D01*
X220252438Y-95257142D02*
X220347676Y-95161904D01*
X220347676Y-95161904D02*
X220442914Y-95114285D01*
X220442914Y-95114285D02*
X220633390Y-95066666D01*
X220633390Y-95066666D02*
X220776247Y-95066666D01*
X220776247Y-95066666D02*
X220966723Y-95114285D01*
X220966723Y-95114285D02*
X221061961Y-95161904D01*
X221061961Y-95161904D02*
X221157200Y-95257142D01*
X221157200Y-95257142D02*
X221204819Y-95399999D01*
X221204819Y-95399999D02*
X221204819Y-95638094D01*
X220204819Y-94733332D02*
X220204819Y-94114285D01*
X220204819Y-94114285D02*
X220585771Y-94447618D01*
X220585771Y-94447618D02*
X220585771Y-94304761D01*
X220585771Y-94304761D02*
X220633390Y-94209523D01*
X220633390Y-94209523D02*
X220681009Y-94161904D01*
X220681009Y-94161904D02*
X220776247Y-94114285D01*
X220776247Y-94114285D02*
X221014342Y-94114285D01*
X221014342Y-94114285D02*
X221109580Y-94161904D01*
X221109580Y-94161904D02*
X221157200Y-94209523D01*
X221157200Y-94209523D02*
X221204819Y-94304761D01*
X221204819Y-94304761D02*
X221204819Y-94590475D01*
X221204819Y-94590475D02*
X221157200Y-94685713D01*
X221157200Y-94685713D02*
X221109580Y-94733332D01*
X204333333Y-93359580D02*
X204285714Y-93407200D01*
X204285714Y-93407200D02*
X204142857Y-93454819D01*
X204142857Y-93454819D02*
X204047619Y-93454819D01*
X204047619Y-93454819D02*
X203904762Y-93407200D01*
X203904762Y-93407200D02*
X203809524Y-93311961D01*
X203809524Y-93311961D02*
X203761905Y-93216723D01*
X203761905Y-93216723D02*
X203714286Y-93026247D01*
X203714286Y-93026247D02*
X203714286Y-92883390D01*
X203714286Y-92883390D02*
X203761905Y-92692914D01*
X203761905Y-92692914D02*
X203809524Y-92597676D01*
X203809524Y-92597676D02*
X203904762Y-92502438D01*
X203904762Y-92502438D02*
X204047619Y-92454819D01*
X204047619Y-92454819D02*
X204142857Y-92454819D01*
X204142857Y-92454819D02*
X204285714Y-92502438D01*
X204285714Y-92502438D02*
X204333333Y-92550057D01*
X204666667Y-92454819D02*
X205333333Y-92454819D01*
X205333333Y-92454819D02*
X204904762Y-93454819D01*
X204313333Y-88181580D02*
X204265714Y-88229200D01*
X204265714Y-88229200D02*
X204122857Y-88276819D01*
X204122857Y-88276819D02*
X204027619Y-88276819D01*
X204027619Y-88276819D02*
X203884762Y-88229200D01*
X203884762Y-88229200D02*
X203789524Y-88133961D01*
X203789524Y-88133961D02*
X203741905Y-88038723D01*
X203741905Y-88038723D02*
X203694286Y-87848247D01*
X203694286Y-87848247D02*
X203694286Y-87705390D01*
X203694286Y-87705390D02*
X203741905Y-87514914D01*
X203741905Y-87514914D02*
X203789524Y-87419676D01*
X203789524Y-87419676D02*
X203884762Y-87324438D01*
X203884762Y-87324438D02*
X204027619Y-87276819D01*
X204027619Y-87276819D02*
X204122857Y-87276819D01*
X204122857Y-87276819D02*
X204265714Y-87324438D01*
X204265714Y-87324438D02*
X204313333Y-87372057D01*
X205218095Y-87276819D02*
X204741905Y-87276819D01*
X204741905Y-87276819D02*
X204694286Y-87753009D01*
X204694286Y-87753009D02*
X204741905Y-87705390D01*
X204741905Y-87705390D02*
X204837143Y-87657771D01*
X204837143Y-87657771D02*
X205075238Y-87657771D01*
X205075238Y-87657771D02*
X205170476Y-87705390D01*
X205170476Y-87705390D02*
X205218095Y-87753009D01*
X205218095Y-87753009D02*
X205265714Y-87848247D01*
X205265714Y-87848247D02*
X205265714Y-88086342D01*
X205265714Y-88086342D02*
X205218095Y-88181580D01*
X205218095Y-88181580D02*
X205170476Y-88229200D01*
X205170476Y-88229200D02*
X205075238Y-88276819D01*
X205075238Y-88276819D02*
X204837143Y-88276819D01*
X204837143Y-88276819D02*
X204741905Y-88229200D01*
X204741905Y-88229200D02*
X204694286Y-88181580D01*
X188800057Y-120095238D02*
X188752438Y-120190476D01*
X188752438Y-120190476D02*
X188657200Y-120285714D01*
X188657200Y-120285714D02*
X188514342Y-120428571D01*
X188514342Y-120428571D02*
X188466723Y-120523809D01*
X188466723Y-120523809D02*
X188466723Y-120619047D01*
X188704819Y-120571428D02*
X188657200Y-120666666D01*
X188657200Y-120666666D02*
X188561961Y-120761904D01*
X188561961Y-120761904D02*
X188371485Y-120809523D01*
X188371485Y-120809523D02*
X188038152Y-120809523D01*
X188038152Y-120809523D02*
X187847676Y-120761904D01*
X187847676Y-120761904D02*
X187752438Y-120666666D01*
X187752438Y-120666666D02*
X187704819Y-120571428D01*
X187704819Y-120571428D02*
X187704819Y-120380952D01*
X187704819Y-120380952D02*
X187752438Y-120285714D01*
X187752438Y-120285714D02*
X187847676Y-120190476D01*
X187847676Y-120190476D02*
X188038152Y-120142857D01*
X188038152Y-120142857D02*
X188371485Y-120142857D01*
X188371485Y-120142857D02*
X188561961Y-120190476D01*
X188561961Y-120190476D02*
X188657200Y-120285714D01*
X188657200Y-120285714D02*
X188704819Y-120380952D01*
X188704819Y-120380952D02*
X188704819Y-120571428D01*
X188704819Y-119190476D02*
X188704819Y-119761904D01*
X188704819Y-119476190D02*
X187704819Y-119476190D01*
X187704819Y-119476190D02*
X187847676Y-119571428D01*
X187847676Y-119571428D02*
X187942914Y-119666666D01*
X187942914Y-119666666D02*
X187990533Y-119761904D01*
X203761905Y-83454819D02*
X203761905Y-82454819D01*
X203761905Y-82454819D02*
X204000000Y-82454819D01*
X204000000Y-82454819D02*
X204142857Y-82502438D01*
X204142857Y-82502438D02*
X204238095Y-82597676D01*
X204238095Y-82597676D02*
X204285714Y-82692914D01*
X204285714Y-82692914D02*
X204333333Y-82883390D01*
X204333333Y-82883390D02*
X204333333Y-83026247D01*
X204333333Y-83026247D02*
X204285714Y-83216723D01*
X204285714Y-83216723D02*
X204238095Y-83311961D01*
X204238095Y-83311961D02*
X204142857Y-83407200D01*
X204142857Y-83407200D02*
X204000000Y-83454819D01*
X204000000Y-83454819D02*
X203761905Y-83454819D01*
X205285714Y-83454819D02*
X204714286Y-83454819D01*
X205000000Y-83454819D02*
X205000000Y-82454819D01*
X205000000Y-82454819D02*
X204904762Y-82597676D01*
X204904762Y-82597676D02*
X204809524Y-82692914D01*
X204809524Y-82692914D02*
X204714286Y-82740533D01*
X194966724Y-120095238D02*
X194919105Y-120190476D01*
X194919105Y-120190476D02*
X194823867Y-120285714D01*
X194823867Y-120285714D02*
X194681009Y-120428571D01*
X194681009Y-120428571D02*
X194633390Y-120523809D01*
X194633390Y-120523809D02*
X194633390Y-120619047D01*
X194871486Y-120571428D02*
X194823867Y-120666666D01*
X194823867Y-120666666D02*
X194728628Y-120761904D01*
X194728628Y-120761904D02*
X194538152Y-120809523D01*
X194538152Y-120809523D02*
X194204819Y-120809523D01*
X194204819Y-120809523D02*
X194014343Y-120761904D01*
X194014343Y-120761904D02*
X193919105Y-120666666D01*
X193919105Y-120666666D02*
X193871486Y-120571428D01*
X193871486Y-120571428D02*
X193871486Y-120380952D01*
X193871486Y-120380952D02*
X193919105Y-120285714D01*
X193919105Y-120285714D02*
X194014343Y-120190476D01*
X194014343Y-120190476D02*
X194204819Y-120142857D01*
X194204819Y-120142857D02*
X194538152Y-120142857D01*
X194538152Y-120142857D02*
X194728628Y-120190476D01*
X194728628Y-120190476D02*
X194823867Y-120285714D01*
X194823867Y-120285714D02*
X194871486Y-120380952D01*
X194871486Y-120380952D02*
X194871486Y-120571428D01*
X193966724Y-119761904D02*
X193919105Y-119714285D01*
X193919105Y-119714285D02*
X193871486Y-119619047D01*
X193871486Y-119619047D02*
X193871486Y-119380952D01*
X193871486Y-119380952D02*
X193919105Y-119285714D01*
X193919105Y-119285714D02*
X193966724Y-119238095D01*
X193966724Y-119238095D02*
X194061962Y-119190476D01*
X194061962Y-119190476D02*
X194157200Y-119190476D01*
X194157200Y-119190476D02*
X194300057Y-119238095D01*
X194300057Y-119238095D02*
X194871486Y-119809523D01*
X194871486Y-119809523D02*
X194871486Y-119190476D01*
X222795833Y-65454819D02*
X222462500Y-64978628D01*
X222224405Y-65454819D02*
X222224405Y-64454819D01*
X222224405Y-64454819D02*
X222605357Y-64454819D01*
X222605357Y-64454819D02*
X222700595Y-64502438D01*
X222700595Y-64502438D02*
X222748214Y-64550057D01*
X222748214Y-64550057D02*
X222795833Y-64645295D01*
X222795833Y-64645295D02*
X222795833Y-64788152D01*
X222795833Y-64788152D02*
X222748214Y-64883390D01*
X222748214Y-64883390D02*
X222700595Y-64931009D01*
X222700595Y-64931009D02*
X222605357Y-64978628D01*
X222605357Y-64978628D02*
X222224405Y-64978628D01*
X223176786Y-64550057D02*
X223224405Y-64502438D01*
X223224405Y-64502438D02*
X223319643Y-64454819D01*
X223319643Y-64454819D02*
X223557738Y-64454819D01*
X223557738Y-64454819D02*
X223652976Y-64502438D01*
X223652976Y-64502438D02*
X223700595Y-64550057D01*
X223700595Y-64550057D02*
X223748214Y-64645295D01*
X223748214Y-64645295D02*
X223748214Y-64740533D01*
X223748214Y-64740533D02*
X223700595Y-64883390D01*
X223700595Y-64883390D02*
X223129167Y-65454819D01*
X223129167Y-65454819D02*
X223748214Y-65454819D01*
X203833333Y-72359580D02*
X203785714Y-72407200D01*
X203785714Y-72407200D02*
X203642857Y-72454819D01*
X203642857Y-72454819D02*
X203547619Y-72454819D01*
X203547619Y-72454819D02*
X203404762Y-72407200D01*
X203404762Y-72407200D02*
X203309524Y-72311961D01*
X203309524Y-72311961D02*
X203261905Y-72216723D01*
X203261905Y-72216723D02*
X203214286Y-72026247D01*
X203214286Y-72026247D02*
X203214286Y-71883390D01*
X203214286Y-71883390D02*
X203261905Y-71692914D01*
X203261905Y-71692914D02*
X203309524Y-71597676D01*
X203309524Y-71597676D02*
X203404762Y-71502438D01*
X203404762Y-71502438D02*
X203547619Y-71454819D01*
X203547619Y-71454819D02*
X203642857Y-71454819D01*
X203642857Y-71454819D02*
X203785714Y-71502438D01*
X203785714Y-71502438D02*
X203833333Y-71550057D01*
X204785714Y-72454819D02*
X204214286Y-72454819D01*
X204500000Y-72454819D02*
X204500000Y-71454819D01*
X204500000Y-71454819D02*
X204404762Y-71597676D01*
X204404762Y-71597676D02*
X204309524Y-71692914D01*
X204309524Y-71692914D02*
X204214286Y-71740533D01*
X219609580Y-78166666D02*
X219657200Y-78214285D01*
X219657200Y-78214285D02*
X219704819Y-78357142D01*
X219704819Y-78357142D02*
X219704819Y-78452380D01*
X219704819Y-78452380D02*
X219657200Y-78595237D01*
X219657200Y-78595237D02*
X219561961Y-78690475D01*
X219561961Y-78690475D02*
X219466723Y-78738094D01*
X219466723Y-78738094D02*
X219276247Y-78785713D01*
X219276247Y-78785713D02*
X219133390Y-78785713D01*
X219133390Y-78785713D02*
X218942914Y-78738094D01*
X218942914Y-78738094D02*
X218847676Y-78690475D01*
X218847676Y-78690475D02*
X218752438Y-78595237D01*
X218752438Y-78595237D02*
X218704819Y-78452380D01*
X218704819Y-78452380D02*
X218704819Y-78357142D01*
X218704819Y-78357142D02*
X218752438Y-78214285D01*
X218752438Y-78214285D02*
X218800057Y-78166666D01*
X219038152Y-77309523D02*
X219704819Y-77309523D01*
X218657200Y-77547618D02*
X219371485Y-77785713D01*
X219371485Y-77785713D02*
X219371485Y-77166666D01*
X181304819Y-73618333D02*
X182019104Y-73618333D01*
X182019104Y-73618333D02*
X182161961Y-73665952D01*
X182161961Y-73665952D02*
X182257200Y-73761190D01*
X182257200Y-73761190D02*
X182304819Y-73904047D01*
X182304819Y-73904047D02*
X182304819Y-73999285D01*
X181304819Y-72713571D02*
X181304819Y-72904047D01*
X181304819Y-72904047D02*
X181352438Y-72999285D01*
X181352438Y-72999285D02*
X181400057Y-73046904D01*
X181400057Y-73046904D02*
X181542914Y-73142142D01*
X181542914Y-73142142D02*
X181733390Y-73189761D01*
X181733390Y-73189761D02*
X182114342Y-73189761D01*
X182114342Y-73189761D02*
X182209580Y-73142142D01*
X182209580Y-73142142D02*
X182257200Y-73094523D01*
X182257200Y-73094523D02*
X182304819Y-72999285D01*
X182304819Y-72999285D02*
X182304819Y-72808809D01*
X182304819Y-72808809D02*
X182257200Y-72713571D01*
X182257200Y-72713571D02*
X182209580Y-72665952D01*
X182209580Y-72665952D02*
X182114342Y-72618333D01*
X182114342Y-72618333D02*
X181876247Y-72618333D01*
X181876247Y-72618333D02*
X181781009Y-72665952D01*
X181781009Y-72665952D02*
X181733390Y-72713571D01*
X181733390Y-72713571D02*
X181685771Y-72808809D01*
X181685771Y-72808809D02*
X181685771Y-72999285D01*
X181685771Y-72999285D02*
X181733390Y-73094523D01*
X181733390Y-73094523D02*
X181781009Y-73142142D01*
X181781009Y-73142142D02*
X181876247Y-73189761D01*
D15*
%TO.C,J9*%
X231620000Y-93270000D02*
X231620000Y-90620000D01*
X234380000Y-90620000D02*
X231620000Y-90620000D01*
X234380000Y-93270000D02*
X231620000Y-93270000D01*
X234380000Y-93270000D02*
X234380000Y-90620000D01*
X234380000Y-94540000D02*
X234380000Y-95920000D01*
X234380000Y-95920000D02*
X233000000Y-95920000D01*
%TO.C,J1*%
X177880000Y-54880000D02*
X188620000Y-54880000D01*
X177880000Y-58500000D02*
X179120000Y-58500000D01*
X177880000Y-59500000D02*
X179120000Y-59500000D01*
X177880000Y-60800000D02*
X179120000Y-60800000D01*
X177880000Y-62920000D02*
X177880000Y-54880000D01*
X180700000Y-62920000D02*
X177880000Y-62920000D01*
X182880000Y-58500000D02*
X184188000Y-58500000D01*
X182880000Y-59500000D02*
X184188000Y-59500000D01*
X182880000Y-60800000D02*
X185457000Y-60800000D01*
X186543000Y-60800000D02*
X188620000Y-60800000D01*
X187812000Y-58500000D02*
X188620000Y-58500000D01*
X187812000Y-59500000D02*
X188620000Y-59500000D01*
X188620000Y-54880000D02*
X188620000Y-62920000D01*
X188620000Y-62920000D02*
X181300000Y-62920000D01*
X181440000Y-63530000D02*
X180560000Y-63530000D01*
X181000000Y-62920000D01*
X181440000Y-63530000D01*
G36*
X181440000Y-63530000D02*
G01*
X180560000Y-63530000D01*
X181000000Y-62920000D01*
X181440000Y-63530000D01*
G37*
%TO.C,U3*%
X186850000Y-70140000D02*
X197070000Y-70140000D01*
X186850000Y-74760000D02*
X186850000Y-70140000D01*
X190110000Y-74760000D02*
X190110000Y-73380000D01*
X193810000Y-74760000D02*
X193810000Y-73380000D01*
X197070000Y-70140000D02*
X197070000Y-74760000D01*
X197070000Y-73380000D02*
X186850000Y-73380000D01*
X197070000Y-74760000D02*
X186850000Y-74760000D01*
%TO.C,U2*%
X213525000Y-66770000D02*
X211575000Y-66770000D01*
X213525000Y-66770000D02*
X215475000Y-66770000D01*
X213525000Y-71890000D02*
X211575000Y-71890000D01*
X213525000Y-71890000D02*
X215475000Y-71890000D01*
X210825000Y-66865000D02*
X210585000Y-66535000D01*
X211065000Y-66535000D01*
X210825000Y-66865000D01*
G36*
X210825000Y-66865000D02*
G01*
X210585000Y-66535000D01*
X211065000Y-66535000D01*
X210825000Y-66865000D01*
G37*
%TO.C,R4*%
X196510436Y-105708750D02*
X197964564Y-105708750D01*
X196510436Y-107528750D02*
X197964564Y-107528750D01*
%TO.C,J8*%
X226620000Y-90620000D02*
X228000000Y-90620000D01*
X226620000Y-92000000D02*
X226620000Y-90620000D01*
X226620000Y-93270000D02*
X226620000Y-95920000D01*
X226620000Y-93270000D02*
X229380000Y-93270000D01*
X226620000Y-95920000D02*
X229380000Y-95920000D01*
X229380000Y-93270000D02*
X229380000Y-95920000D01*
%TO.C,J10*%
X226620000Y-105270000D02*
X226620000Y-102620000D01*
X229380000Y-102620000D02*
X226620000Y-102620000D01*
X229380000Y-105270000D02*
X226620000Y-105270000D01*
X229380000Y-105270000D02*
X229380000Y-102620000D01*
X229380000Y-106540000D02*
X229380000Y-107920000D01*
X229380000Y-107920000D02*
X228000000Y-107920000D01*
%TO.C,C2*%
X220080000Y-70015000D02*
X220080000Y-68485000D01*
X221920000Y-68485000D02*
X221920000Y-70015000D01*
%TO.C,Q4*%
X207920000Y-119240000D02*
X208850000Y-119240000D01*
X207920000Y-120040000D02*
X207920000Y-119240000D01*
X207920000Y-120040000D02*
X207920000Y-120840000D01*
X211080000Y-119240000D02*
X210150000Y-119240000D01*
X211080000Y-119240000D02*
X211080000Y-120700000D01*
X207890000Y-121340000D02*
X207560000Y-121580000D01*
X207560000Y-121100000D01*
X207890000Y-121340000D01*
G36*
X207890000Y-121340000D02*
G01*
X207560000Y-121580000D01*
X207560000Y-121100000D01*
X207890000Y-121340000D01*
G37*
D16*
%TO.C,U6*%
X175850000Y-110702500D02*
X175850000Y-118832500D01*
X175850000Y-118832500D02*
X176750000Y-118832500D01*
X176750000Y-100822500D02*
X176750000Y-110702500D01*
X176750000Y-110702500D02*
X175850000Y-110702500D01*
X176750000Y-118832500D02*
X176750000Y-128722500D01*
X176750000Y-128722500D02*
X224950000Y-128722500D01*
X224950000Y-100822500D02*
X176750000Y-100822500D01*
X224950000Y-105772500D02*
X224950000Y-100822500D01*
X224950000Y-105772500D02*
X231150000Y-105772500D01*
X224950000Y-128722500D02*
X224950000Y-123772500D01*
X231150000Y-105772500D02*
X231150000Y-123772500D01*
X231150000Y-123772500D02*
X224950000Y-123772500D01*
D11*
X223920000Y-100202500D02*
G75*
G02*
X223720000Y-100202500I-100000J0D01*
G01*
X223720000Y-100202500D02*
G75*
G02*
X223920000Y-100202500I100000J0D01*
G01*
D15*
%TO.C,U5*%
X188590000Y-89300000D02*
X188590000Y-93060000D01*
X188590000Y-93060000D02*
X189850000Y-93060000D01*
X195410000Y-89300000D02*
X195410000Y-93060000D01*
X195410000Y-93060000D02*
X194150000Y-93060000D01*
X195640000Y-88260000D02*
X195310000Y-88020000D01*
X195640000Y-87780000D01*
X195640000Y-88260000D01*
G36*
X195640000Y-88260000D02*
G01*
X195310000Y-88020000D01*
X195640000Y-87780000D01*
X195640000Y-88260000D01*
G37*
%TO.C,J5*%
X227030000Y-79360000D02*
X233770000Y-79360000D01*
X227030000Y-85180000D02*
X227030000Y-79360000D01*
X228750000Y-85180000D02*
X228750000Y-79360000D01*
X231850000Y-85180000D02*
X231850000Y-79360000D01*
X232850000Y-85180000D02*
X232850000Y-79360000D01*
X233770000Y-79360000D02*
X233770000Y-83240000D01*
X233770000Y-83840000D02*
X233770000Y-85180000D01*
X233770000Y-85180000D02*
X227030000Y-85180000D01*
X234380000Y-83980000D02*
X233770000Y-83540000D01*
X234380000Y-83100000D01*
X234380000Y-83980000D01*
G36*
X234380000Y-83980000D02*
G01*
X233770000Y-83540000D01*
X234380000Y-83100000D01*
X234380000Y-83980000D01*
G37*
%TO.C,R5*%
X203427064Y-105708750D02*
X201972936Y-105708750D01*
X203427064Y-107528750D02*
X201972936Y-107528750D01*
%TO.C,Q3*%
X201753333Y-119240000D02*
X202683333Y-119240000D01*
X201753333Y-120040000D02*
X201753333Y-119240000D01*
X201753333Y-120040000D02*
X201753333Y-120840000D01*
X204913333Y-119240000D02*
X203983333Y-119240000D01*
X204913333Y-119240000D02*
X204913333Y-120700000D01*
X201723333Y-121340000D02*
X201393333Y-121580000D01*
X201393333Y-121100000D01*
X201723333Y-121340000D01*
G36*
X201723333Y-121340000D02*
G01*
X201393333Y-121580000D01*
X201393333Y-121100000D01*
X201723333Y-121340000D01*
G37*
%TO.C,C3*%
X203715000Y-74502000D02*
X205245000Y-74502000D01*
X205245000Y-76342000D02*
X203715000Y-76342000D01*
%TO.C,J7*%
X162770000Y-82755000D02*
X162770000Y-98275000D01*
X176350000Y-82070000D02*
X176850000Y-82570000D01*
X176850000Y-82570000D02*
X177350000Y-82070000D01*
X177350000Y-82070000D02*
X176350000Y-82070000D01*
X180730000Y-82755000D02*
X162770000Y-82755000D01*
X180730000Y-98275000D02*
X162770000Y-98275000D01*
X180730000Y-98275000D02*
X180730000Y-82755000D01*
%TO.C,R3*%
X216810436Y-62090000D02*
X218264564Y-62090000D01*
X216810436Y-63910000D02*
X218264564Y-63910000D01*
%TO.C,RV1*%
X208585000Y-92500000D02*
X208585000Y-97550000D01*
X209805000Y-97550000D02*
X208585000Y-97550000D01*
X209805000Y-97550000D02*
X209805000Y-97110000D01*
X217115000Y-97110000D02*
X209805000Y-97110000D01*
X217115000Y-97550000D02*
X217115000Y-97110000D01*
X217115000Y-97550000D02*
X218335000Y-97550000D01*
X218335000Y-92500000D02*
X208585000Y-92500000D01*
X218335000Y-97550000D02*
X218335000Y-92500000D01*
X216450000Y-97900000D02*
X215550000Y-97900000D01*
X216000000Y-97400000D01*
X216450000Y-97900000D01*
G36*
X216450000Y-97900000D02*
G01*
X215550000Y-97900000D01*
X216000000Y-97400000D01*
X216450000Y-97900000D01*
G37*
%TO.C,J2*%
X190380000Y-54880000D02*
X201120000Y-54880000D01*
X190380000Y-58500000D02*
X191620000Y-58500000D01*
X190380000Y-59500000D02*
X191620000Y-59500000D01*
X190380000Y-60800000D02*
X191620000Y-60800000D01*
X190380000Y-62920000D02*
X190380000Y-54880000D01*
X193200000Y-62920000D02*
X190380000Y-62920000D01*
X195380000Y-58500000D02*
X196688000Y-58500000D01*
X195380000Y-59500000D02*
X196688000Y-59500000D01*
X195380000Y-60800000D02*
X197957000Y-60800000D01*
X199043000Y-60800000D02*
X201120000Y-60800000D01*
X200312000Y-58500000D02*
X201120000Y-58500000D01*
X200312000Y-59500000D02*
X201120000Y-59500000D01*
X201120000Y-54880000D02*
X201120000Y-62920000D01*
X201120000Y-62920000D02*
X193800000Y-62920000D01*
X193940000Y-63530000D02*
X193060000Y-63530000D01*
X193500000Y-62920000D01*
X193940000Y-63530000D01*
G36*
X193940000Y-63530000D02*
G01*
X193060000Y-63530000D01*
X193500000Y-62920000D01*
X193940000Y-63530000D01*
G37*
%TO.C,R1*%
X212764564Y-62090000D02*
X211310436Y-62090000D01*
X212764564Y-63910000D02*
X211310436Y-63910000D01*
%TO.C,REF\u002A\u002A*%
X185030000Y-75125000D02*
X185030000Y-84875000D01*
X185030000Y-75125000D02*
X198470000Y-75125000D01*
X185030000Y-84875000D02*
X186460000Y-84875000D01*
X186460000Y-76545000D02*
X197040000Y-76545000D01*
X186460000Y-84875000D02*
X186460000Y-76545000D01*
X189850000Y-75125000D02*
X189850000Y-75425000D01*
X189850000Y-75685000D02*
X189850000Y-75985000D01*
X189850000Y-76245000D02*
X189850000Y-76545000D01*
X193650000Y-75125000D02*
X193650000Y-75425000D01*
X193650000Y-75685000D02*
X193650000Y-75985000D01*
X193650000Y-76245000D02*
X193650000Y-76545000D01*
X197040000Y-76545000D02*
X197040000Y-84875000D01*
X197040000Y-84875000D02*
X198470000Y-84875000D01*
X198470000Y-75125000D02*
X198470000Y-84875000D01*
%TO.C,D2*%
X202860000Y-97605000D02*
X206745000Y-97605000D01*
X206745000Y-95335000D02*
X202860000Y-95335000D01*
X206745000Y-97605000D02*
X206745000Y-95335000D01*
%TO.C,C6*%
X220080000Y-86765000D02*
X220080000Y-85235000D01*
X221920000Y-85235000D02*
X221920000Y-86765000D01*
%TO.C,J3*%
X202820000Y-54880000D02*
X208640000Y-54880000D01*
X202820000Y-56600000D02*
X208640000Y-56600000D01*
X202820000Y-59700000D02*
X208640000Y-59700000D01*
X202820000Y-60700000D02*
X208640000Y-60700000D01*
X202820000Y-61620000D02*
X202820000Y-54880000D01*
X204160000Y-61620000D02*
X202820000Y-61620000D01*
X208640000Y-54880000D02*
X208640000Y-61620000D01*
X208640000Y-61620000D02*
X204760000Y-61620000D01*
X204900000Y-62230000D02*
X204020000Y-62230000D01*
X204460000Y-61620000D01*
X204900000Y-62230000D01*
G36*
X204900000Y-62230000D02*
G01*
X204020000Y-62230000D01*
X204460000Y-61620000D01*
X204900000Y-62230000D01*
G37*
%TO.C,U1*%
X213525000Y-75201667D02*
X211575000Y-75201667D01*
X213525000Y-75201667D02*
X215475000Y-75201667D01*
X213525000Y-80321667D02*
X211575000Y-80321667D01*
X213525000Y-80321667D02*
X215475000Y-80321667D01*
X210825000Y-75296667D02*
X210585000Y-74966667D01*
X211065000Y-74966667D01*
X210825000Y-75296667D01*
G36*
X210825000Y-75296667D02*
G01*
X210585000Y-74966667D01*
X211065000Y-74966667D01*
X210825000Y-75296667D01*
G37*
%TO.C,J11*%
X231265000Y-102620000D02*
X232645000Y-102620000D01*
X231265000Y-104000000D02*
X231265000Y-102620000D01*
X231265000Y-105270000D02*
X231265000Y-107920000D01*
X231265000Y-105270000D02*
X234025000Y-105270000D01*
X231265000Y-107920000D02*
X234025000Y-107920000D01*
X234025000Y-105270000D02*
X234025000Y-107920000D01*
%TO.C,U4*%
X210765000Y-83503333D02*
X210765000Y-83773333D01*
X210765000Y-89023333D02*
X210765000Y-88753333D01*
X213525000Y-83503333D02*
X210765000Y-83503333D01*
X213525000Y-83503333D02*
X216285000Y-83503333D01*
X213525000Y-89023333D02*
X210765000Y-89023333D01*
X213525000Y-89023333D02*
X216285000Y-89023333D01*
X216285000Y-83503333D02*
X216285000Y-83773333D01*
X216285000Y-89023333D02*
X216285000Y-88753333D01*
X210000000Y-83773333D02*
X209760000Y-83443333D01*
X210240000Y-83443333D01*
X210000000Y-83773333D01*
G36*
X210000000Y-83773333D02*
G01*
X209760000Y-83443333D01*
X210240000Y-83443333D01*
X210000000Y-83773333D01*
G37*
%TO.C,J4*%
X226080000Y-66880000D02*
X234120000Y-66880000D01*
X226080000Y-69700000D02*
X226080000Y-66880000D01*
X226080000Y-77620000D02*
X226080000Y-70300000D01*
X228200000Y-66880000D02*
X228200000Y-68120000D01*
X228200000Y-71880000D02*
X228200000Y-74457000D01*
X228200000Y-75543000D02*
X228200000Y-77620000D01*
X229500000Y-66880000D02*
X229500000Y-68120000D01*
X229500000Y-71880000D02*
X229500000Y-73188000D01*
X229500000Y-76812000D02*
X229500000Y-77620000D01*
X230500000Y-66880000D02*
X230500000Y-68120000D01*
X230500000Y-71880000D02*
X230500000Y-73188000D01*
X230500000Y-76812000D02*
X230500000Y-77620000D01*
X234120000Y-66880000D02*
X234120000Y-77620000D01*
X234120000Y-77620000D02*
X226080000Y-77620000D01*
X226080000Y-70000000D02*
X225470000Y-70440000D01*
X225470000Y-69560000D01*
X226080000Y-70000000D01*
G36*
X226080000Y-70000000D02*
G01*
X225470000Y-70440000D01*
X225470000Y-69560000D01*
X226080000Y-70000000D01*
G37*
%TO.C,D3*%
X221865000Y-92615000D02*
X221865000Y-96500000D01*
X224135000Y-92615000D02*
X221865000Y-92615000D01*
X224135000Y-96500000D02*
X224135000Y-92615000D01*
%TO.C,C7*%
X203735000Y-90330000D02*
X205265000Y-90330000D01*
X205265000Y-92170000D02*
X203735000Y-92170000D01*
%TO.C,C5*%
X203715000Y-85080000D02*
X205245000Y-85080000D01*
X205245000Y-86920000D02*
X203715000Y-86920000D01*
%TO.C,Q1*%
X189420000Y-119240000D02*
X190350000Y-119240000D01*
X189420000Y-120040000D02*
X189420000Y-119240000D01*
X189420000Y-120040000D02*
X189420000Y-120840000D01*
X192580000Y-119240000D02*
X191650000Y-119240000D01*
X192580000Y-119240000D02*
X192580000Y-120700000D01*
X189390000Y-121340000D02*
X189060000Y-121580000D01*
X189060000Y-121100000D01*
X189390000Y-121340000D01*
G36*
X189390000Y-121340000D02*
G01*
X189060000Y-121580000D01*
X189060000Y-121100000D01*
X189390000Y-121340000D01*
G37*
%TO.C,D1*%
X202215000Y-79579000D02*
X202215000Y-81849000D01*
X202215000Y-81849000D02*
X206100000Y-81849000D01*
X206100000Y-79579000D02*
X202215000Y-79579000D01*
%TO.C,Q2*%
X195586667Y-119240000D02*
X196516667Y-119240000D01*
X195586667Y-120040000D02*
X195586667Y-119240000D01*
X195586667Y-120040000D02*
X195586667Y-120840000D01*
X198746667Y-119240000D02*
X197816667Y-119240000D01*
X198746667Y-119240000D02*
X198746667Y-120700000D01*
X195556667Y-121340000D02*
X195226667Y-121580000D01*
X195226667Y-121100000D01*
X195556667Y-121340000D01*
G36*
X195556667Y-121340000D02*
G01*
X195226667Y-121580000D01*
X195226667Y-121100000D01*
X195556667Y-121340000D01*
G37*
%TO.C,R2*%
X222235436Y-62090000D02*
X223689564Y-62090000D01*
X222235436Y-63910000D02*
X223689564Y-63910000D01*
%TO.C,C1*%
X201000000Y-67340000D02*
X201500000Y-67340000D01*
X201250000Y-67090000D02*
X201250000Y-67590000D01*
X201740000Y-67704437D02*
X201740000Y-67840000D01*
X201740000Y-67704437D02*
X202804437Y-66640000D01*
X201740000Y-70095563D02*
X201740000Y-69960000D01*
X201740000Y-70095563D02*
X202804437Y-71160000D01*
X202804437Y-66640000D02*
X206260000Y-66640000D01*
X202804437Y-71160000D02*
X206260000Y-71160000D01*
X206260000Y-66640000D02*
X206260000Y-67840000D01*
X206260000Y-71160000D02*
X206260000Y-69960000D01*
%TO.C,C4*%
X220080000Y-78515000D02*
X220080000Y-76985000D01*
X221920000Y-76985000D02*
X221920000Y-78515000D01*
%TO.C,J6*%
X162770000Y-65525000D02*
X162770000Y-81045000D01*
X176350000Y-64840000D02*
X176850000Y-65340000D01*
X176850000Y-65340000D02*
X177350000Y-64840000D01*
X177350000Y-64840000D02*
X176350000Y-64840000D01*
X180730000Y-65525000D02*
X162770000Y-65525000D01*
X180730000Y-81045000D02*
X162770000Y-81045000D01*
X180730000Y-81045000D02*
X180730000Y-65525000D01*
%TD*%
M02*
