%TF.GenerationSoftware,KiCad,Pcbnew,9.0.4*%
%TF.CreationDate,2025-10-29T20:45:07+01:00*%
%TF.ProjectId,Modu__Zaworu,4d6f6475-425f-45a6-9177-6f72752e6b69,rev?*%
%TF.SameCoordinates,Original*%
%TF.FileFunction,Paste,Top*%
%TF.FilePolarity,Positive*%
%FSLAX46Y46*%
G04 Gerber Fmt 4.6, Leading zero omitted, Abs format (unit mm)*
G04 Created by KiCad (PCBNEW 9.0.4) date 2025-10-29 20:45:07*
%MOMM*%
%LPD*%
G01*
G04 APERTURE LIST*
G04 Aperture macros list*
%AMRoundRect*
0 Rectangle with rounded corners*
0 $1 Rounding radius*
0 $2 $3 $4 $5 $6 $7 $8 $9 X,Y pos of 4 corners*
0 Add a 4 corners polygon primitive as box body*
4,1,4,$2,$3,$4,$5,$6,$7,$8,$9,$2,$3,0*
0 Add four circle primitives for the rounded corners*
1,1,$1+$1,$2,$3*
1,1,$1+$1,$4,$5*
1,1,$1+$1,$6,$7*
1,1,$1+$1,$8,$9*
0 Add four rect primitives between the rounded corners*
20,1,$1+$1,$2,$3,$4,$5,0*
20,1,$1+$1,$4,$5,$6,$7,0*
20,1,$1+$1,$6,$7,$8,$9,0*
20,1,$1+$1,$8,$9,$2,$3,0*%
G04 Aperture macros list end*
%ADD10RoundRect,0.150000X-0.825000X-0.150000X0.825000X-0.150000X0.825000X0.150000X-0.825000X0.150000X0*%
%ADD11RoundRect,0.250000X-0.312500X-0.625000X0.312500X-0.625000X0.312500X0.625000X-0.312500X0.625000X0*%
%ADD12RoundRect,0.200000X0.200000X-0.750000X0.200000X0.750000X-0.200000X0.750000X-0.200000X-0.750000X0*%
%ADD13RoundRect,0.375000X-0.375000X0.625000X-0.375000X-0.625000X0.375000X-0.625000X0.375000X0.625000X0*%
%ADD14RoundRect,0.500000X-1.400000X0.500000X-1.400000X-0.500000X1.400000X-0.500000X1.400000X0.500000X0*%
%ADD15RoundRect,0.250000X0.312500X0.625000X-0.312500X0.625000X-0.312500X-0.625000X0.312500X-0.625000X0*%
%ADD16RoundRect,0.250000X0.375000X0.625000X-0.375000X0.625000X-0.375000X-0.625000X0.375000X-0.625000X0*%
%ADD17RoundRect,0.162500X-0.650000X-0.162500X0.650000X-0.162500X0.650000X0.162500X-0.650000X0.162500X0*%
%ADD18RoundRect,0.250000X-0.625000X0.375000X-0.625000X-0.375000X0.625000X-0.375000X0.625000X0.375000X0*%
%ADD19RoundRect,0.250000X-0.375000X-0.625000X0.375000X-0.625000X0.375000X0.625000X-0.375000X0.625000X0*%
%ADD20RoundRect,0.250000X-1.050000X-0.550000X1.050000X-0.550000X1.050000X0.550000X-1.050000X0.550000X0*%
G04 APERTURE END LIST*
D10*
%TO.C,U2*%
X211050000Y-67425000D03*
X211050000Y-68695000D03*
X211050000Y-69965000D03*
X211050000Y-71235000D03*
X216000000Y-71235000D03*
X216000000Y-69965000D03*
X216000000Y-68695000D03*
X216000000Y-67425000D03*
%TD*%
D11*
%TO.C,R4*%
X195775000Y-106618750D03*
X198700000Y-106618750D03*
%TD*%
D12*
%TO.C,Q4*%
X208550000Y-121500000D03*
X210450000Y-121500000D03*
X209500000Y-118500000D03*
%TD*%
D13*
%TO.C,U5*%
X194300000Y-88000000D03*
X192000000Y-88000000D03*
X189700000Y-88000000D03*
D14*
X192000000Y-94300000D03*
%TD*%
D15*
%TO.C,R5*%
X204162500Y-106618750D03*
X201237500Y-106618750D03*
%TD*%
D12*
%TO.C,Q3*%
X202383333Y-121500000D03*
X204283333Y-121500000D03*
X203333333Y-118500000D03*
%TD*%
D11*
%TO.C,R3*%
X216075000Y-63000000D03*
X219000000Y-63000000D03*
%TD*%
D15*
%TO.C,R1*%
X213500000Y-63000000D03*
X210575000Y-63000000D03*
%TD*%
D16*
%TO.C,D2*%
X205860000Y-96470000D03*
X203060000Y-96470000D03*
%TD*%
D10*
%TO.C,U1*%
X211050000Y-75856667D03*
X211050000Y-77126667D03*
X211050000Y-78396667D03*
X211050000Y-79666667D03*
X216000000Y-79666667D03*
X216000000Y-78396667D03*
X216000000Y-77126667D03*
X216000000Y-75856667D03*
%TD*%
D17*
%TO.C,U4*%
X209937500Y-84358333D03*
X209937500Y-85628333D03*
X209937500Y-86898333D03*
X209937500Y-88168333D03*
X217112500Y-88168333D03*
X217112500Y-86898333D03*
X217112500Y-85628333D03*
X217112500Y-84358333D03*
%TD*%
D18*
%TO.C,D3*%
X223000000Y-93500000D03*
X223000000Y-96300000D03*
%TD*%
D12*
%TO.C,Q1*%
X190050000Y-121500000D03*
X191950000Y-121500000D03*
X191000000Y-118500000D03*
%TD*%
D19*
%TO.C,D1*%
X203100000Y-80714000D03*
X205900000Y-80714000D03*
%TD*%
D12*
%TO.C,Q2*%
X196216667Y-121500000D03*
X198116667Y-121500000D03*
X197166667Y-118500000D03*
%TD*%
D11*
%TO.C,R2*%
X221500000Y-63000000D03*
X224425000Y-63000000D03*
%TD*%
D20*
%TO.C,C1*%
X202200000Y-68900000D03*
X205800000Y-68900000D03*
%TD*%
M02*
