%TF.GenerationSoftware,KiCad,Pcbnew,9.0.4*%
%TF.CreationDate,2025-10-29T20:46:00+01:00*%
%TF.ProjectId,Sterownik_Podlewania V1.1,53746572-6f77-46e6-996b-5f506f646c65,rev?*%
%TF.SameCoordinates,Original*%
%TF.FileFunction,Soldermask,Bot*%
%TF.FilePolarity,Negative*%
%FSLAX46Y46*%
G04 Gerber Fmt 4.6, Leading zero omitted, Abs format (unit mm)*
G04 Created by KiCad (PCBNEW 9.0.4) date 2025-10-29 20:46:00*
%MOMM*%
%LPD*%
G01*
G04 APERTURE LIST*
G04 Aperture macros list*
%AMRoundRect*
0 Rectangle with rounded corners*
0 $1 Rounding radius*
0 $2 $3 $4 $5 $6 $7 $8 $9 X,Y pos of 4 corners*
0 Add a 4 corners polygon primitive as box body*
4,1,4,$2,$3,$4,$5,$6,$7,$8,$9,$2,$3,0*
0 Add four circle primitives for the rounded corners*
1,1,$1+$1,$2,$3*
1,1,$1+$1,$4,$5*
1,1,$1+$1,$6,$7*
1,1,$1+$1,$8,$9*
0 Add four rect primitives between the rounded corners*
20,1,$1+$1,$2,$3,$4,$5,0*
20,1,$1+$1,$4,$5,$6,$7,0*
20,1,$1+$1,$6,$7,$8,$9,0*
20,1,$1+$1,$8,$9,$2,$3,0*%
G04 Aperture macros list end*
%ADD10RoundRect,0.102000X-0.754000X-0.754000X0.754000X-0.754000X0.754000X0.754000X-0.754000X0.754000X0*%
%ADD11C,1.712000*%
%ADD12RoundRect,0.250001X-1.149999X-1.149999X1.149999X-1.149999X1.149999X1.149999X-1.149999X1.149999X0*%
%ADD13C,2.800000*%
%ADD14C,0.800000*%
%ADD15C,6.400000*%
%ADD16C,3.200000*%
%ADD17R,1.500000X1.500000*%
%ADD18C,1.500000*%
%ADD19RoundRect,0.102000X-0.765000X-0.765000X0.765000X-0.765000X0.765000X0.765000X-0.765000X0.765000X0*%
%ADD20C,1.734000*%
%ADD21R,2.000000X2.000000*%
%ADD22C,2.000000*%
%ADD23C,1.600000*%
%ADD24RoundRect,0.250001X-1.149999X1.149999X-1.149999X-1.149999X1.149999X-1.149999X1.149999X1.149999X0*%
%ADD25R,1.700000X1.700000*%
%ADD26C,1.700000*%
%ADD27R,4.600000X2.000000*%
%ADD28O,4.200000X2.000000*%
%ADD29O,2.000000X4.200000*%
%ADD30C,1.982000*%
%ADD31RoundRect,0.102000X-0.889000X-0.889000X0.889000X-0.889000X0.889000X0.889000X-0.889000X0.889000X0*%
%ADD32RoundRect,0.250000X0.625000X-0.312500X0.625000X0.312500X-0.625000X0.312500X-0.625000X-0.312500X0*%
%ADD33RoundRect,0.250000X-0.625000X0.312500X-0.625000X-0.312500X0.625000X-0.312500X0.625000X0.312500X0*%
%ADD34RoundRect,0.250000X0.312500X0.625000X-0.312500X0.625000X-0.312500X-0.625000X0.312500X-0.625000X0*%
%ADD35RoundRect,0.250000X0.325000X0.650000X-0.325000X0.650000X-0.325000X-0.650000X0.325000X-0.650000X0*%
%ADD36RoundRect,0.250000X-0.312500X-0.625000X0.312500X-0.625000X0.312500X0.625000X-0.312500X0.625000X0*%
%ADD37RoundRect,0.250000X-0.650000X0.325000X-0.650000X-0.325000X0.650000X-0.325000X0.650000X0.325000X0*%
G04 APERTURE END LIST*
D10*
%TO.C,U4*%
X122220000Y-57500000D03*
D11*
X129840000Y-57500000D03*
X140000000Y-57500000D03*
X142540000Y-57500000D03*
%TD*%
D12*
%TO.C,J3*%
X98650000Y-40000000D03*
D13*
X103650000Y-40000000D03*
%TD*%
D14*
%TO.C,REF\u002A\u002A*%
X52600000Y-40000000D03*
X53302944Y-38302944D03*
X53302944Y-41697056D03*
X55000000Y-37600000D03*
D15*
X55000000Y-40000000D03*
D14*
X55000000Y-42400000D03*
X56697056Y-38302944D03*
X56697056Y-41697056D03*
X57400000Y-40000000D03*
%TD*%
D16*
%TO.C,J8*%
X53750000Y-99287500D03*
X53750000Y-110717500D03*
D17*
X60100000Y-100557500D03*
D18*
X62640000Y-101827500D03*
X60100000Y-103097500D03*
X62640000Y-104367500D03*
X60100000Y-105637500D03*
X62640000Y-106907500D03*
X60100000Y-108177500D03*
X62640000Y-109447500D03*
%TD*%
D19*
%TO.C,U10*%
X175000000Y-67500000D03*
D20*
X175000000Y-70040000D03*
X175000000Y-72580000D03*
X175000000Y-75120000D03*
X175000000Y-77660000D03*
X175000000Y-80200000D03*
X175000000Y-82740000D03*
X175000000Y-85280000D03*
X175000000Y-87820000D03*
X175000000Y-90360000D03*
X175000000Y-92900000D03*
X175000000Y-95440000D03*
X175000000Y-97980000D03*
X175000000Y-100520000D03*
X175000000Y-103060000D03*
X175000000Y-105600000D03*
X175000000Y-108140000D03*
X175000000Y-110680000D03*
X175000000Y-113220000D03*
X200400000Y-113220000D03*
X200400000Y-110680000D03*
X200400000Y-108140000D03*
X200400000Y-105600000D03*
X200400000Y-103060000D03*
X200400000Y-100520000D03*
X200400000Y-97980000D03*
X200400000Y-95440000D03*
X200400000Y-92900000D03*
X200400000Y-90360000D03*
X200400000Y-87820000D03*
X200400000Y-85280000D03*
X200400000Y-82740000D03*
X200400000Y-80200000D03*
X200400000Y-77660000D03*
X200400000Y-75120000D03*
X200400000Y-72580000D03*
X200400000Y-70040000D03*
X200400000Y-67500000D03*
%TD*%
D21*
%TO.C,SW6*%
X207400000Y-146102500D03*
D22*
X207400000Y-141402500D03*
X207400000Y-136702500D03*
%TD*%
D12*
%TO.C,J4*%
X115000000Y-40000000D03*
D13*
X120000000Y-40000000D03*
%TD*%
D22*
%TO.C,SW1*%
X110416667Y-143750000D03*
X110416667Y-137250000D03*
X114916667Y-143750000D03*
X114916667Y-137250000D03*
%TD*%
D23*
%TO.C,C3*%
X205000000Y-58450000D03*
X205000000Y-55950000D03*
%TD*%
D12*
%TO.C,J2*%
X82400000Y-40000000D03*
D13*
X87400000Y-40000000D03*
%TD*%
D24*
%TO.C,J11*%
X220000000Y-70000000D03*
D13*
X220000000Y-75000000D03*
%TD*%
D25*
%TO.C,J12*%
X70000000Y-72370000D03*
D26*
X70000000Y-74910000D03*
X70000000Y-77450000D03*
X70000000Y-79990000D03*
%TD*%
D22*
%TO.C,SW4*%
X150750000Y-143750000D03*
X150750000Y-137250000D03*
X155250000Y-143750000D03*
X155250000Y-137250000D03*
%TD*%
D10*
%TO.C,U1*%
X77380000Y-50000000D03*
D11*
X85000000Y-50000000D03*
X95160000Y-50000000D03*
X97700000Y-50000000D03*
%TD*%
D27*
%TO.C,J1*%
X68150000Y-43800000D03*
D28*
X68150000Y-37500000D03*
D29*
X63350000Y-40900000D03*
%TD*%
D14*
%TO.C,REF\u002A\u002A*%
X217600000Y-40000000D03*
X218302944Y-38302944D03*
X218302944Y-41697056D03*
X220000000Y-37600000D03*
D15*
X220000000Y-40000000D03*
D14*
X220000000Y-42400000D03*
X221697056Y-38302944D03*
X221697056Y-41697056D03*
X222400000Y-40000000D03*
%TD*%
D21*
%TO.C,SW5*%
X187400000Y-146102500D03*
D22*
X187400000Y-141402500D03*
X187400000Y-136702500D03*
%TD*%
%TO.C,SW3*%
X130583333Y-143750000D03*
X130583333Y-137250000D03*
X135083333Y-143750000D03*
X135083333Y-137250000D03*
%TD*%
D14*
%TO.C,REF\u002A\u002A*%
X52600000Y-145000000D03*
X53302944Y-143302944D03*
X53302944Y-146697056D03*
X55000000Y-142600000D03*
D15*
X55000000Y-145000000D03*
D14*
X55000000Y-147400000D03*
X56697056Y-143302944D03*
X56697056Y-146697056D03*
X57400000Y-145000000D03*
%TD*%
D24*
%TO.C,J10*%
X220000000Y-55000000D03*
D13*
X220000000Y-60000000D03*
%TD*%
D12*
%TO.C,J5*%
X131150000Y-40000000D03*
D13*
X136150000Y-40000000D03*
%TD*%
D14*
%TO.C,REF\u002A\u002A*%
X217572056Y-144972056D03*
X218275000Y-143275000D03*
X218275000Y-146669112D03*
X219972056Y-142572056D03*
D15*
X219972056Y-144972056D03*
D14*
X219972056Y-147372056D03*
X221669112Y-143275000D03*
X221669112Y-146669112D03*
X222372056Y-144972056D03*
%TD*%
D10*
%TO.C,U3*%
X107500000Y-50000000D03*
D11*
X115120000Y-50000000D03*
X125280000Y-50000000D03*
X127820000Y-50000000D03*
%TD*%
D30*
%TO.C,U9*%
X150540000Y-115000000D03*
X153080000Y-115000000D03*
X155620000Y-115000000D03*
X158160000Y-115000000D03*
X150540000Y-104840000D03*
X153080000Y-104840000D03*
X155620000Y-104840000D03*
X158160000Y-104840000D03*
X160700000Y-115000000D03*
X160700000Y-104840000D03*
X148000000Y-104840000D03*
X148000000Y-115000000D03*
%TD*%
D10*
%TO.C,U2*%
X92220000Y-57500000D03*
D11*
X99840000Y-57500000D03*
X110000000Y-57500000D03*
X112540000Y-57500000D03*
%TD*%
D23*
%TO.C,C1*%
X189150000Y-54000000D03*
X186650000Y-54000000D03*
%TD*%
%TO.C,C2*%
X192850000Y-54000000D03*
X195350000Y-54000000D03*
%TD*%
D16*
%TO.C,J7*%
X53750000Y-81947500D03*
X53750000Y-93377500D03*
D17*
X60100000Y-83217500D03*
D18*
X62640000Y-84487500D03*
X60100000Y-85757500D03*
X62640000Y-87027500D03*
X60100000Y-88297500D03*
X62640000Y-89567500D03*
X60100000Y-90837500D03*
X62640000Y-92107500D03*
%TD*%
D16*
%TO.C,J9*%
X53750000Y-117545000D03*
X53750000Y-128975000D03*
D17*
X60100000Y-118815000D03*
D18*
X62640000Y-120085000D03*
X60100000Y-121355000D03*
X62640000Y-122625000D03*
X60100000Y-123895000D03*
X62640000Y-125165000D03*
X60100000Y-126435000D03*
X62640000Y-127705000D03*
%TD*%
D31*
%TO.C,U8*%
X115340000Y-77500000D03*
D30*
X117880000Y-77500000D03*
X120420000Y-77500000D03*
X122960000Y-77500000D03*
X125500000Y-77500000D03*
%TD*%
D12*
%TO.C,J6*%
X147400000Y-39967500D03*
D13*
X152400000Y-39967500D03*
%TD*%
D30*
%TO.C,U7*%
X193160000Y-77500000D03*
X193160000Y-74960000D03*
X193160000Y-72420000D03*
X193160000Y-69880000D03*
X183000000Y-77500000D03*
X183000000Y-74960000D03*
X183000000Y-72420000D03*
X183000000Y-69880000D03*
X193160000Y-67340000D03*
X183000000Y-67340000D03*
X183000000Y-80040000D03*
X193160000Y-80040000D03*
%TD*%
D10*
%TO.C,U5*%
X137105000Y-50000000D03*
D11*
X144725000Y-50000000D03*
X154885000Y-50000000D03*
X157425000Y-50000000D03*
%TD*%
D22*
%TO.C,SW2*%
X90250000Y-143750000D03*
X90250000Y-137250000D03*
X94750000Y-143750000D03*
X94750000Y-137250000D03*
%TD*%
D32*
%TO.C,R15*%
X185000000Y-105425000D03*
X185000000Y-102500000D03*
%TD*%
D33*
%TO.C,R10*%
X178000000Y-72075000D03*
X178000000Y-75000000D03*
%TD*%
D34*
%TO.C,R18*%
X154152500Y-132500000D03*
X151227500Y-132500000D03*
%TD*%
D35*
%TO.C,C9*%
X114000000Y-147500000D03*
X111050000Y-147500000D03*
%TD*%
D36*
%TO.C,R20*%
X111227500Y-132500000D03*
X114152500Y-132500000D03*
%TD*%
D37*
%TO.C,C6*%
X177500000Y-142500000D03*
X177500000Y-145450000D03*
%TD*%
D36*
%TO.C,R21*%
X91000000Y-132500000D03*
X93925000Y-132500000D03*
%TD*%
D33*
%TO.C,R16*%
X200000000Y-135000000D03*
X200000000Y-137925000D03*
%TD*%
D32*
%TO.C,R14*%
X185000000Y-100425000D03*
X185000000Y-97500000D03*
%TD*%
D35*
%TO.C,C8*%
X134145000Y-147500000D03*
X131195000Y-147500000D03*
%TD*%
D32*
%TO.C,R12*%
X185000000Y-87925000D03*
X185000000Y-85000000D03*
%TD*%
%TO.C,R11*%
X178000000Y-80425000D03*
X178000000Y-77500000D03*
%TD*%
D35*
%TO.C,C10*%
X93950000Y-147500000D03*
X91000000Y-147500000D03*
%TD*%
D33*
%TO.C,R13*%
X185000000Y-90000000D03*
X185000000Y-92925000D03*
%TD*%
D34*
%TO.C,R19*%
X134152500Y-132500000D03*
X131227500Y-132500000D03*
%TD*%
D37*
%TO.C,C5*%
X200000000Y-142500000D03*
X200000000Y-145450000D03*
%TD*%
D33*
%TO.C,R17*%
X177500000Y-134575000D03*
X177500000Y-137500000D03*
%TD*%
D35*
%TO.C,C7*%
X154145000Y-147500000D03*
X151195000Y-147500000D03*
%TD*%
M02*
