%TF.GenerationSoftware,KiCad,Pcbnew,9.0.4*%
%TF.CreationDate,2025-10-29T20:46:00+01:00*%
%TF.ProjectId,Sterownik_Podlewania V1.1,53746572-6f77-46e6-996b-5f506f646c65,rev?*%
%TF.SameCoordinates,Original*%
%TF.FileFunction,Legend,Bot*%
%TF.FilePolarity,Positive*%
%FSLAX46Y46*%
G04 Gerber Fmt 4.6, Leading zero omitted, Abs format (unit mm)*
G04 Created by KiCad (PCBNEW 9.0.4) date 2025-10-29 20:46:00*
%MOMM*%
%LPD*%
G01*
G04 APERTURE LIST*
%ADD10C,0.150000*%
%ADD11C,0.120000*%
G04 APERTURE END LIST*
D10*
X187284819Y-103319642D02*
X186808628Y-102986309D01*
X187284819Y-102748214D02*
X186284819Y-102748214D01*
X186284819Y-102748214D02*
X186284819Y-103129166D01*
X186284819Y-103129166D02*
X186332438Y-103224404D01*
X186332438Y-103224404D02*
X186380057Y-103272023D01*
X186380057Y-103272023D02*
X186475295Y-103319642D01*
X186475295Y-103319642D02*
X186618152Y-103319642D01*
X186618152Y-103319642D02*
X186713390Y-103272023D01*
X186713390Y-103272023D02*
X186761009Y-103224404D01*
X186761009Y-103224404D02*
X186808628Y-103129166D01*
X186808628Y-103129166D02*
X186808628Y-102748214D01*
X187284819Y-104272023D02*
X187284819Y-103700595D01*
X187284819Y-103986309D02*
X186284819Y-103986309D01*
X186284819Y-103986309D02*
X186427676Y-103891071D01*
X186427676Y-103891071D02*
X186522914Y-103795833D01*
X186522914Y-103795833D02*
X186570533Y-103700595D01*
X186284819Y-105176785D02*
X186284819Y-104700595D01*
X186284819Y-104700595D02*
X186761009Y-104652976D01*
X186761009Y-104652976D02*
X186713390Y-104700595D01*
X186713390Y-104700595D02*
X186665771Y-104795833D01*
X186665771Y-104795833D02*
X186665771Y-105033928D01*
X186665771Y-105033928D02*
X186713390Y-105129166D01*
X186713390Y-105129166D02*
X186761009Y-105176785D01*
X186761009Y-105176785D02*
X186856247Y-105224404D01*
X186856247Y-105224404D02*
X187094342Y-105224404D01*
X187094342Y-105224404D02*
X187189580Y-105176785D01*
X187189580Y-105176785D02*
X187237200Y-105129166D01*
X187237200Y-105129166D02*
X187284819Y-105033928D01*
X187284819Y-105033928D02*
X187284819Y-104795833D01*
X187284819Y-104795833D02*
X187237200Y-104700595D01*
X187237200Y-104700595D02*
X187189580Y-104652976D01*
X180454819Y-72857142D02*
X179978628Y-72523809D01*
X180454819Y-72285714D02*
X179454819Y-72285714D01*
X179454819Y-72285714D02*
X179454819Y-72666666D01*
X179454819Y-72666666D02*
X179502438Y-72761904D01*
X179502438Y-72761904D02*
X179550057Y-72809523D01*
X179550057Y-72809523D02*
X179645295Y-72857142D01*
X179645295Y-72857142D02*
X179788152Y-72857142D01*
X179788152Y-72857142D02*
X179883390Y-72809523D01*
X179883390Y-72809523D02*
X179931009Y-72761904D01*
X179931009Y-72761904D02*
X179978628Y-72666666D01*
X179978628Y-72666666D02*
X179978628Y-72285714D01*
X180454819Y-73809523D02*
X180454819Y-73238095D01*
X180454819Y-73523809D02*
X179454819Y-73523809D01*
X179454819Y-73523809D02*
X179597676Y-73428571D01*
X179597676Y-73428571D02*
X179692914Y-73333333D01*
X179692914Y-73333333D02*
X179740533Y-73238095D01*
X179454819Y-74428571D02*
X179454819Y-74523809D01*
X179454819Y-74523809D02*
X179502438Y-74619047D01*
X179502438Y-74619047D02*
X179550057Y-74666666D01*
X179550057Y-74666666D02*
X179645295Y-74714285D01*
X179645295Y-74714285D02*
X179835771Y-74761904D01*
X179835771Y-74761904D02*
X180073866Y-74761904D01*
X180073866Y-74761904D02*
X180264342Y-74714285D01*
X180264342Y-74714285D02*
X180359580Y-74666666D01*
X180359580Y-74666666D02*
X180407200Y-74619047D01*
X180407200Y-74619047D02*
X180454819Y-74523809D01*
X180454819Y-74523809D02*
X180454819Y-74428571D01*
X180454819Y-74428571D02*
X180407200Y-74333333D01*
X180407200Y-74333333D02*
X180359580Y-74285714D01*
X180359580Y-74285714D02*
X180264342Y-74238095D01*
X180264342Y-74238095D02*
X180073866Y-74190476D01*
X180073866Y-74190476D02*
X179835771Y-74190476D01*
X179835771Y-74190476D02*
X179645295Y-74238095D01*
X179645295Y-74238095D02*
X179550057Y-74285714D01*
X179550057Y-74285714D02*
X179502438Y-74333333D01*
X179502438Y-74333333D02*
X179454819Y-74428571D01*
X153392857Y-134704819D02*
X153726190Y-134228628D01*
X153964285Y-134704819D02*
X153964285Y-133704819D01*
X153964285Y-133704819D02*
X153583333Y-133704819D01*
X153583333Y-133704819D02*
X153488095Y-133752438D01*
X153488095Y-133752438D02*
X153440476Y-133800057D01*
X153440476Y-133800057D02*
X153392857Y-133895295D01*
X153392857Y-133895295D02*
X153392857Y-134038152D01*
X153392857Y-134038152D02*
X153440476Y-134133390D01*
X153440476Y-134133390D02*
X153488095Y-134181009D01*
X153488095Y-134181009D02*
X153583333Y-134228628D01*
X153583333Y-134228628D02*
X153964285Y-134228628D01*
X152440476Y-134704819D02*
X153011904Y-134704819D01*
X152726190Y-134704819D02*
X152726190Y-133704819D01*
X152726190Y-133704819D02*
X152821428Y-133847676D01*
X152821428Y-133847676D02*
X152916666Y-133942914D01*
X152916666Y-133942914D02*
X153011904Y-133990533D01*
X151869047Y-134133390D02*
X151964285Y-134085771D01*
X151964285Y-134085771D02*
X152011904Y-134038152D01*
X152011904Y-134038152D02*
X152059523Y-133942914D01*
X152059523Y-133942914D02*
X152059523Y-133895295D01*
X152059523Y-133895295D02*
X152011904Y-133800057D01*
X152011904Y-133800057D02*
X151964285Y-133752438D01*
X151964285Y-133752438D02*
X151869047Y-133704819D01*
X151869047Y-133704819D02*
X151678571Y-133704819D01*
X151678571Y-133704819D02*
X151583333Y-133752438D01*
X151583333Y-133752438D02*
X151535714Y-133800057D01*
X151535714Y-133800057D02*
X151488095Y-133895295D01*
X151488095Y-133895295D02*
X151488095Y-133942914D01*
X151488095Y-133942914D02*
X151535714Y-134038152D01*
X151535714Y-134038152D02*
X151583333Y-134085771D01*
X151583333Y-134085771D02*
X151678571Y-134133390D01*
X151678571Y-134133390D02*
X151869047Y-134133390D01*
X151869047Y-134133390D02*
X151964285Y-134181009D01*
X151964285Y-134181009D02*
X152011904Y-134228628D01*
X152011904Y-134228628D02*
X152059523Y-134323866D01*
X152059523Y-134323866D02*
X152059523Y-134514342D01*
X152059523Y-134514342D02*
X152011904Y-134609580D01*
X152011904Y-134609580D02*
X151964285Y-134657200D01*
X151964285Y-134657200D02*
X151869047Y-134704819D01*
X151869047Y-134704819D02*
X151678571Y-134704819D01*
X151678571Y-134704819D02*
X151583333Y-134657200D01*
X151583333Y-134657200D02*
X151535714Y-134609580D01*
X151535714Y-134609580D02*
X151488095Y-134514342D01*
X151488095Y-134514342D02*
X151488095Y-134323866D01*
X151488095Y-134323866D02*
X151535714Y-134228628D01*
X151535714Y-134228628D02*
X151583333Y-134181009D01*
X151583333Y-134181009D02*
X151678571Y-134133390D01*
X112691666Y-146009580D02*
X112739285Y-146057200D01*
X112739285Y-146057200D02*
X112882142Y-146104819D01*
X112882142Y-146104819D02*
X112977380Y-146104819D01*
X112977380Y-146104819D02*
X113120237Y-146057200D01*
X113120237Y-146057200D02*
X113215475Y-145961961D01*
X113215475Y-145961961D02*
X113263094Y-145866723D01*
X113263094Y-145866723D02*
X113310713Y-145676247D01*
X113310713Y-145676247D02*
X113310713Y-145533390D01*
X113310713Y-145533390D02*
X113263094Y-145342914D01*
X113263094Y-145342914D02*
X113215475Y-145247676D01*
X113215475Y-145247676D02*
X113120237Y-145152438D01*
X113120237Y-145152438D02*
X112977380Y-145104819D01*
X112977380Y-145104819D02*
X112882142Y-145104819D01*
X112882142Y-145104819D02*
X112739285Y-145152438D01*
X112739285Y-145152438D02*
X112691666Y-145200057D01*
X112215475Y-146104819D02*
X112024999Y-146104819D01*
X112024999Y-146104819D02*
X111929761Y-146057200D01*
X111929761Y-146057200D02*
X111882142Y-146009580D01*
X111882142Y-146009580D02*
X111786904Y-145866723D01*
X111786904Y-145866723D02*
X111739285Y-145676247D01*
X111739285Y-145676247D02*
X111739285Y-145295295D01*
X111739285Y-145295295D02*
X111786904Y-145200057D01*
X111786904Y-145200057D02*
X111834523Y-145152438D01*
X111834523Y-145152438D02*
X111929761Y-145104819D01*
X111929761Y-145104819D02*
X112120237Y-145104819D01*
X112120237Y-145104819D02*
X112215475Y-145152438D01*
X112215475Y-145152438D02*
X112263094Y-145200057D01*
X112263094Y-145200057D02*
X112310713Y-145295295D01*
X112310713Y-145295295D02*
X112310713Y-145533390D01*
X112310713Y-145533390D02*
X112263094Y-145628628D01*
X112263094Y-145628628D02*
X112215475Y-145676247D01*
X112215475Y-145676247D02*
X112120237Y-145723866D01*
X112120237Y-145723866D02*
X111929761Y-145723866D01*
X111929761Y-145723866D02*
X111834523Y-145676247D01*
X111834523Y-145676247D02*
X111786904Y-145628628D01*
X111786904Y-145628628D02*
X111739285Y-145533390D01*
X113332857Y-134784819D02*
X113666190Y-134308628D01*
X113904285Y-134784819D02*
X113904285Y-133784819D01*
X113904285Y-133784819D02*
X113523333Y-133784819D01*
X113523333Y-133784819D02*
X113428095Y-133832438D01*
X113428095Y-133832438D02*
X113380476Y-133880057D01*
X113380476Y-133880057D02*
X113332857Y-133975295D01*
X113332857Y-133975295D02*
X113332857Y-134118152D01*
X113332857Y-134118152D02*
X113380476Y-134213390D01*
X113380476Y-134213390D02*
X113428095Y-134261009D01*
X113428095Y-134261009D02*
X113523333Y-134308628D01*
X113523333Y-134308628D02*
X113904285Y-134308628D01*
X112951904Y-133880057D02*
X112904285Y-133832438D01*
X112904285Y-133832438D02*
X112809047Y-133784819D01*
X112809047Y-133784819D02*
X112570952Y-133784819D01*
X112570952Y-133784819D02*
X112475714Y-133832438D01*
X112475714Y-133832438D02*
X112428095Y-133880057D01*
X112428095Y-133880057D02*
X112380476Y-133975295D01*
X112380476Y-133975295D02*
X112380476Y-134070533D01*
X112380476Y-134070533D02*
X112428095Y-134213390D01*
X112428095Y-134213390D02*
X112999523Y-134784819D01*
X112999523Y-134784819D02*
X112380476Y-134784819D01*
X111761428Y-133784819D02*
X111666190Y-133784819D01*
X111666190Y-133784819D02*
X111570952Y-133832438D01*
X111570952Y-133832438D02*
X111523333Y-133880057D01*
X111523333Y-133880057D02*
X111475714Y-133975295D01*
X111475714Y-133975295D02*
X111428095Y-134165771D01*
X111428095Y-134165771D02*
X111428095Y-134403866D01*
X111428095Y-134403866D02*
X111475714Y-134594342D01*
X111475714Y-134594342D02*
X111523333Y-134689580D01*
X111523333Y-134689580D02*
X111570952Y-134737200D01*
X111570952Y-134737200D02*
X111666190Y-134784819D01*
X111666190Y-134784819D02*
X111761428Y-134784819D01*
X111761428Y-134784819D02*
X111856666Y-134737200D01*
X111856666Y-134737200D02*
X111904285Y-134689580D01*
X111904285Y-134689580D02*
X111951904Y-134594342D01*
X111951904Y-134594342D02*
X111999523Y-134403866D01*
X111999523Y-134403866D02*
X111999523Y-134165771D01*
X111999523Y-134165771D02*
X111951904Y-133975295D01*
X111951904Y-133975295D02*
X111904285Y-133880057D01*
X111904285Y-133880057D02*
X111856666Y-133832438D01*
X111856666Y-133832438D02*
X111761428Y-133784819D01*
X176009580Y-143808333D02*
X176057200Y-143760714D01*
X176057200Y-143760714D02*
X176104819Y-143617857D01*
X176104819Y-143617857D02*
X176104819Y-143522619D01*
X176104819Y-143522619D02*
X176057200Y-143379762D01*
X176057200Y-143379762D02*
X175961961Y-143284524D01*
X175961961Y-143284524D02*
X175866723Y-143236905D01*
X175866723Y-143236905D02*
X175676247Y-143189286D01*
X175676247Y-143189286D02*
X175533390Y-143189286D01*
X175533390Y-143189286D02*
X175342914Y-143236905D01*
X175342914Y-143236905D02*
X175247676Y-143284524D01*
X175247676Y-143284524D02*
X175152438Y-143379762D01*
X175152438Y-143379762D02*
X175104819Y-143522619D01*
X175104819Y-143522619D02*
X175104819Y-143617857D01*
X175104819Y-143617857D02*
X175152438Y-143760714D01*
X175152438Y-143760714D02*
X175200057Y-143808333D01*
X175104819Y-144665476D02*
X175104819Y-144475000D01*
X175104819Y-144475000D02*
X175152438Y-144379762D01*
X175152438Y-144379762D02*
X175200057Y-144332143D01*
X175200057Y-144332143D02*
X175342914Y-144236905D01*
X175342914Y-144236905D02*
X175533390Y-144189286D01*
X175533390Y-144189286D02*
X175914342Y-144189286D01*
X175914342Y-144189286D02*
X176009580Y-144236905D01*
X176009580Y-144236905D02*
X176057200Y-144284524D01*
X176057200Y-144284524D02*
X176104819Y-144379762D01*
X176104819Y-144379762D02*
X176104819Y-144570238D01*
X176104819Y-144570238D02*
X176057200Y-144665476D01*
X176057200Y-144665476D02*
X176009580Y-144713095D01*
X176009580Y-144713095D02*
X175914342Y-144760714D01*
X175914342Y-144760714D02*
X175676247Y-144760714D01*
X175676247Y-144760714D02*
X175581009Y-144713095D01*
X175581009Y-144713095D02*
X175533390Y-144665476D01*
X175533390Y-144665476D02*
X175485771Y-144570238D01*
X175485771Y-144570238D02*
X175485771Y-144379762D01*
X175485771Y-144379762D02*
X175533390Y-144284524D01*
X175533390Y-144284524D02*
X175581009Y-144236905D01*
X175581009Y-144236905D02*
X175676247Y-144189286D01*
X93105357Y-134784819D02*
X93438690Y-134308628D01*
X93676785Y-134784819D02*
X93676785Y-133784819D01*
X93676785Y-133784819D02*
X93295833Y-133784819D01*
X93295833Y-133784819D02*
X93200595Y-133832438D01*
X93200595Y-133832438D02*
X93152976Y-133880057D01*
X93152976Y-133880057D02*
X93105357Y-133975295D01*
X93105357Y-133975295D02*
X93105357Y-134118152D01*
X93105357Y-134118152D02*
X93152976Y-134213390D01*
X93152976Y-134213390D02*
X93200595Y-134261009D01*
X93200595Y-134261009D02*
X93295833Y-134308628D01*
X93295833Y-134308628D02*
X93676785Y-134308628D01*
X92724404Y-133880057D02*
X92676785Y-133832438D01*
X92676785Y-133832438D02*
X92581547Y-133784819D01*
X92581547Y-133784819D02*
X92343452Y-133784819D01*
X92343452Y-133784819D02*
X92248214Y-133832438D01*
X92248214Y-133832438D02*
X92200595Y-133880057D01*
X92200595Y-133880057D02*
X92152976Y-133975295D01*
X92152976Y-133975295D02*
X92152976Y-134070533D01*
X92152976Y-134070533D02*
X92200595Y-134213390D01*
X92200595Y-134213390D02*
X92772023Y-134784819D01*
X92772023Y-134784819D02*
X92152976Y-134784819D01*
X91200595Y-134784819D02*
X91772023Y-134784819D01*
X91486309Y-134784819D02*
X91486309Y-133784819D01*
X91486309Y-133784819D02*
X91581547Y-133927676D01*
X91581547Y-133927676D02*
X91676785Y-134022914D01*
X91676785Y-134022914D02*
X91772023Y-134070533D01*
X198624819Y-135819642D02*
X198148628Y-135486309D01*
X198624819Y-135248214D02*
X197624819Y-135248214D01*
X197624819Y-135248214D02*
X197624819Y-135629166D01*
X197624819Y-135629166D02*
X197672438Y-135724404D01*
X197672438Y-135724404D02*
X197720057Y-135772023D01*
X197720057Y-135772023D02*
X197815295Y-135819642D01*
X197815295Y-135819642D02*
X197958152Y-135819642D01*
X197958152Y-135819642D02*
X198053390Y-135772023D01*
X198053390Y-135772023D02*
X198101009Y-135724404D01*
X198101009Y-135724404D02*
X198148628Y-135629166D01*
X198148628Y-135629166D02*
X198148628Y-135248214D01*
X198624819Y-136772023D02*
X198624819Y-136200595D01*
X198624819Y-136486309D02*
X197624819Y-136486309D01*
X197624819Y-136486309D02*
X197767676Y-136391071D01*
X197767676Y-136391071D02*
X197862914Y-136295833D01*
X197862914Y-136295833D02*
X197910533Y-136200595D01*
X197624819Y-137629166D02*
X197624819Y-137438690D01*
X197624819Y-137438690D02*
X197672438Y-137343452D01*
X197672438Y-137343452D02*
X197720057Y-137295833D01*
X197720057Y-137295833D02*
X197862914Y-137200595D01*
X197862914Y-137200595D02*
X198053390Y-137152976D01*
X198053390Y-137152976D02*
X198434342Y-137152976D01*
X198434342Y-137152976D02*
X198529580Y-137200595D01*
X198529580Y-137200595D02*
X198577200Y-137248214D01*
X198577200Y-137248214D02*
X198624819Y-137343452D01*
X198624819Y-137343452D02*
X198624819Y-137533928D01*
X198624819Y-137533928D02*
X198577200Y-137629166D01*
X198577200Y-137629166D02*
X198529580Y-137676785D01*
X198529580Y-137676785D02*
X198434342Y-137724404D01*
X198434342Y-137724404D02*
X198196247Y-137724404D01*
X198196247Y-137724404D02*
X198101009Y-137676785D01*
X198101009Y-137676785D02*
X198053390Y-137629166D01*
X198053390Y-137629166D02*
X198005771Y-137533928D01*
X198005771Y-137533928D02*
X198005771Y-137343452D01*
X198005771Y-137343452D02*
X198053390Y-137248214D01*
X198053390Y-137248214D02*
X198101009Y-137200595D01*
X198101009Y-137200595D02*
X198196247Y-137152976D01*
X187284819Y-98319642D02*
X186808628Y-97986309D01*
X187284819Y-97748214D02*
X186284819Y-97748214D01*
X186284819Y-97748214D02*
X186284819Y-98129166D01*
X186284819Y-98129166D02*
X186332438Y-98224404D01*
X186332438Y-98224404D02*
X186380057Y-98272023D01*
X186380057Y-98272023D02*
X186475295Y-98319642D01*
X186475295Y-98319642D02*
X186618152Y-98319642D01*
X186618152Y-98319642D02*
X186713390Y-98272023D01*
X186713390Y-98272023D02*
X186761009Y-98224404D01*
X186761009Y-98224404D02*
X186808628Y-98129166D01*
X186808628Y-98129166D02*
X186808628Y-97748214D01*
X187284819Y-99272023D02*
X187284819Y-98700595D01*
X187284819Y-98986309D02*
X186284819Y-98986309D01*
X186284819Y-98986309D02*
X186427676Y-98891071D01*
X186427676Y-98891071D02*
X186522914Y-98795833D01*
X186522914Y-98795833D02*
X186570533Y-98700595D01*
X186618152Y-100129166D02*
X187284819Y-100129166D01*
X186237200Y-99891071D02*
X186951485Y-99652976D01*
X186951485Y-99652976D02*
X186951485Y-100272023D01*
X132836666Y-146009580D02*
X132884285Y-146057200D01*
X132884285Y-146057200D02*
X133027142Y-146104819D01*
X133027142Y-146104819D02*
X133122380Y-146104819D01*
X133122380Y-146104819D02*
X133265237Y-146057200D01*
X133265237Y-146057200D02*
X133360475Y-145961961D01*
X133360475Y-145961961D02*
X133408094Y-145866723D01*
X133408094Y-145866723D02*
X133455713Y-145676247D01*
X133455713Y-145676247D02*
X133455713Y-145533390D01*
X133455713Y-145533390D02*
X133408094Y-145342914D01*
X133408094Y-145342914D02*
X133360475Y-145247676D01*
X133360475Y-145247676D02*
X133265237Y-145152438D01*
X133265237Y-145152438D02*
X133122380Y-145104819D01*
X133122380Y-145104819D02*
X133027142Y-145104819D01*
X133027142Y-145104819D02*
X132884285Y-145152438D01*
X132884285Y-145152438D02*
X132836666Y-145200057D01*
X132265237Y-145533390D02*
X132360475Y-145485771D01*
X132360475Y-145485771D02*
X132408094Y-145438152D01*
X132408094Y-145438152D02*
X132455713Y-145342914D01*
X132455713Y-145342914D02*
X132455713Y-145295295D01*
X132455713Y-145295295D02*
X132408094Y-145200057D01*
X132408094Y-145200057D02*
X132360475Y-145152438D01*
X132360475Y-145152438D02*
X132265237Y-145104819D01*
X132265237Y-145104819D02*
X132074761Y-145104819D01*
X132074761Y-145104819D02*
X131979523Y-145152438D01*
X131979523Y-145152438D02*
X131931904Y-145200057D01*
X131931904Y-145200057D02*
X131884285Y-145295295D01*
X131884285Y-145295295D02*
X131884285Y-145342914D01*
X131884285Y-145342914D02*
X131931904Y-145438152D01*
X131931904Y-145438152D02*
X131979523Y-145485771D01*
X131979523Y-145485771D02*
X132074761Y-145533390D01*
X132074761Y-145533390D02*
X132265237Y-145533390D01*
X132265237Y-145533390D02*
X132360475Y-145581009D01*
X132360475Y-145581009D02*
X132408094Y-145628628D01*
X132408094Y-145628628D02*
X132455713Y-145723866D01*
X132455713Y-145723866D02*
X132455713Y-145914342D01*
X132455713Y-145914342D02*
X132408094Y-146009580D01*
X132408094Y-146009580D02*
X132360475Y-146057200D01*
X132360475Y-146057200D02*
X132265237Y-146104819D01*
X132265237Y-146104819D02*
X132074761Y-146104819D01*
X132074761Y-146104819D02*
X131979523Y-146057200D01*
X131979523Y-146057200D02*
X131931904Y-146009580D01*
X131931904Y-146009580D02*
X131884285Y-145914342D01*
X131884285Y-145914342D02*
X131884285Y-145723866D01*
X131884285Y-145723866D02*
X131931904Y-145628628D01*
X131931904Y-145628628D02*
X131979523Y-145581009D01*
X131979523Y-145581009D02*
X132074761Y-145533390D01*
X187284819Y-85819642D02*
X186808628Y-85486309D01*
X187284819Y-85248214D02*
X186284819Y-85248214D01*
X186284819Y-85248214D02*
X186284819Y-85629166D01*
X186284819Y-85629166D02*
X186332438Y-85724404D01*
X186332438Y-85724404D02*
X186380057Y-85772023D01*
X186380057Y-85772023D02*
X186475295Y-85819642D01*
X186475295Y-85819642D02*
X186618152Y-85819642D01*
X186618152Y-85819642D02*
X186713390Y-85772023D01*
X186713390Y-85772023D02*
X186761009Y-85724404D01*
X186761009Y-85724404D02*
X186808628Y-85629166D01*
X186808628Y-85629166D02*
X186808628Y-85248214D01*
X187284819Y-86772023D02*
X187284819Y-86200595D01*
X187284819Y-86486309D02*
X186284819Y-86486309D01*
X186284819Y-86486309D02*
X186427676Y-86391071D01*
X186427676Y-86391071D02*
X186522914Y-86295833D01*
X186522914Y-86295833D02*
X186570533Y-86200595D01*
X186380057Y-87152976D02*
X186332438Y-87200595D01*
X186332438Y-87200595D02*
X186284819Y-87295833D01*
X186284819Y-87295833D02*
X186284819Y-87533928D01*
X186284819Y-87533928D02*
X186332438Y-87629166D01*
X186332438Y-87629166D02*
X186380057Y-87676785D01*
X186380057Y-87676785D02*
X186475295Y-87724404D01*
X186475295Y-87724404D02*
X186570533Y-87724404D01*
X186570533Y-87724404D02*
X186713390Y-87676785D01*
X186713390Y-87676785D02*
X187284819Y-87105357D01*
X187284819Y-87105357D02*
X187284819Y-87724404D01*
X180454819Y-78357142D02*
X179978628Y-78023809D01*
X180454819Y-77785714D02*
X179454819Y-77785714D01*
X179454819Y-77785714D02*
X179454819Y-78166666D01*
X179454819Y-78166666D02*
X179502438Y-78261904D01*
X179502438Y-78261904D02*
X179550057Y-78309523D01*
X179550057Y-78309523D02*
X179645295Y-78357142D01*
X179645295Y-78357142D02*
X179788152Y-78357142D01*
X179788152Y-78357142D02*
X179883390Y-78309523D01*
X179883390Y-78309523D02*
X179931009Y-78261904D01*
X179931009Y-78261904D02*
X179978628Y-78166666D01*
X179978628Y-78166666D02*
X179978628Y-77785714D01*
X180454819Y-79309523D02*
X180454819Y-78738095D01*
X180454819Y-79023809D02*
X179454819Y-79023809D01*
X179454819Y-79023809D02*
X179597676Y-78928571D01*
X179597676Y-78928571D02*
X179692914Y-78833333D01*
X179692914Y-78833333D02*
X179740533Y-78738095D01*
X180454819Y-80261904D02*
X180454819Y-79690476D01*
X180454819Y-79976190D02*
X179454819Y-79976190D01*
X179454819Y-79976190D02*
X179597676Y-79880952D01*
X179597676Y-79880952D02*
X179692914Y-79785714D01*
X179692914Y-79785714D02*
X179740533Y-79690476D01*
X93117857Y-146009580D02*
X93165476Y-146057200D01*
X93165476Y-146057200D02*
X93308333Y-146104819D01*
X93308333Y-146104819D02*
X93403571Y-146104819D01*
X93403571Y-146104819D02*
X93546428Y-146057200D01*
X93546428Y-146057200D02*
X93641666Y-145961961D01*
X93641666Y-145961961D02*
X93689285Y-145866723D01*
X93689285Y-145866723D02*
X93736904Y-145676247D01*
X93736904Y-145676247D02*
X93736904Y-145533390D01*
X93736904Y-145533390D02*
X93689285Y-145342914D01*
X93689285Y-145342914D02*
X93641666Y-145247676D01*
X93641666Y-145247676D02*
X93546428Y-145152438D01*
X93546428Y-145152438D02*
X93403571Y-145104819D01*
X93403571Y-145104819D02*
X93308333Y-145104819D01*
X93308333Y-145104819D02*
X93165476Y-145152438D01*
X93165476Y-145152438D02*
X93117857Y-145200057D01*
X92165476Y-146104819D02*
X92736904Y-146104819D01*
X92451190Y-146104819D02*
X92451190Y-145104819D01*
X92451190Y-145104819D02*
X92546428Y-145247676D01*
X92546428Y-145247676D02*
X92641666Y-145342914D01*
X92641666Y-145342914D02*
X92736904Y-145390533D01*
X91546428Y-145104819D02*
X91451190Y-145104819D01*
X91451190Y-145104819D02*
X91355952Y-145152438D01*
X91355952Y-145152438D02*
X91308333Y-145200057D01*
X91308333Y-145200057D02*
X91260714Y-145295295D01*
X91260714Y-145295295D02*
X91213095Y-145485771D01*
X91213095Y-145485771D02*
X91213095Y-145723866D01*
X91213095Y-145723866D02*
X91260714Y-145914342D01*
X91260714Y-145914342D02*
X91308333Y-146009580D01*
X91308333Y-146009580D02*
X91355952Y-146057200D01*
X91355952Y-146057200D02*
X91451190Y-146104819D01*
X91451190Y-146104819D02*
X91546428Y-146104819D01*
X91546428Y-146104819D02*
X91641666Y-146057200D01*
X91641666Y-146057200D02*
X91689285Y-146009580D01*
X91689285Y-146009580D02*
X91736904Y-145914342D01*
X91736904Y-145914342D02*
X91784523Y-145723866D01*
X91784523Y-145723866D02*
X91784523Y-145485771D01*
X91784523Y-145485771D02*
X91736904Y-145295295D01*
X91736904Y-145295295D02*
X91689285Y-145200057D01*
X91689285Y-145200057D02*
X91641666Y-145152438D01*
X91641666Y-145152438D02*
X91546428Y-145104819D01*
X187454819Y-90819642D02*
X186978628Y-90486309D01*
X187454819Y-90248214D02*
X186454819Y-90248214D01*
X186454819Y-90248214D02*
X186454819Y-90629166D01*
X186454819Y-90629166D02*
X186502438Y-90724404D01*
X186502438Y-90724404D02*
X186550057Y-90772023D01*
X186550057Y-90772023D02*
X186645295Y-90819642D01*
X186645295Y-90819642D02*
X186788152Y-90819642D01*
X186788152Y-90819642D02*
X186883390Y-90772023D01*
X186883390Y-90772023D02*
X186931009Y-90724404D01*
X186931009Y-90724404D02*
X186978628Y-90629166D01*
X186978628Y-90629166D02*
X186978628Y-90248214D01*
X187454819Y-91772023D02*
X187454819Y-91200595D01*
X187454819Y-91486309D02*
X186454819Y-91486309D01*
X186454819Y-91486309D02*
X186597676Y-91391071D01*
X186597676Y-91391071D02*
X186692914Y-91295833D01*
X186692914Y-91295833D02*
X186740533Y-91200595D01*
X186454819Y-92105357D02*
X186454819Y-92724404D01*
X186454819Y-92724404D02*
X186835771Y-92391071D01*
X186835771Y-92391071D02*
X186835771Y-92533928D01*
X186835771Y-92533928D02*
X186883390Y-92629166D01*
X186883390Y-92629166D02*
X186931009Y-92676785D01*
X186931009Y-92676785D02*
X187026247Y-92724404D01*
X187026247Y-92724404D02*
X187264342Y-92724404D01*
X187264342Y-92724404D02*
X187359580Y-92676785D01*
X187359580Y-92676785D02*
X187407200Y-92629166D01*
X187407200Y-92629166D02*
X187454819Y-92533928D01*
X187454819Y-92533928D02*
X187454819Y-92248214D01*
X187454819Y-92248214D02*
X187407200Y-92152976D01*
X187407200Y-92152976D02*
X187359580Y-92105357D01*
X133332857Y-134704819D02*
X133666190Y-134228628D01*
X133904285Y-134704819D02*
X133904285Y-133704819D01*
X133904285Y-133704819D02*
X133523333Y-133704819D01*
X133523333Y-133704819D02*
X133428095Y-133752438D01*
X133428095Y-133752438D02*
X133380476Y-133800057D01*
X133380476Y-133800057D02*
X133332857Y-133895295D01*
X133332857Y-133895295D02*
X133332857Y-134038152D01*
X133332857Y-134038152D02*
X133380476Y-134133390D01*
X133380476Y-134133390D02*
X133428095Y-134181009D01*
X133428095Y-134181009D02*
X133523333Y-134228628D01*
X133523333Y-134228628D02*
X133904285Y-134228628D01*
X132380476Y-134704819D02*
X132951904Y-134704819D01*
X132666190Y-134704819D02*
X132666190Y-133704819D01*
X132666190Y-133704819D02*
X132761428Y-133847676D01*
X132761428Y-133847676D02*
X132856666Y-133942914D01*
X132856666Y-133942914D02*
X132951904Y-133990533D01*
X131904285Y-134704819D02*
X131713809Y-134704819D01*
X131713809Y-134704819D02*
X131618571Y-134657200D01*
X131618571Y-134657200D02*
X131570952Y-134609580D01*
X131570952Y-134609580D02*
X131475714Y-134466723D01*
X131475714Y-134466723D02*
X131428095Y-134276247D01*
X131428095Y-134276247D02*
X131428095Y-133895295D01*
X131428095Y-133895295D02*
X131475714Y-133800057D01*
X131475714Y-133800057D02*
X131523333Y-133752438D01*
X131523333Y-133752438D02*
X131618571Y-133704819D01*
X131618571Y-133704819D02*
X131809047Y-133704819D01*
X131809047Y-133704819D02*
X131904285Y-133752438D01*
X131904285Y-133752438D02*
X131951904Y-133800057D01*
X131951904Y-133800057D02*
X131999523Y-133895295D01*
X131999523Y-133895295D02*
X131999523Y-134133390D01*
X131999523Y-134133390D02*
X131951904Y-134228628D01*
X131951904Y-134228628D02*
X131904285Y-134276247D01*
X131904285Y-134276247D02*
X131809047Y-134323866D01*
X131809047Y-134323866D02*
X131618571Y-134323866D01*
X131618571Y-134323866D02*
X131523333Y-134276247D01*
X131523333Y-134276247D02*
X131475714Y-134228628D01*
X131475714Y-134228628D02*
X131428095Y-134133390D01*
X198509580Y-143808333D02*
X198557200Y-143760714D01*
X198557200Y-143760714D02*
X198604819Y-143617857D01*
X198604819Y-143617857D02*
X198604819Y-143522619D01*
X198604819Y-143522619D02*
X198557200Y-143379762D01*
X198557200Y-143379762D02*
X198461961Y-143284524D01*
X198461961Y-143284524D02*
X198366723Y-143236905D01*
X198366723Y-143236905D02*
X198176247Y-143189286D01*
X198176247Y-143189286D02*
X198033390Y-143189286D01*
X198033390Y-143189286D02*
X197842914Y-143236905D01*
X197842914Y-143236905D02*
X197747676Y-143284524D01*
X197747676Y-143284524D02*
X197652438Y-143379762D01*
X197652438Y-143379762D02*
X197604819Y-143522619D01*
X197604819Y-143522619D02*
X197604819Y-143617857D01*
X197604819Y-143617857D02*
X197652438Y-143760714D01*
X197652438Y-143760714D02*
X197700057Y-143808333D01*
X197604819Y-144713095D02*
X197604819Y-144236905D01*
X197604819Y-144236905D02*
X198081009Y-144189286D01*
X198081009Y-144189286D02*
X198033390Y-144236905D01*
X198033390Y-144236905D02*
X197985771Y-144332143D01*
X197985771Y-144332143D02*
X197985771Y-144570238D01*
X197985771Y-144570238D02*
X198033390Y-144665476D01*
X198033390Y-144665476D02*
X198081009Y-144713095D01*
X198081009Y-144713095D02*
X198176247Y-144760714D01*
X198176247Y-144760714D02*
X198414342Y-144760714D01*
X198414342Y-144760714D02*
X198509580Y-144713095D01*
X198509580Y-144713095D02*
X198557200Y-144665476D01*
X198557200Y-144665476D02*
X198604819Y-144570238D01*
X198604819Y-144570238D02*
X198604819Y-144332143D01*
X198604819Y-144332143D02*
X198557200Y-144236905D01*
X198557200Y-144236905D02*
X198509580Y-144189286D01*
X176124819Y-135394642D02*
X175648628Y-135061309D01*
X176124819Y-134823214D02*
X175124819Y-134823214D01*
X175124819Y-134823214D02*
X175124819Y-135204166D01*
X175124819Y-135204166D02*
X175172438Y-135299404D01*
X175172438Y-135299404D02*
X175220057Y-135347023D01*
X175220057Y-135347023D02*
X175315295Y-135394642D01*
X175315295Y-135394642D02*
X175458152Y-135394642D01*
X175458152Y-135394642D02*
X175553390Y-135347023D01*
X175553390Y-135347023D02*
X175601009Y-135299404D01*
X175601009Y-135299404D02*
X175648628Y-135204166D01*
X175648628Y-135204166D02*
X175648628Y-134823214D01*
X176124819Y-136347023D02*
X176124819Y-135775595D01*
X176124819Y-136061309D02*
X175124819Y-136061309D01*
X175124819Y-136061309D02*
X175267676Y-135966071D01*
X175267676Y-135966071D02*
X175362914Y-135870833D01*
X175362914Y-135870833D02*
X175410533Y-135775595D01*
X175124819Y-136680357D02*
X175124819Y-137347023D01*
X175124819Y-137347023D02*
X176124819Y-136918452D01*
X153244166Y-146099580D02*
X153291785Y-146147200D01*
X153291785Y-146147200D02*
X153434642Y-146194819D01*
X153434642Y-146194819D02*
X153529880Y-146194819D01*
X153529880Y-146194819D02*
X153672737Y-146147200D01*
X153672737Y-146147200D02*
X153767975Y-146051961D01*
X153767975Y-146051961D02*
X153815594Y-145956723D01*
X153815594Y-145956723D02*
X153863213Y-145766247D01*
X153863213Y-145766247D02*
X153863213Y-145623390D01*
X153863213Y-145623390D02*
X153815594Y-145432914D01*
X153815594Y-145432914D02*
X153767975Y-145337676D01*
X153767975Y-145337676D02*
X153672737Y-145242438D01*
X153672737Y-145242438D02*
X153529880Y-145194819D01*
X153529880Y-145194819D02*
X153434642Y-145194819D01*
X153434642Y-145194819D02*
X153291785Y-145242438D01*
X153291785Y-145242438D02*
X153244166Y-145290057D01*
X152910832Y-145194819D02*
X152244166Y-145194819D01*
X152244166Y-145194819D02*
X152672737Y-146194819D01*
D11*
%TO.C,R15*%
X184090000Y-104689564D02*
X184090000Y-103235436D01*
X185910000Y-104689564D02*
X185910000Y-103235436D01*
%TO.C,R10*%
X177090000Y-72810436D02*
X177090000Y-74264564D01*
X178910000Y-72810436D02*
X178910000Y-74264564D01*
%TO.C,R18*%
X153417064Y-131590000D02*
X151962936Y-131590000D01*
X153417064Y-133410000D02*
X151962936Y-133410000D01*
%TO.C,C9*%
X113236252Y-146590000D02*
X111813748Y-146590000D01*
X113236252Y-148410000D02*
X111813748Y-148410000D01*
%TO.C,R20*%
X111962936Y-131590000D02*
X113417064Y-131590000D01*
X111962936Y-133410000D02*
X113417064Y-133410000D01*
%TO.C,C6*%
X176590000Y-143263748D02*
X176590000Y-144686252D01*
X178410000Y-143263748D02*
X178410000Y-144686252D01*
%TO.C,R21*%
X91735436Y-131590000D02*
X93189564Y-131590000D01*
X91735436Y-133410000D02*
X93189564Y-133410000D01*
%TO.C,R16*%
X199090000Y-135735436D02*
X199090000Y-137189564D01*
X200910000Y-135735436D02*
X200910000Y-137189564D01*
%TO.C,R14*%
X184090000Y-99689564D02*
X184090000Y-98235436D01*
X185910000Y-99689564D02*
X185910000Y-98235436D01*
%TO.C,C8*%
X133381252Y-146590000D02*
X131958748Y-146590000D01*
X133381252Y-148410000D02*
X131958748Y-148410000D01*
%TO.C,R12*%
X184090000Y-87189564D02*
X184090000Y-85735436D01*
X185910000Y-87189564D02*
X185910000Y-85735436D01*
%TO.C,R11*%
X177090000Y-79689564D02*
X177090000Y-78235436D01*
X178910000Y-79689564D02*
X178910000Y-78235436D01*
%TO.C,C10*%
X93186252Y-146590000D02*
X91763748Y-146590000D01*
X93186252Y-148410000D02*
X91763748Y-148410000D01*
%TO.C,R13*%
X184090000Y-90735436D02*
X184090000Y-92189564D01*
X185910000Y-90735436D02*
X185910000Y-92189564D01*
%TO.C,R19*%
X133417064Y-131590000D02*
X131962936Y-131590000D01*
X133417064Y-133410000D02*
X131962936Y-133410000D01*
%TO.C,C5*%
X199090000Y-143263748D02*
X199090000Y-144686252D01*
X200910000Y-143263748D02*
X200910000Y-144686252D01*
%TO.C,R17*%
X176590000Y-135310436D02*
X176590000Y-136764564D01*
X178410000Y-135310436D02*
X178410000Y-136764564D01*
%TO.C,C7*%
X153381252Y-146590000D02*
X151958748Y-146590000D01*
X153381252Y-148410000D02*
X151958748Y-148410000D01*
%TD*%
M02*
