M48
; DRILL file {KiCad 9.0.4} date 2025-10-29T20:46:02+0100
; FORMAT={-:-/ absolute / metric / decimal}
; #@! TF.CreationDate,2025-10-29T20:46:02+01:00
; #@! TF.GenerationSoftware,Kicad,Pcbnew,9.0.4
; #@! TF.FileFunction,Plated,1,2,PTH
FMAT,2
METRIC
; #@! TA.AperFunction,Plated,PTH,ViaDrill
T1C0.300
; #@! TA.AperFunction,Plated,PTH,ComponentDrill
T2C0.500
; #@! TA.AperFunction,Plated,PTH,ComponentDrill
T3C0.760
; #@! TA.AperFunction,Plated,PTH,ComponentDrill
T4C0.800
; #@! TA.AperFunction,Plated,PTH,ComponentDrill
T5C1.000
; #@! TA.AperFunction,Plated,PTH,ComponentDrill
T6C1.016
; #@! TA.AperFunction,Plated,PTH,ComponentDrill
T7C1.020
; #@! TA.AperFunction,Plated,PTH,ComponentDrill
T8C1.100
; #@! TA.AperFunction,Plated,PTH,ComponentDrill
T9C1.300
; #@! TA.AperFunction,Plated,PTH,ComponentDrill
T10C3.200
%
G90
G05
T1
X118.0Y-132.5
X129.5Y-132.5
X133.5Y-85.5
X149.5Y-132.5
X154.15Y-132.6
X191.075Y-58.2
X192.0Y-68.5
X201.6Y-51.0
X390.5Y-37.0
X394.5Y-13.0
X397.5Y-21.5
T2
X52.6Y-40.0
X52.6Y-145.0
X53.303Y-38.303
X53.303Y-41.697
X53.303Y-143.303
X53.303Y-146.697
X55.0Y-37.6
X55.0Y-42.4
X55.0Y-142.6
X55.0Y-147.4
X56.697Y-38.303
X56.697Y-41.697
X56.697Y-143.303
X56.697Y-146.697
X57.4Y-40.0
X57.4Y-145.0
X217.572Y-144.972
X217.6Y-40.0
X218.275Y-143.275
X218.275Y-146.669
X218.303Y-38.303
X218.303Y-41.697
X219.972Y-142.572
X219.972Y-147.372
X220.0Y-37.6
X220.0Y-42.4
X221.669Y-143.275
X221.669Y-146.669
X221.697Y-38.303
X221.697Y-41.697
X222.372Y-144.972
X222.4Y-40.0
T3
X60.1Y-83.218
X60.1Y-85.757
X60.1Y-88.297
X60.1Y-90.837
X60.1Y-100.557
X60.1Y-103.097
X60.1Y-105.637
X60.1Y-108.177
X60.1Y-118.815
X60.1Y-121.355
X60.1Y-123.895
X60.1Y-126.435
X62.64Y-84.487
X62.64Y-87.027
X62.64Y-89.567
X62.64Y-92.108
X62.64Y-101.828
X62.64Y-104.367
X62.64Y-106.907
X62.64Y-109.447
X62.64Y-120.085
X62.64Y-122.625
X62.64Y-125.165
X62.64Y-127.705
T4
X186.65Y-54.0
X189.15Y-54.0
X192.85Y-54.0
X195.35Y-54.0
X205.0Y-55.95
X205.0Y-58.45
T5
X70.0Y-72.37
X70.0Y-74.91
X70.0Y-77.45
X70.0Y-79.99
X77.38Y-50.0
X85.0Y-50.0
X92.22Y-57.5
X95.16Y-50.0
X97.7Y-50.0
X99.84Y-57.5
X107.5Y-50.0
X110.0Y-57.5
X112.54Y-57.5
X115.12Y-50.0
X122.22Y-57.5
X125.28Y-50.0
X127.82Y-50.0
X129.84Y-57.5
X137.105Y-50.0
X140.0Y-57.5
X142.54Y-57.5
X144.725Y-50.0
X154.885Y-50.0
X157.425Y-50.0
T6
X115.34Y-77.5
X117.88Y-77.5
X120.42Y-77.5
X122.96Y-77.5
X125.5Y-77.5
X148.0Y-104.84
X148.0Y-115.0
X150.54Y-104.84
X150.54Y-115.0
X153.08Y-104.84
X153.08Y-115.0
X155.62Y-104.84
X155.62Y-115.0
X158.16Y-104.84
X158.16Y-115.0
X160.7Y-104.84
X160.7Y-115.0
X183.0Y-67.34
X183.0Y-69.88
X183.0Y-72.42
X183.0Y-74.96
X183.0Y-77.5
X183.0Y-80.04
X193.16Y-67.34
X193.16Y-69.88
X193.16Y-72.42
X193.16Y-74.96
X193.16Y-77.5
X193.16Y-80.04
T7
X175.0Y-67.5
X175.0Y-70.04
X175.0Y-72.58
X175.0Y-75.12
X175.0Y-77.66
X175.0Y-80.2
X175.0Y-82.74
X175.0Y-85.28
X175.0Y-87.82
X175.0Y-90.36
X175.0Y-92.9
X175.0Y-95.44
X175.0Y-97.98
X175.0Y-100.52
X175.0Y-103.06
X175.0Y-105.6
X175.0Y-108.14
X175.0Y-110.68
X175.0Y-113.22
X200.4Y-67.5
X200.4Y-70.04
X200.4Y-72.58
X200.4Y-75.12
X200.4Y-77.66
X200.4Y-80.2
X200.4Y-82.74
X200.4Y-85.28
X200.4Y-87.82
X200.4Y-90.36
X200.4Y-92.9
X200.4Y-95.44
X200.4Y-97.98
X200.4Y-100.52
X200.4Y-103.06
X200.4Y-105.6
X200.4Y-108.14
X200.4Y-110.68
X200.4Y-113.22
T8
X90.25Y-137.25
X90.25Y-143.75
X94.75Y-137.25
X94.75Y-143.75
X110.417Y-137.25
X110.417Y-143.75
X114.917Y-137.25
X114.917Y-143.75
X130.583Y-137.25
X130.583Y-143.75
X135.083Y-137.25
X135.083Y-143.75
X150.75Y-137.25
X150.75Y-143.75
X155.25Y-137.25
X155.25Y-143.75
X187.4Y-136.702
X187.4Y-141.403
X187.4Y-146.102
X207.4Y-136.702
X207.4Y-141.403
X207.4Y-146.102
T9
X82.4Y-40.0
X87.4Y-40.0
X98.65Y-40.0
X103.65Y-40.0
X115.0Y-40.0
X120.0Y-40.0
X131.15Y-40.0
X136.15Y-40.0
X147.4Y-39.968
X152.4Y-39.968
X220.0Y-55.0
X220.0Y-60.0
X220.0Y-70.0
X220.0Y-75.0
T10
X55.0Y-40.0
X55.0Y-145.0
X219.972Y-144.972
X220.0Y-40.0
T5
G00X63.35Y-42.0
M15
G01X63.35Y-39.8
M16
G05
G00X69.25Y-37.5
M15
G01X67.05Y-37.5
M16
G05
G00X69.45Y-43.8
M15
G01X66.85Y-43.8
M16
G05
M30
